*
%FSLAX26Y26*%
%MOIN*%
%ADD10C,0.035433*%
%ADD11C,0.082677*%
%ADD12C,0.098425*%
%IPPOS*%
%LNnpth.gbr*%
%LPD*%
G75*
G54D10*
X02366151Y00970861D03*
Y01288971D03*
G54D11*
X01782291Y00519881D03*
G54D12*
X01682291Y01566731D03*
G54D10*
X02366151Y02348814D03*
Y02666924D03*
G54D11*
X01782291Y01897834D03*
G54D12*
X01682291Y02944684D03*
G54D10*
X02366151Y03726766D03*
Y04044876D03*
G54D11*
X01782291Y03275786D03*
G54D12*
X01682291Y04322636D03*
G54D10*
X02366151Y05104719D03*
Y05422829D03*
G54D11*
X01782291Y04653739D03*
G54D12*
X01682291Y05700589D03*
G54D10*
X02366151Y06482672D03*
Y06800782D03*
G54D11*
X01782291Y06031692D03*
G54D12*
X01682291Y07078542D03*
G54D10*
X05909458Y00970861D03*
Y01288971D03*
G54D11*
X05325598Y00519881D03*
G54D12*
X05225598Y01566731D03*
G54D10*
X05909458Y02348814D03*
Y02666924D03*
G54D11*
X05325598Y01897834D03*
G54D12*
X05225598Y02944684D03*
G54D10*
X05909458Y03726766D03*
Y04044876D03*
G54D11*
X05325598Y03275786D03*
G54D12*
X05225598Y04322636D03*
G54D10*
X05909458Y05104719D03*
Y05422829D03*
G54D11*
X05325598Y04653739D03*
G54D12*
X05225598Y05700589D03*
G54D10*
X05909458Y06482672D03*
Y06800782D03*
G54D11*
X05325598Y06031692D03*
G54D12*
X05225598Y07078542D03*
M02*
