*
%FSLAX26Y26*%
%MOIN*%
%ADD10R,0.062990X0.015750*%
%ADD11R,0.061020X0.023620*%
%ADD12R,0.019690X0.009840*%
%ADD13R,0.035430X0.062990*%
%ADD14R,0.023620X0.061020*%
%ADD15R,0.055120X0.039370*%
%ADD16R,0.028000X0.024000*%
%ADD17R,0.039370X0.031500*%
%ADD18R,0.024000X0.028000*%
%ADD19R,0.106300X0.039370*%
%ADD20R,0.051180X0.062990*%
%ADD21R,0.062990X0.051180*%
%ADD22R,0.098430X0.100390*%
%ADD23R,0.011020X0.029530*%
%ADD24R,0.039370X0.035430*%
%ADD25R,0.031500X0.039370*%
%ADD26R,0.059060X0.039370*%
%ADD27C,0.039370*%
%IPPOS*%
%LNpastetop.gbr*%
%LPD*%
G75*
G54D10*
X02251971Y01017421D03*
X02393701D03*
X02251971Y01042421D03*
X02393701D03*
X02251971Y01067421D03*
X02393701D03*
X02251971Y01092421D03*
X02393701D03*
X02251971Y01117421D03*
X02393701D03*
X02251971Y01142421D03*
X02393701D03*
X02251971Y01167421D03*
X02393701D03*
X02251971Y01192421D03*
X02393701D03*
X02251971Y01217421D03*
X02393701D03*
X02251971Y01242421D03*
X02393701D03*
G54D11*
X00851441Y01552951D03*
Y01502951D03*
Y01452951D03*
Y01402951D03*
Y01352951D03*
Y01302951D03*
Y01252951D03*
Y01202951D03*
X01065891D03*
Y01252951D03*
Y01302951D03*
Y01352951D03*
Y01402951D03*
Y01452951D03*
Y01502951D03*
X01066931Y01552951D03*
X01263781Y01546251D03*
Y01496251D03*
Y01446251D03*
Y01396251D03*
Y01346251D03*
Y01296251D03*
Y01246251D03*
X01476381D03*
Y01296251D03*
Y01346251D03*
Y01396251D03*
Y01446251D03*
Y01496251D03*
Y01546251D03*
G54D12*
X01305121Y00753931D03*
Y00734251D03*
X01230321Y00753931D03*
Y00694881D03*
X01305121D03*
X01230321Y00714561D03*
X01305121D03*
X01230321Y00734251D03*
G54D13*
X01267721Y00724401D03*
G54D14*
X00545481Y00733331D03*
X00595481D03*
X00645481D03*
X00695481D03*
X00745481D03*
X00795481D03*
X00845481D03*
X00895481D03*
Y00947771D03*
X00845481D03*
X00795481D03*
X00745481D03*
X00695481D03*
X00645481D03*
X00595481D03*
X00545481Y00948811D03*
G54D15*
X02098431Y01031491D03*
X02011811Y00994091D03*
Y01068891D03*
G54D16*
X00745081Y01347241D03*
Y01306291D03*
X01137801Y01203931D03*
Y01244881D03*
X00637801Y00559841D03*
Y00518891D03*
X00559061Y00559841D03*
Y00518891D03*
X00598431Y00559841D03*
Y00518891D03*
X00905521Y00559841D03*
Y00518891D03*
X00748041Y00559841D03*
Y00518891D03*
X00826781Y00559841D03*
Y00518891D03*
X00866151Y00559841D03*
Y00518891D03*
X01129931Y01550391D03*
Y01591331D03*
X01539371Y01546451D03*
Y01587401D03*
X00944891Y00559841D03*
Y00518891D03*
X00787411Y00559841D03*
Y00518891D03*
X00708671Y00559841D03*
Y00518891D03*
G54D17*
X00744101Y01207721D03*
Y01248971D03*
G54D18*
X01953551Y01068891D03*
X01912601D03*
G54D19*
X01133861Y00767711D03*
Y00681101D03*
G54D20*
X01114181Y00828741D03*
X01035441D03*
G54D21*
X01409451Y00740151D03*
Y00661411D03*
G54D22*
X01503941Y00766731D03*
Y00965551D03*
G54D23*
X01240161Y00899601D03*
X01259851D03*
X01220481D03*
X01240161Y00856291D03*
X01259851D03*
X01220481D03*
G54D24*
X01303151Y00842511D03*
Y00905511D03*
X01177171Y00842511D03*
Y00905511D03*
G54D25*
X02111271Y00933071D03*
X02152521D03*
X02146611Y01169291D03*
X02105361D03*
G54D26*
X03779531Y01181101D03*
Y01102361D03*
G54D10*
X02251971Y02395374D03*
X02393701D03*
X02251971Y02420374D03*
X02393701D03*
X02251971Y02445374D03*
X02393701D03*
X02251971Y02470374D03*
X02393701D03*
X02251971Y02495374D03*
X02393701D03*
X02251971Y02520374D03*
X02393701D03*
X02251971Y02545374D03*
X02393701D03*
X02251971Y02570374D03*
X02393701D03*
X02251971Y02595374D03*
X02393701D03*
X02251971Y02620374D03*
X02393701D03*
G54D11*
X00851441Y02930904D03*
Y02880904D03*
Y02830904D03*
Y02780904D03*
Y02730904D03*
Y02680904D03*
Y02630904D03*
Y02580904D03*
X01065891D03*
Y02630904D03*
Y02680904D03*
Y02730904D03*
Y02780904D03*
Y02830904D03*
Y02880904D03*
X01066931Y02930904D03*
X01263781Y02924204D03*
Y02874204D03*
Y02824204D03*
Y02774204D03*
Y02724204D03*
Y02674204D03*
Y02624204D03*
X01476381D03*
Y02674204D03*
Y02724204D03*
Y02774204D03*
Y02824204D03*
Y02874204D03*
Y02924204D03*
G54D12*
X01305121Y02131884D03*
Y02112204D03*
X01230321Y02131884D03*
Y02072834D03*
X01305121D03*
X01230321Y02092514D03*
X01305121D03*
X01230321Y02112204D03*
G54D13*
X01267721Y02102354D03*
G54D14*
X00545481Y02111284D03*
X00595481D03*
X00645481D03*
X00695481D03*
X00745481D03*
X00795481D03*
X00845481D03*
X00895481D03*
Y02325724D03*
X00845481D03*
X00795481D03*
X00745481D03*
X00695481D03*
X00645481D03*
X00595481D03*
X00545481Y02326764D03*
G54D15*
X02098431Y02409444D03*
X02011811Y02372044D03*
Y02446844D03*
G54D16*
X00745081Y02725194D03*
Y02684244D03*
X01137801Y02581884D03*
Y02622834D03*
X00637801Y01937794D03*
Y01896844D03*
X00559061Y01937794D03*
Y01896844D03*
X00598431Y01937794D03*
Y01896844D03*
X00905521Y01937794D03*
Y01896844D03*
X00748041Y01937794D03*
Y01896844D03*
X00826781Y01937794D03*
Y01896844D03*
X00866151Y01937794D03*
Y01896844D03*
X01129931Y02928344D03*
Y02969284D03*
X01539371Y02924404D03*
Y02965354D03*
X00944891Y01937794D03*
Y01896844D03*
X00787411Y01937794D03*
Y01896844D03*
X00708671Y01937794D03*
Y01896844D03*
G54D17*
X00744101Y02585674D03*
Y02626924D03*
G54D18*
X01953551Y02446844D03*
X01912601D03*
G54D19*
X01133861Y02145664D03*
Y02059054D03*
G54D20*
X01114181Y02206694D03*
X01035441D03*
G54D21*
X01409451Y02118104D03*
Y02039364D03*
G54D22*
X01503941Y02144684D03*
Y02343504D03*
G54D23*
X01240161Y02277554D03*
X01259851D03*
X01220481D03*
X01240161Y02234244D03*
X01259851D03*
X01220481D03*
G54D24*
X01303151Y02220464D03*
Y02283464D03*
X01177171Y02220464D03*
Y02283464D03*
G54D25*
X02111271Y02311024D03*
X02152521D03*
X02146611Y02547244D03*
X02105361D03*
G54D26*
X03779531Y02559054D03*
Y02480314D03*
G54D10*
X02251971Y03773326D03*
X02393701D03*
X02251971Y03798326D03*
X02393701D03*
X02251971Y03823326D03*
X02393701D03*
X02251971Y03848326D03*
X02393701D03*
X02251971Y03873326D03*
X02393701D03*
X02251971Y03898326D03*
X02393701D03*
X02251971Y03923326D03*
X02393701D03*
X02251971Y03948326D03*
X02393701D03*
X02251971Y03973326D03*
X02393701D03*
X02251971Y03998326D03*
X02393701D03*
G54D11*
X00851441Y04308856D03*
Y04258856D03*
Y04208856D03*
Y04158856D03*
Y04108856D03*
Y04058856D03*
Y04008856D03*
Y03958856D03*
X01065891D03*
Y04008856D03*
Y04058856D03*
Y04108856D03*
Y04158856D03*
Y04208856D03*
Y04258856D03*
X01066931Y04308856D03*
X01263781Y04302156D03*
Y04252156D03*
Y04202156D03*
Y04152156D03*
Y04102156D03*
Y04052156D03*
Y04002156D03*
X01476381D03*
Y04052156D03*
Y04102156D03*
Y04152156D03*
Y04202156D03*
Y04252156D03*
Y04302156D03*
G54D12*
X01305121Y03509836D03*
Y03490156D03*
X01230321Y03509836D03*
Y03450786D03*
X01305121D03*
X01230321Y03470466D03*
X01305121D03*
X01230321Y03490156D03*
G54D13*
X01267721Y03480306D03*
G54D14*
X00545481Y03489236D03*
X00595481D03*
X00645481D03*
X00695481D03*
X00745481D03*
X00795481D03*
X00845481D03*
X00895481D03*
Y03703676D03*
X00845481D03*
X00795481D03*
X00745481D03*
X00695481D03*
X00645481D03*
X00595481D03*
X00545481Y03704716D03*
G54D15*
X02098431Y03787396D03*
X02011811Y03749996D03*
Y03824796D03*
G54D16*
X00745081Y04103146D03*
Y04062196D03*
X01137801Y03959836D03*
Y04000786D03*
X00637801Y03315746D03*
Y03274796D03*
X00559061Y03315746D03*
Y03274796D03*
X00598431Y03315746D03*
Y03274796D03*
X00905521Y03315746D03*
Y03274796D03*
X00748041Y03315746D03*
Y03274796D03*
X00826781Y03315746D03*
Y03274796D03*
X00866151Y03315746D03*
Y03274796D03*
X01129931Y04306296D03*
Y04347236D03*
X01539371Y04302356D03*
Y04343306D03*
X00944891Y03315746D03*
Y03274796D03*
X00787411Y03315746D03*
Y03274796D03*
X00708671Y03315746D03*
Y03274796D03*
G54D17*
X00744101Y03963626D03*
Y04004876D03*
G54D18*
X01953551Y03824796D03*
X01912601D03*
G54D19*
X01133861Y03523616D03*
Y03437006D03*
G54D20*
X01114181Y03584646D03*
X01035441D03*
G54D21*
X01409451Y03496056D03*
Y03417316D03*
G54D22*
X01503941Y03522636D03*
Y03721456D03*
G54D23*
X01240161Y03655506D03*
X01259851D03*
X01220481D03*
X01240161Y03612196D03*
X01259851D03*
X01220481D03*
G54D24*
X01303151Y03598416D03*
Y03661416D03*
X01177171Y03598416D03*
Y03661416D03*
G54D25*
X02111271Y03688976D03*
X02152521D03*
X02146611Y03925196D03*
X02105361D03*
G54D26*
X03779531Y03937006D03*
Y03858266D03*
G54D10*
X02251971Y05151279D03*
X02393701D03*
X02251971Y05176279D03*
X02393701D03*
X02251971Y05201279D03*
X02393701D03*
X02251971Y05226279D03*
X02393701D03*
X02251971Y05251279D03*
X02393701D03*
X02251971Y05276279D03*
X02393701D03*
X02251971Y05301279D03*
X02393701D03*
X02251971Y05326279D03*
X02393701D03*
X02251971Y05351279D03*
X02393701D03*
X02251971Y05376279D03*
X02393701D03*
G54D11*
X00851441Y05686809D03*
Y05636809D03*
Y05586809D03*
Y05536809D03*
Y05486809D03*
Y05436809D03*
Y05386809D03*
Y05336809D03*
X01065891D03*
Y05386809D03*
Y05436809D03*
Y05486809D03*
Y05536809D03*
Y05586809D03*
Y05636809D03*
X01066931Y05686809D03*
X01263781Y05680109D03*
Y05630109D03*
Y05580109D03*
Y05530109D03*
Y05480109D03*
Y05430109D03*
Y05380109D03*
X01476381D03*
Y05430109D03*
Y05480109D03*
Y05530109D03*
Y05580109D03*
Y05630109D03*
Y05680109D03*
G54D12*
X01305121Y04887789D03*
Y04868109D03*
X01230321Y04887789D03*
Y04828739D03*
X01305121D03*
X01230321Y04848419D03*
X01305121D03*
X01230321Y04868109D03*
G54D13*
X01267721Y04858259D03*
G54D14*
X00545481Y04867189D03*
X00595481D03*
X00645481D03*
X00695481D03*
X00745481D03*
X00795481D03*
X00845481D03*
X00895481D03*
Y05081629D03*
X00845481D03*
X00795481D03*
X00745481D03*
X00695481D03*
X00645481D03*
X00595481D03*
X00545481Y05082669D03*
G54D15*
X02098431Y05165349D03*
X02011811Y05127949D03*
Y05202749D03*
G54D16*
X00745081Y05481099D03*
Y05440149D03*
X01137801Y05337789D03*
Y05378739D03*
X00637801Y04693699D03*
Y04652749D03*
X00559061Y04693699D03*
Y04652749D03*
X00598431Y04693699D03*
Y04652749D03*
X00905521Y04693699D03*
Y04652749D03*
X00748041Y04693699D03*
Y04652749D03*
X00826781Y04693699D03*
Y04652749D03*
X00866151Y04693699D03*
Y04652749D03*
X01129931Y05684249D03*
Y05725189D03*
X01539371Y05680309D03*
Y05721259D03*
X00944891Y04693699D03*
Y04652749D03*
X00787411Y04693699D03*
Y04652749D03*
X00708671Y04693699D03*
Y04652749D03*
G54D17*
X00744101Y05341579D03*
Y05382829D03*
G54D18*
X01953551Y05202749D03*
X01912601D03*
G54D19*
X01133861Y04901569D03*
Y04814959D03*
G54D20*
X01114181Y04962599D03*
X01035441D03*
G54D21*
X01409451Y04874009D03*
Y04795269D03*
G54D22*
X01503941Y04900589D03*
Y05099409D03*
G54D23*
X01240161Y05033459D03*
X01259851D03*
X01220481D03*
X01240161Y04990149D03*
X01259851D03*
X01220481D03*
G54D24*
X01303151Y04976369D03*
Y05039369D03*
X01177171Y04976369D03*
Y05039369D03*
G54D25*
X02111271Y05066929D03*
X02152521D03*
X02146611Y05303149D03*
X02105361D03*
G54D26*
X03779531Y05314959D03*
Y05236219D03*
G54D10*
X02251971Y06529232D03*
X02393701D03*
X02251971Y06554232D03*
X02393701D03*
X02251971Y06579232D03*
X02393701D03*
X02251971Y06604232D03*
X02393701D03*
X02251971Y06629232D03*
X02393701D03*
X02251971Y06654232D03*
X02393701D03*
X02251971Y06679232D03*
X02393701D03*
X02251971Y06704232D03*
X02393701D03*
X02251971Y06729232D03*
X02393701D03*
X02251971Y06754232D03*
X02393701D03*
G54D11*
X00851441Y07064762D03*
Y07014762D03*
Y06964762D03*
Y06914762D03*
Y06864762D03*
Y06814762D03*
Y06764762D03*
Y06714762D03*
X01065891D03*
Y06764762D03*
Y06814762D03*
Y06864762D03*
Y06914762D03*
Y06964762D03*
Y07014762D03*
X01066931Y07064762D03*
X01263781Y07058062D03*
Y07008062D03*
Y06958062D03*
Y06908062D03*
Y06858062D03*
Y06808062D03*
Y06758062D03*
X01476381D03*
Y06808062D03*
Y06858062D03*
Y06908062D03*
Y06958062D03*
Y07008062D03*
Y07058062D03*
G54D12*
X01305121Y06265742D03*
Y06246062D03*
X01230321Y06265742D03*
Y06206692D03*
X01305121D03*
X01230321Y06226372D03*
X01305121D03*
X01230321Y06246062D03*
G54D13*
X01267721Y06236212D03*
G54D14*
X00545481Y06245142D03*
X00595481D03*
X00645481D03*
X00695481D03*
X00745481D03*
X00795481D03*
X00845481D03*
X00895481D03*
Y06459582D03*
X00845481D03*
X00795481D03*
X00745481D03*
X00695481D03*
X00645481D03*
X00595481D03*
X00545481Y06460622D03*
G54D15*
X02098431Y06543302D03*
X02011811Y06505902D03*
Y06580702D03*
G54D16*
X00745081Y06859052D03*
Y06818102D03*
X01137801Y06715742D03*
Y06756692D03*
X00637801Y06071652D03*
Y06030702D03*
X00559061Y06071652D03*
Y06030702D03*
X00598431Y06071652D03*
Y06030702D03*
X00905521Y06071652D03*
Y06030702D03*
X00748041Y06071652D03*
Y06030702D03*
X00826781Y06071652D03*
Y06030702D03*
X00866151Y06071652D03*
Y06030702D03*
X01129931Y07062202D03*
Y07103142D03*
X01539371Y07058262D03*
Y07099212D03*
X00944891Y06071652D03*
Y06030702D03*
X00787411Y06071652D03*
Y06030702D03*
X00708671Y06071652D03*
Y06030702D03*
G54D17*
X00744101Y06719532D03*
Y06760782D03*
G54D18*
X01953551Y06580702D03*
X01912601D03*
G54D19*
X01133861Y06279522D03*
Y06192912D03*
G54D20*
X01114181Y06340552D03*
X01035441D03*
G54D21*
X01409451Y06251962D03*
Y06173222D03*
G54D22*
X01503941Y06278542D03*
Y06477362D03*
G54D23*
X01240161Y06411412D03*
X01259851D03*
X01220481D03*
X01240161Y06368102D03*
X01259851D03*
X01220481D03*
G54D24*
X01303151Y06354322D03*
Y06417322D03*
X01177171Y06354322D03*
Y06417322D03*
G54D25*
X02111271Y06444882D03*
X02152521D03*
X02146611Y06681102D03*
X02105361D03*
G54D26*
X03779531Y06692912D03*
Y06614172D03*
G54D10*
X05795278Y01017421D03*
X05937008D03*
X05795278Y01042421D03*
X05937008D03*
X05795278Y01067421D03*
X05937008D03*
X05795278Y01092421D03*
X05937008D03*
X05795278Y01117421D03*
X05937008D03*
X05795278Y01142421D03*
X05937008D03*
X05795278Y01167421D03*
X05937008D03*
X05795278Y01192421D03*
X05937008D03*
X05795278Y01217421D03*
X05937008D03*
X05795278Y01242421D03*
X05937008D03*
G54D11*
X04394748Y01552951D03*
Y01502951D03*
Y01452951D03*
Y01402951D03*
Y01352951D03*
Y01302951D03*
Y01252951D03*
Y01202951D03*
X04609198D03*
Y01252951D03*
Y01302951D03*
Y01352951D03*
Y01402951D03*
Y01452951D03*
Y01502951D03*
X04610238Y01552951D03*
X04807088Y01546251D03*
Y01496251D03*
Y01446251D03*
Y01396251D03*
Y01346251D03*
Y01296251D03*
Y01246251D03*
X05019688D03*
Y01296251D03*
Y01346251D03*
Y01396251D03*
Y01446251D03*
Y01496251D03*
Y01546251D03*
G54D12*
X04848428Y00753931D03*
Y00734251D03*
X04773628Y00753931D03*
Y00694881D03*
X04848428D03*
X04773628Y00714561D03*
X04848428D03*
X04773628Y00734251D03*
G54D13*
X04811028Y00724401D03*
G54D14*
X04088788Y00733331D03*
X04138788D03*
X04188788D03*
X04238788D03*
X04288788D03*
X04338788D03*
X04388788D03*
X04438788D03*
Y00947771D03*
X04388788D03*
X04338788D03*
X04288788D03*
X04238788D03*
X04188788D03*
X04138788D03*
X04088788Y00948811D03*
G54D15*
X05641738Y01031491D03*
X05555118Y00994091D03*
Y01068891D03*
G54D16*
X04288388Y01347241D03*
Y01306291D03*
X04681108Y01203931D03*
Y01244881D03*
X04181108Y00559841D03*
Y00518891D03*
X04102368Y00559841D03*
Y00518891D03*
X04141738Y00559841D03*
Y00518891D03*
X04448828Y00559841D03*
Y00518891D03*
X04291348Y00559841D03*
Y00518891D03*
X04370088Y00559841D03*
Y00518891D03*
X04409458Y00559841D03*
Y00518891D03*
X04673238Y01550391D03*
Y01591331D03*
X05082678Y01546451D03*
Y01587401D03*
X04488198Y00559841D03*
Y00518891D03*
X04330718Y00559841D03*
Y00518891D03*
X04251978Y00559841D03*
Y00518891D03*
G54D17*
X04287408Y01207721D03*
Y01248971D03*
G54D18*
X05496858Y01068891D03*
X05455908D03*
G54D19*
X04677168Y00767711D03*
Y00681101D03*
G54D20*
X04657488Y00828741D03*
X04578748D03*
G54D21*
X04952758Y00740151D03*
Y00661411D03*
G54D22*
X05047248Y00766731D03*
Y00965551D03*
G54D23*
X04783468Y00899601D03*
X04803158D03*
X04763788D03*
X04783468Y00856291D03*
X04803158D03*
X04763788D03*
G54D24*
X04846458Y00842511D03*
Y00905511D03*
X04720478Y00842511D03*
Y00905511D03*
G54D25*
X05654578Y00933071D03*
X05695828D03*
X05689918Y01169291D03*
X05648668D03*
G54D26*
X07322838Y01181101D03*
Y01102361D03*
G54D10*
X05795278Y02395374D03*
X05937008D03*
X05795278Y02420374D03*
X05937008D03*
X05795278Y02445374D03*
X05937008D03*
X05795278Y02470374D03*
X05937008D03*
X05795278Y02495374D03*
X05937008D03*
X05795278Y02520374D03*
X05937008D03*
X05795278Y02545374D03*
X05937008D03*
X05795278Y02570374D03*
X05937008D03*
X05795278Y02595374D03*
X05937008D03*
X05795278Y02620374D03*
X05937008D03*
G54D11*
X04394748Y02930904D03*
Y02880904D03*
Y02830904D03*
Y02780904D03*
Y02730904D03*
Y02680904D03*
Y02630904D03*
Y02580904D03*
X04609198D03*
Y02630904D03*
Y02680904D03*
Y02730904D03*
Y02780904D03*
Y02830904D03*
Y02880904D03*
X04610238Y02930904D03*
X04807088Y02924204D03*
Y02874204D03*
Y02824204D03*
Y02774204D03*
Y02724204D03*
Y02674204D03*
Y02624204D03*
X05019688D03*
Y02674204D03*
Y02724204D03*
Y02774204D03*
Y02824204D03*
Y02874204D03*
Y02924204D03*
G54D12*
X04848428Y02131884D03*
Y02112204D03*
X04773628Y02131884D03*
Y02072834D03*
X04848428D03*
X04773628Y02092514D03*
X04848428D03*
X04773628Y02112204D03*
G54D13*
X04811028Y02102354D03*
G54D14*
X04088788Y02111284D03*
X04138788D03*
X04188788D03*
X04238788D03*
X04288788D03*
X04338788D03*
X04388788D03*
X04438788D03*
Y02325724D03*
X04388788D03*
X04338788D03*
X04288788D03*
X04238788D03*
X04188788D03*
X04138788D03*
X04088788Y02326764D03*
G54D15*
X05641738Y02409444D03*
X05555118Y02372044D03*
Y02446844D03*
G54D16*
X04288388Y02725194D03*
Y02684244D03*
X04681108Y02581884D03*
Y02622834D03*
X04181108Y01937794D03*
Y01896844D03*
X04102368Y01937794D03*
Y01896844D03*
X04141738Y01937794D03*
Y01896844D03*
X04448828Y01937794D03*
Y01896844D03*
X04291348Y01937794D03*
Y01896844D03*
X04370088Y01937794D03*
Y01896844D03*
X04409458Y01937794D03*
Y01896844D03*
X04673238Y02928344D03*
Y02969284D03*
X05082678Y02924404D03*
Y02965354D03*
X04488198Y01937794D03*
Y01896844D03*
X04330718Y01937794D03*
Y01896844D03*
X04251978Y01937794D03*
Y01896844D03*
G54D17*
X04287408Y02585674D03*
Y02626924D03*
G54D18*
X05496858Y02446844D03*
X05455908D03*
G54D19*
X04677168Y02145664D03*
Y02059054D03*
G54D20*
X04657488Y02206694D03*
X04578748D03*
G54D21*
X04952758Y02118104D03*
Y02039364D03*
G54D22*
X05047248Y02144684D03*
Y02343504D03*
G54D23*
X04783468Y02277554D03*
X04803158D03*
X04763788D03*
X04783468Y02234244D03*
X04803158D03*
X04763788D03*
G54D24*
X04846458Y02220464D03*
Y02283464D03*
X04720478Y02220464D03*
Y02283464D03*
G54D25*
X05654578Y02311024D03*
X05695828D03*
X05689918Y02547244D03*
X05648668D03*
G54D26*
X07322838Y02559054D03*
Y02480314D03*
G54D10*
X05795278Y03773326D03*
X05937008D03*
X05795278Y03798326D03*
X05937008D03*
X05795278Y03823326D03*
X05937008D03*
X05795278Y03848326D03*
X05937008D03*
X05795278Y03873326D03*
X05937008D03*
X05795278Y03898326D03*
X05937008D03*
X05795278Y03923326D03*
X05937008D03*
X05795278Y03948326D03*
X05937008D03*
X05795278Y03973326D03*
X05937008D03*
X05795278Y03998326D03*
X05937008D03*
G54D11*
X04394748Y04308856D03*
Y04258856D03*
Y04208856D03*
Y04158856D03*
Y04108856D03*
Y04058856D03*
Y04008856D03*
Y03958856D03*
X04609198D03*
Y04008856D03*
Y04058856D03*
Y04108856D03*
Y04158856D03*
Y04208856D03*
Y04258856D03*
X04610238Y04308856D03*
X04807088Y04302156D03*
Y04252156D03*
Y04202156D03*
Y04152156D03*
Y04102156D03*
Y04052156D03*
Y04002156D03*
X05019688D03*
Y04052156D03*
Y04102156D03*
Y04152156D03*
Y04202156D03*
Y04252156D03*
Y04302156D03*
G54D12*
X04848428Y03509836D03*
Y03490156D03*
X04773628Y03509836D03*
Y03450786D03*
X04848428D03*
X04773628Y03470466D03*
X04848428D03*
X04773628Y03490156D03*
G54D13*
X04811028Y03480306D03*
G54D14*
X04088788Y03489236D03*
X04138788D03*
X04188788D03*
X04238788D03*
X04288788D03*
X04338788D03*
X04388788D03*
X04438788D03*
Y03703676D03*
X04388788D03*
X04338788D03*
X04288788D03*
X04238788D03*
X04188788D03*
X04138788D03*
X04088788Y03704716D03*
G54D15*
X05641738Y03787396D03*
X05555118Y03749996D03*
Y03824796D03*
G54D16*
X04288388Y04103146D03*
Y04062196D03*
X04681108Y03959836D03*
Y04000786D03*
X04181108Y03315746D03*
Y03274796D03*
X04102368Y03315746D03*
Y03274796D03*
X04141738Y03315746D03*
Y03274796D03*
X04448828Y03315746D03*
Y03274796D03*
X04291348Y03315746D03*
Y03274796D03*
X04370088Y03315746D03*
Y03274796D03*
X04409458Y03315746D03*
Y03274796D03*
X04673238Y04306296D03*
Y04347236D03*
X05082678Y04302356D03*
Y04343306D03*
X04488198Y03315746D03*
Y03274796D03*
X04330718Y03315746D03*
Y03274796D03*
X04251978Y03315746D03*
Y03274796D03*
G54D17*
X04287408Y03963626D03*
Y04004876D03*
G54D18*
X05496858Y03824796D03*
X05455908D03*
G54D19*
X04677168Y03523616D03*
Y03437006D03*
G54D20*
X04657488Y03584646D03*
X04578748D03*
G54D21*
X04952758Y03496056D03*
Y03417316D03*
G54D22*
X05047248Y03522636D03*
Y03721456D03*
G54D23*
X04783468Y03655506D03*
X04803158D03*
X04763788D03*
X04783468Y03612196D03*
X04803158D03*
X04763788D03*
G54D24*
X04846458Y03598416D03*
Y03661416D03*
X04720478Y03598416D03*
Y03661416D03*
G54D25*
X05654578Y03688976D03*
X05695828D03*
X05689918Y03925196D03*
X05648668D03*
G54D26*
X07322838Y03937006D03*
Y03858266D03*
G54D10*
X05795278Y05151279D03*
X05937008D03*
X05795278Y05176279D03*
X05937008D03*
X05795278Y05201279D03*
X05937008D03*
X05795278Y05226279D03*
X05937008D03*
X05795278Y05251279D03*
X05937008D03*
X05795278Y05276279D03*
X05937008D03*
X05795278Y05301279D03*
X05937008D03*
X05795278Y05326279D03*
X05937008D03*
X05795278Y05351279D03*
X05937008D03*
X05795278Y05376279D03*
X05937008D03*
G54D11*
X04394748Y05686809D03*
Y05636809D03*
Y05586809D03*
Y05536809D03*
Y05486809D03*
Y05436809D03*
Y05386809D03*
Y05336809D03*
X04609198D03*
Y05386809D03*
Y05436809D03*
Y05486809D03*
Y05536809D03*
Y05586809D03*
Y05636809D03*
X04610238Y05686809D03*
X04807088Y05680109D03*
Y05630109D03*
Y05580109D03*
Y05530109D03*
Y05480109D03*
Y05430109D03*
Y05380109D03*
X05019688D03*
Y05430109D03*
Y05480109D03*
Y05530109D03*
Y05580109D03*
Y05630109D03*
Y05680109D03*
G54D12*
X04848428Y04887789D03*
Y04868109D03*
X04773628Y04887789D03*
Y04828739D03*
X04848428D03*
X04773628Y04848419D03*
X04848428D03*
X04773628Y04868109D03*
G54D13*
X04811028Y04858259D03*
G54D14*
X04088788Y04867189D03*
X04138788D03*
X04188788D03*
X04238788D03*
X04288788D03*
X04338788D03*
X04388788D03*
X04438788D03*
Y05081629D03*
X04388788D03*
X04338788D03*
X04288788D03*
X04238788D03*
X04188788D03*
X04138788D03*
X04088788Y05082669D03*
G54D15*
X05641738Y05165349D03*
X05555118Y05127949D03*
Y05202749D03*
G54D16*
X04288388Y05481099D03*
Y05440149D03*
X04681108Y05337789D03*
Y05378739D03*
X04181108Y04693699D03*
Y04652749D03*
X04102368Y04693699D03*
Y04652749D03*
X04141738Y04693699D03*
Y04652749D03*
X04448828Y04693699D03*
Y04652749D03*
X04291348Y04693699D03*
Y04652749D03*
X04370088Y04693699D03*
Y04652749D03*
X04409458Y04693699D03*
Y04652749D03*
X04673238Y05684249D03*
Y05725189D03*
X05082678Y05680309D03*
Y05721259D03*
X04488198Y04693699D03*
Y04652749D03*
X04330718Y04693699D03*
Y04652749D03*
X04251978Y04693699D03*
Y04652749D03*
G54D17*
X04287408Y05341579D03*
Y05382829D03*
G54D18*
X05496858Y05202749D03*
X05455908D03*
G54D19*
X04677168Y04901569D03*
Y04814959D03*
G54D20*
X04657488Y04962599D03*
X04578748D03*
G54D21*
X04952758Y04874009D03*
Y04795269D03*
G54D22*
X05047248Y04900589D03*
Y05099409D03*
G54D23*
X04783468Y05033459D03*
X04803158D03*
X04763788D03*
X04783468Y04990149D03*
X04803158D03*
X04763788D03*
G54D24*
X04846458Y04976369D03*
Y05039369D03*
X04720478Y04976369D03*
Y05039369D03*
G54D25*
X05654578Y05066929D03*
X05695828D03*
X05689918Y05303149D03*
X05648668D03*
G54D26*
X07322838Y05314959D03*
Y05236219D03*
G54D10*
X05795278Y06529232D03*
X05937008D03*
X05795278Y06554232D03*
X05937008D03*
X05795278Y06579232D03*
X05937008D03*
X05795278Y06604232D03*
X05937008D03*
X05795278Y06629232D03*
X05937008D03*
X05795278Y06654232D03*
X05937008D03*
X05795278Y06679232D03*
X05937008D03*
X05795278Y06704232D03*
X05937008D03*
X05795278Y06729232D03*
X05937008D03*
X05795278Y06754232D03*
X05937008D03*
G54D11*
X04394748Y07064762D03*
Y07014762D03*
Y06964762D03*
Y06914762D03*
Y06864762D03*
Y06814762D03*
Y06764762D03*
Y06714762D03*
X04609198D03*
Y06764762D03*
Y06814762D03*
Y06864762D03*
Y06914762D03*
Y06964762D03*
Y07014762D03*
X04610238Y07064762D03*
X04807088Y07058062D03*
Y07008062D03*
Y06958062D03*
Y06908062D03*
Y06858062D03*
Y06808062D03*
Y06758062D03*
X05019688D03*
Y06808062D03*
Y06858062D03*
Y06908062D03*
Y06958062D03*
Y07008062D03*
Y07058062D03*
G54D12*
X04848428Y06265742D03*
Y06246062D03*
X04773628Y06265742D03*
Y06206692D03*
X04848428D03*
X04773628Y06226372D03*
X04848428D03*
X04773628Y06246062D03*
G54D13*
X04811028Y06236212D03*
G54D14*
X04088788Y06245142D03*
X04138788D03*
X04188788D03*
X04238788D03*
X04288788D03*
X04338788D03*
X04388788D03*
X04438788D03*
Y06459582D03*
X04388788D03*
X04338788D03*
X04288788D03*
X04238788D03*
X04188788D03*
X04138788D03*
X04088788Y06460622D03*
G54D15*
X05641738Y06543302D03*
X05555118Y06505902D03*
Y06580702D03*
G54D16*
X04288388Y06859052D03*
Y06818102D03*
X04681108Y06715742D03*
Y06756692D03*
X04181108Y06071652D03*
Y06030702D03*
X04102368Y06071652D03*
Y06030702D03*
X04141738Y06071652D03*
Y06030702D03*
X04448828Y06071652D03*
Y06030702D03*
X04291348Y06071652D03*
Y06030702D03*
X04370088Y06071652D03*
Y06030702D03*
X04409458Y06071652D03*
Y06030702D03*
X04673238Y07062202D03*
Y07103142D03*
X05082678Y07058262D03*
Y07099212D03*
X04488198Y06071652D03*
Y06030702D03*
X04330718Y06071652D03*
Y06030702D03*
X04251978Y06071652D03*
Y06030702D03*
G54D17*
X04287408Y06719532D03*
Y06760782D03*
G54D18*
X05496858Y06580702D03*
X05455908D03*
G54D19*
X04677168Y06279522D03*
Y06192912D03*
G54D20*
X04657488Y06340552D03*
X04578748D03*
G54D21*
X04952758Y06251962D03*
Y06173222D03*
G54D22*
X05047248Y06278542D03*
Y06477362D03*
G54D23*
X04783468Y06411412D03*
X04803158D03*
X04763788D03*
X04783468Y06368102D03*
X04803158D03*
X04763788D03*
G54D24*
X04846458Y06354322D03*
Y06417322D03*
X04720478Y06354322D03*
Y06417322D03*
G54D25*
X05654578Y06444882D03*
X05695828D03*
X05689918Y06681102D03*
X05648668D03*
G54D26*
X07322838Y06692912D03*
Y06614172D03*
G54D27*
X00196850Y00196850D03*
Y07401572D03*
X07401578Y00196850D03*
M02*
