*
%FSLAX26Y26*%
%MOIN*%
%ADD10C,0.011811*%
%ADD11C,0.023622*%
%ADD12C,0.031496*%
%ADD13C,0.055118*%
%IPPOS*%
%LNpth.gbr*%
%LPD*%
G75*
G54D10*
X02314961Y01141731D03*
X01118111Y00909441D03*
X01090551D03*
X01484261Y01598421D03*
X01456701D03*
X01055121D03*
X01082681D03*
X01401581Y00909441D03*
Y00881881D03*
X01267721Y00740151D03*
Y00708661D03*
Y00791331D03*
X01295281D03*
X01984261Y01122041D03*
X02011811D03*
X01519691Y00562991D03*
X01492131D03*
X02145671Y01610231D03*
X02173231D03*
X01362211Y01188971D03*
X01389771D03*
X01897641Y01381881D03*
Y01354331D03*
X00913391Y01153541D03*
Y01125981D03*
X01236221Y00590551D03*
X01263781D03*
X01043311Y00594481D03*
X01070871D03*
X01581891Y01546451D03*
X01168511Y01554331D03*
X01157481Y00807081D03*
X01181111D03*
X00988191Y00518701D03*
X00484261Y00818891D03*
X00594491Y00677161D03*
X00637801Y00874011D03*
X01346461Y01519681D03*
X01125991Y01133851D03*
X00964571Y01322831D03*
X02035441Y01169291D03*
X01181111Y01409441D03*
X00845481Y00677161D03*
X01145671Y01370071D03*
X00895671Y00677161D03*
X00889771Y01011811D03*
X00905521Y00598421D03*
X00695481Y00677551D03*
X00775591Y01011811D03*
X00787411Y00594481D03*
X00737601Y01012401D03*
X00637801Y00594481D03*
X00625991Y01011811D03*
X01102371Y00960621D03*
X00980321D03*
X00559061Y00594481D03*
X02472441Y01051181D03*
X00695481Y01012201D03*
X00598431Y00594481D03*
X02472441Y01110231D03*
X00940951Y01011811D03*
X00944891Y00598421D03*
X01341541Y00846451D03*
X01942921Y00994091D03*
X00637801Y00484251D03*
X00745481Y00677751D03*
G54D11*
X02236621Y01539171D03*
Y01489171D03*
X02286621Y01539171D03*
Y01489171D03*
X02336621Y01539171D03*
Y01489171D03*
X02386621Y01539171D03*
Y01489171D03*
X02436621Y01539171D03*
Y01489171D03*
G54D12*
X03779531Y01043301D03*
Y01240151D03*
G54D13*
X01782291Y01518301D03*
X01682291Y01468301D03*
X01782291Y01418301D03*
X01682291Y01368301D03*
X01782291Y01318301D03*
X01682291Y01268301D03*
X01782291Y01218301D03*
X01682291Y01168301D03*
X01782291Y01118301D03*
X01682291Y01068301D03*
X01782291Y01018301D03*
X01682291Y00968301D03*
X01782291Y00918301D03*
X01682291Y00868301D03*
X01782291Y00818301D03*
X01682291Y00768301D03*
X01782291Y00718301D03*
X01682291Y00668301D03*
X01782291Y00618301D03*
X01682291Y00568301D03*
G54D10*
X02314961Y02519684D03*
X01118111Y02287394D03*
X01090551D03*
X01484261Y02976374D03*
X01456701D03*
X01055121D03*
X01082681D03*
X01401581Y02287394D03*
Y02259834D03*
X01267721Y02118104D03*
Y02086614D03*
Y02169284D03*
X01295281D03*
X01984261Y02499994D03*
X02011811D03*
X01519691Y01940944D03*
X01492131D03*
X02145671Y02988184D03*
X02173231D03*
X01362211Y02566924D03*
X01389771D03*
X01897641Y02759834D03*
Y02732284D03*
X00913391Y02531494D03*
Y02503934D03*
X01236221Y01968504D03*
X01263781D03*
X01043311Y01972434D03*
X01070871D03*
X01581891Y02924404D03*
X01168511Y02932284D03*
X01157481Y02185034D03*
X01181111D03*
X00988191Y01896654D03*
X00484261Y02196844D03*
X00594491Y02055114D03*
X00637801Y02251964D03*
X01346461Y02897634D03*
X01125991Y02511804D03*
X00964571Y02700784D03*
X02035441Y02547244D03*
X01181111Y02787394D03*
X00845481Y02055114D03*
X01145671Y02748024D03*
X00895671Y02055114D03*
X00889771Y02389764D03*
X00905521Y01976374D03*
X00695481Y02055504D03*
X00775591Y02389764D03*
X00787411Y01972434D03*
X00737601Y02390354D03*
X00637801Y01972434D03*
X00625991Y02389764D03*
X01102371Y02338574D03*
X00980321D03*
X00559061Y01972434D03*
X02472441Y02429134D03*
X00695481Y02390154D03*
X00598431Y01972434D03*
X02472441Y02488184D03*
X00940951Y02389764D03*
X00944891Y01976374D03*
X01341541Y02224404D03*
X01942921Y02372044D03*
X00637801Y01862204D03*
X00745481Y02055704D03*
G54D11*
X02236621Y02917124D03*
Y02867124D03*
X02286621Y02917124D03*
Y02867124D03*
X02336621Y02917124D03*
Y02867124D03*
X02386621Y02917124D03*
Y02867124D03*
X02436621Y02917124D03*
Y02867124D03*
G54D12*
X03779531Y02421254D03*
Y02618104D03*
G54D13*
X01782291Y02896254D03*
X01682291Y02846254D03*
X01782291Y02796254D03*
X01682291Y02746254D03*
X01782291Y02696254D03*
X01682291Y02646254D03*
X01782291Y02596254D03*
X01682291Y02546254D03*
X01782291Y02496254D03*
X01682291Y02446254D03*
X01782291Y02396254D03*
X01682291Y02346254D03*
X01782291Y02296254D03*
X01682291Y02246254D03*
X01782291Y02196254D03*
X01682291Y02146254D03*
X01782291Y02096254D03*
X01682291Y02046254D03*
X01782291Y01996254D03*
X01682291Y01946254D03*
G54D10*
X02314961Y03897636D03*
X01118111Y03665346D03*
X01090551D03*
X01484261Y04354326D03*
X01456701D03*
X01055121D03*
X01082681D03*
X01401581Y03665346D03*
Y03637786D03*
X01267721Y03496056D03*
Y03464566D03*
Y03547236D03*
X01295281D03*
X01984261Y03877946D03*
X02011811D03*
X01519691Y03318896D03*
X01492131D03*
X02145671Y04366136D03*
X02173231D03*
X01362211Y03944876D03*
X01389771D03*
X01897641Y04137786D03*
Y04110236D03*
X00913391Y03909446D03*
Y03881886D03*
X01236221Y03346456D03*
X01263781D03*
X01043311Y03350386D03*
X01070871D03*
X01581891Y04302356D03*
X01168511Y04310236D03*
X01157481Y03562986D03*
X01181111D03*
X00988191Y03274606D03*
X00484261Y03574796D03*
X00594491Y03433066D03*
X00637801Y03629916D03*
X01346461Y04275586D03*
X01125991Y03889756D03*
X00964571Y04078736D03*
X02035441Y03925196D03*
X01181111Y04165346D03*
X00845481Y03433066D03*
X01145671Y04125976D03*
X00895671Y03433066D03*
X00889771Y03767716D03*
X00905521Y03354326D03*
X00695481Y03433456D03*
X00775591Y03767716D03*
X00787411Y03350386D03*
X00737601Y03768306D03*
X00637801Y03350386D03*
X00625991Y03767716D03*
X01102371Y03716526D03*
X00980321D03*
X00559061Y03350386D03*
X02472441Y03807086D03*
X00695481Y03768106D03*
X00598431Y03350386D03*
X02472441Y03866136D03*
X00940951Y03767716D03*
X00944891Y03354326D03*
X01341541Y03602356D03*
X01942921Y03749996D03*
X00637801Y03240156D03*
X00745481Y03433656D03*
G54D11*
X02236621Y04295076D03*
Y04245076D03*
X02286621Y04295076D03*
Y04245076D03*
X02336621Y04295076D03*
Y04245076D03*
X02386621Y04295076D03*
Y04245076D03*
X02436621Y04295076D03*
Y04245076D03*
G54D12*
X03779531Y03799206D03*
Y03996056D03*
G54D13*
X01782291Y04274206D03*
X01682291Y04224206D03*
X01782291Y04174206D03*
X01682291Y04124206D03*
X01782291Y04074206D03*
X01682291Y04024206D03*
X01782291Y03974206D03*
X01682291Y03924206D03*
X01782291Y03874206D03*
X01682291Y03824206D03*
X01782291Y03774206D03*
X01682291Y03724206D03*
X01782291Y03674206D03*
X01682291Y03624206D03*
X01782291Y03574206D03*
X01682291Y03524206D03*
X01782291Y03474206D03*
X01682291Y03424206D03*
X01782291Y03374206D03*
X01682291Y03324206D03*
G54D10*
X02314961Y05275589D03*
X01118111Y05043299D03*
X01090551D03*
X01484261Y05732279D03*
X01456701D03*
X01055121D03*
X01082681D03*
X01401581Y05043299D03*
Y05015739D03*
X01267721Y04874009D03*
Y04842519D03*
Y04925189D03*
X01295281D03*
X01984261Y05255899D03*
X02011811D03*
X01519691Y04696849D03*
X01492131D03*
X02145671Y05744089D03*
X02173231D03*
X01362211Y05322829D03*
X01389771D03*
X01897641Y05515739D03*
Y05488189D03*
X00913391Y05287399D03*
Y05259839D03*
X01236221Y04724409D03*
X01263781D03*
X01043311Y04728339D03*
X01070871D03*
X01581891Y05680309D03*
X01168511Y05688189D03*
X01157481Y04940939D03*
X01181111D03*
X00988191Y04652559D03*
X00484261Y04952749D03*
X00594491Y04811019D03*
X00637801Y05007869D03*
X01346461Y05653539D03*
X01125991Y05267709D03*
X00964571Y05456689D03*
X02035441Y05303149D03*
X01181111Y05543299D03*
X00845481Y04811019D03*
X01145671Y05503929D03*
X00895671Y04811019D03*
X00889771Y05145669D03*
X00905521Y04732279D03*
X00695481Y04811409D03*
X00775591Y05145669D03*
X00787411Y04728339D03*
X00737601Y05146259D03*
X00637801Y04728339D03*
X00625991Y05145669D03*
X01102371Y05094479D03*
X00980321D03*
X00559061Y04728339D03*
X02472441Y05185039D03*
X00695481Y05146059D03*
X00598431Y04728339D03*
X02472441Y05244089D03*
X00940951Y05145669D03*
X00944891Y04732279D03*
X01341541Y04980309D03*
X01942921Y05127949D03*
X00637801Y04618109D03*
X00745481Y04811609D03*
G54D11*
X02236621Y05673029D03*
Y05623029D03*
X02286621Y05673029D03*
Y05623029D03*
X02336621Y05673029D03*
Y05623029D03*
X02386621Y05673029D03*
Y05623029D03*
X02436621Y05673029D03*
Y05623029D03*
G54D12*
X03779531Y05177159D03*
Y05374009D03*
G54D13*
X01782291Y05652159D03*
X01682291Y05602159D03*
X01782291Y05552159D03*
X01682291Y05502159D03*
X01782291Y05452159D03*
X01682291Y05402159D03*
X01782291Y05352159D03*
X01682291Y05302159D03*
X01782291Y05252159D03*
X01682291Y05202159D03*
X01782291Y05152159D03*
X01682291Y05102159D03*
X01782291Y05052159D03*
X01682291Y05002159D03*
X01782291Y04952159D03*
X01682291Y04902159D03*
X01782291Y04852159D03*
X01682291Y04802159D03*
X01782291Y04752159D03*
X01682291Y04702159D03*
G54D10*
X02314961Y06653542D03*
X01118111Y06421252D03*
X01090551D03*
X01484261Y07110232D03*
X01456701D03*
X01055121D03*
X01082681D03*
X01401581Y06421252D03*
Y06393692D03*
X01267721Y06251962D03*
Y06220472D03*
Y06303142D03*
X01295281D03*
X01984261Y06633852D03*
X02011811D03*
X01519691Y06074802D03*
X01492131D03*
X02145671Y07122042D03*
X02173231D03*
X01362211Y06700782D03*
X01389771D03*
X01897641Y06893692D03*
Y06866142D03*
X00913391Y06665352D03*
Y06637792D03*
X01236221Y06102362D03*
X01263781D03*
X01043311Y06106292D03*
X01070871D03*
X01581891Y07058262D03*
X01168511Y07066142D03*
X01157481Y06318892D03*
X01181111D03*
X00988191Y06030512D03*
X00484261Y06330702D03*
X00594491Y06188972D03*
X00637801Y06385822D03*
X01346461Y07031492D03*
X01125991Y06645662D03*
X00964571Y06834642D03*
X02035441Y06681102D03*
X01181111Y06921252D03*
X00845481Y06188972D03*
X01145671Y06881882D03*
X00895671Y06188972D03*
X00889771Y06523622D03*
X00905521Y06110232D03*
X00695481Y06189362D03*
X00775591Y06523622D03*
X00787411Y06106292D03*
X00737601Y06524212D03*
X00637801Y06106292D03*
X00625991Y06523622D03*
X01102371Y06472432D03*
X00980321D03*
X00559061Y06106292D03*
X02472441Y06562992D03*
X00695481Y06524012D03*
X00598431Y06106292D03*
X02472441Y06622042D03*
X00940951Y06523622D03*
X00944891Y06110232D03*
X01341541Y06358262D03*
X01942921Y06505902D03*
X00637801Y05996062D03*
X00745481Y06189562D03*
G54D11*
X02236621Y07050982D03*
Y07000982D03*
X02286621Y07050982D03*
Y07000982D03*
X02336621Y07050982D03*
Y07000982D03*
X02386621Y07050982D03*
Y07000982D03*
X02436621Y07050982D03*
Y07000982D03*
G54D12*
X03779531Y06555112D03*
Y06751962D03*
G54D13*
X01782291Y07030112D03*
X01682291Y06980112D03*
X01782291Y06930112D03*
X01682291Y06880112D03*
X01782291Y06830112D03*
X01682291Y06780112D03*
X01782291Y06730112D03*
X01682291Y06680112D03*
X01782291Y06630112D03*
X01682291Y06580112D03*
X01782291Y06530112D03*
X01682291Y06480112D03*
X01782291Y06430112D03*
X01682291Y06380112D03*
X01782291Y06330112D03*
X01682291Y06280112D03*
X01782291Y06230112D03*
X01682291Y06180112D03*
X01782291Y06130112D03*
X01682291Y06080112D03*
G54D10*
X05858268Y01141731D03*
X04661418Y00909441D03*
X04633858D03*
X05027568Y01598421D03*
X05000008D03*
X04598428D03*
X04625988D03*
X04944888Y00909441D03*
Y00881881D03*
X04811028Y00740151D03*
Y00708661D03*
Y00791331D03*
X04838588D03*
X05527568Y01122041D03*
X05555118D03*
X05062998Y00562991D03*
X05035438D03*
X05688978Y01610231D03*
X05716538D03*
X04905518Y01188971D03*
X04933078D03*
X05440948Y01381881D03*
Y01354331D03*
X04456698Y01153541D03*
Y01125981D03*
X04779528Y00590551D03*
X04807088D03*
X04586618Y00594481D03*
X04614178D03*
X05125198Y01546451D03*
X04711818Y01554331D03*
X04700788Y00807081D03*
X04724418D03*
X04531498Y00518701D03*
X04027568Y00818891D03*
X04137798Y00677161D03*
X04181108Y00874011D03*
X04889768Y01519681D03*
X04669298Y01133851D03*
X04507878Y01322831D03*
X05578748Y01169291D03*
X04724418Y01409441D03*
X04388788Y00677161D03*
X04688978Y01370071D03*
X04438978Y00677161D03*
X04433078Y01011811D03*
X04448828Y00598421D03*
X04238788Y00677551D03*
X04318898Y01011811D03*
X04330718Y00594481D03*
X04280908Y01012401D03*
X04181108Y00594481D03*
X04169298Y01011811D03*
X04645678Y00960621D03*
X04523628D03*
X04102368Y00594481D03*
X06015748Y01051181D03*
X04238788Y01012201D03*
X04141738Y00594481D03*
X06015748Y01110231D03*
X04484258Y01011811D03*
X04488198Y00598421D03*
X04884848Y00846451D03*
X05486228Y00994091D03*
X04181108Y00484251D03*
X04288788Y00677751D03*
G54D11*
X05779928Y01539171D03*
Y01489171D03*
X05829928Y01539171D03*
Y01489171D03*
X05879928Y01539171D03*
Y01489171D03*
X05929928Y01539171D03*
Y01489171D03*
X05979928Y01539171D03*
Y01489171D03*
G54D12*
X07322838Y01043301D03*
Y01240151D03*
G54D13*
X05325598Y01518301D03*
X05225598Y01468301D03*
X05325598Y01418301D03*
X05225598Y01368301D03*
X05325598Y01318301D03*
X05225598Y01268301D03*
X05325598Y01218301D03*
X05225598Y01168301D03*
X05325598Y01118301D03*
X05225598Y01068301D03*
X05325598Y01018301D03*
X05225598Y00968301D03*
X05325598Y00918301D03*
X05225598Y00868301D03*
X05325598Y00818301D03*
X05225598Y00768301D03*
X05325598Y00718301D03*
X05225598Y00668301D03*
X05325598Y00618301D03*
X05225598Y00568301D03*
G54D10*
X05858268Y02519684D03*
X04661418Y02287394D03*
X04633858D03*
X05027568Y02976374D03*
X05000008D03*
X04598428D03*
X04625988D03*
X04944888Y02287394D03*
Y02259834D03*
X04811028Y02118104D03*
Y02086614D03*
Y02169284D03*
X04838588D03*
X05527568Y02499994D03*
X05555118D03*
X05062998Y01940944D03*
X05035438D03*
X05688978Y02988184D03*
X05716538D03*
X04905518Y02566924D03*
X04933078D03*
X05440948Y02759834D03*
Y02732284D03*
X04456698Y02531494D03*
Y02503934D03*
X04779528Y01968504D03*
X04807088D03*
X04586618Y01972434D03*
X04614178D03*
X05125198Y02924404D03*
X04711818Y02932284D03*
X04700788Y02185034D03*
X04724418D03*
X04531498Y01896654D03*
X04027568Y02196844D03*
X04137798Y02055114D03*
X04181108Y02251964D03*
X04889768Y02897634D03*
X04669298Y02511804D03*
X04507878Y02700784D03*
X05578748Y02547244D03*
X04724418Y02787394D03*
X04388788Y02055114D03*
X04688978Y02748024D03*
X04438978Y02055114D03*
X04433078Y02389764D03*
X04448828Y01976374D03*
X04238788Y02055504D03*
X04318898Y02389764D03*
X04330718Y01972434D03*
X04280908Y02390354D03*
X04181108Y01972434D03*
X04169298Y02389764D03*
X04645678Y02338574D03*
X04523628D03*
X04102368Y01972434D03*
X06015748Y02429134D03*
X04238788Y02390154D03*
X04141738Y01972434D03*
X06015748Y02488184D03*
X04484258Y02389764D03*
X04488198Y01976374D03*
X04884848Y02224404D03*
X05486228Y02372044D03*
X04181108Y01862204D03*
X04288788Y02055704D03*
G54D11*
X05779928Y02917124D03*
Y02867124D03*
X05829928Y02917124D03*
Y02867124D03*
X05879928Y02917124D03*
Y02867124D03*
X05929928Y02917124D03*
Y02867124D03*
X05979928Y02917124D03*
Y02867124D03*
G54D12*
X07322838Y02421254D03*
Y02618104D03*
G54D13*
X05325598Y02896254D03*
X05225598Y02846254D03*
X05325598Y02796254D03*
X05225598Y02746254D03*
X05325598Y02696254D03*
X05225598Y02646254D03*
X05325598Y02596254D03*
X05225598Y02546254D03*
X05325598Y02496254D03*
X05225598Y02446254D03*
X05325598Y02396254D03*
X05225598Y02346254D03*
X05325598Y02296254D03*
X05225598Y02246254D03*
X05325598Y02196254D03*
X05225598Y02146254D03*
X05325598Y02096254D03*
X05225598Y02046254D03*
X05325598Y01996254D03*
X05225598Y01946254D03*
G54D10*
X05858268Y03897636D03*
X04661418Y03665346D03*
X04633858D03*
X05027568Y04354326D03*
X05000008D03*
X04598428D03*
X04625988D03*
X04944888Y03665346D03*
Y03637786D03*
X04811028Y03496056D03*
Y03464566D03*
Y03547236D03*
X04838588D03*
X05527568Y03877946D03*
X05555118D03*
X05062998Y03318896D03*
X05035438D03*
X05688978Y04366136D03*
X05716538D03*
X04905518Y03944876D03*
X04933078D03*
X05440948Y04137786D03*
Y04110236D03*
X04456698Y03909446D03*
Y03881886D03*
X04779528Y03346456D03*
X04807088D03*
X04586618Y03350386D03*
X04614178D03*
X05125198Y04302356D03*
X04711818Y04310236D03*
X04700788Y03562986D03*
X04724418D03*
X04531498Y03274606D03*
X04027568Y03574796D03*
X04137798Y03433066D03*
X04181108Y03629916D03*
X04889768Y04275586D03*
X04669298Y03889756D03*
X04507878Y04078736D03*
X05578748Y03925196D03*
X04724418Y04165346D03*
X04388788Y03433066D03*
X04688978Y04125976D03*
X04438978Y03433066D03*
X04433078Y03767716D03*
X04448828Y03354326D03*
X04238788Y03433456D03*
X04318898Y03767716D03*
X04330718Y03350386D03*
X04280908Y03768306D03*
X04181108Y03350386D03*
X04169298Y03767716D03*
X04645678Y03716526D03*
X04523628D03*
X04102368Y03350386D03*
X06015748Y03807086D03*
X04238788Y03768106D03*
X04141738Y03350386D03*
X06015748Y03866136D03*
X04484258Y03767716D03*
X04488198Y03354326D03*
X04884848Y03602356D03*
X05486228Y03749996D03*
X04181108Y03240156D03*
X04288788Y03433656D03*
G54D11*
X05779928Y04295076D03*
Y04245076D03*
X05829928Y04295076D03*
Y04245076D03*
X05879928Y04295076D03*
Y04245076D03*
X05929928Y04295076D03*
Y04245076D03*
X05979928Y04295076D03*
Y04245076D03*
G54D12*
X07322838Y03799206D03*
Y03996056D03*
G54D13*
X05325598Y04274206D03*
X05225598Y04224206D03*
X05325598Y04174206D03*
X05225598Y04124206D03*
X05325598Y04074206D03*
X05225598Y04024206D03*
X05325598Y03974206D03*
X05225598Y03924206D03*
X05325598Y03874206D03*
X05225598Y03824206D03*
X05325598Y03774206D03*
X05225598Y03724206D03*
X05325598Y03674206D03*
X05225598Y03624206D03*
X05325598Y03574206D03*
X05225598Y03524206D03*
X05325598Y03474206D03*
X05225598Y03424206D03*
X05325598Y03374206D03*
X05225598Y03324206D03*
G54D10*
X05858268Y05275589D03*
X04661418Y05043299D03*
X04633858D03*
X05027568Y05732279D03*
X05000008D03*
X04598428D03*
X04625988D03*
X04944888Y05043299D03*
Y05015739D03*
X04811028Y04874009D03*
Y04842519D03*
Y04925189D03*
X04838588D03*
X05527568Y05255899D03*
X05555118D03*
X05062998Y04696849D03*
X05035438D03*
X05688978Y05744089D03*
X05716538D03*
X04905518Y05322829D03*
X04933078D03*
X05440948Y05515739D03*
Y05488189D03*
X04456698Y05287399D03*
Y05259839D03*
X04779528Y04724409D03*
X04807088D03*
X04586618Y04728339D03*
X04614178D03*
X05125198Y05680309D03*
X04711818Y05688189D03*
X04700788Y04940939D03*
X04724418D03*
X04531498Y04652559D03*
X04027568Y04952749D03*
X04137798Y04811019D03*
X04181108Y05007869D03*
X04889768Y05653539D03*
X04669298Y05267709D03*
X04507878Y05456689D03*
X05578748Y05303149D03*
X04724418Y05543299D03*
X04388788Y04811019D03*
X04688978Y05503929D03*
X04438978Y04811019D03*
X04433078Y05145669D03*
X04448828Y04732279D03*
X04238788Y04811409D03*
X04318898Y05145669D03*
X04330718Y04728339D03*
X04280908Y05146259D03*
X04181108Y04728339D03*
X04169298Y05145669D03*
X04645678Y05094479D03*
X04523628D03*
X04102368Y04728339D03*
X06015748Y05185039D03*
X04238788Y05146059D03*
X04141738Y04728339D03*
X06015748Y05244089D03*
X04484258Y05145669D03*
X04488198Y04732279D03*
X04884848Y04980309D03*
X05486228Y05127949D03*
X04181108Y04618109D03*
X04288788Y04811609D03*
G54D11*
X05779928Y05673029D03*
Y05623029D03*
X05829928Y05673029D03*
Y05623029D03*
X05879928Y05673029D03*
Y05623029D03*
X05929928Y05673029D03*
Y05623029D03*
X05979928Y05673029D03*
Y05623029D03*
G54D12*
X07322838Y05177159D03*
Y05374009D03*
G54D13*
X05325598Y05652159D03*
X05225598Y05602159D03*
X05325598Y05552159D03*
X05225598Y05502159D03*
X05325598Y05452159D03*
X05225598Y05402159D03*
X05325598Y05352159D03*
X05225598Y05302159D03*
X05325598Y05252159D03*
X05225598Y05202159D03*
X05325598Y05152159D03*
X05225598Y05102159D03*
X05325598Y05052159D03*
X05225598Y05002159D03*
X05325598Y04952159D03*
X05225598Y04902159D03*
X05325598Y04852159D03*
X05225598Y04802159D03*
X05325598Y04752159D03*
X05225598Y04702159D03*
G54D10*
X05858268Y06653542D03*
X04661418Y06421252D03*
X04633858D03*
X05027568Y07110232D03*
X05000008D03*
X04598428D03*
X04625988D03*
X04944888Y06421252D03*
Y06393692D03*
X04811028Y06251962D03*
Y06220472D03*
Y06303142D03*
X04838588D03*
X05527568Y06633852D03*
X05555118D03*
X05062998Y06074802D03*
X05035438D03*
X05688978Y07122042D03*
X05716538D03*
X04905518Y06700782D03*
X04933078D03*
X05440948Y06893692D03*
Y06866142D03*
X04456698Y06665352D03*
Y06637792D03*
X04779528Y06102362D03*
X04807088D03*
X04586618Y06106292D03*
X04614178D03*
X05125198Y07058262D03*
X04711818Y07066142D03*
X04700788Y06318892D03*
X04724418D03*
X04531498Y06030512D03*
X04027568Y06330702D03*
X04137798Y06188972D03*
X04181108Y06385822D03*
X04889768Y07031492D03*
X04669298Y06645662D03*
X04507878Y06834642D03*
X05578748Y06681102D03*
X04724418Y06921252D03*
X04388788Y06188972D03*
X04688978Y06881882D03*
X04438978Y06188972D03*
X04433078Y06523622D03*
X04448828Y06110232D03*
X04238788Y06189362D03*
X04318898Y06523622D03*
X04330718Y06106292D03*
X04280908Y06524212D03*
X04181108Y06106292D03*
X04169298Y06523622D03*
X04645678Y06472432D03*
X04523628D03*
X04102368Y06106292D03*
X06015748Y06562992D03*
X04238788Y06524012D03*
X04141738Y06106292D03*
X06015748Y06622042D03*
X04484258Y06523622D03*
X04488198Y06110232D03*
X04884848Y06358262D03*
X05486228Y06505902D03*
X04181108Y05996062D03*
X04288788Y06189562D03*
G54D11*
X05779928Y07050982D03*
Y07000982D03*
X05829928Y07050982D03*
Y07000982D03*
X05879928Y07050982D03*
Y07000982D03*
X05929928Y07050982D03*
Y07000982D03*
X05979928Y07050982D03*
Y07000982D03*
G54D12*
X07322838Y06555112D03*
Y06751962D03*
G54D13*
X05325598Y07030112D03*
X05225598Y06980112D03*
X05325598Y06930112D03*
X05225598Y06880112D03*
X05325598Y06830112D03*
X05225598Y06780112D03*
X05325598Y06730112D03*
X05225598Y06680112D03*
X05325598Y06630112D03*
X05225598Y06580112D03*
X05325598Y06530112D03*
X05225598Y06480112D03*
X05325598Y06430112D03*
X05225598Y06380112D03*
X05325598Y06330112D03*
X05225598Y06280112D03*
X05325598Y06230112D03*
X05225598Y06180112D03*
X05325598Y06130112D03*
X05225598Y06080112D03*
M02*
