G04 ================== begin FILE IDENTIFICATION RECORD ==================*
G04 Layout Name:  CC1350SensorTag.brd*
G04 Film Name:    CC1350STK_soldmask_bottom*
G04 File Format:  Gerber RS274X*
G04 File Origin:  Cadence Allegro 16.6-S019*
G04 Origin Date:  Wed Nov 09 12:53:35 2016*
G04 *
G04 Layer:  PACKAGE GEOMETRY/SOLDERMASK_BOTTOM*
G04 Layer:  VIA CLASS/SOLDERMASK_BOTTOM*
G04 Layer:  PIN/SOLDERMASK_BOTTOM*
G04 Layer:  BOARD GEOMETRY/OUTLINE*
G04 *
G04 Offset:    (0.0000 0.0000)*
G04 Mirror:    No*
G04 Mode:      Positive*
G04 Rotation:  0*
G04 FullContactRelief:  No*
G04 UndefLineWidth:     0.1000*
G04 ================== end FILE IDENTIFICATION RECORD ====================*
%FSLAX25Y25*MOMM*%
%IR0*IPPOS*OFA0.00000B0.00000*MIA0B0*SFA1.00000B1.00000*%
%AMMACRO44*
4,1,41,0.0,-.325,
-.1,-.325,
-.130388,-.322341,
-.159854,-.314446,
-.1875,-.301554,
-.212488,-.284058,
-.234058,-.262488,
-.251554,-.2375,
-.264446,-.209854,
-.272341,-.180388,
-.275,-.15,
-.275,.15,
-.272341,.180388,
-.264446,.209854,
-.251554,.2375,
-.234058,.262488,
-.212488,.284058,
-.1875,.301554,
-.159854,.314446,
-.130388,.322341,
-.1,.325,
.1,.325,
.130388,.322341,
.159854,.314446,
.1875,.301554,
.212488,.284058,
.234058,.262488,
.251554,.2375,
.264446,.209854,
.272341,.180388,
.275,.15,
.275,-.15,
.272341,-.180388,
.264446,-.209854,
.251554,-.2375,
.234058,-.262488,
.212488,-.284058,
.1875,-.301554,
.159854,-.314446,
.130388,-.322341,
.1,-.325,
0.0,-.325,
0.0*
%
%ADD44MACRO44*%
%AMMACRO45*
4,1,41,.375,0.0,
.375,-.185,
.372189,-.217125,
.363843,-.248274,
.350215,-.2775,
.331718,-.303916,
.308916,-.326718,
.2825,-.345215,
.253274,-.358843,
.222125,-.367189,
.19,-.37,
-.19,-.37,
-.222125,-.367189,
-.253274,-.358843,
-.2825,-.345215,
-.308916,-.326718,
-.331718,-.303916,
-.350215,-.2775,
-.363843,-.248274,
-.372189,-.217125,
-.375,-.185,
-.375,.185,
-.372189,.217125,
-.363843,.248274,
-.350215,.2775,
-.331718,.303916,
-.308916,.326718,
-.2825,.345215,
-.253274,.358843,
-.222125,.367189,
-.19,.37,
.19,.37,
.222125,.367189,
.253274,.358843,
.2825,.345215,
.308916,.326718,
.331718,.303916,
.350215,.2775,
.363843,.248274,
.372189,.217125,
.375,.185,
.375,0.0,
0.0*
%
%ADD45MACRO45*%
%AMMACRO17*
4,1,41,-.525,0.0,
-.525,.225,
-.521582,.264071,
-.511431,.301955,
-.494856,.3375,
-.47236,.369627,
-.444627,.39736,
-.4125,.419856,
-.376955,.436431,
-.339071,.446582,
-.3,.45,
.3,.45,
.339071,.446582,
.376955,.436431,
.4125,.419856,
.444627,.39736,
.47236,.369627,
.494856,.3375,
.511431,.301955,
.521582,.264071,
.525,.225,
.525,-.225,
.521582,-.264071,
.511431,-.301955,
.494856,-.3375,
.47236,-.369627,
.444627,-.39736,
.4125,-.419856,
.376955,-.436431,
.339071,-.446582,
.3,-.45,
-.3,-.45,
-.339071,-.446582,
-.376955,-.436431,
-.4125,-.419856,
-.444627,-.39736,
-.47236,-.369627,
-.494856,-.3375,
-.511431,-.301955,
-.521582,-.264071,
-.525,-.225,
-.525,0.0,
0.0*
%
%ADD17MACRO17*%
%AMMACRO24*
4,1,41,0.0,-.375,
-.185,-.375,
-.217125,-.372189,
-.248274,-.363843,
-.2775,-.350215,
-.303916,-.331718,
-.326718,-.308916,
-.345215,-.2825,
-.358843,-.253274,
-.367189,-.222125,
-.37,-.19,
-.37,.19,
-.367189,.222125,
-.358843,.253274,
-.345215,.2825,
-.326718,.308916,
-.303916,.331718,
-.2775,.350215,
-.248274,.363843,
-.217125,.372189,
-.185,.375,
.185,.375,
.217125,.372189,
.248274,.363843,
.2775,.350215,
.303916,.331718,
.326718,.308916,
.345215,.2825,
.358843,.253274,
.367189,.222125,
.37,.19,
.37,-.19,
.367189,-.222125,
.358843,-.253274,
.345215,-.2825,
.326718,-.308916,
.303916,-.331718,
.2775,-.350215,
.248274,-.363843,
.217125,-.372189,
.185,-.375,
0.0,-.375,
0.0*
%
%ADD24MACRO24*%
%AMMACRO51*
4,1,41,.2383,-.2383,
.1605,-.3161,
.131783,-.340181,
.099325,-.358916,
.064106,-.37173,
.027198,-.378233,
-.010279,-.378228,
-.047186,-.371716,
-.082401,-.358894,
-.114855,-.340152,
-.1435,-.3161,
-.3161,-.1435,
-.340193,-.114795,
-.358925,-.082335,
-.371735,-.047116,
-.378235,-.010207,
-.378227,.02727,
-.371711,.064176,
-.358885,.09939,
-.34014,.131842,
-.3161,.1605,
-.1605,.3161,
-.131783,.340181,
-.099325,.358916,
-.064106,.37173,
-.027198,.378233,
.010279,.378228,
.047186,.371716,
.082401,.358894,
.114855,.340152,
.1435,.3161,
.3161,.1435,
.340193,.114795,
.358925,.082335,
.371735,.047116,
.378235,.010207,
.378227,-.02727,
.371711,-.064176,
.358885,-.09939,
.34014,-.131842,
.3161,-.1605,
.2383,-.2383,
0.0*
%
%ADD51MACRO51*%
%AMMACRO49*
4,1,41,.337,0.0,
.337,-.11,
.333734,-.147334,
.324034,-.183534,
.308195,-.2175,
.2867,-.248199,
.260199,-.2747,
.2295,-.296195,
.195534,-.312034,
.159334,-.321734,
.122,-.325,
-.122,-.325,
-.159334,-.321734,
-.195534,-.312034,
-.2295,-.296195,
-.260199,-.2747,
-.2867,-.248199,
-.308195,-.2175,
-.324034,-.183534,
-.333734,-.147334,
-.337,-.11,
-.337,.11,
-.333734,.147334,
-.324034,.183534,
-.308195,.2175,
-.2867,.248199,
-.260199,.2747,
-.2295,.296195,
-.195534,.312034,
-.159334,.321734,
-.122,.325,
.122,.325,
.159334,.321734,
.195534,.312034,
.2295,.296195,
.260199,.2747,
.2867,.248199,
.308195,.2175,
.324034,.183534,
.333734,.147334,
.337,.11,
.337,0.0,
0.0*
%
%ADD49MACRO49*%
%AMMACRO47*
4,1,41,0.0,-.7747,
-.3556,-.7747,
-.410985,-.770056,
-.464722,-.755865,
-.515179,-.732558,
-.560821,-.700844,
-.600264,-.661686,
-.632307,-.616273,
-.655978,-.565987,
-.670557,-.512354,
-.6756,-.4572,
-.6756,.4572,
-.670522,.512547,
-.65591,.566171,
-.632208,.616443,
-.600137,.661836,
-.560671,.70097,
-.515008,.732656,
-.464537,.755932,
-.410791,.770089,
-.3556,.7747,
.3556,.7747,
.410985,.770056,
.464722,.755865,
.515179,.732558,
.560821,.700844,
.600264,.661686,
.632307,.616273,
.655978,.565987,
.670557,.512354,
.6756,.4572,
.6756,-.4572,
.670522,-.512547,
.65591,-.566171,
.632208,-.616443,
.600137,-.661836,
.560671,-.70097,
.515008,-.732656,
.464537,-.755932,
.410791,-.770089,
.3556,-.7747,
0.0,-.7747,
0.0*
%
%ADD47MACRO47*%
%AMMACRO28*
4,1,40,.23,-.105,
.23,.105,
.228405,.123233,
.223668,.140912,
.215933,.1575,
.205435,.172493,
.192493,.185435,
.1775,.195933,
.160912,.203668,
.143233,.208405,
.125,.21,
-.125,.21,
-.143233,.208405,
-.160912,.203668,
-.1775,.195933,
-.192493,.185435,
-.205435,.172493,
-.215933,.1575,
-.223668,.140912,
-.228405,.123233,
-.23,.105,
-.23,-.105,
-.228405,-.123233,
-.223668,-.140912,
-.215933,-.1575,
-.205435,-.172493,
-.192493,-.185435,
-.1775,-.195933,
-.160912,-.203668,
-.143233,-.208405,
-.125,-.21,
.125,-.21,
.143233,-.208405,
.160912,-.203668,
.1775,-.195933,
.192493,-.185435,
.205435,-.172493,
.215933,-.1575,
.223668,-.140912,
.228405,-.123233,
.23,-.105,
0.0*
%
%ADD28MACRO28*%
%AMMACRO59*
4,1,40,-.105,-.23,
.105,-.23,
.123233,-.228405,
.140912,-.223668,
.1575,-.215933,
.172493,-.205435,
.185435,-.192493,
.195933,-.1775,
.203668,-.160912,
.208405,-.143233,
.21,-.125,
.21,.125,
.208405,.143233,
.203668,.160912,
.195933,.1775,
.185435,.192493,
.172493,.205435,
.1575,.215933,
.140912,.223668,
.123233,.228405,
.105,.23,
-.105,.23,
-.123233,.228405,
-.140912,.223668,
-.1575,.215933,
-.172493,.205435,
-.185435,.192493,
-.195933,.1775,
-.203668,.160912,
-.208405,.143233,
-.21,.125,
-.21,-.125,
-.208405,-.143233,
-.203668,-.160912,
-.195933,-.1775,
-.185435,-.192493,
-.172493,-.205435,
-.1575,-.215933,
-.140912,-.223668,
-.123233,-.228405,
-.105,-.23,
0.0*
%
%ADD59MACRO59*%
%AMMACRO27*
4,1,40,.28,-.13,
.28,.13,
.278025,.152574,
.27216,.174463,
.262583,.195,
.249586,.213562,
.233562,.229586,
.215,.242583,
.194463,.25216,
.172574,.258025,
.15,.26,
-.15,.26,
-.172574,.258025,
-.194463,.25216,
-.215,.242583,
-.233562,.229586,
-.249586,.213562,
-.262583,.195,
-.27216,.174463,
-.278025,.152574,
-.28,.13,
-.28,-.13,
-.278025,-.152574,
-.27216,-.174463,
-.262583,-.195,
-.249586,-.213562,
-.233562,-.229586,
-.215,-.242583,
-.194463,-.25216,
-.172574,-.258025,
-.15,-.26,
.15,-.26,
.172574,-.258025,
.194463,-.25216,
.215,-.242583,
.233562,-.229586,
.249586,-.213562,
.262583,-.195,
.27216,-.174463,
.278025,-.152574,
.28,-.13,
0.0*
%
%ADD27MACRO27*%
%AMMACRO12*
4,1,40,-.13,-.28,
.13,-.28,
.152574,-.278025,
.174463,-.27216,
.195,-.262583,
.213562,-.249586,
.229586,-.233562,
.242583,-.215,
.25216,-.194463,
.258025,-.172574,
.26,-.15,
.26,.15,
.258025,.172574,
.25216,.194463,
.242583,.215,
.229586,.233562,
.213562,.249586,
.195,.262583,
.174463,.27216,
.152574,.278025,
.13,.28,
-.13,.28,
-.152574,.278025,
-.174463,.27216,
-.195,.262583,
-.213562,.249586,
-.229586,.233562,
-.242583,.215,
-.25216,.194463,
-.258025,.172574,
-.26,.15,
-.26,-.15,
-.258025,-.172574,
-.25216,-.194463,
-.242583,-.215,
-.229586,-.233562,
-.213562,-.249586,
-.195,-.262583,
-.174463,-.27216,
-.152574,-.278025,
-.13,-.28,
0.0*
%
%ADD12MACRO12*%
%AMMACRO31*
4,1,40,.325,-.16,
.325,.16,
.322569,.187784,
.315351,.214723,
.303564,.24,
.287567,.262846,
.267846,.282567,
.245,.298564,
.219723,.310351,
.192784,.317569,
.165,.32,
-.165,.32,
-.192784,.317569,
-.219723,.310351,
-.245,.298564,
-.267846,.282567,
-.287567,.262846,
-.303564,.24,
-.315351,.214723,
-.322569,.187784,
-.325,.16,
-.325,-.16,
-.322569,-.187784,
-.315351,-.214723,
-.303564,-.24,
-.287567,-.262846,
-.267846,-.282567,
-.245,-.298564,
-.219723,-.310351,
-.192784,-.317569,
-.165,-.32,
.165,-.32,
.192784,-.317569,
.219723,-.310351,
.245,-.298564,
.267846,-.282567,
.287567,-.262846,
.303564,-.24,
.315351,-.214723,
.322569,-.187784,
.325,-.16,
0.0*
%
%ADD31MACRO31*%
%ADD38R,1.6X.9*%
%AMMACRO14*
4,1,40,-.16,-.325,
.16,-.325,
.187784,-.322569,
.214723,-.315351,
.24,-.303564,
.262846,-.287567,
.282567,-.267846,
.298564,-.245,
.310351,-.219723,
.317569,-.192784,
.32,-.165,
.32,.165,
.317569,.192784,
.310351,.219723,
.298564,.245,
.282567,.267846,
.262846,.287567,
.24,.303564,
.214723,.315351,
.187784,.322569,
.16,.325,
-.16,.325,
-.187784,.322569,
-.214723,.315351,
-.24,.303564,
-.262846,.287567,
-.282567,.267846,
-.298564,.245,
-.310351,.219723,
-.317569,.192784,
-.32,.165,
-.32,-.165,
-.317569,-.192784,
-.310351,-.219723,
-.298564,-.245,
-.282567,-.267846,
-.262846,-.287567,
-.24,-.303564,
-.214723,-.315351,
-.187784,-.322569,
-.16,-.325,
0.0*
%
%ADD14MACRO14*%
%ADD19C,.3*%
%AMMACRO11*
4,1,40,.375,-.185,
.375,.185,
.372189,.217125,
.363843,.248274,
.350215,.2775,
.331718,.303916,
.308916,.326718,
.2825,.345215,
.253274,.358843,
.222125,.367189,
.19,.37,
-.19,.37,
-.222125,.367189,
-.253274,.358843,
-.2825,.345215,
-.308916,.326718,
-.331718,.303916,
-.350215,.2775,
-.363843,.248274,
-.372189,.217125,
-.375,.185,
-.375,-.185,
-.372189,-.217125,
-.363843,-.248274,
-.350215,-.2775,
-.331718,-.303916,
-.308916,-.326718,
-.2825,-.345215,
-.253274,-.358843,
-.222125,-.367189,
-.19,-.37,
.19,-.37,
.222125,-.367189,
.253274,-.358843,
.2825,-.345215,
.308916,-.326718,
.331718,-.303916,
.350215,-.2775,
.363843,-.248274,
.372189,-.217125,
.375,-.185,
0.0*
%
%ADD11MACRO11*%
%ADD55C,.4*%
%AMMACRO18*
4,1,40,-.185,-.375,
.185,-.375,
.217125,-.372189,
.248274,-.363843,
.2775,-.350215,
.303916,-.331718,
.326718,-.308916,
.345215,-.2825,
.358843,-.253274,
.367189,-.222125,
.37,-.19,
.37,.19,
.367189,.222125,
.358843,.253274,
.345215,.2825,
.326718,.308916,
.303916,.331718,
.2775,.350215,
.248274,.363843,
.217125,.372189,
.185,.375,
-.185,.375,
-.217125,.372189,
-.248274,.363843,
-.2775,.350215,
-.303916,.331718,
-.326718,.308916,
-.345215,.2825,
-.358843,.253274,
-.367189,.222125,
-.37,.19,
-.37,-.19,
-.367189,-.222125,
-.358843,-.253274,
-.345215,-.2825,
-.326718,-.308916,
-.303916,-.331718,
-.2775,-.350215,
-.248274,-.363843,
-.217125,-.372189,
-.185,-.375,
0.0*
%
%ADD18MACRO18*%
%AMMACRO60*
4,1,36,-.2375,0.0,
-.233892,-.041241,
-.223177,-.08123,
-.205681,-.11875,
-.181936,-.152662,
-.152662,-.181936,
-.11875,-.205681,
-.08123,-.223177,
-.041241,-.233892,
0.0,-.2375,
.041241,-.233892,
.08123,-.223177,
.11875,-.205681,
.152662,-.181936,
.181936,-.152662,
.205681,-.11875,
.223177,-.08123,
.233892,-.041241,
.2375,0.0,
.233892,.041241,
.223177,.08123,
.205681,.11875,
.181936,.152662,
.152662,.181936,
.11875,.205681,
.08123,.223177,
.041241,.233892,
0.0,.2375,
-.041241,.233892,
-.08123,.223177,
-.11875,.205681,
-.152662,.181936,
-.181936,.152662,
-.205681,.11875,
-.223177,.08123,
-.233892,.041241,
-.2375,0.0,
0.0*
%
%ADD60MACRO60*%
%ADD65C,.7*%
%ADD56R,.45X1.85*%
%ADD53C,.55*%
%ADD33R,.5X.5*%
%AMMACRO22*
4,1,41,-.575,0.0,
-.575,.2375,
-.570252,.291765,
-.556154,.344381,
-.533133,.39375,
-.501889,.438371,
-.463371,.476889,
-.41875,.508133,
-.369381,.531154,
-.316765,.545252,
-.2625,.55,
.2625,.55,
.316765,.545252,
.369381,.531154,
.41875,.508133,
.463371,.476889,
.501889,.438371,
.533133,.39375,
.556154,.344381,
.570252,.291765,
.575,.2375,
.575,-.2375,
.570252,-.291765,
.556154,-.344381,
.533133,-.39375,
.501889,-.438371,
.463371,-.476889,
.41875,-.508133,
.369381,-.531154,
.316765,-.545252,
.2625,-.55,
-.2625,-.55,
-.316765,-.545252,
-.369381,-.531154,
-.41875,-.508133,
-.463371,-.476889,
-.501889,-.438371,
-.533133,-.39375,
-.556154,-.344381,
-.570252,-.291765,
-.575,-.2375,
-.575,0.0,
0.0*
%
%ADD22MACRO22*%
%AMMACRO57*
4,1,41,-.3,0.0,
-.3,.075,
-.298101,.096706,
-.292462,.117753,
-.283253,.1375,
-.270756,.155348,
-.255348,.170756,
-.2375,.183253,
-.217753,.192462,
-.196706,.198101,
-.175,.2,
.175,.2,
.196706,.198101,
.217753,.192462,
.2375,.183253,
.255348,.170756,
.270756,.155348,
.283253,.1375,
.292462,.117753,
.298101,.096706,
.3,.075,
.3,-.075,
.298101,-.096706,
.292462,-.117753,
.283253,-.1375,
.270756,-.155348,
.255348,-.170756,
.2375,-.183253,
.217753,-.192462,
.196706,-.198101,
.175,-.2,
-.175,-.2,
-.196706,-.198101,
-.217753,-.192462,
-.2375,-.183253,
-.255348,-.170756,
-.270756,-.155348,
-.283253,-.1375,
-.292462,-.117753,
-.298101,-.096706,
-.3,-.075,
-.3,0.0,
0.0*
%
%ADD57MACRO57*%
%AMMACRO42*
4,1,15,.375,.925,
-.375,.925,
-.375,-.925,
.375,-.925,
.375,-.4583,
.301874,-.37753,
.243885,-.28529,
.202794,-.184381,
.17985,-.07787,
.17575,.031008,
.190619,.138943,
.224005,.242657,
.274893,.338997,
.341737,.425037,
.375,.4583,
.375,.925,
0.0*
%
%ADD42MACRO42*%
%AMMACRO46*
4,1,45,.2652,.2652,
.396,.1344,
.416696,.109664,
.432823,.081739,
.443856,.051437,
.449459,.01968,
.449463,-.012567,
.443867,-.044326,
.432841,-.07463,
.41672,-.102559,
.395995,-.127264,
.396,-.1273,
.1273,-.396,
.102576,-.416708,
.074649,-.432832,
.044346,-.443861,
.012589,-.449461,
-.019659,-.449461,
-.051417,-.443861,
-.08172,-.432832,
-.109647,-.416708,
-.13435,-.39598,
-.1344,-.396,
-.396,-.1344,
-.416696,-.109664,
-.432823,-.081739,
-.443856,-.051437,
-.449459,-.01968,
-.449463,.012567,
-.443867,.044326,
-.432841,.07463,
-.41672,.102559,
-.395995,.127264,
-.396,.1273,
-.1273,.396,
-.102576,.416708,
-.074649,.432832,
-.044346,.443861,
-.012589,.449461,
.019659,.449461,
.051417,.443861,
.08172,.432832,
.109647,.416708,
.13435,.39598,
.1344,.396,
.2652,.2652,
0.0*
%
%ADD46MACRO46*%
%AMMACRO25*
4,1,41,-.375,0.0,
-.375,.185,
-.372189,.217125,
-.363843,.248274,
-.350215,.2775,
-.331718,.303916,
-.308916,.326718,
-.2825,.345215,
-.253274,.358843,
-.222125,.367189,
-.19,.37,
.19,.37,
.222125,.367189,
.253274,.358843,
.2825,.345215,
.308916,.326718,
.331718,.303916,
.350215,.2775,
.363843,.248274,
.372189,.217125,
.375,.185,
.375,-.185,
.372189,-.217125,
.363843,-.248274,
.350215,-.2775,
.331718,-.303916,
.308916,-.326718,
.2825,-.345215,
.253274,-.358843,
.222125,-.367189,
.19,-.37,
-.19,-.37,
-.222125,-.367189,
-.253274,-.358843,
-.2825,-.345215,
-.308916,-.326718,
-.331718,-.303916,
-.350215,-.2775,
-.363843,-.248274,
-.372189,-.217125,
-.375,-.185,
-.375,0.0,
0.0*
%
%ADD25MACRO25*%
%AMMACRO64*
4,1,41,0.0,.375,
.0875,.375,
.098353,.37405,
.108876,.371231,
.11875,.366627,
.127674,.360378,
.135378,.352674,
.141627,.34375,
.146231,.333876,
.14905,.323353,
.15,.3125,
.15,-.3125,
.14905,-.323353,
.146231,-.333876,
.141627,-.34375,
.135378,-.352674,
.127674,-.360378,
.11875,-.366627,
.108876,-.371231,
.098353,-.37405,
.0875,-.375,
-.0875,-.375,
-.098353,-.37405,
-.108876,-.371231,
-.11875,-.366627,
-.127674,-.360378,
-.135378,-.352674,
-.141627,-.34375,
-.146231,-.333876,
-.14905,-.323353,
-.15,-.3125,
-.15,.3125,
-.14905,.323353,
-.146231,.333876,
-.141627,.34375,
-.135378,.352674,
-.127674,.360378,
-.11875,.366627,
-.108876,.371231,
-.098353,.37405,
-.0875,.375,
0.0,.375,
0.0*
%
%ADD64MACRO64*%
%AMMACRO63*
4,1,41,-.375,0.0,
-.375,.0875,
-.37405,.098353,
-.371231,.108876,
-.366627,.11875,
-.360378,.127674,
-.352674,.135378,
-.34375,.141627,
-.333876,.146231,
-.323353,.14905,
-.3125,.15,
.3125,.15,
.323353,.14905,
.333876,.146231,
.34375,.141627,
.352674,.135378,
.360378,.127674,
.366627,.11875,
.371231,.108876,
.37405,.098353,
.375,.0875,
.375,-.0875,
.37405,-.098353,
.371231,-.108876,
.366627,-.11875,
.360378,-.127674,
.352674,-.135378,
.34375,-.141627,
.333876,-.146231,
.323353,-.14905,
.3125,-.15,
-.3125,-.15,
-.323353,-.14905,
-.333876,-.146231,
-.34375,-.141627,
-.352674,-.135378,
-.360378,-.127674,
-.366627,-.11875,
-.371231,-.108876,
-.37405,-.098353,
-.375,-.0875,
-.375,0.0,
0.0*
%
%ADD63MACRO63*%
%AMMACRO16*
4,1,41,.525,0.0,
.525,-.225,
.521582,-.264071,
.511431,-.301955,
.494856,-.3375,
.47236,-.369627,
.444627,-.39736,
.4125,-.419856,
.376955,-.436431,
.339071,-.446582,
.3,-.45,
-.3,-.45,
-.339071,-.446582,
-.376955,-.436431,
-.4125,-.419856,
-.444627,-.39736,
-.47236,-.369627,
-.494856,-.3375,
-.511431,-.301955,
-.521582,-.264071,
-.525,-.225,
-.525,.225,
-.521582,.264071,
-.511431,.301955,
-.494856,.3375,
-.47236,.369627,
-.444627,.39736,
-.4125,.419856,
-.376955,.436431,
-.339071,.446582,
-.3,.45,
.3,.45,
.339071,.446582,
.376955,.436431,
.4125,.419856,
.444627,.39736,
.47236,.369627,
.494856,.3375,
.511431,.301955,
.521582,.264071,
.525,.225,
.525,0.0,
0.0*
%
%ADD16MACRO16*%
%AMMACRO58*
4,1,40,.105,.23,
-.105,.23,
-.123233,.228405,
-.140912,.223668,
-.1575,.215933,
-.172493,.205435,
-.185435,.192493,
-.195933,.1775,
-.203668,.160912,
-.208405,.143233,
-.21,.125,
-.21,-.125,
-.208405,-.143233,
-.203668,-.160912,
-.195933,-.1775,
-.185435,-.192493,
-.172493,-.205435,
-.1575,-.215933,
-.140912,-.223668,
-.123233,-.228405,
-.105,-.23,
.105,-.23,
.123233,-.228405,
.140912,-.223668,
.1575,-.215933,
.172493,-.205435,
.185435,-.192493,
.195933,-.1775,
.203668,-.160912,
.208405,-.143233,
.21,-.125,
.21,.125,
.208405,.143233,
.203668,.160912,
.195933,.1775,
.185435,.192493,
.172493,.205435,
.1575,.215933,
.140912,.223668,
.123233,.228405,
.105,.23,
0.0*
%
%ADD58MACRO58*%
%AMMACRO50*
4,1,41,-.2383,.2383,
-.1605,.3161,
-.131783,.340181,
-.099325,.358916,
-.064106,.37173,
-.027198,.378233,
.010279,.378228,
.047186,.371716,
.082401,.358894,
.114855,.340152,
.1435,.3161,
.3161,.1435,
.340193,.114795,
.358925,.082335,
.371735,.047116,
.378235,.010207,
.378227,-.02727,
.371711,-.064176,
.358885,-.09939,
.34014,-.131842,
.3161,-.1605,
.1605,-.3161,
.131783,-.340181,
.099325,-.358916,
.064106,-.37173,
.027198,-.378233,
-.010279,-.378228,
-.047186,-.371716,
-.082401,-.358894,
-.114855,-.340152,
-.1435,-.3161,
-.3161,-.1435,
-.340193,-.114795,
-.358925,-.082335,
-.371735,-.047116,
-.378235,-.010207,
-.378227,.02727,
-.371711,.064176,
-.358885,.09939,
-.34014,.131842,
-.3161,.1605,
-.2383,.2383,
0.0*
%
%ADD50MACRO50*%
%AMMACRO48*
4,1,41,-.337,0.0,
-.337,.11,
-.333734,.147334,
-.324034,.183534,
-.308195,.2175,
-.2867,.248199,
-.260199,.2747,
-.2295,.296195,
-.195534,.312034,
-.159334,.321734,
-.122,.325,
.122,.325,
.159334,.321734,
.195534,.312034,
.2295,.296195,
.260199,.2747,
.2867,.248199,
.308195,.2175,
.324034,.183534,
.333734,.147334,
.337,.11,
.337,-.11,
.333734,-.147334,
.324034,-.183534,
.308195,-.2175,
.2867,-.248199,
.260199,-.2747,
.2295,-.296195,
.195534,-.312034,
.159334,-.321734,
.122,-.325,
-.122,-.325,
-.159334,-.321734,
-.195534,-.312034,
-.2295,-.296195,
-.260199,-.2747,
-.2867,-.248199,
-.308195,-.2175,
-.324034,-.183534,
-.333734,-.147334,
-.337,-.11,
-.337,0.0,
0.0*
%
%ADD48MACRO48*%
%AMMACRO29*
4,1,40,-.23,.105,
-.23,-.105,
-.228405,-.123233,
-.223668,-.140912,
-.215933,-.1575,
-.205435,-.172493,
-.192493,-.185435,
-.1775,-.195933,
-.160912,-.203668,
-.143233,-.208405,
-.125,-.21,
.125,-.21,
.143233,-.208405,
.160912,-.203668,
.1775,-.195933,
.192493,-.185435,
.205435,-.172493,
.215933,-.1575,
.223668,-.140912,
.228405,-.123233,
.23,-.105,
.23,.105,
.228405,.123233,
.223668,.140912,
.215933,.1575,
.205435,.172493,
.192493,.185435,
.1775,.195933,
.160912,.203668,
.143233,.208405,
.125,.21,
-.125,.21,
-.143233,.208405,
-.160912,.203668,
-.1775,.195933,
-.192493,.185435,
-.205435,.172493,
-.215933,.1575,
-.223668,.140912,
-.228405,.123233,
-.23,.105,
0.0*
%
%ADD29MACRO29*%
%AMMACRO61*
4,1,40,-.2875,.975,
.2875,.975,
.337424,.970632,
.385831,.957662,
.43125,.936482,
.472301,.907738,
.507738,.872301,
.536482,.83125,
.557662,.785831,
.570632,.737424,
.575,.6875,
.575,-.6875,
.570632,-.737424,
.557662,-.785831,
.536482,-.83125,
.507738,-.872301,
.472301,-.907738,
.43125,-.936482,
.385831,-.957662,
.337424,-.970632,
.2875,-.975,
-.2875,-.975,
-.337424,-.970632,
-.385831,-.957662,
-.43125,-.936482,
-.472301,-.907738,
-.507738,-.872301,
-.536482,-.83125,
-.557662,-.785831,
-.570632,-.737424,
-.575,-.6875,
-.575,.6875,
-.570632,.737424,
-.557662,.785831,
-.536482,.83125,
-.507738,.872301,
-.472301,.907738,
-.43125,.936482,
-.385831,.957662,
-.337424,.970632,
-.2875,.975,
0.0*
%
%ADD61MACRO61*%
%AMMACRO30*
4,1,41,0.0,.45,
.2438,.45,
.279614,.446858,
.314339,.437545,
.346918,.422343,
.376363,.401715,
.401779,.376287,
.422393,.346832,
.437579,.314245,
.446875,.279516,
.45,.2438,
.45,-.2438,
.446858,-.279614,
.437545,-.314339,
.422343,-.346918,
.401715,-.376363,
.376287,-.401779,
.346832,-.422393,
.314245,-.437579,
.279516,-.446875,
.2438,-.45,
-.2438,-.45,
-.279614,-.446858,
-.314339,-.437545,
-.346918,-.422343,
-.376363,-.401715,
-.401779,-.376287,
-.422393,-.346832,
-.437579,-.314245,
-.446875,-.279516,
-.45,-.2438,
-.45,.2438,
-.446858,.279614,
-.437545,.314339,
-.422343,.346918,
-.401715,.376363,
-.376287,.401779,
-.346832,.422393,
-.314245,.437579,
-.279516,.446875,
-.2438,.45,
0.0,.45,
0.0*
%
%ADD30MACRO30*%
%AMMACRO21*
4,1,40,-.28,.13,
-.28,-.13,
-.278025,-.152574,
-.27216,-.174463,
-.262583,-.195,
-.249586,-.213562,
-.233562,-.229586,
-.215,-.242583,
-.194463,-.25216,
-.172574,-.258025,
-.15,-.26,
.15,-.26,
.172574,-.258025,
.194463,-.25216,
.215,-.242583,
.233562,-.229586,
.249586,-.213562,
.262583,-.195,
.27216,-.174463,
.278025,-.152574,
.28,-.13,
.28,.13,
.278025,.152574,
.27216,.174463,
.262583,.195,
.249586,.213562,
.233562,.229586,
.215,.242583,
.194463,.25216,
.172574,.258025,
.15,.26,
-.15,.26,
-.172574,.258025,
-.194463,.25216,
-.215,.242583,
-.233562,.229586,
-.249586,.213562,
-.262583,.195,
-.27216,.174463,
-.278025,.152574,
-.28,.13,
0.0*
%
%ADD21MACRO21*%
%AMMACRO20*
4,1,40,.13,.28,
-.13,.28,
-.152574,.278025,
-.174463,.27216,
-.195,.262583,
-.213562,.249586,
-.229586,.233562,
-.242583,.215,
-.25216,.194463,
-.258025,.172574,
-.26,.15,
-.26,-.15,
-.258025,-.172574,
-.25216,-.194463,
-.242583,-.215,
-.229586,-.233562,
-.213562,-.249586,
-.195,-.262583,
-.174463,-.27216,
-.152574,-.278025,
-.13,-.28,
.13,-.28,
.152574,-.278025,
.174463,-.27216,
.195,-.262583,
.213562,-.249586,
.229586,-.233562,
.242583,-.215,
.25216,-.194463,
.258025,-.172574,
.26,-.15,
.26,.15,
.258025,.172574,
.25216,.194463,
.242583,.215,
.229586,.233562,
.213562,.249586,
.195,.262583,
.174463,.27216,
.152574,.278025,
.13,.28,
0.0*
%
%ADD20MACRO20*%
%ADD34O,.9X.4*%
%AMMACRO32*
4,1,44,-.3429,-.1167,
-.1167,-.3429,
-.095351,-.360844,
-.071202,-.374797,
-.044997,-.384344,
-.017533,-.389196,
.010357,-.389205,
.037825,-.384371,
.064036,-.374841,
.088194,-.360904,
.109564,-.342984,
.1096,-.3429,
.3429,-.1096,
.360856,-.088263,
.374805,-.064112,
.38435,-.037906,
.389198,-.010441,
.389204,.017449,
.384366,.044916,
.374832,.071125,
.360892,.095282,
.342969,.11665,
.3429,.1167,
.1167,.3429,
.095351,.360844,
.071202,.374797,
.044997,.384344,
.017533,.389196,
-.010357,.389205,
-.037825,.384371,
-.064036,.374841,
-.088194,.360904,
-.109564,.342984,
-.1096,.3429,
-.3429,.1096,
-.360856,.088263,
-.374805,.064112,
-.38435,.037906,
-.389198,.010441,
-.389204,-.017449,
-.384366,-.044916,
-.374832,-.071125,
-.360892,-.095282,
-.342969,-.11665,
-.3429,-.1167,
0.0*
%
%ADD32MACRO32*%
%AMMACRO26*
4,1,40,.16,.325,
-.16,.325,
-.187784,.322569,
-.214723,.315351,
-.24,.303564,
-.262846,.287567,
-.282567,.267846,
-.298564,.245,
-.310351,.219723,
-.317569,.192784,
-.32,.165,
-.32,-.165,
-.317569,-.192784,
-.310351,-.219723,
-.298564,-.245,
-.282567,-.267846,
-.262846,-.287567,
-.24,-.303564,
-.214723,-.315351,
-.187784,-.322569,
-.16,-.325,
.16,-.325,
.187784,-.322569,
.214723,-.315351,
.24,-.303564,
.262846,-.287567,
.282567,-.267846,
.298564,-.245,
.310351,-.219723,
.317569,-.192784,
.32,-.165,
.32,.165,
.317569,.192784,
.310351,.219723,
.298564,.245,
.282567,.267846,
.262846,.287567,
.24,.303564,
.214723,.315351,
.187784,.322569,
.16,.325,
0.0*
%
%ADD26MACRO26*%
%AMMACRO15*
4,1,40,-.325,.16,
-.325,-.16,
-.322569,-.187784,
-.315351,-.214723,
-.303564,-.24,
-.287567,-.262846,
-.267846,-.282567,
-.245,-.298564,
-.219723,-.310351,
-.192784,-.317569,
-.165,-.32,
.165,-.32,
.192784,-.317569,
.219723,-.310351,
.245,-.298564,
.267846,-.282567,
.287567,-.262846,
.303564,-.24,
.315351,-.214723,
.322569,-.187784,
.325,-.16,
.325,.16,
.322569,.187784,
.315351,.214723,
.303564,.24,
.287567,.262846,
.267846,.282567,
.245,.298564,
.219723,.310351,
.192784,.317569,
.165,.32,
-.165,.32,
-.192784,.317569,
-.219723,.310351,
-.245,.298564,
-.267846,.282567,
-.287567,.262846,
-.303564,.24,
-.315351,.214723,
-.322569,.187784,
-.325,.16,
0.0*
%
%ADD15MACRO15*%
%ADD37C,1.1*%
%ADD35O,.4X.9*%
%AMMACRO41*
4,1,40,-.375,.185,
-.375,-.185,
-.372189,-.217125,
-.363843,-.248274,
-.350215,-.2775,
-.331718,-.303916,
-.308916,-.326718,
-.2825,-.345215,
-.253274,-.358843,
-.222125,-.367189,
-.19,-.37,
.19,-.37,
.222125,-.367189,
.253274,-.358843,
.2825,-.345215,
.308916,-.326718,
.331718,-.303916,
.350215,-.2775,
.363843,-.248274,
.372189,-.217125,
.375,-.185,
.375,.185,
.372189,.217125,
.363843,.248274,
.350215,.2775,
.331718,.303916,
.308916,.326718,
.2825,.345215,
.253274,.358843,
.222125,.367189,
.19,.37,
-.19,.37,
-.222125,.367189,
-.253274,.358843,
-.2825,.345215,
-.308916,.326718,
-.331718,.303916,
-.350215,.2775,
-.363843,.248274,
-.372189,.217125,
-.375,.185,
0.0*
%
%ADD41MACRO41*%
%AMMACRO40*
4,1,40,.185,.375,
-.185,.375,
-.217125,.372189,
-.248274,.363843,
-.2775,.350215,
-.303916,.331718,
-.326718,.308916,
-.345215,.2825,
-.358843,.253274,
-.367189,.222125,
-.37,.19,
-.37,-.19,
-.367189,-.222125,
-.358843,-.253274,
-.345215,-.2825,
-.326718,-.308916,
-.303916,-.331718,
-.2775,-.350215,
-.248274,-.363843,
-.217125,-.372189,
-.185,-.375,
.185,-.375,
.217125,-.372189,
.248274,-.363843,
.2775,-.350215,
.303916,-.331718,
.326718,-.308916,
.345215,-.2825,
.358843,-.253274,
.367189,-.222125,
.37,-.19,
.37,.19,
.367189,.222125,
.358843,.253274,
.345215,.2825,
.326718,.308916,
.303916,.331718,
.2775,.350215,
.248274,.363843,
.217125,.372189,
.185,.375,
0.0*
%
%ADD40MACRO40*%
%ADD39O,.4X.65*%
%ADD54O,2.15X3.75*%
%ADD10C,1.42*%
%ADD62R,1.75X1.9*%
%ADD52R,1.15X1.15*%
%ADD36R,5.4X5.4*%
%AMMACRO23*
4,1,41,0.0,-.575,
-.2375,-.575,
-.291765,-.570252,
-.344381,-.556154,
-.39375,-.533133,
-.438371,-.501889,
-.476889,-.463371,
-.508133,-.41875,
-.531154,-.369381,
-.545252,-.316765,
-.55,-.2625,
-.55,.2625,
-.545252,.316765,
-.531154,.369381,
-.508133,.41875,
-.476889,.463371,
-.438371,.501889,
-.39375,.533133,
-.344381,.556154,
-.291765,.570252,
-.2375,.575,
.2375,.575,
.291765,.570252,
.344381,.556154,
.39375,.533133,
.438371,.501889,
.476889,.463371,
.508133,.41875,
.531154,.369381,
.545252,.316765,
.55,.2625,
.55,-.2625,
.545252,-.316765,
.531154,-.369381,
.508133,-.41875,
.476889,-.463371,
.438371,-.501889,
.39375,-.533133,
.344381,-.556154,
.291765,-.570252,
.2375,-.575,
0.0,-.575,
0.0*
%
%ADD23MACRO23*%
%AMMACRO43*
4,1,15,-.375,-.925,
.375,-.925,
.375,.925,
-.375,.925,
-.375,.4583,
-.301874,.37753,
-.243885,.28529,
-.202794,.184381,
-.17985,.07787,
-.17575,-.031008,
-.190619,-.138943,
-.224005,-.242657,
-.274893,-.338997,
-.341737,-.425037,
-.375,-.4583,
-.375,-.925,
0.0*
%
%ADD43MACRO43*%
%AMMACRO13*
4,1,40,-.275,-.75,
.275,-.75,
.322753,-.745822,
.369056,-.733415,
.4125,-.713157,
.451767,-.685662,
.485662,-.651767,
.513157,-.6125,
.533415,-.569056,
.545822,-.522753,
.55,-.475,
.55,.475,
.545822,.522753,
.533415,.569056,
.513157,.6125,
.485662,.651767,
.451767,.685662,
.4125,.713157,
.369056,.733415,
.322753,.745822,
.275,.75,
-.275,.75,
-.322753,.745822,
-.369056,.733415,
-.4125,.713157,
-.451767,.685662,
-.485662,.651767,
-.513157,.6125,
-.533415,.569056,
-.545822,.522753,
-.55,.475,
-.55,-.475,
-.545822,-.522753,
-.533415,-.569056,
-.513157,-.6125,
-.485662,-.651767,
-.451767,-.685662,
-.4125,-.713157,
-.369056,-.733415,
-.322753,-.745822,
-.275,-.75,
0.0*
%
%ADD13MACRO13*%
%ADD66C,.1*%
G75*
%LPD*%
G75*
G54D10*
X195600Y2095800D03*
X3991730Y595840D03*
X4041500Y2196000D03*
G54D20*
X1081710Y647050D03*
Y713050D03*
G54D11*
X196300Y2299800D03*
X286300D03*
G54D21*
X618900Y286000D03*
X684900D03*
G54D30*
X821300Y1324000D03*
X671300D03*
G54D12*
X1452900Y640300D03*
X792410Y834740D03*
Y900740D03*
X1452900Y706300D03*
G54D13*
X1587300Y384760D03*
X1747300D03*
G54D40*
X1701300Y1640400D03*
Y1550400D03*
X1355300Y1713000D03*
Y1623000D03*
X1701860Y1907180D03*
Y1817180D03*
G54D22*
X1461850Y464040D03*
Y304040D03*
G54D31*
X1781300Y1729100D03*
X1701300D03*
X1186900Y1675900D03*
X1106900D03*
X1501400Y1494100D03*
X1421400D03*
X1355900Y2051200D03*
X1275900D03*
X1355800Y1798800D03*
X1275800D03*
X2452500Y1354600D03*
X2372500D03*
G54D23*
X1565300Y598920D03*
X1725300D03*
G54D41*
X887300Y794600D03*
X977300D03*
G54D32*
X1031730Y2336630D03*
X1088300Y2393200D03*
G54D50*
X1201900Y2279600D03*
G54D14*
X1359000Y626600D03*
Y706600D03*
X780200Y502300D03*
Y582300D03*
X1586500Y1547300D03*
Y1627300D03*
X589000Y1323700D03*
Y1403700D03*
X2396600Y752800D03*
Y832800D03*
X2475300Y752700D03*
Y832700D03*
G54D15*
X1645640Y503900D03*
X1725640D03*
X1783000Y1576400D03*
X1863000D03*
X1421730Y1425840D03*
X1501730D03*
X1347500Y1223400D03*
X1427500D03*
X1507710Y1909800D03*
X1587710D03*
X1286730Y1150840D03*
X1366730D03*
G54D42*
X1454290Y2080540D03*
X1023500Y2043900D03*
G54D33*
X692100Y2001340D03*
Y2146340D03*
X757100Y2001340D03*
Y2146340D03*
X822100Y2001340D03*
Y2146340D03*
X887100Y2001340D03*
Y2146340D03*
G54D60*
X3619330Y1062090D03*
G54D51*
X1136560Y2344940D03*
G54D24*
X689800Y563500D03*
Y653500D03*
X1752980Y2217480D03*
Y2307480D03*
G54D43*
X1614290Y2080540D03*
X1183500Y2043900D03*
G54D52*
X1458580Y2506710D03*
G54D34*
X1579230Y1348340D03*
Y1298340D03*
Y1248340D03*
Y1198340D03*
Y1148340D03*
Y1098340D03*
Y1048340D03*
Y998340D03*
Y948340D03*
Y898340D03*
Y848340D03*
Y798340D03*
X2274230D03*
Y848340D03*
Y898340D03*
Y948340D03*
Y998340D03*
Y1048340D03*
Y1098340D03*
Y1148340D03*
Y1198340D03*
Y1248340D03*
Y1298340D03*
Y1348340D03*
G54D61*
X2405730Y1814840D03*
X2155730D03*
G54D16*
X1251500Y233600D03*
Y373600D03*
G54D25*
X933300Y530100D03*
X1023300D03*
G54D62*
X2896730Y1030840D03*
G54D35*
X1651730Y725840D03*
X1701730D03*
X1751730D03*
X1801730D03*
X1851730D03*
X1901730D03*
X1951730D03*
X2001730D03*
Y1420840D03*
X1951730D03*
X1901730D03*
X1851730D03*
X1801730D03*
X1751730D03*
X1701730D03*
X1651730D03*
X2051730Y725840D03*
X2101730D03*
X2151730D03*
X2201730D03*
Y1420840D03*
X2151730D03*
X2101730D03*
X2051730D03*
G54D26*
X1356900Y1960700D03*
Y1880700D03*
X1016500Y1198500D03*
Y1118500D03*
X1866500Y1739200D03*
Y1659200D03*
X1586000Y1808100D03*
Y1728100D03*
X2056600Y1832400D03*
Y1752400D03*
X2506700Y1881800D03*
Y1801800D03*
G54D53*
X1859780Y3095400D03*
X1659880D03*
Y2595520D03*
X1459980Y3095400D03*
X1859780Y2595520D03*
X3259820D03*
X3059930Y3095400D03*
Y2595520D03*
X2859770Y3095400D03*
Y2595520D03*
X2659880Y3095400D03*
Y2595520D03*
X2459720Y3095400D03*
Y2595520D03*
X2259830Y3095400D03*
Y2595520D03*
X2059930Y3095400D03*
Y2595520D03*
X3260100Y3097200D03*
X3459600Y2593400D03*
G54D17*
X1252700Y646300D03*
Y506300D03*
G54D44*
X1534290Y1985540D03*
Y2175540D03*
X1103500Y1948900D03*
Y2138900D03*
G54D36*
X1926730Y1073340D03*
G54D54*
X2990730Y399840D03*
X3970730Y249840D03*
G54D63*
X2741730Y1130840D03*
Y1090840D03*
Y1050840D03*
Y1010840D03*
Y970840D03*
Y930840D03*
X3051730D03*
Y970840D03*
Y1010840D03*
Y1050840D03*
Y1090840D03*
Y1130840D03*
G54D18*
X759000Y295600D03*
Y385600D03*
X1457400Y2304200D03*
Y2394200D03*
G54D27*
X1322730Y1045840D03*
X1256730D03*
G54D45*
X1753120Y2217790D03*
X1663120D03*
G54D37*
X316780Y1007570D03*
Y1792570D03*
G54D64*
X2796730Y875840D03*
X2836730D03*
X2876730D03*
X2916730D03*
X2956730D03*
X2996730D03*
Y1185840D03*
X2956730D03*
X2916730D03*
X2876730D03*
X2836730D03*
X2796730D03*
G54D46*
X1202140Y2279640D03*
X1138500Y2216000D03*
G54D55*
X3362200Y376400D03*
X3462200D03*
X3362200Y426400D03*
X3462200D03*
X3362200Y476400D03*
X3462200D03*
X3362200Y526400D03*
X3462200D03*
X3386730Y1830840D03*
Y1780840D03*
Y1730840D03*
X3336730Y1830840D03*
Y1730840D03*
X3286730Y1830840D03*
Y1780840D03*
Y1730840D03*
G54D19*
X927300Y652870D03*
X977300D03*
X634100Y385800D03*
X684100D03*
X634100Y335800D03*
X684100D03*
X927300Y702870D03*
X977300D03*
G54D28*
X943700Y1938100D03*
X887700D03*
X2832300Y324200D03*
X2776300D03*
X2802800Y1274000D03*
X2746800D03*
G54D29*
X606810Y1809000D03*
X662810D03*
X699100Y1931300D03*
X755100D03*
X2315300Y449110D03*
X2371300D03*
X2938900Y800400D03*
X2994900D03*
X3821100Y1440800D03*
X3877100D03*
G54D56*
X2591100Y492500D03*
G54D65*
X3618730Y1060840D03*
G54D38*
X790440Y1701570D03*
G54D47*
X1008740Y1540830D03*
Y1312830D03*
X1186740D03*
Y1540830D03*
G54D66*
G01X0Y0D02*
X1100000D01*
G02X3100000I1000000J-1542012D01*
G01X4200000D01*
Y3200000D01*
X3935000D01*
Y3100000D01*
X3825000D01*
Y3200000D01*
X375000D01*
Y3100000D01*
X265000D01*
X264990Y3200000D01*
X0D01*
Y0D01*
G01X3192040Y588030D02*
Y233040D01*
G03X3212030Y213050I19990J0D01*
G01X3352030D01*
G03X3372020Y233040I0J19990D01*
G01Y258030D01*
G03X3352030Y278050I-20000J20D01*
G01X3277030D01*
G02X3257040Y298040I3J19993D01*
G01Y588030D01*
G03X3237020Y608050I-20007J13D01*
G01X3212030D01*
G03X3192040Y588030I10J-20000D01*
G01X3638420Y588000D02*
Y232990D01*
G02X3618430Y213000I-19997J7D01*
G01X3478430D01*
G02X3458440Y232990I0J19990D01*
G01Y258010D01*
G02X3478430Y278000I19990J0D01*
G01X3553440D01*
G03X3573430Y298010I-10J20000D01*
G01Y588000D01*
G02X3593440Y607990I19997J-7D01*
G01X3618430D01*
G02X3638420Y588000I-3J-19993D01*
G01X3116730Y1540840D02*
X3526730D01*
Y1600840D01*
X3176730D01*
Y1950840D01*
X3526730D01*
Y2010840D01*
X3116730D01*
Y1540840D01*
G54D39*
X855440Y1606570D03*
X790440D03*
X725440D03*
X855440Y1796570D03*
X790440D03*
X725440D03*
G54D48*
X1752890Y2393960D03*
G54D57*
X2711100Y567500D03*
Y517500D03*
Y467500D03*
Y417500D03*
X2471100Y567500D03*
Y517500D03*
Y467500D03*
Y417500D03*
G54D58*
X3122200Y1010600D03*
Y954600D03*
X3122300Y1146700D03*
Y1090700D03*
X3704100Y1472800D03*
Y1416800D03*
X3800700Y1773700D03*
Y1717700D03*
G54D49*
X1660490Y2393960D03*
G54D59*
X2665300Y1050300D03*
Y1106300D03*
X3699500Y1717800D03*
Y1773800D03*
M02*
