G04 ================== begin FILE IDENTIFICATION RECORD ==================*
G04 Layout Name:  CC1350SensorTag.brd*
G04 Film Name:    CC1350STK_assembly_bottom*
G04 File Format:  Gerber RS274X*
G04 File Origin:  Cadence Allegro 16.6-S019*
G04 Origin Date:  Wed Nov 09 12:53:35 2016*
G04 *
G04 Layer:  REF DES/ASSEMBLY_BOTTOM*
G04 Layer:  PACKAGE GEOMETRY/ASSEMBLY_BOTTOM*
G04 Layer:  BOARD GEOMETRY/OUTLINE*
G04 *
G04 Offset:    (0.0000 0.0000)*
G04 Mirror:    No*
G04 Mode:      Positive*
G04 Rotation:  0*
G04 FullContactRelief:  No*
G04 UndefLineWidth:     0.1000*
G04 ================== end FILE IDENTIFICATION RECORD ====================*
%FSLAX25Y25*MOMM*%
%IR0*IPPOS*OFA0.00000B0.00000*MIA0B0*SFA1.00000B1.00000*%
%ADD10C,.1*%
%ADD11C,.03*%
%ADD12C,.05*%
G75*
%LPD*%
G75*
G36*
G01X685300Y1288000D02*
Y1360700D01*
X707300D01*
Y1288000D01*
X685300D01*
G37*
G54D10*
G01X1928000Y1145840D02*
Y1082060D01*
X1924130Y1068700D01*
X1916400Y1059810D01*
X1906730Y1056840D01*
X1897060Y1059810D01*
X1889330Y1068700D01*
X1885460Y1082060D01*
Y1145840D01*
G01X1840730Y1056840D02*
Y1145840D01*
X1852330Y1128040D01*
G01Y1056840D02*
X1829130D01*
G01X0Y0D02*
X1100000D01*
G02X3100000I1000000J-1542012D01*
G01X4200000D01*
Y3200000D01*
X3935000D01*
Y3100000D01*
X3825000D01*
Y3200000D01*
X375000D01*
Y3100000D01*
X265000D01*
X264990Y3200000D01*
X0D01*
Y0D01*
G01X335600Y2095800D02*
G03I-140000J0D01*
G01X216300Y2324800D02*
X191300D01*
G01D02*
Y2274800D01*
G01D02*
X216300D01*
G01X221300D02*
X261300D01*
G01Y2324800D02*
X221300D01*
G01D02*
X216300D01*
G01Y2274800D02*
X221300D01*
G01X216300D02*
Y2324800D01*
G01X1467900Y643300D02*
X1437900D01*
G01X1467900D02*
Y656800D01*
G01X1437900D02*
Y643300D01*
G01X1457900Y658300D02*
X1447900D01*
G01X1467900Y656800D02*
Y659300D01*
G01X1437900D02*
Y656800D01*
G01X1467900Y659700D02*
Y686900D01*
G01X1437900D02*
Y659700D01*
G01X1467800Y658300D02*
X1457900D01*
G01X1467900D02*
X1467800D01*
G01X1467900Y659700D02*
Y659300D01*
G01X1438000Y658300D02*
X1437900D01*
G01X1447900D02*
X1438000D01*
G01X1437900Y659300D02*
Y659700D01*
G01X1727300Y447260D02*
X1607300D01*
G01Y322260D02*
X1727300D01*
G01D02*
X1767300D01*
G01D02*
Y447260D01*
G01D02*
X1727300D01*
G01X1717300D02*
Y322260D01*
G01X1607300Y447260D02*
X1567300D01*
G01D02*
Y322260D01*
G01D02*
X1607300D01*
G01X1617300D02*
Y447260D01*
G01X1334000Y686600D02*
Y646600D01*
G01X1384000D02*
Y686600D01*
G01X1334000Y641600D02*
Y616600D01*
G01D02*
X1384000D01*
G01D02*
Y641600D01*
G01D02*
Y646600D01*
G01X1334000D02*
Y641600D01*
G01X1384000D02*
X1334000D01*
G01X1710640Y478900D02*
X1735640D01*
G01D02*
Y528900D01*
G01D02*
X1710640D01*
G01X1705640D02*
X1665640D01*
G01Y478900D02*
X1705640D01*
G01X1660640Y528900D02*
X1635640D01*
G01D02*
Y478900D01*
G01D02*
X1660640D01*
G01X1705640D02*
X1710640D01*
G01X1660640D02*
X1665640D01*
G01Y528900D02*
X1660640D01*
G01X1710640D02*
X1705640D01*
G01X1660640Y478900D02*
Y528900D01*
G01X1710640D02*
Y478900D01*
G01X1291500Y383600D02*
X1211500D01*
Y348600D01*
X1291500D01*
Y383600D01*
G01Y258600D02*
X1211500D01*
Y223600D01*
X1291500D01*
Y258600D01*
G01X1212500Y348600D02*
Y258600D01*
X1290500D01*
Y348600D01*
X1212500D01*
G01X1212700Y496300D02*
X1292700D01*
Y531300D01*
X1212700D01*
Y496300D01*
G01Y621300D02*
X1292700D01*
Y656300D01*
X1212700D01*
Y621300D01*
G01X1291700Y531300D02*
Y621300D01*
X1213700D01*
Y531300D01*
X1291700D01*
G01X805200Y567300D02*
Y592300D01*
G01D02*
X755200D01*
G01D02*
Y567300D01*
G01Y562300D02*
Y522300D01*
G01X805200D02*
Y562300D01*
G01X755200Y517300D02*
Y492300D01*
G01D02*
X805200D01*
G01D02*
Y517300D01*
G01Y562300D02*
Y567300D01*
G01Y517300D02*
Y522300D01*
G01X755200D02*
Y517300D01*
G01Y567300D02*
Y562300D01*
G01X805200Y517300D02*
X755200D01*
G01Y567300D02*
X805200D01*
G01X784000Y365600D02*
Y390600D01*
G01D02*
X734000D01*
G01D02*
Y365600D01*
G01Y360600D02*
Y320600D01*
G01X784000D02*
Y360600D01*
G01X734000Y315600D02*
Y290600D01*
G01D02*
X784000D01*
G01D02*
Y315600D01*
G01Y360600D02*
Y365600D01*
G01Y315600D02*
Y320600D01*
G01X734000D02*
Y315600D01*
G01Y365600D02*
Y360600D01*
G01X784000Y315600D02*
X734000D01*
G01Y365600D02*
X784000D01*
G01X996700Y633470D02*
X907900D01*
G01D02*
Y722270D01*
G01X996700D02*
Y633470D01*
G01X993460Y649340D02*
G03I-12495J-4D01*
G01X703500Y316400D02*
X614700D01*
G01D02*
Y405200D01*
G01D02*
X703500D01*
G01D02*
Y316400D01*
G01X700260Y332270D02*
G03I-12495J-4D01*
G01X1076710Y665050D02*
X1086710D01*
G01X1066710Y650050D02*
X1096710D01*
G01X1066710Y663550D02*
Y650050D01*
G01X1096710D02*
Y663550D01*
G01X1066710Y666050D02*
Y663550D01*
G01X1096710D02*
Y666050D01*
G01X1066710Y693650D02*
Y666450D01*
G01X1096710D02*
Y693650D01*
G01X1066810Y665050D02*
X1066710D01*
G01X1066810D02*
X1076710D01*
G01X1066710Y666050D02*
Y666450D01*
G01X1086710Y665050D02*
X1096610D01*
G01X1096710D02*
X1096610D01*
G01X1096710Y666450D02*
Y666050D01*
G01X621900Y271000D02*
Y301000D01*
G01Y271000D02*
X635400D01*
G01Y301000D02*
X621900D01*
G01X666900Y281000D02*
Y291000D01*
G01X681900Y271000D02*
Y301000D01*
G01X668400Y271000D02*
X681900D01*
G01Y301000D02*
X668400D01*
G01X665900Y271000D02*
X668400D01*
G01Y301000D02*
X665900D01*
G01X636900Y281000D02*
Y291000D01*
G01X635400Y271000D02*
X637900D01*
G01Y301000D02*
X635400D01*
G01X638300Y271000D02*
X665500D01*
G01Y301000D02*
X638300D01*
G01X666900Y271100D02*
Y271000D01*
G01Y271100D02*
Y281000D01*
G01X665900Y271000D02*
X665500D01*
G01X636900Y271100D02*
Y281000D01*
G01Y271000D02*
Y271100D01*
G01X638300Y271000D02*
X637900D01*
G01X636900Y300900D02*
Y301000D01*
G01Y291000D02*
Y300900D01*
G01X637900Y301000D02*
X638300D01*
G01X666900Y291000D02*
Y300900D01*
G01Y301000D02*
Y300900D01*
G01X665500Y301000D02*
X665900D01*
G01X1421850Y304040D02*
X1501850D01*
Y339040D01*
X1421850D01*
Y304040D01*
G01Y429040D02*
X1501850D01*
Y464040D01*
X1421850D01*
Y429040D01*
G01X1500850Y339040D02*
Y429040D01*
X1422850D01*
Y339040D01*
X1500850D01*
G01X1725300Y558920D02*
Y638920D01*
X1690300D01*
Y558920D01*
X1725300D01*
G01X1600300D02*
Y638920D01*
X1565300D01*
Y558920D01*
X1600300D01*
G01X1690300Y637920D02*
X1600300D01*
Y559920D01*
X1690300D01*
Y637920D01*
G01X714800Y633500D02*
Y658500D01*
G01D02*
X664800D01*
G01D02*
Y633500D01*
G01Y628500D02*
Y588500D01*
G01X714800D02*
Y628500D01*
G01X664800Y583500D02*
Y558500D01*
G01D02*
X714800D01*
G01D02*
Y583500D01*
G01Y628500D02*
Y633500D01*
G01Y583500D02*
Y588500D01*
G01X664800D02*
Y583500D01*
G01Y633500D02*
Y628500D01*
G01X714800Y583500D02*
X664800D01*
G01Y633500D02*
X714800D01*
G01X1003300Y505100D02*
X1028300D01*
G01D02*
Y555100D01*
G01D02*
X1003300D01*
G01X998300D02*
X958300D01*
G01Y505100D02*
X998300D01*
G01X953300Y555100D02*
X928300D01*
G01D02*
Y505100D01*
G01D02*
X953300D01*
G01X998300D02*
X1003300D01*
G01X953300D02*
X958300D01*
G01Y555100D02*
X953300D01*
G01X1003300D02*
X998300D01*
G01X953300Y505100D02*
Y555100D01*
G01X1003300D02*
Y505100D01*
G01X1331900Y1895700D02*
Y1870700D01*
G01D02*
X1381900D01*
G01D02*
Y1895700D01*
G01Y1900700D02*
Y1940700D01*
G01X1331900D02*
Y1900700D01*
G01X1381900Y1945700D02*
Y1970700D01*
G01D02*
X1331900D01*
G01D02*
Y1945700D01*
G01Y1900700D02*
Y1895700D01*
G01Y1945700D02*
Y1940700D01*
G01X1381900D02*
Y1945700D01*
G01Y1895700D02*
Y1900700D01*
G01X1331900Y1945700D02*
X1381900D01*
G01Y1895700D02*
X1331900D01*
G01X1848000Y1551400D02*
X1873000D01*
G01D02*
Y1601400D01*
G01D02*
X1848000D01*
G01X1843000D02*
X1803000D01*
G01Y1551400D02*
X1843000D01*
G01X1798000Y1601400D02*
X1773000D01*
G01D02*
Y1551400D01*
G01D02*
X1798000D01*
G01X1843000D02*
X1848000D01*
G01X1798000D02*
X1803000D01*
G01Y1601400D02*
X1798000D01*
G01X1848000D02*
X1843000D01*
G01X1798000Y1551400D02*
Y1601400D01*
G01X1848000D02*
Y1551400D01*
G01X1611500Y1612300D02*
Y1637300D01*
G01D02*
X1561500D01*
G01D02*
Y1612300D01*
G01Y1607300D02*
Y1567300D01*
G01X1611500D02*
Y1607300D01*
G01X1561500Y1562300D02*
Y1537300D01*
G01D02*
X1611500D01*
G01D02*
Y1562300D01*
G01Y1607300D02*
Y1612300D01*
G01Y1562300D02*
Y1567300D01*
G01X1561500D02*
Y1562300D01*
G01Y1612300D02*
Y1607300D01*
G01X1611500Y1562300D02*
X1561500D01*
G01Y1612300D02*
X1611500D01*
G01X1319730Y1060840D02*
Y1030840D01*
G01Y1060840D02*
X1306230D01*
G01Y1030840D02*
X1319730D01*
G01X1274730Y1050840D02*
Y1040840D01*
G01X1259730Y1060840D02*
Y1030840D01*
G01X1273230Y1060840D02*
X1259730D01*
G01Y1030840D02*
X1273230D01*
G01X1275730Y1060840D02*
X1273230D01*
G01Y1030840D02*
X1275730D01*
G01X1304730Y1050840D02*
Y1040840D01*
G01X1306230Y1060840D02*
X1303730D01*
G01Y1030840D02*
X1306230D01*
G01X1303330Y1060840D02*
X1276130D01*
G01Y1030840D02*
X1303330D01*
G01X1274730Y1060740D02*
Y1060840D01*
G01Y1060740D02*
Y1050840D01*
G01X1275730Y1060840D02*
X1276130D01*
G01X1304730Y1060740D02*
Y1050840D01*
G01Y1060840D02*
Y1060740D01*
G01X1303330Y1060840D02*
X1303730D01*
G01X1304730Y1030940D02*
Y1030840D01*
G01Y1040840D02*
Y1030940D01*
G01X1303730Y1030840D02*
X1303330D01*
G01X1274730Y1040840D02*
Y1030940D01*
G01Y1030840D02*
Y1030940D01*
G01X1276130Y1030840D02*
X1275730D01*
G01X807410Y837740D02*
X777410D01*
G01X807410D02*
Y851240D01*
G01X777410D02*
Y837740D01*
G01X797410Y882740D02*
X787410D01*
G01X807410Y897740D02*
X777410D01*
G01X807410Y884240D02*
Y897740D01*
G01X777410D02*
Y884240D01*
G01X807410Y881740D02*
Y884240D01*
G01X777410D02*
Y881740D01*
G01X797410Y852740D02*
X787410D01*
G01X807410Y851240D02*
Y853740D01*
G01X777410D02*
Y851240D01*
G01X807410Y854140D02*
Y881340D01*
G01X777410D02*
Y854140D01*
G01X807310Y882740D02*
X807410D01*
G01X807310D02*
X797410D01*
G01X807410Y881740D02*
Y881340D01*
G01X807310Y852740D02*
X797410D01*
G01X807410D02*
X807310D01*
G01X807410Y854140D02*
Y853740D01*
G01X777510Y852740D02*
X777410D01*
G01X787410D02*
X777510D01*
G01X777410Y853740D02*
Y854140D01*
G01X787410Y882740D02*
X777510D01*
G01X777410D02*
X777510D01*
G01X777410Y881340D02*
Y881740D01*
G01X1457900Y688300D02*
X1447900D01*
G01X1467900Y703300D02*
X1437900D01*
G01X1467900Y689800D02*
Y703300D01*
G01X1437900D02*
Y689800D01*
G01X1467900Y687300D02*
Y689800D01*
G01X1437900D02*
Y687300D01*
G01X1467800Y688300D02*
X1467900D01*
G01X1467800D02*
X1457900D01*
G01X1467900Y687300D02*
Y686900D01*
G01X1447900Y688300D02*
X1438000D01*
G01X1437900D02*
X1438000D01*
G01X1437900Y686900D02*
Y687300D01*
G01X945700Y1953100D02*
Y1923100D01*
G01Y1953100D02*
X932200D01*
G01Y1923100D02*
X945700D01*
G01X900700Y1943100D02*
Y1933100D01*
G01X885700Y1953100D02*
Y1923100D01*
G01X899200Y1953100D02*
X885700D01*
G01Y1923100D02*
X899200D01*
G01X901700Y1953100D02*
X899200D01*
G01Y1923100D02*
X901700D01*
G01X930700Y1943100D02*
Y1933100D01*
G01X932200Y1953100D02*
X929700D01*
G01Y1923100D02*
X932200D01*
G01X929300Y1953100D02*
X902100D01*
G01Y1923100D02*
X929300D01*
G01X900700Y1953000D02*
Y1953100D01*
G01Y1953000D02*
Y1943100D01*
G01X901700Y1953100D02*
X902100D01*
G01X930700Y1953000D02*
Y1943100D01*
G01Y1953100D02*
Y1953000D01*
G01X929300Y1953100D02*
X929700D01*
G01X930700Y1923200D02*
Y1923100D01*
G01Y1933100D02*
Y1923200D01*
G01X929700Y1923100D02*
X929300D01*
G01X900700Y1933100D02*
Y1923200D01*
G01Y1923100D02*
Y1923200D01*
G01X902100Y1923100D02*
X901700D01*
G01X604810Y1794000D02*
Y1824000D01*
G01Y1794000D02*
X618310D01*
G01Y1824000D02*
X604810D01*
G01X649810Y1804000D02*
Y1814000D01*
G01X664810Y1794000D02*
Y1824000D01*
G01X651310Y1794000D02*
X664810D01*
G01Y1824000D02*
X651310D01*
G01X648810Y1794000D02*
X651310D01*
G01Y1824000D02*
X648810D01*
G01X619810Y1804000D02*
Y1814000D01*
G01X618310Y1794000D02*
X620810D01*
G01Y1824000D02*
X618310D01*
G01X621210Y1794000D02*
X648410D01*
G01Y1824000D02*
X621210D01*
G01X649810Y1794100D02*
Y1794000D01*
G01Y1794100D02*
Y1804000D01*
G01X648810Y1794000D02*
X648410D01*
G01X619810Y1794100D02*
Y1804000D01*
G01Y1794000D02*
Y1794100D01*
G01X621210Y1794000D02*
X620810D01*
G01X619810Y1823900D02*
Y1824000D01*
G01Y1814000D02*
Y1823900D01*
G01X620810Y1824000D02*
X621210D01*
G01X649810Y1814000D02*
Y1823900D01*
G01Y1824000D02*
Y1823900D01*
G01X648410Y1824000D02*
X648810D01*
G01X697100Y1916300D02*
Y1946300D01*
G01Y1916300D02*
X710600D01*
G01Y1946300D02*
X697100D01*
G01X742100Y1926300D02*
Y1936300D01*
G01X757100Y1916300D02*
Y1946300D01*
G01X743600Y1916300D02*
X757100D01*
G01Y1946300D02*
X743600D01*
G01X741100Y1916300D02*
X743600D01*
G01Y1946300D02*
X741100D01*
G01X712100Y1926300D02*
Y1936300D01*
G01X710600Y1916300D02*
X713100D01*
G01Y1946300D02*
X710600D01*
G01X713500Y1916300D02*
X740700D01*
G01Y1946300D02*
X713500D01*
G01X742100Y1916400D02*
Y1916300D01*
G01Y1916400D02*
Y1926300D01*
G01X741100Y1916300D02*
X740700D01*
G01X712100Y1916400D02*
Y1926300D01*
G01Y1916300D02*
Y1916400D01*
G01X713500Y1916300D02*
X713100D01*
G01X712100Y1946200D02*
Y1946300D01*
G01Y1936300D02*
Y1946200D01*
G01X713100Y1946300D02*
X713500D01*
G01X742100Y1936300D02*
Y1946200D01*
G01Y1946300D02*
Y1946200D01*
G01X740700Y1946300D02*
X741100D01*
G01X831300Y1289000D02*
Y1359000D01*
G01X811300Y1289000D02*
X831300D01*
G01Y1359000D02*
X811300D01*
G01X661300Y1289000D02*
Y1359000D01*
G01X681300Y1289000D02*
X661300D01*
G01Y1359000D02*
X681300D01*
G01Y1364000D02*
X811300D01*
G01D02*
Y1284000D01*
G01X807300Y1360000D02*
X811300Y1364000D01*
G01Y1284000D02*
X681300D01*
G01X807300Y1288000D02*
X811300Y1284000D01*
G01X685300Y1288000D02*
X807300D01*
G01D02*
Y1360000D01*
G01D02*
X707300D01*
G01X684600Y1360700D02*
X681300Y1364000D01*
G01Y1284000D02*
Y1364000D01*
G01X685300Y1288000D02*
X681300Y1284000D01*
G01X685300Y1338000D02*
Y1288000D01*
G01X708000Y1360700D02*
X684600D01*
G01D02*
Y1337300D01*
G01X685300Y1338000D02*
X707300Y1360000D01*
G01D02*
X708000Y1360700D01*
G01X684600Y1337300D02*
X685300Y1338000D01*
G01X1486730Y1400840D02*
X1511730D01*
G01D02*
Y1450840D01*
G01D02*
X1486730D01*
G01X1481730D02*
X1441730D01*
G01Y1400840D02*
X1481730D01*
G01X1436730Y1450840D02*
X1411730D01*
G01D02*
Y1400840D01*
G01D02*
X1436730D01*
G01X1481730D02*
X1486730D01*
G01X1436730D02*
X1441730D01*
G01Y1450840D02*
X1436730D01*
G01X1486730D02*
X1481730D01*
G01X1436730Y1400840D02*
Y1450840D01*
G01X1486730D02*
Y1400840D01*
G01X1412500Y1198400D02*
X1437500D01*
G01D02*
Y1248400D01*
G01D02*
X1412500D01*
G01X1407500D02*
X1367500D01*
G01Y1198400D02*
X1407500D01*
G01X1362500Y1248400D02*
X1337500D01*
G01D02*
Y1198400D01*
G01D02*
X1362500D01*
G01X1407500D02*
X1412500D01*
G01X1362500D02*
X1367500D01*
G01Y1248400D02*
X1362500D01*
G01X1412500D02*
X1407500D01*
G01X1362500Y1198400D02*
Y1248400D01*
G01X1412500D02*
Y1198400D01*
G01X1572710Y1884800D02*
X1597710D01*
G01D02*
Y1934800D01*
G01D02*
X1572710D01*
G01X1567710D02*
X1527710D01*
G01Y1884800D02*
X1567710D01*
G01X1522710Y1934800D02*
X1497710D01*
G01D02*
Y1884800D01*
G01D02*
X1522710D01*
G01X1567710D02*
X1572710D01*
G01X1522710D02*
X1527710D01*
G01Y1934800D02*
X1522710D01*
G01X1572710D02*
X1567710D01*
G01X1522710Y1884800D02*
Y1934800D01*
G01X1572710D02*
Y1884800D01*
G01X1716300Y1754100D02*
X1691300D01*
G01D02*
Y1704100D01*
G01D02*
X1716300D01*
G01X1721300D02*
X1761300D01*
G01Y1754100D02*
X1721300D01*
G01X1766300Y1704100D02*
X1791300D01*
G01D02*
Y1754100D01*
G01D02*
X1766300D01*
G01X1721300D02*
X1716300D01*
G01X1766300D02*
X1761300D01*
G01Y1704100D02*
X1766300D01*
G01X1716300D02*
X1721300D01*
G01X1766300Y1754100D02*
Y1704100D01*
G01X1716300D02*
Y1754100D01*
G01X1384000Y691600D02*
Y716600D01*
G01D02*
X1334000D01*
G01D02*
Y691600D01*
G01X1384000Y686600D02*
Y691600D01*
G01X1334000D02*
Y686600D01*
G01Y691600D02*
X1384000D01*
G01X1351730Y1125840D02*
X1376730D01*
G01D02*
Y1175840D01*
G01D02*
X1351730D01*
G01X1346730D02*
X1306730D01*
G01Y1125840D02*
X1346730D01*
G01X1301730Y1175840D02*
X1276730D01*
G01D02*
Y1125840D01*
G01D02*
X1301730D01*
G01X1346730D02*
X1351730D01*
G01X1301730D02*
X1306730D01*
G01Y1175840D02*
X1301730D01*
G01X1351730D02*
X1346730D01*
G01X1301730Y1125840D02*
Y1175840D01*
G01X1351730D02*
Y1125840D01*
G01X991500Y1133500D02*
Y1108500D01*
G01D02*
X1041500D01*
G01D02*
Y1133500D01*
G01Y1138500D02*
Y1178500D01*
G01X991500D02*
Y1138500D01*
G01X1041500Y1183500D02*
Y1208500D01*
G01D02*
X991500D01*
G01D02*
Y1183500D01*
G01Y1138500D02*
Y1133500D01*
G01Y1183500D02*
Y1178500D01*
G01X1041500D02*
Y1183500D01*
G01Y1133500D02*
Y1138500D01*
G01X991500Y1183500D02*
X1041500D01*
G01Y1133500D02*
X991500D01*
G01X1121900Y1700900D02*
X1096900D01*
G01D02*
Y1650900D01*
G01D02*
X1121900D01*
G01X1126900D02*
X1166900D01*
G01Y1700900D02*
X1126900D01*
G01X1171900Y1650900D02*
X1196900D01*
G01D02*
Y1700900D01*
G01D02*
X1171900D01*
G01X1126900D02*
X1121900D01*
G01X1171900D02*
X1166900D01*
G01Y1650900D02*
X1171900D01*
G01X1121900D02*
X1126900D01*
G01X1171900Y1700900D02*
Y1650900D01*
G01X1121900D02*
Y1700900D01*
G01X1436400Y1519100D02*
X1411400D01*
G01D02*
Y1469100D01*
G01D02*
X1436400D01*
G01X1441400D02*
X1481400D01*
G01Y1519100D02*
X1441400D01*
G01X1486400Y1469100D02*
X1511400D01*
G01D02*
Y1519100D01*
G01D02*
X1486400D01*
G01X1441400D02*
X1436400D01*
G01X1486400D02*
X1481400D01*
G01Y1469100D02*
X1486400D01*
G01X1436400D02*
X1441400D01*
G01X1486400Y1519100D02*
Y1469100D01*
G01X1436400D02*
Y1519100D01*
G01X1290900Y2076200D02*
X1265900D01*
G01D02*
Y2026200D01*
G01D02*
X1290900D01*
G01X1295900D02*
X1335900D01*
G01Y2076200D02*
X1295900D01*
G01X1340900Y2026200D02*
X1365900D01*
G01D02*
Y2076200D01*
G01D02*
X1340900D01*
G01X1295900D02*
X1290900D01*
G01X1340900D02*
X1335900D01*
G01Y2026200D02*
X1340900D01*
G01X1290900D02*
X1295900D01*
G01X1340900Y2076200D02*
Y2026200D01*
G01X1290900D02*
Y2076200D01*
G01X1290800Y1823800D02*
X1265800D01*
G01D02*
Y1773800D01*
G01D02*
X1290800D01*
G01X1295800D02*
X1335800D01*
G01Y1823800D02*
X1295800D01*
G01X1340800Y1773800D02*
X1365800D01*
G01D02*
Y1823800D01*
G01D02*
X1340800D01*
G01X1295800D02*
X1290800D01*
G01X1340800D02*
X1335800D01*
G01Y1773800D02*
X1340800D01*
G01X1290800D02*
X1295800D01*
G01X1340800Y1823800D02*
Y1773800D01*
G01X1290800D02*
Y1823800D01*
G01X1095370Y2364920D02*
X1113050Y2382590D01*
G01D02*
X1077690Y2417950D01*
G01D02*
X1060020Y2400270D01*
G01X1056480Y2396740D02*
X1028200Y2368450D01*
G01X1063550Y2333100D02*
X1091840Y2361380D01*
G01X1024660Y2364920D02*
X1006980Y2347240D01*
G01D02*
X1042340Y2311880D01*
G01D02*
X1060020Y2329560D01*
G01X1091840Y2361380D02*
X1095370Y2364920D01*
G01X1060020Y2329560D02*
X1063550Y2333100D01*
G01X1028200Y2368450D02*
X1024660Y2364920D01*
G01X1060020Y2400270D02*
X1056480Y2396740D01*
G01X1060020Y2329560D02*
X1024660Y2364920D01*
G01X1060020Y2400270D02*
X1095370Y2364920D01*
G01X1841500Y1674200D02*
Y1649200D01*
G01D02*
X1891500D01*
G01D02*
Y1674200D01*
G01Y1679200D02*
Y1719200D01*
G01X1841500D02*
Y1679200D01*
G01X1891500Y1724200D02*
Y1749200D01*
G01D02*
X1841500D01*
G01D02*
Y1724200D01*
G01Y1679200D02*
Y1674200D01*
G01Y1724200D02*
Y1719200D01*
G01X1891500D02*
Y1724200D01*
G01Y1674200D02*
Y1679200D01*
G01X1841500Y1724200D02*
X1891500D01*
G01Y1674200D02*
X1841500D01*
G01X1561000Y1743100D02*
Y1718100D01*
G01D02*
X1611000D01*
G01D02*
Y1743100D01*
G01Y1748100D02*
Y1788100D01*
G01X1561000D02*
Y1748100D01*
G01X1611000Y1793100D02*
Y1818100D01*
G01D02*
X1561000D01*
G01D02*
Y1793100D01*
G01Y1748100D02*
Y1743100D01*
G01Y1793100D02*
Y1788100D01*
G01X1611000D02*
Y1793100D01*
G01Y1743100D02*
Y1748100D01*
G01X1561000Y1793100D02*
X1611000D01*
G01Y1743100D02*
X1561000D01*
G01X892100Y2161340D02*
X892290D01*
X892490Y2161330D01*
X892680Y2161320D01*
X892880Y2161310D01*
X893080Y2161290D01*
X893270Y2161270D01*
X893470Y2161240D01*
X893670Y2161210D01*
X893870Y2161180D01*
X894070Y2161140D01*
X894270Y2161100D01*
X894460Y2161050D01*
X894660Y2161000D01*
X894860Y2160950D01*
X895050Y2160890D01*
X895240Y2160830D01*
X895440Y2160770D01*
X895630Y2160700D01*
X895820Y2160620D01*
X896010Y2160540D01*
X896190Y2160460D01*
X896380Y2160380D01*
X896560Y2160290D01*
X896740Y2160200D01*
X896920Y2160100D01*
X897100Y2160000D01*
X897270Y2159900D01*
X897440Y2159790D01*
X897610Y2159680D01*
X897780Y2159570D01*
X897940Y2159460D01*
X898100Y2159340D01*
X898200Y2159270D01*
X898300Y2159190D01*
X898390Y2159110D01*
X898490Y2159030D01*
X898580Y2158960D01*
X898670Y2158880D01*
X898770Y2158790D01*
X898860Y2158710D01*
X898950Y2158630D01*
X899040Y2158540D01*
X899130Y2158450D01*
X899210Y2158370D01*
X899300Y2158280D01*
X899390Y2158190D01*
X899470Y2158100D01*
X899550Y2158010D01*
X899640Y2157910D01*
X899720Y2157820D01*
X899790Y2157730D01*
X899870Y2157630D01*
X899950Y2157540D01*
X900030Y2157440D01*
X900100Y2157340D01*
X900220Y2157180D01*
X900330Y2157020D01*
X900440Y2156850D01*
X900550Y2156680D01*
X900660Y2156510D01*
X900760Y2156340D01*
X900860Y2156160D01*
X900960Y2155980D01*
X901050Y2155800D01*
X901140Y2155620D01*
X901220Y2155430D01*
X901300Y2155250D01*
X901380Y2155060D01*
X901460Y2154870D01*
X901530Y2154680D01*
X901590Y2154480D01*
X901650Y2154290D01*
X901710Y2154100D01*
X901760Y2153900D01*
X901810Y2153700D01*
X901860Y2153510D01*
X901900Y2153310D01*
X901940Y2153110D01*
X901970Y2152910D01*
X902000Y2152710D01*
X902030Y2152510D01*
X902050Y2152320D01*
X902070Y2152120D01*
X902080Y2151920D01*
X902090Y2151730D01*
X902100Y2151530D01*
Y2151340D01*
Y1996340D01*
Y1996150D01*
X902090Y1995950D01*
X902080Y1995760D01*
X902070Y1995560D01*
X902050Y1995360D01*
X902030Y1995170D01*
X902000Y1994970D01*
X901970Y1994770D01*
X901940Y1994570D01*
X901900Y1994370D01*
X901860Y1994170D01*
X901810Y1993980D01*
X901760Y1993780D01*
X901710Y1993580D01*
X901650Y1993390D01*
X901590Y1993200D01*
X901530Y1993000D01*
X901460Y1992810D01*
X901380Y1992620D01*
X901300Y1992430D01*
X901220Y1992250D01*
X901140Y1992060D01*
X901050Y1991880D01*
X900960Y1991700D01*
X900860Y1991520D01*
X900760Y1991340D01*
X900660Y1991170D01*
X900550Y1991000D01*
X900440Y1990830D01*
X900330Y1990660D01*
X900220Y1990500D01*
X900100Y1990340D01*
X900030Y1990240D01*
X899950Y1990140D01*
X899870Y1990050D01*
X899790Y1989950D01*
X899720Y1989860D01*
X899640Y1989770D01*
X899550Y1989670D01*
X899470Y1989580D01*
X899390Y1989490D01*
X899300Y1989400D01*
X899210Y1989310D01*
X899130Y1989230D01*
X899040Y1989140D01*
X898950Y1989050D01*
X898860Y1988970D01*
X898770Y1988890D01*
X898670Y1988800D01*
X898580Y1988720D01*
X898490Y1988650D01*
X898390Y1988570D01*
X898300Y1988490D01*
X898200Y1988410D01*
X898100Y1988340D01*
X897940Y1988220D01*
X897780Y1988110D01*
X897610Y1988000D01*
X897440Y1987890D01*
X897270Y1987780D01*
X897100Y1987680D01*
X896920Y1987580D01*
X896740Y1987480D01*
X896560Y1987390D01*
X896380Y1987300D01*
X896190Y1987220D01*
X896010Y1987140D01*
X895820Y1987060D01*
X895630Y1986980D01*
X895440Y1986910D01*
X895240Y1986850D01*
X895050Y1986790D01*
X894860Y1986730D01*
X894660Y1986680D01*
X894460Y1986630D01*
X894270Y1986580D01*
X894070Y1986540D01*
X893870Y1986500D01*
X893670Y1986470D01*
X893470Y1986440D01*
X893270Y1986410D01*
X893080Y1986390D01*
X892880Y1986370D01*
X892680Y1986360D01*
X892490Y1986350D01*
X892290Y1986340D01*
X892100D01*
X687100D01*
X686910D01*
X686710Y1986350D01*
X686520Y1986360D01*
X686320Y1986370D01*
X686120Y1986390D01*
X685930Y1986410D01*
X685730Y1986440D01*
X685530Y1986470D01*
X685330Y1986500D01*
X685130Y1986540D01*
X684930Y1986580D01*
X684740Y1986630D01*
X684540Y1986680D01*
X684340Y1986730D01*
X684150Y1986790D01*
X683960Y1986850D01*
X683760Y1986910D01*
X683570Y1986980D01*
X683380Y1987060D01*
X683190Y1987140D01*
X683010Y1987220D01*
X682820Y1987300D01*
X682640Y1987390D01*
X682460Y1987480D01*
X682280Y1987580D01*
X682100Y1987680D01*
X681930Y1987780D01*
X681760Y1987890D01*
X681590Y1988000D01*
X681420Y1988110D01*
X681260Y1988220D01*
X681100Y1988340D01*
X681000Y1988410D01*
X680900Y1988490D01*
X680810Y1988570D01*
X680710Y1988650D01*
X680620Y1988720D01*
X680530Y1988800D01*
X680430Y1988890D01*
X680340Y1988970D01*
X680250Y1989050D01*
X680160Y1989140D01*
X680070Y1989230D01*
X679990Y1989310D01*
X679900Y1989400D01*
X679810Y1989490D01*
X679730Y1989580D01*
X679650Y1989670D01*
X679560Y1989770D01*
X679480Y1989860D01*
X679410Y1989950D01*
X679330Y1990050D01*
X679250Y1990140D01*
X679170Y1990240D01*
X679100Y1990340D01*
X678980Y1990500D01*
X678870Y1990660D01*
X678760Y1990830D01*
X678650Y1991000D01*
X678540Y1991170D01*
X678440Y1991340D01*
X678340Y1991520D01*
X678240Y1991700D01*
X678150Y1991880D01*
X678060Y1992060D01*
X677980Y1992250D01*
X677900Y1992430D01*
X677820Y1992620D01*
X677740Y1992810D01*
X677670Y1993000D01*
X677610Y1993200D01*
X677550Y1993390D01*
X677490Y1993580D01*
X677440Y1993780D01*
X677390Y1993980D01*
X677340Y1994170D01*
X677300Y1994370D01*
X677260Y1994570D01*
X677230Y1994770D01*
X677200Y1994970D01*
X677170Y1995170D01*
X677150Y1995360D01*
X677130Y1995560D01*
X677120Y1995760D01*
X677110Y1995950D01*
X677100Y1996150D01*
Y1996340D01*
Y2151340D01*
Y2151530D01*
X677110Y2151730D01*
X677120Y2151920D01*
X677130Y2152120D01*
X677150Y2152320D01*
X677170Y2152510D01*
X677200Y2152710D01*
X677230Y2152910D01*
X677260Y2153110D01*
X677300Y2153310D01*
X677340Y2153510D01*
X677390Y2153700D01*
X677440Y2153900D01*
X677490Y2154100D01*
X677550Y2154290D01*
X677610Y2154480D01*
X677670Y2154680D01*
X677740Y2154870D01*
X677820Y2155060D01*
X677900Y2155250D01*
X677980Y2155430D01*
X678060Y2155620D01*
X678150Y2155800D01*
X678240Y2155980D01*
X678340Y2156160D01*
X678440Y2156340D01*
X678540Y2156510D01*
X678650Y2156680D01*
X678760Y2156850D01*
X678870Y2157020D01*
X678980Y2157180D01*
X679100Y2157340D01*
X679170Y2157440D01*
X679250Y2157540D01*
X679330Y2157630D01*
X679410Y2157730D01*
X679480Y2157820D01*
X679560Y2157910D01*
X679650Y2158010D01*
X679730Y2158100D01*
X679810Y2158190D01*
X679900Y2158280D01*
X679990Y2158370D01*
X680070Y2158450D01*
X680160Y2158540D01*
X680250Y2158630D01*
X680340Y2158710D01*
X680430Y2158790D01*
X680530Y2158880D01*
X680620Y2158960D01*
X680710Y2159030D01*
X680810Y2159110D01*
X680900Y2159190D01*
X681000Y2159270D01*
X681100Y2159340D01*
X681260Y2159460D01*
X681420Y2159570D01*
X681590Y2159680D01*
X681760Y2159790D01*
X681930Y2159900D01*
X682100Y2160000D01*
X682280Y2160100D01*
X682460Y2160200D01*
X682640Y2160290D01*
X682820Y2160380D01*
X683010Y2160460D01*
X683190Y2160540D01*
X683380Y2160620D01*
X683570Y2160700D01*
X683760Y2160770D01*
X683960Y2160830D01*
X684150Y2160890D01*
X684340Y2160950D01*
X684540Y2161000D01*
X684740Y2161050D01*
X684930Y2161100D01*
X685130Y2161140D01*
X685330Y2161180D01*
X685530Y2161210D01*
X685730Y2161240D01*
X685930Y2161270D01*
X686120Y2161290D01*
X686320Y2161310D01*
X686520Y2161320D01*
X686710Y2161330D01*
X686910Y2161340D01*
X687100D01*
X892100D01*
G01X664600Y1973840D02*
Y2173840D01*
G01D02*
X914600D01*
G01X882100Y1996340D02*
X697100D01*
G01X722100Y2021340D02*
X857100D01*
G01Y2126340D02*
G02X867100Y2116340I0J-10000D01*
G01X857100Y2126340D02*
X722100D01*
G01X712100Y2116340D02*
G02X722100Y2126340I10000J0D01*
G01X712100Y2116340D02*
Y2031340D01*
G01X852100Y2091340D02*
G03I-20000J0D01*
G01X722100Y2021340D02*
G02X712100Y2031340I0J10000D01*
G01X867100D02*
Y2116340D01*
G01Y2031340D02*
G02X857100Y2021340I-10000J0D01*
G01X687100Y2141340D02*
G02X697100Y2151340I10000J0D01*
G01X687100Y2006340D02*
Y2141340D01*
G01X697100Y1996340D02*
G02X687100Y2006340I0J10000D01*
G01X892100D02*
G02X882100Y1996340I-10000J0D01*
G01X892100Y2141340D02*
Y2006340D01*
G01X697100Y2151340D02*
X882100D01*
G01D02*
G02X892100Y2141340I0J-10000D01*
G01X914600Y1973840D02*
X664600D01*
G01X914600Y2173840D02*
Y1973840D01*
G01X266300Y2274800D02*
X291300D01*
G01D02*
Y2324800D01*
G01D02*
X266300D01*
G01D02*
X261300D01*
G01Y2274800D02*
X266300D01*
G01Y2324800D02*
Y2274800D01*
G01X1676730Y1355840D02*
G03I-25000J0D01*
G01X2276730Y1423340D02*
X1576730D01*
G01Y723340D02*
X2276730D01*
G01X1576730Y1423340D02*
Y723340D01*
G01X614000Y1388700D02*
Y1413700D01*
G01D02*
X564000D01*
G01D02*
Y1388700D01*
G01Y1383700D02*
Y1343700D01*
G01X614000D02*
Y1383700D01*
G01X564000Y1338700D02*
Y1313700D01*
G01D02*
X614000D01*
G01D02*
Y1338700D01*
G01Y1383700D02*
Y1388700D01*
G01Y1338700D02*
Y1343700D01*
G01X564000D02*
Y1338700D01*
G01Y1388700D02*
Y1383700D01*
G01X614000Y1338700D02*
X564000D01*
G01Y1388700D02*
X614000D01*
G01X690440Y1801570D02*
X890440D01*
G01D02*
Y1601570D01*
G01D02*
X690440D01*
G01D02*
Y1801570D01*
G01X727940Y1776570D02*
G03I-12500J0D01*
G01X1676300Y1570400D02*
Y1545400D01*
G01D02*
X1726300D01*
G01D02*
Y1570400D01*
G01Y1575400D02*
Y1615400D01*
G01X1676300D02*
Y1575400D01*
G01X1726300Y1620400D02*
Y1645400D01*
G01D02*
X1676300D01*
G01D02*
Y1620400D01*
G01Y1575400D02*
Y1570400D01*
G01Y1620400D02*
Y1615400D01*
G01X1726300D02*
Y1620400D01*
G01Y1570400D02*
Y1575400D01*
G01X1676300Y1620400D02*
X1726300D01*
G01Y1570400D02*
X1676300D01*
G01X957300Y769600D02*
X982300D01*
G01D02*
Y819600D01*
G01D02*
X957300D01*
G01X952300D02*
X912300D01*
G01Y769600D02*
X952300D01*
G01X907300Y819600D02*
X882300D01*
G01D02*
Y769600D01*
G01D02*
X907300D01*
G01X952300D02*
X957300D01*
G01X907300D02*
X912300D01*
G01Y819600D02*
X907300D01*
G01X957300D02*
X952300D01*
G01X907300Y769600D02*
Y819600D01*
G01X957300D02*
Y769600D01*
G01X1330300Y1643000D02*
Y1618000D01*
G01D02*
X1380300D01*
G01D02*
Y1643000D01*
G01Y1648000D02*
Y1688000D01*
G01X1330300D02*
Y1648000D01*
G01X1380300Y1693000D02*
Y1718000D01*
G01D02*
X1330300D01*
G01D02*
Y1693000D01*
G01Y1648000D02*
Y1643000D01*
G01Y1693000D02*
Y1688000D01*
G01X1380300D02*
Y1693000D01*
G01Y1643000D02*
Y1648000D01*
G01X1330300Y1693000D02*
X1380300D01*
G01Y1643000D02*
X1330300D01*
G01X1482400Y2374200D02*
Y2399200D01*
G01D02*
X1432400D01*
G01D02*
Y2374200D01*
G01Y2369200D02*
Y2329200D01*
G01X1482400D02*
Y2369200D01*
G01X1432400Y2324200D02*
Y2299200D01*
G01D02*
X1482400D01*
G01D02*
Y2324200D01*
G01Y2369200D02*
Y2374200D01*
G01Y2324200D02*
Y2329200D01*
G01X1432400D02*
Y2324200D01*
G01Y2374200D02*
Y2369200D01*
G01X1482400Y2324200D02*
X1432400D01*
G01Y2374200D02*
X1482400D01*
G01X907900Y722270D02*
X996700D01*
G01X1066710Y710050D02*
X1096710D01*
G01X1066710D02*
Y696550D01*
G01X1096710D02*
Y710050D01*
G01X1076710Y695050D02*
X1086710D01*
G01X1066710Y696550D02*
Y694050D01*
G01X1096710D02*
Y696550D01*
G01X1066810Y695050D02*
X1076710D01*
G01X1066710D02*
X1066810D01*
G01X1066710Y693650D02*
Y694050D01*
G01X1096610Y695050D02*
X1096710D01*
G01X1086710D02*
X1096610D01*
G01X1096710Y694050D02*
Y693650D01*
G01X1676860Y1837180D02*
Y1812180D01*
G01D02*
X1726860D01*
G01D02*
Y1837180D01*
G01Y1842180D02*
Y1882180D01*
G01X1676860D02*
Y1842180D01*
G01X1726860Y1887180D02*
Y1912180D01*
G01D02*
X1676860D01*
G01D02*
Y1887180D01*
G01Y1842180D02*
Y1837180D01*
G01Y1887180D02*
Y1882180D01*
G01X1726860D02*
Y1887180D01*
G01Y1837180D02*
Y1842180D01*
G01X1676860Y1887180D02*
X1726860D01*
G01Y1837180D02*
X1676860D01*
G01X1514290Y2170540D02*
G03X1524290Y2180540I0J10000D01*
G01X1544290D01*
G03X1554290Y2170540I10000J0D01*
G01Y2165540D01*
X1514290D01*
Y2170540D01*
G01X1444290Y2020540D02*
Y2165540D01*
X1479290D01*
X1589290D01*
X1624290D01*
Y1995540D01*
X1589290D01*
X1554290D01*
X1514290D01*
X1479290D01*
X1469290D01*
X1444290Y2020540D01*
G01X1584290Y2080540D02*
G03I-50000J0D01*
G01X1599290D02*
G03I-65000J0D01*
G01X1594290D02*
G03I-60000J0D01*
G01X1554290Y2010890D02*
Y1995540D01*
G01X1560060Y2010890D02*
X1554290D01*
G01X1563670Y2019750D02*
X1560060Y2010890D01*
G01X1583450Y2035760D02*
X1563670Y2019750D01*
G01X1583450Y2026630D02*
Y2035760D01*
G01X1589290Y2026630D02*
X1583450D01*
G01X1589290Y1995540D02*
Y2026630D01*
G01Y2144330D02*
Y2165540D01*
G01X1575630Y2130700D02*
Y2134700D01*
G01D02*
X1583450D01*
G01D02*
Y2144330D01*
G01D02*
X1589290D01*
G01X1479290Y2165540D02*
Y2144330D01*
G01X1492950Y2134700D02*
Y2130700D01*
G01X1485130Y2134700D02*
X1492950D01*
G01X1485130Y2144330D02*
Y2134700D01*
G01X1479290Y2144330D02*
X1485130D01*
G01X1514290Y1995540D02*
Y2010890D01*
G01X1479290Y2026630D02*
Y1995540D01*
G01X1485130Y2026630D02*
X1479290D01*
G01X1485130Y2035760D02*
Y2026630D01*
G01X1504910Y2019750D02*
X1485130Y2035760D01*
G01X1508520Y2010890D02*
X1504910Y2019750D01*
G01X1514290Y2010890D02*
X1508520D01*
G01X1514290Y1980540D02*
Y1995540D01*
G01X1554290Y1980540D02*
X1514290D01*
G01X1554290Y1995540D02*
Y1980540D01*
G01X1549290Y2080540D02*
G03I-15000J0D01*
G01X1546790D02*
G03I-12500J0D01*
G01X1083500Y2133900D02*
G03X1093500Y2143900I0J10000D01*
G01X1113500D01*
G03X1123500Y2133900I10000J0D01*
G01Y2128900D01*
X1083500D01*
Y2133900D01*
G01X1013500Y1983900D02*
Y2128900D01*
X1048500D01*
X1158500D01*
X1193500D01*
Y1958900D01*
X1158500D01*
X1123500D01*
X1083500D01*
X1048500D01*
X1038500D01*
X1013500Y1983900D01*
G01X1153500Y2043900D02*
G03I-50000J0D01*
G01X1168500D02*
G03I-65000J0D01*
G01X1163500D02*
G03I-60000J0D01*
G01X1123500Y1974250D02*
Y1958900D01*
G01X1129270Y1974250D02*
X1123500D01*
G01X1132880Y1983110D02*
X1129270Y1974250D01*
G01X1152660Y1999120D02*
X1132880Y1983110D01*
G01X1152660Y1989990D02*
Y1999120D01*
G01X1158500Y1989990D02*
X1152660D01*
G01X1158500Y1958900D02*
Y1989990D01*
G01Y2107690D02*
Y2128900D01*
G01X1144840Y2094060D02*
Y2098060D01*
G01D02*
X1152660D01*
G01D02*
Y2107690D01*
G01D02*
X1158500D01*
G01X1048500Y2128900D02*
Y2107690D01*
G01X1062160Y2098060D02*
Y2094060D01*
G01X1054340Y2098060D02*
X1062160D01*
G01X1054340Y2107690D02*
Y2098060D01*
G01X1048500Y2107690D02*
X1054340D01*
G01X1083500Y1958900D02*
Y1974250D01*
G01X1048500Y1989990D02*
Y1958900D01*
G01X1054340Y1989990D02*
X1048500D01*
G01X1054340Y1999120D02*
Y1989990D01*
G01X1074120Y1983110D02*
X1054340Y1999120D01*
G01X1077730Y1974250D02*
X1074120Y1983110D01*
G01X1083500Y1974250D02*
X1077730D01*
G01X1083500Y1943900D02*
Y1958900D01*
G01X1123500Y1943900D02*
X1083500D01*
G01X1123500Y1958900D02*
Y1943900D01*
G01X1118500Y2043900D02*
G03I-15000J0D01*
G01X1116000D02*
G03I-12500J0D01*
G01X1683120Y2242790D02*
X1658120D01*
G01D02*
Y2192790D01*
G01D02*
X1683120D01*
G01X1688120D02*
X1728120D01*
G01Y2242790D02*
X1688120D01*
G01X1733120Y2192790D02*
X1758120D01*
G01D02*
Y2242790D01*
G01D02*
X1733120D01*
G01X1688120D02*
X1683120D01*
G01X1733120D02*
X1728120D01*
G01Y2192790D02*
X1733120D01*
G01X1683120D02*
X1688120D01*
G01X1733120Y2242790D02*
Y2192790D01*
G01X1683120D02*
Y2242790D01*
G01X1777980Y2287480D02*
Y2312480D01*
G01D02*
X1727980D01*
G01D02*
Y2287480D01*
G01Y2282480D02*
Y2242480D01*
G01X1777980D02*
Y2282480D01*
G01X1727980Y2237480D02*
Y2212480D01*
G01D02*
X1777980D01*
G01D02*
Y2237480D01*
G01Y2282480D02*
Y2287480D01*
G01Y2237480D02*
Y2242480D01*
G01X1727980D02*
Y2237480D01*
G01Y2287480D02*
Y2282480D01*
G01X1777980Y2237480D02*
X1727980D01*
G01Y2287480D02*
X1777980D01*
G01X1134960Y2247820D02*
X1117290Y2230140D01*
G01D02*
X1152640Y2194790D01*
G01D02*
X1170320Y2212460D01*
G01X1173860Y2216000D02*
X1202140Y2244280D01*
G01X1166780Y2279640D02*
X1138500Y2251360D01*
G01X1205680Y2247820D02*
X1223350Y2265500D01*
G01D02*
X1188000Y2300850D01*
G01D02*
X1170320Y2283180D01*
G01X1138500Y2251360D02*
X1134960Y2247820D01*
G01X1170320Y2283180D02*
X1166780Y2279640D01*
G01X1202140Y2244280D02*
X1205680Y2247820D01*
G01X1170320Y2212460D02*
X1173860Y2216000D01*
G01X1170320Y2283180D02*
X1205680Y2247820D01*
G01X1170320Y2212460D02*
X1134960Y2247820D01*
G01X991740Y1295830D02*
Y1557830D01*
G01D02*
G02X1001740Y1567830I10000J0D01*
G01Y1285830D02*
G02X991740Y1295830I0J10000D01*
G01X1001740Y1567830D02*
X1193740D01*
G01Y1285830D02*
X1001740D01*
G01X1193740Y1567830D02*
G02X1203740Y1557830I0J-10000D01*
G01Y1295830D02*
G02X1193740Y1285830I-10000J0D01*
G01X1203740Y1557830D02*
Y1295830D01*
G01X999740Y1586830D02*
G02X972740Y1559830I-27000J0D01*
G01X1195740Y1586830D02*
X999740D01*
G01X1222740Y1559830D02*
G02X1195740Y1586830I0J27000D01*
G01X972740Y1293830D02*
G02X999740Y1266830I0J-27000D01*
G01X972740Y1559830D02*
Y1293830D01*
G01X999740Y1266830D02*
X1195740D01*
G01D02*
G02X1222740Y1293830I27000J0D01*
G01D02*
Y1559830D01*
G01X1731690Y2368960D02*
X1756690D01*
G01D02*
Y2418960D01*
G01X1686690Y2368960D02*
X1726690D01*
G01X1656690Y2418960D02*
Y2368960D01*
G01D02*
X1681690D01*
G01X1726690D02*
X1731690D01*
G01X1681690D02*
X1686690D01*
G01X1681690D02*
Y2418960D01*
G01X1731690D02*
Y2368960D01*
G01X1169230Y2276910D02*
X1186910Y2259240D01*
G01D02*
X1222260Y2294590D01*
G01D02*
X1204590Y2312270D01*
G01X1201050Y2315800D02*
X1172770Y2344090D01*
G01X1137410Y2308730D02*
X1165700Y2280450D01*
G01X1169230Y2347620D02*
X1151550Y2365300D01*
G01D02*
X1116200Y2329950D01*
G01D02*
X1133880Y2312270D01*
G01X1165700Y2280450D02*
X1169230Y2276910D01*
G01X1133880Y2312270D02*
X1137410Y2308730D01*
G01X1172770Y2344090D02*
X1169230Y2347620D01*
G01X1204590Y2312270D02*
X1201050Y2315800D01*
G01X1133880Y2312270D02*
X1169230Y2347620D01*
G01X1204590Y2312270D02*
X1169230Y2276910D01*
G01X1756690Y2418960D02*
X1731690D01*
G01X1726690D02*
X1686690D01*
G01X1681690D02*
X1656690D01*
G01X1686690D02*
X1681690D01*
G01X1731690D02*
X1726690D01*
G01X3192040Y588030D02*
Y233040D01*
G03X3212030Y213050I19990J0D01*
G01X3352030D01*
G03X3372020Y233040I0J19990D01*
G01Y258030D01*
G03X3352030Y278050I-20000J20D01*
G01X3277030D01*
G02X3257040Y298040I3J19993D01*
G01Y588030D01*
G03X3237020Y608050I-20007J13D01*
G01X3212030D01*
G03X3192040Y588030I10J-20000D01*
G01X3638420Y588000D02*
Y232990D01*
G02X3618430Y213000I-19997J7D01*
G01X3478430D01*
G02X3458440Y232990I0J19990D01*
G01Y258010D01*
G02X3478430Y278000I19990J0D01*
G01X3553440D01*
G03X3573430Y298010I-10J20000D01*
G01Y588000D01*
G02X3593440Y607990I19997J-7D01*
G01X3618430D01*
G02X3638420Y588000I-3J-19993D01*
G01X2834300Y339200D02*
Y309200D01*
G01Y339200D02*
X2820800D01*
G01Y309200D02*
X2834300D01*
G01X2789300Y329200D02*
Y319200D01*
G01X2774300Y339200D02*
Y309200D01*
G01X2787800Y339200D02*
X2774300D01*
G01Y309200D02*
X2787800D01*
G01X2790300Y339200D02*
X2787800D01*
G01Y309200D02*
X2790300D01*
G01X2819300Y329200D02*
Y319200D01*
G01X2820800Y339200D02*
X2818300D01*
G01Y309200D02*
X2820800D01*
G01X2817900Y339200D02*
X2790700D01*
G01Y309200D02*
X2817900D01*
G01X2789300Y339100D02*
Y339200D01*
G01Y339100D02*
Y329200D01*
G01X2790300Y339200D02*
X2790700D01*
G01X2819300Y339100D02*
Y329200D01*
G01Y339200D02*
Y339100D01*
G01X2817900Y339200D02*
X2818300D01*
G01X2819300Y309300D02*
Y309200D01*
G01Y319200D02*
Y309300D01*
G01X2818300Y309200D02*
X2817900D01*
G01X2789300Y319200D02*
Y309300D01*
G01Y309200D02*
Y309300D01*
G01X2790700Y309200D02*
X2790300D01*
G01X2313300Y434110D02*
Y464110D01*
G01Y434110D02*
X2326800D01*
G01Y464110D02*
X2313300D01*
G01X2358300Y444110D02*
Y454110D01*
G01X2373300Y434110D02*
Y464110D01*
G01X2359800Y434110D02*
X2373300D01*
G01Y464110D02*
X2359800D01*
G01X2357300Y434110D02*
X2359800D01*
G01Y464110D02*
X2357300D01*
G01X2328300Y444110D02*
Y454110D01*
G01X2326800Y434110D02*
X2329300D01*
G01Y464110D02*
X2326800D01*
G01X2329700Y434110D02*
X2356900D01*
G01Y464110D02*
X2329700D01*
G01X2358300Y434210D02*
Y434110D01*
G01Y434210D02*
Y444110D01*
G01X2357300Y434110D02*
X2356900D01*
G01X2328300Y434210D02*
Y444110D01*
G01Y434110D02*
Y434210D01*
G01X2329700Y434110D02*
X2329300D01*
G01X2328300Y464010D02*
Y464110D01*
G01Y454110D02*
Y464010D01*
G01X2329300Y464110D02*
X2329700D01*
G01X2358300Y454110D02*
Y464010D01*
G01Y464110D02*
Y464010D01*
G01X2356900Y464110D02*
X2357300D01*
G01X3482590Y517810D02*
G03I-24998J-1D01*
G01X3491700Y553400D02*
X3332700D01*
G01D02*
Y349400D01*
G01D02*
X3491700D01*
G01D02*
Y553400D01*
G01X2741100Y392500D02*
Y592500D01*
G01X2441100Y392500D02*
X2741100D01*
G01X2441100Y592500D02*
Y392500D01*
G01X2741100Y592500D02*
X2441100D01*
G01X2475570Y415420D02*
G03I-9998J-2D01*
G01X3116730Y1540840D02*
X3526730D01*
Y1600840D01*
X3176730D01*
Y1950840D01*
X3526730D01*
Y2010840D01*
X3116730D01*
Y1540840D01*
G01X2936900Y785400D02*
Y815400D01*
G01Y785400D02*
X2950400D01*
G01Y815400D02*
X2936900D01*
G01X2981900Y795400D02*
Y805400D01*
G01X2996900Y785400D02*
Y815400D01*
G01X2983400Y785400D02*
X2996900D01*
G01Y815400D02*
X2983400D01*
G01X2980900Y785400D02*
X2983400D01*
G01Y815400D02*
X2980900D01*
G01X2951900Y795400D02*
Y805400D01*
G01X2950400Y785400D02*
X2952900D01*
G01Y815400D02*
X2950400D01*
G01X2953300Y785400D02*
X2980500D01*
G01Y815400D02*
X2953300D01*
G01X2981900Y785500D02*
Y785400D01*
G01Y785500D02*
Y795400D01*
G01X2980900Y785400D02*
X2980500D01*
G01X2951900Y785500D02*
Y795400D01*
G01Y785400D02*
Y785500D01*
G01X2953300Y785400D02*
X2952900D01*
G01X2951900Y815300D02*
Y815400D01*
G01Y805400D02*
Y815300D01*
G01X2952900Y815400D02*
X2953300D01*
G01X2981900Y805400D02*
Y815300D01*
G01Y815400D02*
Y815300D01*
G01X2980500Y815400D02*
X2980900D01*
G01X3107200Y1012600D02*
X3137200D01*
G01X3107200D02*
Y999100D01*
G01X3137200D02*
Y1012600D01*
G01X3117200Y967600D02*
X3127200D01*
G01X3107200Y952600D02*
X3137200D01*
G01X3107200Y966100D02*
Y952600D01*
G01X3137200D02*
Y966100D01*
G01X3107200Y968600D02*
Y966100D01*
G01X3137200D02*
Y968600D01*
G01X3117200Y997600D02*
X3127200D01*
G01X3107200Y999100D02*
Y996600D01*
G01X3137200D02*
Y999100D01*
G01X3107200Y996200D02*
Y969000D01*
G01X3137200D02*
Y996200D01*
G01X3107300Y967600D02*
X3107200D01*
G01X3107300D02*
X3117200D01*
G01X3107200Y968600D02*
Y969000D01*
G01X3107300Y997600D02*
X3117200D01*
G01X3107200D02*
X3107300D01*
G01X3107200Y996200D02*
Y996600D01*
G01X3137100Y997600D02*
X3137200D01*
G01X3127200D02*
X3137100D01*
G01X3137200Y996600D02*
Y996200D01*
G01X3127200Y967600D02*
X3137100D01*
G01X3137200D02*
X3137100D01*
G01X3137200Y969000D02*
Y968600D01*
G01X3107300Y1148700D02*
X3137300D01*
G01X3107300D02*
Y1135200D01*
G01X3137300D02*
Y1148700D01*
G01X3117300Y1103700D02*
X3127300D01*
G01X3107300Y1088700D02*
X3137300D01*
G01X3107300Y1102200D02*
Y1088700D01*
G01X3137300D02*
Y1102200D01*
G01X3107300Y1104700D02*
Y1102200D01*
G01X3137300D02*
Y1104700D01*
G01X3117300Y1133700D02*
X3127300D01*
G01X3107300Y1135200D02*
Y1132700D01*
G01X3137300D02*
Y1135200D01*
G01X3107300Y1132300D02*
Y1105100D01*
G01X3137300D02*
Y1132300D01*
G01X3107400Y1103700D02*
X3107300D01*
G01X3107400D02*
X3117300D01*
G01X3107300Y1104700D02*
Y1105100D01*
G01X3107400Y1133700D02*
X3117300D01*
G01X3107300D02*
X3107400D01*
G01X3107300Y1132300D02*
Y1132700D01*
G01X3137200Y1133700D02*
X3137300D01*
G01X3127300D02*
X3137200D01*
G01X3137300Y1132700D02*
Y1132300D01*
G01X3127300Y1103700D02*
X3137200D01*
G01X3137300D02*
X3137200D01*
G01X3137300Y1105100D02*
Y1104700D01*
G01X2031600Y1767400D02*
Y1742400D01*
G01D02*
X2081600D01*
G01D02*
Y1767400D01*
G01Y1772400D02*
Y1812400D01*
G01X2031600D02*
Y1772400D01*
G01X2081600Y1817400D02*
Y1842400D01*
G01D02*
X2031600D01*
G01D02*
Y1817400D01*
G01Y1772400D02*
Y1767400D01*
G01Y1817400D02*
Y1812400D01*
G01X2081600D02*
Y1817400D01*
G01Y1767400D02*
Y1772400D01*
G01X2031600Y1817400D02*
X2081600D01*
G01Y1767400D02*
X2031600D01*
G01X2421600Y817800D02*
Y842800D01*
G01D02*
X2371600D01*
G01D02*
Y817800D01*
G01Y812800D02*
Y772800D01*
G01X2421600D02*
Y812800D01*
G01X2371600Y767800D02*
Y742800D01*
G01D02*
X2421600D01*
G01D02*
Y767800D01*
G01Y812800D02*
Y817800D01*
G01Y767800D02*
Y772800D01*
G01X2371600D02*
Y767800D01*
G01Y817800D02*
Y812800D01*
G01X2421600Y767800D02*
X2371600D01*
G01Y817800D02*
X2421600D01*
G01X2500300Y817700D02*
Y842700D01*
G01D02*
X2450300D01*
G01D02*
Y817700D01*
G01Y812700D02*
Y772700D01*
G01X2500300D02*
Y812700D01*
G01X2450300Y767700D02*
Y742700D01*
G01D02*
X2500300D01*
G01D02*
Y767700D01*
G01Y812700D02*
Y817700D01*
G01Y767700D02*
Y772700D01*
G01X2450300D02*
Y767700D01*
G01Y817700D02*
Y812700D01*
G01X2500300Y767700D02*
X2450300D01*
G01Y817700D02*
X2500300D01*
G01X2387500Y1379600D02*
X2362500D01*
G01D02*
Y1329600D01*
G01D02*
X2387500D01*
G01X2392500D02*
X2432500D01*
G01Y1379600D02*
X2392500D01*
G01X2437500Y1329600D02*
X2462500D01*
G01D02*
Y1379600D01*
G01D02*
X2437500D01*
G01X2392500D02*
X2387500D01*
G01X2437500D02*
X2432500D01*
G01Y1329600D02*
X2437500D01*
G01X2387500D02*
X2392500D01*
G01X2437500Y1379600D02*
Y1329600D01*
G01X2387500D02*
Y1379600D01*
G01X2481700Y1816800D02*
Y1791800D01*
G01D02*
X2531700D01*
G01D02*
Y1816800D01*
G01Y1821800D02*
Y1861800D01*
G01X2481700D02*
Y1821800D01*
G01X2531700Y1866800D02*
Y1891800D01*
G01D02*
X2481700D01*
G01D02*
Y1866800D01*
G01Y1821800D02*
Y1816800D01*
G01Y1866800D02*
Y1861800D01*
G01X2531700D02*
Y1866800D01*
G01Y1816800D02*
Y1821800D01*
G01X2481700Y1866800D02*
X2531700D01*
G01Y1816800D02*
X2481700D01*
G01X3689100Y1474800D02*
X3719100D01*
G01X3689100D02*
Y1461300D01*
G01X3719100D02*
Y1474800D01*
G01X3699100Y1429800D02*
X3709100D01*
G01X3689100Y1414800D02*
X3719100D01*
G01X3689100Y1428300D02*
Y1414800D01*
G01X3719100D02*
Y1428300D01*
G01X3689100Y1430800D02*
Y1428300D01*
G01X3719100D02*
Y1430800D01*
G01X3699100Y1459800D02*
X3709100D01*
G01X3689100Y1461300D02*
Y1458800D01*
G01X3719100D02*
Y1461300D01*
G01X3689100Y1458400D02*
Y1431200D01*
G01X3719100D02*
Y1458400D01*
G01X3689200Y1429800D02*
X3689100D01*
G01X3689200D02*
X3699100D01*
G01X3689100Y1430800D02*
Y1431200D01*
G01X3689200Y1459800D02*
X3699100D01*
G01X3689100D02*
X3689200D01*
G01X3689100Y1458400D02*
Y1458800D01*
G01X3719000Y1459800D02*
X3719100D01*
G01X3709100D02*
X3719000D01*
G01X3719100Y1458800D02*
Y1458400D01*
G01X3709100Y1429800D02*
X3719000D01*
G01X3719100D02*
X3719000D01*
G01X3719100Y1431200D02*
Y1430800D01*
G01X2680300Y1048300D02*
X2650300D01*
G01X2680300D02*
Y1061800D01*
G01X2650300D02*
Y1048300D01*
G01X2670300Y1093300D02*
X2660300D01*
G01X2680300Y1108300D02*
X2650300D01*
G01X2680300Y1094800D02*
Y1108300D01*
G01X2650300D02*
Y1094800D01*
G01X2680300Y1092300D02*
Y1094800D01*
G01X2650300D02*
Y1092300D01*
G01X2670300Y1063300D02*
X2660300D01*
G01X2680300Y1061800D02*
Y1064300D01*
G01X2650300D02*
Y1061800D01*
G01X2680300Y1064700D02*
Y1091900D01*
G01X2650300D02*
Y1064700D01*
G01X2680200Y1093300D02*
X2680300D01*
G01X2680200D02*
X2670300D01*
G01X2680300Y1092300D02*
Y1091900D01*
G01X2680200Y1063300D02*
X2670300D01*
G01X2680300D02*
X2680200D01*
G01X2680300Y1064700D02*
Y1064300D01*
G01X2650400Y1063300D02*
X2650300D01*
G01X2660300D02*
X2650400D01*
G01X2650300Y1064300D02*
Y1064700D01*
G01X2660300Y1093300D02*
X2650400D01*
G01X2650300D02*
X2650400D01*
G01X2650300Y1091900D02*
Y1092300D01*
G01X2804800Y1289000D02*
Y1259000D01*
G01Y1289000D02*
X2791300D01*
G01Y1259000D02*
X2804800D01*
G01X2759800Y1279000D02*
Y1269000D01*
G01X2744800Y1289000D02*
Y1259000D01*
G01X2758300Y1289000D02*
X2744800D01*
G01Y1259000D02*
X2758300D01*
G01X2760800Y1289000D02*
X2758300D01*
G01Y1259000D02*
X2760800D01*
G01X2789800Y1279000D02*
Y1269000D01*
G01X2791300Y1289000D02*
X2788800D01*
G01Y1259000D02*
X2791300D01*
G01X2788400Y1289000D02*
X2761200D01*
G01Y1259000D02*
X2788400D01*
G01X2759800Y1288900D02*
Y1289000D01*
G01Y1288900D02*
Y1279000D01*
G01X2760800Y1289000D02*
X2761200D01*
G01X2789800Y1288900D02*
Y1279000D01*
G01Y1289000D02*
Y1288900D01*
G01X2788400Y1289000D02*
X2788800D01*
G01X2789800Y1259100D02*
Y1259000D01*
G01Y1269000D02*
Y1259100D01*
G01X2788800Y1259000D02*
X2788400D01*
G01X2759800Y1269000D02*
Y1259100D01*
G01Y1259000D02*
Y1259100D01*
G01X2761200Y1259000D02*
X2760800D01*
G01X3714500Y1715800D02*
X3684500D01*
G01X3714500D02*
Y1729300D01*
G01X3684500D02*
Y1715800D01*
G01X3704500Y1760800D02*
X3694500D01*
G01X3714500Y1775800D02*
X3684500D01*
G01X3714500Y1762300D02*
Y1775800D01*
G01X3684500D02*
Y1762300D01*
G01X3714500Y1759800D02*
Y1762300D01*
G01X3684500D02*
Y1759800D01*
G01X3704500Y1730800D02*
X3694500D01*
G01X3714500Y1729300D02*
Y1731800D01*
G01X3684500D02*
Y1729300D01*
G01X3714500Y1732200D02*
Y1759400D01*
G01X3684500D02*
Y1732200D01*
G01X3714400Y1760800D02*
X3714500D01*
G01X3714400D02*
X3704500D01*
G01X3714500Y1759800D02*
Y1759400D01*
G01X3714400Y1730800D02*
X3704500D01*
G01X3714500D02*
X3714400D01*
G01X3714500Y1732200D02*
Y1731800D01*
G01X3684600Y1730800D02*
X3684500D01*
G01X3694500D02*
X3684600D01*
G01X3684500Y1731800D02*
Y1732200D01*
G01X3694500Y1760800D02*
X3684600D01*
G01X3684500D02*
X3684600D01*
G01X3684500Y1759400D02*
Y1759800D01*
G01X2276730Y723340D02*
Y1423340D01*
G01X2440730Y1879840D02*
G02X2430730Y1889840I0J10000D01*
G01X2130730D01*
G02X2120730Y1879840I-10000J0D01*
G01Y1749840D01*
G02X2130730Y1739840I0J-10000D01*
G01X2430730D01*
G02X2440730Y1749840I10000J0D01*
G01Y1879840D01*
G01X3046730Y880840D02*
X2746730D01*
G01D02*
Y1180840D01*
G01D02*
X3046730D01*
G01D02*
Y880840D01*
G01X2809300Y1142840D02*
G03I-25003J4D01*
G01X3286730Y1730840D02*
X3310350D01*
G01X3286730D02*
Y1756110D01*
G01X3243330Y1686440D02*
Y1875240D01*
G01D02*
X3430130D01*
G01D02*
Y1686440D01*
G01D02*
X3243330D01*
G01X3280830Y1711440D02*
G03I-12500J0D01*
G01X4131730Y595840D02*
G03I-140000J0D01*
G01X3785700Y1775700D02*
X3815700D01*
G01X3785700D02*
Y1762200D01*
G01X3815700D02*
Y1775700D01*
G01X3795700Y1730700D02*
X3805700D01*
G01X3785700Y1715700D02*
X3815700D01*
G01X3785700Y1729200D02*
Y1715700D01*
G01X3815700D02*
Y1729200D01*
G01X3785700Y1731700D02*
Y1729200D01*
G01X3815700D02*
Y1731700D01*
G01X3795700Y1760700D02*
X3805700D01*
G01X3785700Y1762200D02*
Y1759700D01*
G01X3815700D02*
Y1762200D01*
G01X3785700Y1759300D02*
Y1732100D01*
G01X3815700D02*
Y1759300D01*
G01X3785800Y1730700D02*
X3785700D01*
G01X3785800D02*
X3795700D01*
G01X3785700Y1731700D02*
Y1732100D01*
G01X3785800Y1760700D02*
X3795700D01*
G01X3785700D02*
X3785800D01*
G01X3785700Y1759300D02*
Y1759700D01*
G01X3815600Y1760700D02*
X3815700D01*
G01X3805700D02*
X3815600D01*
G01X3815700Y1759700D02*
Y1759300D01*
G01X3805700Y1730700D02*
X3815600D01*
G01X3815700D02*
X3815600D01*
G01X3815700Y1732100D02*
Y1731700D01*
G01X4181500Y2196000D02*
G03I-140000J0D01*
G01X3819100Y1425800D02*
Y1455800D01*
G01Y1425800D02*
X3832600D01*
G01Y1455800D02*
X3819100D01*
G01X3864100Y1435800D02*
Y1445800D01*
G01X3879100Y1425800D02*
Y1455800D01*
G01X3865600Y1425800D02*
X3879100D01*
G01Y1455800D02*
X3865600D01*
G01X3863100Y1425800D02*
X3865600D01*
G01Y1455800D02*
X3863100D01*
G01X3834100Y1435800D02*
Y1445800D01*
G01X3832600Y1425800D02*
X3835100D01*
G01Y1455800D02*
X3832600D01*
G01X3835500Y1425800D02*
X3862700D01*
G01Y1455800D02*
X3835500D01*
G01X3864100Y1425900D02*
Y1425800D01*
G01Y1425900D02*
Y1435800D01*
G01X3863100Y1425800D02*
X3862700D01*
G01X3834100Y1425900D02*
Y1435800D01*
G01Y1425800D02*
Y1425900D01*
G01X3835500Y1425800D02*
X3835100D01*
G01X3834100Y1455700D02*
Y1455800D01*
G01Y1445800D02*
Y1455700D01*
G01X3835100Y1455800D02*
X3835500D01*
G01X3864100Y1445800D02*
Y1455700D01*
G01Y1455800D02*
Y1455700D01*
G01X3862700Y1455800D02*
X3863100D01*
G54D11*
G01X266200Y2349500D02*
Y2369500D01*
X259950D01*
X257950Y2368500D01*
X256700Y2367170D01*
X256200Y2364500D01*
X256700Y2361830D01*
X258200Y2360170D01*
X259950Y2359170D01*
X266200D01*
G01X259950D02*
X256200Y2349500D01*
G01X243200D02*
Y2369500D01*
X246200Y2365500D01*
G01Y2349500D02*
X240200D01*
G01X225200D02*
X223450Y2349830D01*
X221450Y2350830D01*
X220200Y2352500D01*
X219700Y2354830D01*
X220200Y2357170D01*
X221700Y2359170D01*
X223950Y2360170D01*
X226450D01*
X227950Y2360830D01*
X229200Y2362500D01*
X229700Y2364830D01*
X228950Y2367170D01*
X227200Y2368830D01*
X225200Y2369500D01*
X223200Y2368830D01*
X221450Y2367170D01*
X220700Y2364830D01*
X221200Y2362500D01*
X222450Y2360830D01*
X223950Y2360170D01*
X226450D01*
X228700Y2359170D01*
X230200Y2357170D01*
X230700Y2354830D01*
X230200Y2352500D01*
X228950Y2350830D01*
X226950Y2349830D01*
X225200Y2349500D01*
G01X1498800Y688000D02*
X1478800D01*
Y681750D01*
X1479800Y679750D01*
X1481130Y678500D01*
X1483800Y678000D01*
X1486470Y678500D01*
X1488130Y680000D01*
X1489130Y681750D01*
Y688000D01*
G01Y681750D02*
X1498800Y678000D01*
G01Y665000D02*
X1478800D01*
X1482800Y668000D01*
G01X1498800D02*
Y662000D01*
G01X1348570Y677200D02*
X1347570Y678700D01*
X1346900Y680450D01*
Y682450D01*
X1347900Y684700D01*
X1349570Y686450D01*
X1351570Y687700D01*
X1354900Y688700D01*
X1357900Y688950D01*
X1360900Y688450D01*
X1362900Y687700D01*
X1364900Y686200D01*
X1366230Y684450D01*
X1366900Y682700D01*
Y680950D01*
X1366230Y679200D01*
X1365230Y677700D01*
X1363900Y676450D01*
G01X1366900Y664700D02*
X1346900D01*
X1350900Y667700D01*
G01X1366900D02*
Y661700D01*
G01Y647200D02*
X1362570Y646700D01*
X1358900Y645950D01*
X1355570Y644950D01*
X1351900Y643700D01*
X1346900Y641700D01*
Y651700D01*
G01X1687940Y513030D02*
X1689440Y514030D01*
X1691190Y514700D01*
X1693190D01*
X1695440Y513700D01*
X1697190Y512030D01*
X1698440Y510030D01*
X1699440Y506700D01*
X1699690Y503700D01*
X1699190Y500700D01*
X1698440Y498700D01*
X1696940Y496700D01*
X1695190Y495370D01*
X1693440Y494700D01*
X1691690D01*
X1689940Y495370D01*
X1688440Y496370D01*
X1687190Y497700D01*
G01X1680190Y503030D02*
X1678440Y505370D01*
X1676940Y506700D01*
X1674940Y507370D01*
X1673190Y506700D01*
X1671940Y505370D01*
X1670940Y503370D01*
X1670690Y501030D01*
X1670940Y499030D01*
X1671940Y497030D01*
X1673440Y495370D01*
X1675190Y494700D01*
X1677190Y495370D01*
X1678940Y497370D01*
X1679940Y500370D01*
X1680190Y503700D01*
X1679690Y508030D01*
X1678940Y510370D01*
X1677690Y512700D01*
X1675940Y514370D01*
X1674190Y514700D01*
X1672440Y514030D01*
X1671190Y512370D01*
G01X848300Y561200D02*
X828300D01*
Y554950D01*
X829300Y552950D01*
X830630Y551700D01*
X833300Y551200D01*
X835970Y551700D01*
X837630Y553200D01*
X838630Y554950D01*
Y561200D01*
G01Y554950D02*
X848300Y551200D01*
G01X831630Y542950D02*
X829630Y541450D01*
X828630Y539700D01*
X828300Y537700D01*
X828970Y535200D01*
X830630Y533450D01*
X832630Y532950D01*
X834630Y533200D01*
X836300Y534200D01*
X839630Y539200D01*
X841970Y541450D01*
X845300Y542950D01*
X848300Y543450D01*
Y532950D01*
G01X844300Y525700D02*
X846630Y524200D01*
X847970Y522200D01*
X848300Y519950D01*
X847970Y517950D01*
X846300Y515950D01*
X844300Y514700D01*
X842300Y514450D01*
X839970Y514950D01*
X838300Y516700D01*
X837630Y518450D01*
Y520700D01*
G01Y518450D02*
X836630Y516950D01*
X834970Y515700D01*
X832970Y515200D01*
X830970Y515700D01*
X829300Y516950D01*
X828300Y519200D01*
X828630Y521450D01*
X829970Y523700D01*
G01X813330Y333700D02*
X814330Y332200D01*
X815000Y330450D01*
Y328450D01*
X814000Y326200D01*
X812330Y324450D01*
X810330Y323200D01*
X807000Y322200D01*
X804000Y321950D01*
X801000Y322450D01*
X799000Y323200D01*
X797000Y324700D01*
X795670Y326450D01*
X795000Y328200D01*
Y329950D01*
X795670Y331700D01*
X796670Y333200D01*
X798000Y334450D01*
G01X795000Y349200D02*
X815000D01*
X800670Y339950D01*
Y352450D01*
G01X811670Y359450D02*
X813670Y360950D01*
X814670Y362700D01*
X815000Y364700D01*
X814330Y367200D01*
X812670Y368950D01*
X810670Y369450D01*
X808670Y369200D01*
X807000Y368200D01*
X803670Y363200D01*
X801330Y360950D01*
X798000Y359450D01*
X795000Y358950D01*
Y369450D01*
G01X1125530Y672200D02*
X1126530Y670700D01*
X1127200Y668950D01*
Y666950D01*
X1126200Y664700D01*
X1124530Y662950D01*
X1122530Y661700D01*
X1119200Y660700D01*
X1116200Y660450D01*
X1113200Y660950D01*
X1111200Y661700D01*
X1109200Y663200D01*
X1107870Y664950D01*
X1107200Y666700D01*
Y668450D01*
X1107870Y670200D01*
X1108870Y671700D01*
X1110200Y672950D01*
G01X1107200Y687700D02*
X1127200D01*
X1112870Y678450D01*
Y690950D01*
G01X1127200Y702700D02*
X1126530Y700700D01*
X1124870Y699200D01*
X1122870Y698200D01*
X1120200Y697450D01*
X1117200Y697200D01*
X1114200Y697450D01*
X1111530Y698200D01*
X1109530Y699200D01*
X1107870Y700700D01*
X1107200Y702700D01*
X1107870Y704700D01*
X1109530Y706200D01*
X1111530Y707200D01*
X1114200Y707950D01*
X1117200Y708200D01*
X1120200Y707950D01*
X1122870Y707200D01*
X1124870Y706200D01*
X1126530Y704700D01*
X1127200Y702700D01*
G01X660500Y254430D02*
X662000Y255430D01*
X663750Y256100D01*
X665750D01*
X668000Y255100D01*
X669750Y253430D01*
X671000Y251430D01*
X672000Y248100D01*
X672250Y245100D01*
X671750Y242100D01*
X671000Y240100D01*
X669500Y238100D01*
X667750Y236770D01*
X666000Y236100D01*
X664250D01*
X662500Y236770D01*
X661000Y237770D01*
X659750Y239100D01*
G01X645000Y236100D02*
Y256100D01*
X654250Y241770D01*
X641750D01*
G01X635500Y240100D02*
X634000Y237770D01*
X632000Y236430D01*
X629750Y236100D01*
X627750Y236430D01*
X625750Y238100D01*
X624500Y240100D01*
X624250Y242100D01*
X624750Y244430D01*
X626500Y246100D01*
X628250Y246770D01*
X630500D01*
G01X628250D02*
X626750Y247770D01*
X625500Y249430D01*
X625000Y251430D01*
X625500Y253430D01*
X626750Y255100D01*
X629000Y256100D01*
X631250Y255770D01*
X633500Y254430D01*
G01X697300Y621900D02*
X677300D01*
Y615650D01*
X678300Y613650D01*
X679630Y612400D01*
X682300Y611900D01*
X684970Y612400D01*
X686630Y613900D01*
X687630Y615650D01*
Y621900D01*
G01Y615650D02*
X697300Y611900D01*
G01X694970Y603150D02*
X696630Y601400D01*
X697300Y599400D01*
X696630Y597400D01*
X694630Y595650D01*
X691630Y594400D01*
X688630Y593900D01*
X684970D01*
X681970Y594400D01*
X679300Y595650D01*
X677970Y597150D01*
X677300Y598900D01*
X677970Y600900D01*
X679300Y602400D01*
X681300Y603400D01*
X683970Y603900D01*
X686300Y603400D01*
X688630Y602150D01*
X689970Y600650D01*
X690300Y598900D01*
X689630Y596900D01*
X687970Y595400D01*
X684970Y593900D01*
G01X997400Y476900D02*
Y496900D01*
X991150D01*
X989150Y495900D01*
X987900Y494570D01*
X987400Y491900D01*
X987900Y489230D01*
X989400Y487570D01*
X991150Y486570D01*
X997400D01*
G01X991150D02*
X987400Y476900D01*
G01X974400D02*
Y496900D01*
X977400Y492900D01*
G01Y476900D02*
X971400D01*
G01X961150Y493570D02*
X959650Y495570D01*
X957900Y496570D01*
X955900Y496900D01*
X953400Y496230D01*
X951650Y494570D01*
X951150Y492570D01*
X951400Y490570D01*
X952400Y488900D01*
X957400Y485570D01*
X959650Y483230D01*
X961150Y479900D01*
X961650Y476900D01*
X951150D01*
G01X1295700Y1927200D02*
X1315700D01*
Y1917200D01*
G01X1299030Y1908950D02*
X1297030Y1907450D01*
X1296030Y1905700D01*
X1295700Y1903700D01*
X1296370Y1901200D01*
X1298030Y1899450D01*
X1300030Y1898950D01*
X1302030Y1899200D01*
X1303700Y1900200D01*
X1307030Y1905200D01*
X1309370Y1907450D01*
X1312700Y1908950D01*
X1315700Y1909450D01*
Y1898950D01*
G01X1838100Y1540300D02*
Y1520300D01*
X1828100D01*
G01X1815100D02*
Y1540300D01*
X1818100Y1536300D01*
G01Y1520300D02*
X1812100D01*
G01X1802600Y1523300D02*
X1801100Y1521630D01*
X1799350Y1520630D01*
X1797100Y1520300D01*
X1794850Y1520970D01*
X1793100Y1522300D01*
X1791850Y1524630D01*
X1791600Y1527300D01*
X1792100Y1529970D01*
X1793350Y1531630D01*
X1795100Y1532970D01*
X1796850Y1533300D01*
X1798600Y1532970D01*
X1800850Y1531630D01*
X1800100Y1540300D01*
X1793350D01*
G01X1529200Y1607900D02*
X1549200D01*
Y1597900D01*
G01Y1584900D02*
X1529200D01*
X1533200Y1587900D01*
G01X1549200D02*
Y1581900D01*
G01X1540870Y1571650D02*
X1538530Y1569900D01*
X1537200Y1568400D01*
X1536530Y1566400D01*
X1537200Y1564650D01*
X1538530Y1563400D01*
X1540530Y1562400D01*
X1542870Y1562150D01*
X1544870Y1562400D01*
X1546870Y1563400D01*
X1548530Y1564900D01*
X1549200Y1566650D01*
X1548530Y1568650D01*
X1546530Y1570400D01*
X1543530Y1571400D01*
X1540200Y1571650D01*
X1535870Y1571150D01*
X1533530Y1570400D01*
X1531200Y1569150D01*
X1529530Y1567400D01*
X1529200Y1565650D01*
X1529870Y1563900D01*
X1531530Y1562650D01*
G01X1364230Y1039840D02*
Y1059830D01*
X1357970D01*
X1355970Y1058830D01*
X1354720Y1057500D01*
X1354220Y1054830D01*
X1354720Y1052170D01*
X1356220Y1050500D01*
X1357970Y1049500D01*
X1364230D01*
G01X1357970D02*
X1354220Y1039840D01*
G01X1345970Y1048170D02*
X1344220Y1050500D01*
X1342720Y1051830D01*
X1340710Y1052500D01*
X1338960Y1051830D01*
X1337710Y1050500D01*
X1336710Y1048500D01*
X1336460Y1046170D01*
X1336710Y1044170D01*
X1337710Y1042170D01*
X1339210Y1040510D01*
X1340960Y1039840D01*
X1342970Y1040510D01*
X1344720Y1042500D01*
X1345720Y1045500D01*
X1345970Y1048840D01*
X1345470Y1053170D01*
X1344720Y1055500D01*
X1343470Y1057830D01*
X1341720Y1059500D01*
X1339960Y1059830D01*
X1338210Y1059160D01*
X1336960Y1057500D01*
G01X760900Y886000D02*
X740900D01*
Y879750D01*
X741900Y877750D01*
X743230Y876500D01*
X745900Y876000D01*
X748570Y876500D01*
X750230Y878000D01*
X751230Y879750D01*
Y886000D01*
G01Y879750D02*
X760900Y876000D01*
G01X744230Y867750D02*
X742230Y866250D01*
X741230Y864500D01*
X740900Y862500D01*
X741570Y860000D01*
X743230Y858250D01*
X745230Y857750D01*
X747230Y858000D01*
X748900Y859000D01*
X752230Y864000D01*
X754570Y866250D01*
X757900Y867750D01*
X760900Y868250D01*
Y857750D01*
G01Y845000D02*
X760570Y843250D01*
X759570Y841250D01*
X757900Y840000D01*
X755570Y839500D01*
X753230Y840000D01*
X751230Y841500D01*
X750230Y843750D01*
Y846250D01*
X749570Y847750D01*
X747900Y849000D01*
X745570Y849500D01*
X743230Y848750D01*
X741570Y847000D01*
X740900Y845000D01*
X741570Y843000D01*
X743230Y841250D01*
X745570Y840500D01*
X747900Y841000D01*
X749570Y842250D01*
X750230Y843750D01*
Y846250D01*
X751230Y848500D01*
X753230Y850000D01*
X755570Y850500D01*
X757900Y850000D01*
X759570Y848750D01*
X760570Y846750D01*
X760900Y845000D01*
G01X922400Y1909830D02*
X923900Y1910830D01*
X925650Y1911500D01*
X927650D01*
X929900Y1910500D01*
X931650Y1908830D01*
X932900Y1906830D01*
X933900Y1903500D01*
X934150Y1900500D01*
X933650Y1897500D01*
X932900Y1895500D01*
X931400Y1893500D01*
X929650Y1892170D01*
X927900Y1891500D01*
X926150D01*
X924400Y1892170D01*
X922900Y1893170D01*
X921650Y1894500D01*
G01X914650Y1908170D02*
X913150Y1910170D01*
X911400Y1911170D01*
X909400Y1911500D01*
X906900Y1910830D01*
X905150Y1909170D01*
X904650Y1907170D01*
X904900Y1905170D01*
X905900Y1903500D01*
X910900Y1900170D01*
X913150Y1897830D01*
X914650Y1894500D01*
X915150Y1891500D01*
X904650D01*
G01X891900D02*
X890150Y1891830D01*
X888150Y1892830D01*
X886900Y1894500D01*
X886400Y1896830D01*
X886900Y1899170D01*
X888400Y1901170D01*
X890650Y1902170D01*
X893150D01*
X894650Y1902830D01*
X895900Y1904500D01*
X896400Y1906830D01*
X895650Y1909170D01*
X893900Y1910830D01*
X891900Y1911500D01*
X889900Y1910830D01*
X888150Y1909170D01*
X887400Y1906830D01*
X887900Y1904500D01*
X889150Y1902830D01*
X890650Y1902170D01*
X893150D01*
X895400Y1901170D01*
X896900Y1899170D01*
X897400Y1896830D01*
X896900Y1894500D01*
X895650Y1892830D01*
X893650Y1891830D01*
X891900Y1891500D01*
G01X643600Y1777730D02*
X645100Y1778730D01*
X646850Y1779400D01*
X648850D01*
X651100Y1778400D01*
X652850Y1776730D01*
X654100Y1774730D01*
X655100Y1771400D01*
X655350Y1768400D01*
X654850Y1765400D01*
X654100Y1763400D01*
X652600Y1761400D01*
X650850Y1760070D01*
X649100Y1759400D01*
X647350D01*
X645600Y1760070D01*
X644100Y1761070D01*
X642850Y1762400D01*
G01X636600Y1763400D02*
X635100Y1761070D01*
X633100Y1759730D01*
X630850Y1759400D01*
X628850Y1759730D01*
X626850Y1761400D01*
X625600Y1763400D01*
X625350Y1765400D01*
X625850Y1767730D01*
X627600Y1769400D01*
X629350Y1770070D01*
X631600D01*
G01X629350D02*
X627850Y1771070D01*
X626600Y1772730D01*
X626100Y1774730D01*
X626600Y1776730D01*
X627850Y1778400D01*
X630100Y1779400D01*
X632350Y1779070D01*
X634600Y1777730D01*
G01X618600Y1763400D02*
X617100Y1761070D01*
X615100Y1759730D01*
X612850Y1759400D01*
X610850Y1759730D01*
X608850Y1761400D01*
X607600Y1763400D01*
X607350Y1765400D01*
X607850Y1767730D01*
X609600Y1769400D01*
X611350Y1770070D01*
X613600D01*
G01X611350D02*
X609850Y1771070D01*
X608600Y1772730D01*
X608100Y1774730D01*
X608600Y1776730D01*
X609850Y1778400D01*
X612100Y1779400D01*
X614350Y1779070D01*
X616600Y1777730D01*
G01X736900Y1900630D02*
X738400Y1901630D01*
X740150Y1902300D01*
X742150D01*
X744400Y1901300D01*
X746150Y1899630D01*
X747400Y1897630D01*
X748400Y1894300D01*
X748650Y1891300D01*
X748150Y1888300D01*
X747400Y1886300D01*
X745900Y1884300D01*
X744150Y1882970D01*
X742400Y1882300D01*
X740650D01*
X738900Y1882970D01*
X737400Y1883970D01*
X736150Y1885300D01*
G01X729150Y1898970D02*
X727650Y1900970D01*
X725900Y1901970D01*
X723900Y1902300D01*
X721400Y1901630D01*
X719650Y1899970D01*
X719150Y1897970D01*
X719400Y1895970D01*
X720400Y1894300D01*
X725400Y1890970D01*
X727650Y1888630D01*
X729150Y1885300D01*
X729650Y1882300D01*
X719150D01*
G01X710650Y1884630D02*
X708900Y1882970D01*
X706900Y1882300D01*
X704900Y1882970D01*
X703150Y1884970D01*
X701900Y1887970D01*
X701400Y1890970D01*
Y1894630D01*
X701900Y1897630D01*
X703150Y1900300D01*
X704650Y1901630D01*
X706400Y1902300D01*
X708400Y1901630D01*
X709900Y1900300D01*
X710900Y1898300D01*
X711400Y1895630D01*
X710900Y1893300D01*
X709650Y1890970D01*
X708150Y1889630D01*
X706400Y1889300D01*
X704400Y1889970D01*
X702900Y1891630D01*
X701400Y1894630D01*
G01X764790Y1332620D02*
X766290Y1333620D01*
X768040Y1334290D01*
X770040D01*
X772300Y1333290D01*
X774050Y1331610D01*
X775300Y1329600D01*
X776300Y1326250D01*
X776550Y1323240D01*
X776050Y1320230D01*
X775300Y1318220D01*
X773800Y1316210D01*
X772050Y1314870D01*
X770300Y1314200D01*
X768540D01*
X766790Y1314870D01*
X765290Y1315870D01*
X764040Y1317210D01*
G01X757290Y1314200D02*
Y1334290D01*
X751030D01*
X749030Y1333290D01*
X747780Y1331950D01*
X747280Y1329270D01*
X747780Y1326590D01*
X749280Y1324910D01*
X751030Y1323910D01*
X757290D01*
G01X751030D02*
X747280Y1314200D01*
G01X734280D02*
Y1334290D01*
X737280Y1330270D01*
G01Y1314200D02*
X731270D01*
G01X1546730Y1437170D02*
X1548230Y1438170D01*
X1549980Y1438840D01*
X1551980D01*
X1554230Y1437840D01*
X1555980Y1436170D01*
X1557230Y1434170D01*
X1558230Y1430840D01*
X1558480Y1427840D01*
X1557980Y1424840D01*
X1557230Y1422840D01*
X1555730Y1420840D01*
X1553980Y1419510D01*
X1552230Y1418840D01*
X1550480D01*
X1548730Y1419510D01*
X1547230Y1420510D01*
X1545980Y1421840D01*
G01X1534230Y1418840D02*
X1532480Y1419170D01*
X1530480Y1420170D01*
X1529230Y1421840D01*
X1528730Y1424170D01*
X1529230Y1426510D01*
X1530730Y1428510D01*
X1532980Y1429510D01*
X1535480D01*
X1536980Y1430170D01*
X1538230Y1431840D01*
X1538730Y1434170D01*
X1537980Y1436510D01*
X1536230Y1438170D01*
X1534230Y1438840D01*
X1532230Y1438170D01*
X1530480Y1436510D01*
X1529730Y1434170D01*
X1530230Y1431840D01*
X1531480Y1430170D01*
X1532980Y1429510D01*
X1535480D01*
X1537730Y1428510D01*
X1539230Y1426510D01*
X1539730Y1424170D01*
X1539230Y1421840D01*
X1537980Y1420170D01*
X1535980Y1419170D01*
X1534230Y1418840D01*
G01X1470500Y1229730D02*
X1472000Y1230730D01*
X1473750Y1231400D01*
X1475750D01*
X1478000Y1230400D01*
X1479750Y1228730D01*
X1481000Y1226730D01*
X1482000Y1223400D01*
X1482250Y1220400D01*
X1481750Y1217400D01*
X1481000Y1215400D01*
X1479500Y1213400D01*
X1477750Y1212070D01*
X1476000Y1211400D01*
X1474250D01*
X1472500Y1212070D01*
X1471000Y1213070D01*
X1469750Y1214400D01*
G01X1462250Y1213730D02*
X1460500Y1212070D01*
X1458500Y1211400D01*
X1456500Y1212070D01*
X1454750Y1214070D01*
X1453500Y1217070D01*
X1453000Y1220070D01*
Y1223730D01*
X1453500Y1226730D01*
X1454750Y1229400D01*
X1456250Y1230730D01*
X1458000Y1231400D01*
X1460000Y1230730D01*
X1461500Y1229400D01*
X1462500Y1227400D01*
X1463000Y1224730D01*
X1462500Y1222400D01*
X1461250Y1220070D01*
X1459750Y1218730D01*
X1458000Y1218400D01*
X1456000Y1219070D01*
X1454500Y1220730D01*
X1453000Y1223730D01*
G01X1555340Y1965810D02*
X1556840Y1966810D01*
X1558590Y1967480D01*
X1560590D01*
X1562850Y1966480D01*
X1564600Y1964800D01*
X1565850Y1962790D01*
X1566850Y1959440D01*
X1567100Y1956430D01*
X1566600Y1953420D01*
X1565850Y1951410D01*
X1564350Y1949400D01*
X1562600Y1948060D01*
X1560850Y1947390D01*
X1559090D01*
X1557340Y1948060D01*
X1555840Y1949060D01*
X1554590Y1950400D01*
G01X1542840Y1947390D02*
Y1967480D01*
X1545840Y1963460D01*
G01Y1947390D02*
X1539830D01*
G01X1529580Y1955760D02*
X1527830Y1958100D01*
X1526330Y1959440D01*
X1524320Y1960110D01*
X1522570Y1959440D01*
X1521320Y1958100D01*
X1520320Y1956100D01*
X1520070Y1953750D01*
X1520320Y1951740D01*
X1521320Y1949730D01*
X1522820Y1948060D01*
X1524570Y1947390D01*
X1526580Y1948060D01*
X1528330Y1950070D01*
X1529330Y1953080D01*
X1529580Y1956430D01*
X1529080Y1960780D01*
X1528330Y1963130D01*
X1527080Y1965470D01*
X1525330Y1967150D01*
X1523570Y1967480D01*
X1521820Y1966810D01*
X1520570Y1965140D01*
G01X1769340Y1789590D02*
X1770840Y1790590D01*
X1772590Y1791260D01*
X1774590D01*
X1776840Y1790260D01*
X1778590Y1788590D01*
X1779840Y1786590D01*
X1780840Y1783260D01*
X1781090Y1780260D01*
X1780590Y1777260D01*
X1779840Y1775260D01*
X1778340Y1773260D01*
X1776590Y1771930D01*
X1774840Y1771260D01*
X1773090D01*
X1771340Y1771930D01*
X1769840Y1772930D01*
X1768590Y1774260D01*
G01X1756840Y1771260D02*
Y1791260D01*
X1759840Y1787260D01*
G01Y1771260D02*
X1753840D01*
G01X1744340Y1774260D02*
X1742840Y1772590D01*
X1741090Y1771590D01*
X1738840Y1771260D01*
X1736590Y1771930D01*
X1734840Y1773260D01*
X1733590Y1775590D01*
X1733340Y1778260D01*
X1733840Y1780930D01*
X1735090Y1782590D01*
X1736840Y1783930D01*
X1738590Y1784260D01*
X1740340Y1783930D01*
X1742590Y1782590D01*
X1741840Y1791260D01*
X1735090D01*
G01X1408400Y1162030D02*
X1409900Y1163030D01*
X1411650Y1163700D01*
X1413650D01*
X1415900Y1162700D01*
X1417650Y1161030D01*
X1418900Y1159030D01*
X1419900Y1155700D01*
X1420150Y1152700D01*
X1419650Y1149700D01*
X1418900Y1147700D01*
X1417400Y1145700D01*
X1415650Y1144370D01*
X1413900Y1143700D01*
X1412150D01*
X1410400Y1144370D01*
X1408900Y1145370D01*
X1407650Y1146700D01*
G01X1392900Y1143700D02*
Y1163700D01*
X1402150Y1149370D01*
X1389650D01*
G01X1056770Y1168700D02*
X1055770Y1170200D01*
X1055100Y1171950D01*
Y1173950D01*
X1056100Y1176200D01*
X1057770Y1177950D01*
X1059770Y1179200D01*
X1063100Y1180200D01*
X1066100Y1180450D01*
X1069100Y1179950D01*
X1071100Y1179200D01*
X1073100Y1177700D01*
X1074430Y1175950D01*
X1075100Y1174200D01*
Y1172450D01*
X1074430Y1170700D01*
X1073430Y1169200D01*
X1072100Y1167950D01*
G01X1058430Y1160950D02*
X1056430Y1159450D01*
X1055430Y1157700D01*
X1055100Y1155700D01*
X1055770Y1153200D01*
X1057430Y1151450D01*
X1059430Y1150950D01*
X1061430Y1151200D01*
X1063100Y1152200D01*
X1066430Y1157200D01*
X1068770Y1159450D01*
X1072100Y1160950D01*
X1075100Y1161450D01*
Y1150950D01*
G01X1058430Y1142950D02*
X1056430Y1141450D01*
X1055430Y1139700D01*
X1055100Y1137700D01*
X1055770Y1135200D01*
X1057430Y1133450D01*
X1059430Y1132950D01*
X1061430Y1133200D01*
X1063100Y1134200D01*
X1066430Y1139200D01*
X1068770Y1141450D01*
X1072100Y1142950D01*
X1075100Y1143450D01*
Y1132950D01*
G01X1148900Y1736630D02*
X1150400Y1737630D01*
X1152150Y1738300D01*
X1154150D01*
X1156400Y1737300D01*
X1158150Y1735630D01*
X1159400Y1733630D01*
X1160400Y1730300D01*
X1160650Y1727300D01*
X1160150Y1724300D01*
X1159400Y1722300D01*
X1157900Y1720300D01*
X1156150Y1718970D01*
X1154400Y1718300D01*
X1152650D01*
X1150900Y1718970D01*
X1149400Y1719970D01*
X1148150Y1721300D01*
G01X1141150Y1734970D02*
X1139650Y1736970D01*
X1137900Y1737970D01*
X1135900Y1738300D01*
X1133400Y1737630D01*
X1131650Y1735970D01*
X1131150Y1733970D01*
X1131400Y1731970D01*
X1132400Y1730300D01*
X1137400Y1726970D01*
X1139650Y1724630D01*
X1141150Y1721300D01*
X1141650Y1718300D01*
X1131150D01*
G01X1118400D02*
Y1738300D01*
X1121400Y1734300D01*
G01Y1718300D02*
X1115400D01*
G01X1556300Y1498930D02*
X1557800Y1499930D01*
X1559550Y1500600D01*
X1561550D01*
X1563800Y1499600D01*
X1565550Y1497930D01*
X1566800Y1495930D01*
X1567800Y1492600D01*
X1568050Y1489600D01*
X1567550Y1486600D01*
X1566800Y1484600D01*
X1565300Y1482600D01*
X1563550Y1481270D01*
X1561800Y1480600D01*
X1560050D01*
X1558300Y1481270D01*
X1556800Y1482270D01*
X1555550Y1483600D01*
G01X1543800Y1480600D02*
Y1500600D01*
X1546800Y1496600D01*
G01Y1480600D02*
X1540800D01*
G01X1525800Y1500600D02*
X1527800Y1499930D01*
X1529300Y1498270D01*
X1530300Y1496270D01*
X1531050Y1493600D01*
X1531300Y1490600D01*
X1531050Y1487600D01*
X1530300Y1484930D01*
X1529300Y1482930D01*
X1527800Y1481270D01*
X1525800Y1480600D01*
X1523800Y1481270D01*
X1522300Y1482930D01*
X1521300Y1484930D01*
X1520550Y1487600D01*
X1520300Y1490600D01*
X1520550Y1493600D01*
X1521300Y1496270D01*
X1522300Y1498270D01*
X1523800Y1499930D01*
X1525800Y1500600D01*
G01X1331590Y2107020D02*
X1333090Y2108020D01*
X1334840Y2108690D01*
X1336840D01*
X1339100Y2107690D01*
X1340850Y2106010D01*
X1342100Y2104000D01*
X1343100Y2100650D01*
X1343350Y2097640D01*
X1342850Y2094630D01*
X1342100Y2092620D01*
X1340600Y2090610D01*
X1338850Y2089270D01*
X1337100Y2088600D01*
X1335340D01*
X1333590Y2089270D01*
X1332090Y2090270D01*
X1330840Y2091610D01*
G01X1319090Y2088600D02*
Y2108690D01*
X1322090Y2104670D01*
G01Y2088600D02*
X1316080D01*
G01X1306580Y2092620D02*
X1305080Y2090270D01*
X1303080Y2088930D01*
X1300820Y2088600D01*
X1298820Y2088930D01*
X1296820Y2090610D01*
X1295570Y2092620D01*
X1295320Y2094630D01*
X1295820Y2096970D01*
X1297570Y2098640D01*
X1299320Y2099310D01*
X1301580D01*
G01X1299320D02*
X1297820Y2100320D01*
X1296570Y2101990D01*
X1296070Y2104000D01*
X1296570Y2106010D01*
X1297820Y2107690D01*
X1300070Y2108690D01*
X1302330Y2108360D01*
X1304580Y2107020D01*
G01X1227700Y1803930D02*
X1229200Y1804930D01*
X1230950Y1805600D01*
X1232950D01*
X1235200Y1804600D01*
X1236950Y1802930D01*
X1238200Y1800930D01*
X1239200Y1797600D01*
X1239450Y1794600D01*
X1238950Y1791600D01*
X1238200Y1789600D01*
X1236700Y1787600D01*
X1234950Y1786270D01*
X1233200Y1785600D01*
X1231450D01*
X1229700Y1786270D01*
X1228200Y1787270D01*
X1226950Y1788600D01*
G01X1215200Y1785600D02*
Y1805600D01*
X1218200Y1801600D01*
G01Y1785600D02*
X1212200D01*
G01X1201950Y1802270D02*
X1200450Y1804270D01*
X1198700Y1805270D01*
X1196700Y1805600D01*
X1194200Y1804930D01*
X1192450Y1803270D01*
X1191950Y1801270D01*
X1192200Y1799270D01*
X1193200Y1797600D01*
X1198200Y1794270D01*
X1200450Y1791930D01*
X1201950Y1788600D01*
X1202450Y1785600D01*
X1191950D01*
G01X1052320Y2410920D02*
X1033690Y2420700D01*
X1043470Y2402070D01*
G01X1040090Y2408630D02*
X1045750Y2414300D01*
G01X1039230Y2397830D02*
X1025030Y2412040D01*
X1031090Y2389690D01*
X1016890Y2403900D01*
G01X1008230Y2395240D02*
X1022430Y2381030D01*
G01X1012300Y2399310D02*
X1004160Y2391170D01*
G01X1010750Y2375040D02*
X1011350Y2372320D01*
X1010880Y2369960D01*
X1009530Y2368130D01*
X1007870Y2366950D01*
X1005280Y2366720D01*
X1002970Y2367250D01*
X1001370Y2368500D01*
X1000070Y2370510D01*
X1000120Y2372930D01*
X1000890Y2374640D01*
X1002480Y2376230D01*
G01X1000890Y2374640D02*
X999120Y2374290D01*
X997050Y2374590D01*
X995270Y2375660D01*
X994210Y2377430D01*
X993910Y2379500D01*
X994790Y2381800D01*
X996620Y2383160D01*
X999160Y2383800D01*
G01X1908170Y1704600D02*
X1907170Y1706100D01*
X1906500Y1707850D01*
Y1709850D01*
X1907500Y1712100D01*
X1909170Y1713850D01*
X1911170Y1715100D01*
X1914500Y1716100D01*
X1917500Y1716350D01*
X1920500Y1715850D01*
X1922500Y1715100D01*
X1924500Y1713600D01*
X1925830Y1711850D01*
X1926500Y1710100D01*
Y1708350D01*
X1925830Y1706600D01*
X1924830Y1705100D01*
X1923500Y1703850D01*
G01X1909830Y1696850D02*
X1907830Y1695350D01*
X1906830Y1693600D01*
X1906500Y1691600D01*
X1907170Y1689100D01*
X1908830Y1687350D01*
X1910830Y1686850D01*
X1912830Y1687100D01*
X1914500Y1688100D01*
X1917830Y1693100D01*
X1920170Y1695350D01*
X1923500Y1696850D01*
X1926500Y1697350D01*
Y1686850D01*
G01X1922500Y1679600D02*
X1924830Y1678100D01*
X1926170Y1676100D01*
X1926500Y1673850D01*
X1926170Y1671850D01*
X1924500Y1669850D01*
X1922500Y1668600D01*
X1920500Y1668350D01*
X1918170Y1668850D01*
X1916500Y1670600D01*
X1915830Y1672350D01*
Y1674600D01*
G01Y1672350D02*
X1914830Y1670850D01*
X1913170Y1669600D01*
X1911170Y1669100D01*
X1909170Y1669600D01*
X1907500Y1670850D01*
X1906500Y1673100D01*
X1906830Y1675350D01*
X1908170Y1677600D01*
G01X1527270Y1776300D02*
X1526270Y1777800D01*
X1525600Y1779550D01*
Y1781550D01*
X1526600Y1783800D01*
X1528270Y1785550D01*
X1530270Y1786800D01*
X1533600Y1787800D01*
X1536600Y1788050D01*
X1539600Y1787550D01*
X1541600Y1786800D01*
X1543600Y1785300D01*
X1544930Y1783550D01*
X1545600Y1781800D01*
Y1780050D01*
X1544930Y1778300D01*
X1543930Y1776800D01*
X1542600Y1775550D01*
G01X1528930Y1768550D02*
X1526930Y1767050D01*
X1525930Y1765300D01*
X1525600Y1763300D01*
X1526270Y1760800D01*
X1527930Y1759050D01*
X1529930Y1758550D01*
X1531930Y1758800D01*
X1533600Y1759800D01*
X1536930Y1764800D01*
X1539270Y1767050D01*
X1542600Y1768550D01*
X1545600Y1769050D01*
Y1758550D01*
G01Y1742800D02*
X1525600D01*
X1539930Y1752050D01*
Y1739550D01*
G01X594000Y1286200D02*
X574000D01*
Y1279950D01*
X575000Y1277950D01*
X576330Y1276700D01*
X579000Y1276200D01*
X581670Y1276700D01*
X583330Y1278200D01*
X584330Y1279950D01*
Y1286200D01*
G01Y1279950D02*
X594000Y1276200D01*
G01Y1263200D02*
X574000D01*
X578000Y1266200D01*
G01X594000D02*
Y1260200D01*
G01X585670Y1249950D02*
X583330Y1248200D01*
X582000Y1246700D01*
X581330Y1244700D01*
X582000Y1242950D01*
X583330Y1241700D01*
X585330Y1240700D01*
X587670Y1240450D01*
X589670Y1240700D01*
X591670Y1241700D01*
X593330Y1243200D01*
X594000Y1244950D01*
X593330Y1246950D01*
X591330Y1248700D01*
X588330Y1249700D01*
X585000Y1249950D01*
X580670Y1249450D01*
X578330Y1248700D01*
X576000Y1247450D01*
X574330Y1245700D01*
X574000Y1243950D01*
X574670Y1242200D01*
X576330Y1240950D01*
G01X803030Y1714300D02*
Y1692800D01*
X801700Y1688300D01*
X799030Y1685300D01*
X795700Y1684300D01*
X792370Y1685300D01*
X789700Y1688300D01*
X788370Y1692800D01*
Y1714300D01*
G01X773370Y1684300D02*
X772700Y1690800D01*
X771700Y1696300D01*
X770370Y1701300D01*
X768700Y1706800D01*
X766030Y1714300D01*
X779370D01*
G01X1648970Y1607400D02*
X1647970Y1608900D01*
X1647300Y1610650D01*
Y1612650D01*
X1648300Y1614900D01*
X1649970Y1616650D01*
X1651970Y1617900D01*
X1655300Y1618900D01*
X1658300Y1619150D01*
X1661300Y1618650D01*
X1663300Y1617900D01*
X1665300Y1616400D01*
X1666630Y1614650D01*
X1667300Y1612900D01*
Y1611150D01*
X1666630Y1609400D01*
X1665630Y1607900D01*
X1664300Y1606650D01*
G01X1667300Y1594900D02*
X1647300D01*
X1651300Y1597900D01*
G01X1667300D02*
Y1591900D01*
G01Y1573900D02*
X1647300D01*
X1661630Y1583150D01*
Y1570650D01*
G01X941400Y849530D02*
X942900Y850530D01*
X944650Y851200D01*
X946650D01*
X948900Y850200D01*
X950650Y848530D01*
X951900Y846530D01*
X952900Y843200D01*
X953150Y840200D01*
X952650Y837200D01*
X951900Y835200D01*
X950400Y833200D01*
X948650Y831870D01*
X946900Y831200D01*
X945150D01*
X943400Y831870D01*
X941900Y832870D01*
X940650Y834200D01*
G01X925900Y831200D02*
Y851200D01*
X935150Y836870D01*
X922650D01*
G01X910900Y831200D02*
Y851200D01*
X913900Y847200D01*
G01Y831200D02*
X907900D01*
G01X1296150Y1677770D02*
X1295150Y1679270D01*
X1294480Y1681020D01*
Y1683020D01*
X1295480Y1685270D01*
X1297150Y1687020D01*
X1299150Y1688270D01*
X1302480Y1689270D01*
X1305480Y1689520D01*
X1308480Y1689020D01*
X1310480Y1688270D01*
X1312480Y1686770D01*
X1313810Y1685020D01*
X1314480Y1683270D01*
Y1681520D01*
X1313810Y1679770D01*
X1312810Y1678270D01*
X1311480Y1677020D01*
G01X1314480Y1665270D02*
X1294480D01*
X1298480Y1668270D01*
G01X1314480D02*
Y1662270D01*
G01Y1647270D02*
X1294480D01*
X1298480Y1650270D01*
G01X1314480D02*
Y1644270D01*
G01X1516800Y2385650D02*
X1496800Y2379400D01*
X1516800Y2373150D01*
G01X1509800Y2375400D02*
Y2383400D01*
G01X1516800Y2367150D02*
X1496800D01*
X1516800Y2355650D01*
X1496800D01*
G01Y2343400D02*
X1516800D01*
G01X1496800Y2349150D02*
Y2337650D01*
G01X1513800Y2330900D02*
X1515470Y2329400D01*
X1516470Y2327650D01*
X1516800Y2325400D01*
X1516130Y2323150D01*
X1514800Y2321400D01*
X1512470Y2320150D01*
X1509800Y2319900D01*
X1507130Y2320400D01*
X1505470Y2321650D01*
X1504130Y2323400D01*
X1503800Y2325150D01*
X1504130Y2326900D01*
X1505470Y2329150D01*
X1496800Y2328400D01*
Y2321650D01*
G01X1646600Y1876900D02*
X1666600D01*
Y1866900D01*
G01Y1854400D02*
X1662270Y1853900D01*
X1658600Y1853150D01*
X1655270Y1852150D01*
X1651600Y1850900D01*
X1646600Y1848900D01*
Y1858900D01*
G01X1559400Y2206520D02*
X1558150Y2204510D01*
X1556650Y2203170D01*
X1554900Y2202500D01*
X1552890Y2203170D01*
X1551390Y2204510D01*
X1549890Y2206520D01*
X1549390Y2209200D01*
Y2222590D01*
G01X1536390Y2202500D02*
Y2222590D01*
X1539390Y2218570D01*
G01Y2202500D02*
X1533380D01*
G01X1518380Y2222590D02*
X1520380Y2221920D01*
X1521880Y2220250D01*
X1522880Y2218240D01*
X1523630Y2215560D01*
X1523880Y2212540D01*
X1523630Y2209530D01*
X1522880Y2206850D01*
X1521880Y2204840D01*
X1520380Y2203170D01*
X1518380Y2202500D01*
X1516370Y2203170D01*
X1514870Y2204840D01*
X1513870Y2206850D01*
X1513120Y2209530D01*
X1512870Y2212540D01*
X1513120Y2215560D01*
X1513870Y2218240D01*
X1514870Y2220250D01*
X1516370Y2221920D01*
X1518380Y2222590D01*
G01X1124500Y2163120D02*
X1123250Y2161110D01*
X1121750Y2159770D01*
X1120000Y2159100D01*
X1117990Y2159770D01*
X1116490Y2161110D01*
X1114990Y2163120D01*
X1114490Y2165800D01*
Y2179190D01*
G01X1101490Y2159100D02*
Y2179190D01*
X1104490Y2175170D01*
G01Y2159100D02*
X1098480D01*
G01X1088230Y2175840D02*
X1086730Y2177850D01*
X1084980Y2178860D01*
X1082970Y2179190D01*
X1080470Y2178520D01*
X1078720Y2176850D01*
X1078220Y2174840D01*
X1078470Y2172830D01*
X1079470Y2171150D01*
X1084480Y2167810D01*
X1086730Y2165460D01*
X1088230Y2162110D01*
X1088730Y2159100D01*
X1078220D01*
G01X1729100Y2160000D02*
Y2180090D01*
X1722840D01*
X1720840Y2179090D01*
X1719590Y2177750D01*
X1719090Y2175070D01*
X1719590Y2172390D01*
X1721090Y2170710D01*
X1722840Y2169710D01*
X1729100D01*
G01X1722840D02*
X1719090Y2160000D01*
G01X1706090D02*
Y2180090D01*
X1709090Y2176070D01*
G01Y2160000D02*
X1703080D01*
G01X1688080Y2180090D02*
X1690080Y2179420D01*
X1691580Y2177750D01*
X1692580Y2175740D01*
X1693330Y2173060D01*
X1693580Y2170040D01*
X1693330Y2167030D01*
X1692580Y2164350D01*
X1691580Y2162340D01*
X1690080Y2160670D01*
X1688080Y2160000D01*
X1686070Y2160670D01*
X1684570Y2162340D01*
X1683570Y2164350D01*
X1682820Y2167030D01*
X1682570Y2170040D01*
X1682820Y2173060D01*
X1683570Y2175740D01*
X1684570Y2177750D01*
X1686070Y2179420D01*
X1688080Y2180090D01*
G01X1805600Y2283200D02*
X1785510D01*
Y2276940D01*
X1786510Y2274940D01*
X1787850Y2273690D01*
X1790530Y2273190D01*
X1793210Y2273690D01*
X1794890Y2275190D01*
X1795890Y2276940D01*
Y2283200D01*
G01Y2276940D02*
X1805600Y2273190D01*
G01Y2260190D02*
X1785510D01*
X1789530Y2263190D01*
G01X1805600D02*
Y2257180D01*
G01Y2242180D02*
X1785510D01*
X1789530Y2245180D01*
G01X1805600D02*
Y2239170D01*
G01X1235430Y2225730D02*
X1221230Y2239940D01*
X1216800Y2235510D01*
X1216100Y2233390D01*
X1216160Y2231560D01*
X1217700Y2229310D01*
X1219950Y2227770D01*
X1222190Y2227650D01*
X1224140Y2228170D01*
X1228570Y2232600D01*
G01X1224140Y2228170D02*
X1228360Y2218660D01*
G01X1210690Y2224660D02*
X1208200Y2225020D01*
X1206260Y2224490D01*
X1204600Y2223320D01*
X1203310Y2221070D01*
X1203250Y2218650D01*
X1204320Y2216880D01*
X1205920Y2215630D01*
X1207810Y2215160D01*
X1213710Y2216330D01*
X1216960Y2216260D01*
X1220390Y2214950D01*
X1222880Y2213180D01*
X1215450Y2205750D01*
G01X1204310Y2194610D02*
X1190100Y2208820D01*
X1206830Y2205180D01*
X1197990Y2196340D01*
G01X1217220Y2320480D02*
X1226940Y2339050D01*
X1208380Y2329320D01*
G01X1214920Y2332680D02*
X1220570Y2327020D01*
G01X1204130Y2333570D02*
X1218270Y2347710D01*
X1196000Y2341700D01*
X1210140Y2355840D01*
G01X1201480Y2364510D02*
X1187340Y2350360D01*
G01X1205540Y2360440D02*
X1197410Y2368570D01*
G01X1189750Y2371520D02*
X1190100Y2373990D01*
X1189570Y2375940D01*
X1188400Y2377590D01*
X1186160Y2378890D01*
X1183740Y2378940D01*
X1181970Y2377880D01*
X1180730Y2376290D01*
X1180260Y2374410D01*
X1181440Y2368510D01*
X1181380Y2365270D01*
X1180090Y2361860D01*
X1178320Y2359380D01*
X1170890Y2366810D01*
G01X1727050Y2435700D02*
X1720800Y2455700D01*
X1714550Y2435700D01*
G01X1716800Y2442700D02*
X1724800D01*
G01X1708550Y2435700D02*
Y2455700D01*
X1697050Y2435700D01*
Y2455700D01*
G01X1684800D02*
Y2435700D01*
G01X1690550Y2455700D02*
X1679050D01*
G01X1663800Y2435700D02*
Y2455700D01*
X1673050Y2441370D01*
X1660550D01*
G01X2815090Y370420D02*
X2816590Y371420D01*
X2818340Y372090D01*
X2820340D01*
X2822600Y371090D01*
X2824350Y369410D01*
X2825600Y367400D01*
X2826600Y364050D01*
X2826850Y361040D01*
X2826350Y358030D01*
X2825600Y356020D01*
X2824100Y354010D01*
X2822350Y352670D01*
X2820600Y352000D01*
X2818840D01*
X2817090Y352670D01*
X2815590Y353670D01*
X2814340Y355010D01*
G01X2807340Y368740D02*
X2805840Y370750D01*
X2804090Y371760D01*
X2802080Y372090D01*
X2799580Y371420D01*
X2797830Y369750D01*
X2797330Y367740D01*
X2797580Y365730D01*
X2798580Y364050D01*
X2803590Y360710D01*
X2805840Y358360D01*
X2807340Y355010D01*
X2807840Y352000D01*
X2797330D01*
G01X2785080D02*
X2784580Y356350D01*
X2783820Y360040D01*
X2782820Y363380D01*
X2781570Y367070D01*
X2779570Y372090D01*
X2789580D01*
G01X2358900Y479510D02*
Y499600D01*
X2352640D01*
X2350640Y498600D01*
X2349390Y497260D01*
X2348890Y494580D01*
X2349390Y491900D01*
X2350890Y490220D01*
X2352640Y489220D01*
X2358900D01*
G01X2352640D02*
X2348890Y479510D01*
G01X2335890D02*
Y499600D01*
X2338890Y495580D01*
G01Y479510D02*
X2332880D01*
G01X2323380Y483530D02*
X2321880Y481180D01*
X2319880Y479840D01*
X2317620Y479510D01*
X2315620Y479840D01*
X2313620Y481520D01*
X2312370Y483530D01*
X2312120Y485540D01*
X2312620Y487880D01*
X2314370Y489550D01*
X2316120Y490220D01*
X2318380D01*
G01X2316120D02*
X2314620Y491230D01*
X2313370Y492900D01*
X2312870Y494910D01*
X2313370Y496920D01*
X2314620Y498600D01*
X2316870Y499600D01*
X2319130Y499270D01*
X2321380Y497930D01*
G01X3354780Y573790D02*
X3352780Y572290D01*
X3351780Y570540D01*
X3351450Y568540D01*
X3352120Y566040D01*
X3353780Y564290D01*
X3355780Y563790D01*
X3357780Y564040D01*
X3359450Y565040D01*
X3362780Y570040D01*
X3365120Y572290D01*
X3368450Y573790D01*
X3371450Y574290D01*
Y563790D01*
G01X3469220Y566160D02*
X3449220D01*
X3453220Y569160D01*
G01X3469220D02*
Y563160D01*
G01X3513710Y381620D02*
X3493710D01*
Y376620D01*
X3494710Y374620D01*
X3496040Y373120D01*
X3498040Y371870D01*
X3500380Y370870D01*
X3503710Y370620D01*
X3507040Y370870D01*
X3509380Y371870D01*
X3511380Y373120D01*
X3512710Y374620D01*
X3513710Y376620D01*
Y381620D01*
G01X3495620Y422490D02*
X3494620Y423990D01*
X3493950Y425740D01*
Y427740D01*
X3494950Y429990D01*
X3496620Y431740D01*
X3498620Y432990D01*
X3501950Y433990D01*
X3504950Y434240D01*
X3507950Y433740D01*
X3509950Y432990D01*
X3511950Y431490D01*
X3513280Y429740D01*
X3513950Y427990D01*
Y426240D01*
X3513280Y424490D01*
X3512280Y422990D01*
X3510950Y421740D01*
G01X3503520Y474520D02*
X3502520Y473520D01*
X3500860Y472770D01*
X3498520Y472270D01*
X3496520Y472770D01*
X3495190Y473770D01*
X3494190Y475520D01*
Y482270D01*
X3514190D01*
Y474020D01*
X3512860Y472270D01*
X3510860Y471270D01*
X3508520Y470770D01*
X3506190Y471270D01*
X3504190Y472770D01*
X3503520Y474520D01*
Y482270D01*
G01X3514200Y533450D02*
X3494200Y527200D01*
X3514200Y520950D01*
G01X3507200Y523200D02*
Y531200D01*
G01X2618900Y501990D02*
Y487590D01*
X2617900Y484580D01*
X2615900Y482570D01*
X2613400Y481900D01*
X2610890Y482570D01*
X2608890Y484580D01*
X2607890Y487590D01*
Y501990D01*
G01X2595390Y481900D02*
Y501990D01*
X2598390Y497970D01*
G01Y481900D02*
X2592380D01*
G01X2577380Y501990D02*
X2579380Y501320D01*
X2580880Y499650D01*
X2581880Y497640D01*
X2582630Y494960D01*
X2582880Y491940D01*
X2582630Y488930D01*
X2581880Y486250D01*
X2580880Y484240D01*
X2579380Y482570D01*
X2577380Y481900D01*
X2575370Y482570D01*
X2573870Y484240D01*
X2572870Y486250D01*
X2572120Y488930D01*
X2571870Y491940D01*
X2572120Y494960D01*
X2572870Y497640D01*
X2573870Y499650D01*
X2575370Y501320D01*
X2577380Y501990D01*
G01X3055200Y814930D02*
X3056700Y815930D01*
X3058450Y816600D01*
X3060450D01*
X3062700Y815600D01*
X3064450Y813930D01*
X3065700Y811930D01*
X3066700Y808600D01*
X3066950Y805600D01*
X3066450Y802600D01*
X3065700Y800600D01*
X3064200Y798600D01*
X3062450Y797270D01*
X3060700Y796600D01*
X3058950D01*
X3057200Y797270D01*
X3055700Y798270D01*
X3054450Y799600D01*
G01X3048200Y800600D02*
X3046700Y798270D01*
X3044700Y796930D01*
X3042450Y796600D01*
X3040450Y796930D01*
X3038450Y798600D01*
X3037200Y800600D01*
X3036950Y802600D01*
X3037450Y804930D01*
X3039200Y806600D01*
X3040950Y807270D01*
X3043200D01*
G01X3040950D02*
X3039450Y808270D01*
X3038200Y809930D01*
X3037700Y811930D01*
X3038200Y813930D01*
X3039450Y815600D01*
X3041700Y816600D01*
X3043950Y816270D01*
X3046200Y814930D01*
G01X3021700Y796600D02*
Y816600D01*
X3030950Y802270D01*
X3018450D01*
G01X3160270Y995300D02*
X3159270Y996800D01*
X3158600Y998550D01*
Y1000550D01*
X3159600Y1002800D01*
X3161270Y1004550D01*
X3163270Y1005800D01*
X3166600Y1006800D01*
X3169600Y1007050D01*
X3172600Y1006550D01*
X3174600Y1005800D01*
X3176600Y1004300D01*
X3177930Y1002550D01*
X3178600Y1000800D01*
Y999050D01*
X3177930Y997300D01*
X3176930Y995800D01*
X3175600Y994550D01*
G01X3174600Y988300D02*
X3176930Y986800D01*
X3178270Y984800D01*
X3178600Y982550D01*
X3178270Y980550D01*
X3176600Y978550D01*
X3174600Y977300D01*
X3172600Y977050D01*
X3170270Y977550D01*
X3168600Y979300D01*
X3167930Y981050D01*
Y983300D01*
G01Y981050D02*
X3166930Y979550D01*
X3165270Y978300D01*
X3163270Y977800D01*
X3161270Y978300D01*
X3159600Y979550D01*
X3158600Y981800D01*
X3158930Y984050D01*
X3160270Y986300D01*
G01X3170270Y969550D02*
X3167930Y967800D01*
X3166600Y966300D01*
X3165930Y964300D01*
X3166600Y962550D01*
X3167930Y961300D01*
X3169930Y960300D01*
X3172270Y960050D01*
X3174270Y960300D01*
X3176270Y961300D01*
X3177930Y962800D01*
X3178600Y964550D01*
X3177930Y966550D01*
X3175930Y968300D01*
X3172930Y969300D01*
X3169600Y969550D01*
X3165270Y969050D01*
X3162930Y968300D01*
X3160600Y967050D01*
X3158930Y965300D01*
X3158600Y963550D01*
X3159270Y961800D01*
X3160930Y960550D01*
G01X3159070Y1130700D02*
X3158070Y1132200D01*
X3157400Y1133950D01*
Y1135950D01*
X3158400Y1138200D01*
X3160070Y1139950D01*
X3162070Y1141200D01*
X3165400Y1142200D01*
X3168400Y1142450D01*
X3171400Y1141950D01*
X3173400Y1141200D01*
X3175400Y1139700D01*
X3176730Y1137950D01*
X3177400Y1136200D01*
Y1134450D01*
X3176730Y1132700D01*
X3175730Y1131200D01*
X3174400Y1129950D01*
G01X3173400Y1123700D02*
X3175730Y1122200D01*
X3177070Y1120200D01*
X3177400Y1117950D01*
X3177070Y1115950D01*
X3175400Y1113950D01*
X3173400Y1112700D01*
X3171400Y1112450D01*
X3169070Y1112950D01*
X3167400Y1114700D01*
X3166730Y1116450D01*
Y1118700D01*
G01Y1116450D02*
X3165730Y1114950D01*
X3164070Y1113700D01*
X3162070Y1113200D01*
X3160070Y1113700D01*
X3158400Y1114950D01*
X3157400Y1117200D01*
X3157730Y1119450D01*
X3159070Y1121700D01*
G01X3174400Y1105700D02*
X3176070Y1104200D01*
X3177070Y1102450D01*
X3177400Y1100200D01*
X3176730Y1097950D01*
X3175400Y1096200D01*
X3173070Y1094950D01*
X3170400Y1094700D01*
X3167730Y1095200D01*
X3166070Y1096450D01*
X3164730Y1098200D01*
X3164400Y1099950D01*
X3164730Y1101700D01*
X3166070Y1103950D01*
X3157400Y1103200D01*
Y1096450D01*
G01X2001070Y1805300D02*
X2000070Y1806800D01*
X1999400Y1808550D01*
Y1810550D01*
X2000400Y1812800D01*
X2002070Y1814550D01*
X2004070Y1815800D01*
X2007400Y1816800D01*
X2010400Y1817050D01*
X2013400Y1816550D01*
X2015400Y1815800D01*
X2017400Y1814300D01*
X2018730Y1812550D01*
X2019400Y1810800D01*
Y1809050D01*
X2018730Y1807300D01*
X2017730Y1805800D01*
X2016400Y1804550D01*
G01X2019400Y1792800D02*
X1999400D01*
X2003400Y1795800D01*
G01X2019400D02*
Y1789800D01*
G01Y1774800D02*
X2019070Y1773050D01*
X2018070Y1771050D01*
X2016400Y1769800D01*
X2014070Y1769300D01*
X2011730Y1769800D01*
X2009730Y1771300D01*
X2008730Y1773550D01*
Y1776050D01*
X2008070Y1777550D01*
X2006400Y1778800D01*
X2004070Y1779300D01*
X2001730Y1778550D01*
X2000070Y1776800D01*
X1999400Y1774800D01*
X2000070Y1772800D01*
X2001730Y1771050D01*
X2004070Y1770300D01*
X2006400Y1770800D01*
X2008070Y1772050D01*
X2008730Y1773550D01*
Y1776050D01*
X2009730Y1778300D01*
X2011730Y1779800D01*
X2014070Y1780300D01*
X2016400Y1779800D01*
X2018070Y1778550D01*
X2019070Y1776550D01*
X2019400Y1774800D01*
G01X2382970Y897400D02*
X2381970Y898900D01*
X2381300Y900650D01*
Y902650D01*
X2382300Y904900D01*
X2383970Y906650D01*
X2385970Y907900D01*
X2389300Y908900D01*
X2392300Y909150D01*
X2395300Y908650D01*
X2397300Y907900D01*
X2399300Y906400D01*
X2400630Y904650D01*
X2401300Y902900D01*
Y901150D01*
X2400630Y899400D01*
X2399630Y897900D01*
X2398300Y896650D01*
G01X2384630Y889650D02*
X2382630Y888150D01*
X2381630Y886400D01*
X2381300Y884400D01*
X2381970Y881900D01*
X2383630Y880150D01*
X2385630Y879650D01*
X2387630Y879900D01*
X2389300Y880900D01*
X2392630Y885900D01*
X2394970Y888150D01*
X2398300Y889650D01*
X2401300Y890150D01*
Y879650D01*
G01X2381300Y866900D02*
X2381970Y868900D01*
X2383630Y870400D01*
X2385630Y871400D01*
X2388300Y872150D01*
X2391300Y872400D01*
X2394300Y872150D01*
X2396970Y871400D01*
X2398970Y870400D01*
X2400630Y868900D01*
X2401300Y866900D01*
X2400630Y864900D01*
X2398970Y863400D01*
X2396970Y862400D01*
X2394300Y861650D01*
X2391300Y861400D01*
X2388300Y861650D01*
X2385630Y862400D01*
X2383630Y863400D01*
X2381970Y864900D01*
X2381300Y866900D01*
G01X2467080Y882590D02*
X2466080Y884090D01*
X2465410Y885840D01*
Y887840D01*
X2466410Y890100D01*
X2468090Y891850D01*
X2470100Y893100D01*
X2473450Y894100D01*
X2476460Y894350D01*
X2479470Y893850D01*
X2481480Y893100D01*
X2483490Y891600D01*
X2484830Y889850D01*
X2485500Y888100D01*
Y886340D01*
X2484830Y884590D01*
X2483830Y883090D01*
X2482490Y881840D01*
G01X2481480Y875590D02*
X2483830Y874090D01*
X2485170Y872090D01*
X2485500Y869830D01*
X2485170Y867830D01*
X2483490Y865830D01*
X2481480Y864580D01*
X2479470Y864330D01*
X2477130Y864830D01*
X2475460Y866580D01*
X2474790Y868330D01*
Y870590D01*
G01Y868330D02*
X2473780Y866830D01*
X2472110Y865580D01*
X2470100Y865080D01*
X2468090Y865580D01*
X2466410Y866830D01*
X2465410Y869080D01*
X2465740Y871340D01*
X2467080Y873590D01*
G01X2412200Y1363830D02*
X2413700Y1364830D01*
X2415450Y1365500D01*
X2417450D01*
X2419700Y1364500D01*
X2421450Y1362830D01*
X2422700Y1360830D01*
X2423700Y1357500D01*
X2423950Y1354500D01*
X2423450Y1351500D01*
X2422700Y1349500D01*
X2421200Y1347500D01*
X2419450Y1346170D01*
X2417700Y1345500D01*
X2415950D01*
X2414200Y1346170D01*
X2412700Y1347170D01*
X2411450Y1348500D01*
G01X2404450Y1362170D02*
X2402950Y1364170D01*
X2401200Y1365170D01*
X2399200Y1365500D01*
X2396700Y1364830D01*
X2394950Y1363170D01*
X2394450Y1361170D01*
X2394700Y1359170D01*
X2395700Y1357500D01*
X2400700Y1354170D01*
X2402950Y1351830D01*
X2404450Y1348500D01*
X2404950Y1345500D01*
X2394450D01*
G01X2550770Y1849100D02*
X2549770Y1850600D01*
X2549100Y1852350D01*
Y1854350D01*
X2550100Y1856600D01*
X2551770Y1858350D01*
X2553770Y1859600D01*
X2557100Y1860600D01*
X2560100Y1860850D01*
X2563100Y1860350D01*
X2565100Y1859600D01*
X2567100Y1858100D01*
X2568430Y1856350D01*
X2569100Y1854600D01*
Y1852850D01*
X2568430Y1851100D01*
X2567430Y1849600D01*
X2566100Y1848350D01*
G01X2569100Y1836600D02*
X2549100D01*
X2553100Y1839600D01*
G01X2569100D02*
Y1833600D01*
G01X2566770Y1822850D02*
X2568430Y1821100D01*
X2569100Y1819100D01*
X2568430Y1817100D01*
X2566430Y1815350D01*
X2563430Y1814100D01*
X2560430Y1813600D01*
X2556770D01*
X2553770Y1814100D01*
X2551100Y1815350D01*
X2549770Y1816850D01*
X2549100Y1818600D01*
X2549770Y1820600D01*
X2551100Y1822100D01*
X2553100Y1823100D01*
X2555770Y1823600D01*
X2558100Y1823100D01*
X2560430Y1821850D01*
X2561770Y1820350D01*
X2562100Y1818600D01*
X2561430Y1816600D01*
X2559770Y1815100D01*
X2556770Y1813600D01*
G01X3747000Y1458200D02*
X3727000D01*
Y1451950D01*
X3728000Y1449950D01*
X3729330Y1448700D01*
X3732000Y1448200D01*
X3734670Y1448700D01*
X3736330Y1450200D01*
X3737330Y1451950D01*
Y1458200D01*
G01Y1451950D02*
X3747000Y1448200D01*
G01X3744000Y1440700D02*
X3745670Y1439200D01*
X3746670Y1437450D01*
X3747000Y1435200D01*
X3746330Y1432950D01*
X3745000Y1431200D01*
X3742670Y1429950D01*
X3740000Y1429700D01*
X3737330Y1430200D01*
X3735670Y1431450D01*
X3734330Y1433200D01*
X3734000Y1434950D01*
X3734330Y1436700D01*
X3735670Y1438950D01*
X3727000Y1438200D01*
Y1431450D01*
G01X2675500Y1156000D02*
X2655500D01*
Y1149750D01*
X2656500Y1147750D01*
X2657830Y1146500D01*
X2660500Y1146000D01*
X2663170Y1146500D01*
X2664830Y1148000D01*
X2665830Y1149750D01*
Y1156000D01*
G01Y1149750D02*
X2675500Y1146000D01*
G01X2671500Y1138500D02*
X2673830Y1137000D01*
X2675170Y1135000D01*
X2675500Y1132750D01*
X2675170Y1130750D01*
X2673500Y1128750D01*
X2671500Y1127500D01*
X2669500Y1127250D01*
X2667170Y1127750D01*
X2665500Y1129500D01*
X2664830Y1131250D01*
Y1133500D01*
G01Y1131250D02*
X2663830Y1129750D01*
X2662170Y1128500D01*
X2660170Y1128000D01*
X2658170Y1128500D01*
X2656500Y1129750D01*
X2655500Y1132000D01*
X2655830Y1134250D01*
X2657170Y1136500D01*
G01X2843700Y1267500D02*
Y1287500D01*
X2837450D01*
X2835450Y1286500D01*
X2834200Y1285170D01*
X2833700Y1282500D01*
X2834200Y1279830D01*
X2835700Y1278170D01*
X2837450Y1277170D01*
X2843700D01*
G01X2837450D02*
X2833700Y1267500D01*
G01X2825450Y1284170D02*
X2823950Y1286170D01*
X2822200Y1287170D01*
X2820200Y1287500D01*
X2817700Y1286830D01*
X2815950Y1285170D01*
X2815450Y1283170D01*
X2815700Y1281170D01*
X2816700Y1279500D01*
X2821700Y1276170D01*
X2823950Y1273830D01*
X2825450Y1270500D01*
X2825950Y1267500D01*
X2815450D01*
G01X3708900Y1842300D02*
X3688900D01*
Y1836050D01*
X3689900Y1834050D01*
X3691230Y1832800D01*
X3693900Y1832300D01*
X3696570Y1832800D01*
X3698230Y1834300D01*
X3699230Y1836050D01*
Y1842300D01*
G01Y1836050D02*
X3708900Y1832300D01*
G01X3692230Y1824050D02*
X3690230Y1822550D01*
X3689230Y1820800D01*
X3688900Y1818800D01*
X3689570Y1816300D01*
X3691230Y1814550D01*
X3693230Y1814050D01*
X3695230Y1814300D01*
X3696900Y1815300D01*
X3700230Y1820300D01*
X3702570Y1822550D01*
X3705900Y1824050D01*
X3708900Y1824550D01*
Y1814050D01*
G01X3688900Y1801300D02*
X3689570Y1803300D01*
X3691230Y1804800D01*
X3693230Y1805800D01*
X3695900Y1806550D01*
X3698900Y1806800D01*
X3701900Y1806550D01*
X3704570Y1805800D01*
X3706570Y1804800D01*
X3708230Y1803300D01*
X3708900Y1801300D01*
X3708230Y1799300D01*
X3706570Y1797800D01*
X3704570Y1796800D01*
X3701900Y1796050D01*
X3698900Y1795800D01*
X3695900Y1796050D01*
X3693230Y1796800D01*
X3691230Y1797800D01*
X3689570Y1799300D01*
X3688900Y1801300D01*
G01X3390730Y1692840D02*
X3388400Y1694340D01*
X3387060Y1696340D01*
X3386730Y1698590D01*
X3387060Y1700590D01*
X3388730Y1702590D01*
X3390730Y1703840D01*
X3392730Y1704090D01*
X3395060Y1703590D01*
X3396730Y1701840D01*
X3397400Y1700090D01*
Y1697840D01*
G01Y1700090D02*
X3398400Y1701590D01*
X3400060Y1702840D01*
X3402060Y1703340D01*
X3404060Y1702840D01*
X3405730Y1701590D01*
X3406730Y1699340D01*
X3406400Y1697090D01*
X3405060Y1694840D01*
G01X3348400Y1693590D02*
X3350400Y1695090D01*
X3351400Y1696840D01*
X3351730Y1698840D01*
X3351060Y1701340D01*
X3349400Y1703090D01*
X3347400Y1703590D01*
X3345400Y1703340D01*
X3343730Y1702340D01*
X3340400Y1697340D01*
X3338060Y1695090D01*
X3334730Y1693590D01*
X3331730Y1693090D01*
Y1703590D01*
G01X3276730Y1698340D02*
X3296730D01*
X3292730Y1695340D01*
G01X3276730D02*
Y1701340D01*
G01X3265060Y1818840D02*
X3266060Y1817340D01*
X3266730Y1815590D01*
Y1813590D01*
X3265730Y1811340D01*
X3264060Y1809590D01*
X3262060Y1808340D01*
X3258730Y1807340D01*
X3255730Y1807090D01*
X3252730Y1807590D01*
X3250730Y1808340D01*
X3248730Y1809840D01*
X3247400Y1811590D01*
X3246730Y1813340D01*
Y1815090D01*
X3247400Y1816840D01*
X3248400Y1818340D01*
X3249730Y1819590D01*
G01X3257400Y1765340D02*
X3258400Y1766340D01*
X3260060Y1767090D01*
X3262400Y1767590D01*
X3264400Y1767090D01*
X3265730Y1766090D01*
X3266730Y1764340D01*
Y1757590D01*
X3246730D01*
Y1765840D01*
X3248060Y1767590D01*
X3250060Y1768590D01*
X3252400Y1769090D01*
X3254730Y1768590D01*
X3256730Y1767090D01*
X3257400Y1765340D01*
Y1757590D01*
G01X3246730Y1712090D02*
X3266730Y1718340D01*
X3246730Y1724590D01*
G01X3253730Y1722340D02*
Y1714340D01*
G01X3364830Y1804200D02*
Y1782700D01*
X3363500Y1778200D01*
X3360830Y1775200D01*
X3357500Y1774200D01*
X3354170Y1775200D01*
X3351500Y1778200D01*
X3350170Y1782700D01*
Y1804200D01*
G01X3330500Y1774200D02*
Y1804200D01*
X3342830Y1782700D01*
X3326170D01*
G01X3789570Y1838600D02*
X3788570Y1840100D01*
X3787900Y1841850D01*
Y1843850D01*
X3788900Y1846100D01*
X3790570Y1847850D01*
X3792570Y1849100D01*
X3795900Y1850100D01*
X3798900Y1850350D01*
X3801900Y1849850D01*
X3803900Y1849100D01*
X3805900Y1847600D01*
X3807230Y1845850D01*
X3807900Y1844100D01*
Y1842350D01*
X3807230Y1840600D01*
X3806230Y1839100D01*
X3804900Y1837850D01*
G01X3803900Y1831600D02*
X3806230Y1830100D01*
X3807570Y1828100D01*
X3807900Y1825850D01*
X3807570Y1823850D01*
X3805900Y1821850D01*
X3803900Y1820600D01*
X3801900Y1820350D01*
X3799570Y1820850D01*
X3797900Y1822600D01*
X3797230Y1824350D01*
Y1826600D01*
G01Y1824350D02*
X3796230Y1822850D01*
X3794570Y1821600D01*
X3792570Y1821100D01*
X3790570Y1821600D01*
X3788900Y1822850D01*
X3787900Y1825100D01*
X3788230Y1827350D01*
X3789570Y1829600D01*
G01X3787900Y1808100D02*
X3788570Y1810100D01*
X3790230Y1811600D01*
X3792230Y1812600D01*
X3794900Y1813350D01*
X3797900Y1813600D01*
X3800900Y1813350D01*
X3803570Y1812600D01*
X3805570Y1811600D01*
X3807230Y1810100D01*
X3807900Y1808100D01*
X3807230Y1806100D01*
X3805570Y1804600D01*
X3803570Y1803600D01*
X3800900Y1802850D01*
X3797900Y1802600D01*
X3794900Y1802850D01*
X3792230Y1803600D01*
X3790230Y1804600D01*
X3788570Y1806100D01*
X3787900Y1808100D01*
G01X3920400Y1432800D02*
Y1452800D01*
X3914150D01*
X3912150Y1451800D01*
X3910900Y1450470D01*
X3910400Y1447800D01*
X3910900Y1445130D01*
X3912400Y1443470D01*
X3914150Y1442470D01*
X3920400D01*
G01X3914150D02*
X3910400Y1432800D01*
G01X3894400D02*
Y1452800D01*
X3903650Y1438470D01*
X3891150D01*
G54D12*
G01X274000Y2059800D02*
Y2115800D01*
X251200D01*
G01X259600Y2088730D02*
X274000D01*
G01X228800Y2115800D02*
X214400D01*
G01X221600D02*
Y2059800D01*
G01X228800D02*
X214400D01*
G01X193800D02*
Y2115800D01*
X181800D01*
X177000Y2113000D01*
X173400Y2109270D01*
X170400Y2103670D01*
X168000Y2097130D01*
X167400Y2087800D01*
X168000Y2078470D01*
X170400Y2071930D01*
X173400Y2066330D01*
X177000Y2062600D01*
X181800Y2059800D01*
X193800D01*
G01X152800Y2115800D02*
Y2075670D01*
X150400Y2067270D01*
X145600Y2061670D01*
X139600Y2059800D01*
X133600Y2061670D01*
X128800Y2067270D01*
X126400Y2075670D01*
Y2115800D01*
G01X91400Y2059800D02*
Y2115800D01*
X113600Y2075670D01*
X83600D01*
G01X1694300Y415760D02*
Y359760D01*
X1670300D01*
G01X1641300D02*
Y415760D01*
X1648500Y404560D01*
G01Y359760D02*
X1634100D01*
G01X1227170Y305600D02*
X1224370Y309200D01*
X1222500Y313400D01*
Y318200D01*
X1225300Y323600D01*
X1229970Y327800D01*
X1235570Y330800D01*
X1244900Y333200D01*
X1253300Y333800D01*
X1261700Y332600D01*
X1267300Y330800D01*
X1272900Y327200D01*
X1276630Y323000D01*
X1278500Y318800D01*
Y314600D01*
X1276630Y310400D01*
X1273830Y306800D01*
X1270100Y303800D01*
G01X1278500Y277800D02*
X1222500D01*
X1233700Y285000D01*
G01X1278500D02*
Y270600D01*
G01X1280300Y605400D02*
X1224300D01*
Y582600D01*
G01X1251370Y591000D02*
Y605400D01*
G01X1224300Y565000D02*
X1280300D01*
Y541000D01*
G01Y512000D02*
X1224300D01*
X1235500Y519200D01*
G01X1280300D02*
Y504800D01*
G01X975970Y700300D02*
Y673070D01*
X974300Y667370D01*
X970970Y663570D01*
X966800Y662300D01*
X962630Y663570D01*
X959300Y667370D01*
X957630Y673070D01*
Y700300D01*
G01X944720Y693970D02*
X942220Y697770D01*
X939300Y699670D01*
X935970Y700300D01*
X931800Y699030D01*
X928880Y695870D01*
X928050Y692070D01*
X928470Y688270D01*
X930130Y685100D01*
X938470Y678770D01*
X942220Y674330D01*
X944720Y668000D01*
X945550Y662300D01*
X928050D01*
G01X693970Y388000D02*
Y360770D01*
X692300Y355070D01*
X688970Y351270D01*
X684800Y350000D01*
X680630Y351270D01*
X677300Y355070D01*
X675630Y360770D01*
Y388000D01*
G01X654800Y350000D02*
Y388000D01*
X659800Y380400D01*
G01Y350000D02*
X649800D01*
G01X624800D02*
Y388000D01*
X629800Y380400D01*
G01Y350000D02*
X619800D01*
G01X1434670Y391600D02*
X1431870Y395200D01*
X1430000Y399400D01*
Y404200D01*
X1432800Y409600D01*
X1437470Y413800D01*
X1443070Y416800D01*
X1452400Y419200D01*
X1460800Y419800D01*
X1469200Y418600D01*
X1474800Y416800D01*
X1480400Y413200D01*
X1484130Y409000D01*
X1486000Y404800D01*
Y400600D01*
X1484130Y396400D01*
X1481330Y392800D01*
X1477600Y389800D01*
G01X1486000Y365000D02*
X1473870Y363800D01*
X1463600Y362000D01*
X1454270Y359600D01*
X1444000Y356600D01*
X1430000Y351800D01*
Y375800D01*
G01X1654900Y623330D02*
X1658500Y626130D01*
X1662700Y628000D01*
X1667500D01*
X1672900Y625200D01*
X1677100Y620530D01*
X1680100Y614930D01*
X1682500Y605600D01*
X1683100Y597200D01*
X1681900Y588800D01*
X1680100Y583200D01*
X1676500Y577600D01*
X1672300Y573870D01*
X1668100Y572000D01*
X1663900D01*
X1659700Y573870D01*
X1656100Y576670D01*
X1653100Y580400D01*
G01X1640300D02*
X1636700Y575730D01*
X1632500Y572930D01*
X1627100Y572000D01*
X1621700Y573870D01*
X1617500Y577600D01*
X1614500Y584130D01*
X1613900Y591600D01*
X1615100Y599070D01*
X1618100Y603730D01*
X1622300Y607470D01*
X1626500Y608400D01*
X1630700Y607470D01*
X1636100Y603730D01*
X1634300Y628000D01*
X1618100D01*
G01X793930Y2096840D02*
Y2056710D01*
X791530Y2048310D01*
X786730Y2042710D01*
X780730Y2040840D01*
X774730Y2042710D01*
X769930Y2048310D01*
X767530Y2056710D01*
Y2096840D01*
G01X752930Y2052040D02*
X749330Y2045510D01*
X744530Y2041770D01*
X739130Y2040840D01*
X734330Y2041770D01*
X729530Y2046440D01*
X726530Y2052040D01*
X725930Y2057640D01*
X727130Y2064170D01*
X731330Y2068840D01*
X735530Y2070710D01*
X740930D01*
G01X735530D02*
X731930Y2073510D01*
X728930Y2078170D01*
X727730Y2083770D01*
X728930Y2089370D01*
X731930Y2094040D01*
X737330Y2096840D01*
X742730Y2095910D01*
X748130Y2092170D01*
G01X1117700Y1394500D02*
Y1419700D01*
X1129700Y1450500D01*
G01X1105700D02*
X1117700Y1419700D01*
G01X1088100Y1441170D02*
X1084500Y1446770D01*
X1080300Y1449570D01*
X1075500Y1450500D01*
X1069500Y1448630D01*
X1065300Y1443970D01*
X1064100Y1438370D01*
X1064700Y1432770D01*
X1067100Y1428100D01*
X1079100Y1418770D01*
X1084500Y1412230D01*
X1088100Y1402900D01*
X1089300Y1394500D01*
X1064100D01*
G01X3440370Y463600D02*
Y436370D01*
X3438700Y430670D01*
X3435370Y426870D01*
X3431200Y425600D01*
X3427030Y426870D01*
X3423700Y430670D01*
X3422030Y436370D01*
Y463600D01*
G01X3410370Y431300D02*
X3407870Y428130D01*
X3404950Y426230D01*
X3401200Y425600D01*
X3397450Y426870D01*
X3394530Y429400D01*
X3392450Y433830D01*
X3392030Y438900D01*
X3392870Y443970D01*
X3394950Y447130D01*
X3397870Y449670D01*
X3400780Y450300D01*
X3403700Y449670D01*
X3407450Y447130D01*
X3406200Y463600D01*
X3394950D01*
G01X2295300Y1785500D02*
Y1810700D01*
X2307300Y1841500D01*
G01X2283300D02*
X2295300Y1810700D01*
G01X2254300Y1785500D02*
Y1841500D01*
X2261500Y1830300D01*
G01Y1785500D02*
X2247100D01*
G01X2934800Y1042700D02*
Y1002570D01*
X2932400Y994170D01*
X2927600Y988570D01*
X2921600Y986700D01*
X2915600Y988570D01*
X2910800Y994170D01*
X2908400Y1002570D01*
Y1042700D01*
G01X2880600Y986700D02*
X2876400Y987630D01*
X2871600Y990430D01*
X2868600Y995100D01*
X2867400Y1001630D01*
X2868600Y1008170D01*
X2872200Y1013770D01*
X2877600Y1016570D01*
X2883600D01*
X2887200Y1018430D01*
X2890200Y1023100D01*
X2891400Y1029630D01*
X2889600Y1036170D01*
X2885400Y1040830D01*
X2880600Y1042700D01*
X2875800Y1040830D01*
X2871600Y1036170D01*
X2869800Y1029630D01*
X2871000Y1023100D01*
X2874000Y1018430D01*
X2877600Y1016570D01*
X2883600D01*
X2889000Y1013770D01*
X2892600Y1008170D01*
X2893800Y1001630D01*
X2892600Y995100D01*
X2889600Y990430D01*
X2884800Y987630D01*
X2880600Y986700D01*
G01X4070800Y564400D02*
Y620400D01*
X4048000D01*
G01X4056400Y593330D02*
X4070800D01*
G01X4025600Y620400D02*
X4011200D01*
G01X4018400D02*
Y564400D01*
G01X4025600D02*
X4011200D01*
G01X3990600D02*
Y620400D01*
X3978600D01*
X3973800Y617600D01*
X3970200Y613870D01*
X3967200Y608270D01*
X3964800Y601730D01*
X3964200Y592400D01*
X3964800Y583070D01*
X3967200Y576530D01*
X3970200Y570930D01*
X3973800Y567200D01*
X3978600Y564400D01*
X3990600D01*
G01X3949600Y620400D02*
Y580270D01*
X3947200Y571870D01*
X3942400Y566270D01*
X3936400Y564400D01*
X3930400Y566270D01*
X3925600Y571870D01*
X3923200Y580270D01*
Y620400D01*
G01X3906800Y587730D02*
X3902600Y594270D01*
X3899000Y598000D01*
X3894200Y599870D01*
X3890000Y598000D01*
X3887000Y594270D01*
X3884600Y588670D01*
X3884000Y582130D01*
X3884600Y576530D01*
X3887000Y570930D01*
X3890600Y566270D01*
X3894800Y564400D01*
X3899600Y566270D01*
X3903800Y571870D01*
X3906200Y580270D01*
X3906800Y589600D01*
X3905600Y601730D01*
X3903800Y608270D01*
X3900800Y614800D01*
X3896600Y619470D01*
X3892400Y620400D01*
X3888200Y618530D01*
X3885200Y613870D01*
G01X4131500Y2158300D02*
Y2214300D01*
X4108700D01*
G01X4117100Y2187230D02*
X4131500D01*
G01X4086300Y2214300D02*
X4071900D01*
G01X4079100D02*
Y2158300D01*
G01X4086300D02*
X4071900D01*
G01X4051300D02*
Y2214300D01*
X4039300D01*
X4034500Y2211500D01*
X4030900Y2207770D01*
X4027900Y2202170D01*
X4025500Y2195630D01*
X4024900Y2186300D01*
X4025500Y2176970D01*
X4027900Y2170430D01*
X4030900Y2164830D01*
X4034500Y2161100D01*
X4039300Y2158300D01*
X4051300D01*
G01X4010300Y2214300D02*
Y2174170D01*
X4007900Y2165770D01*
X4003100Y2160170D01*
X3997100Y2158300D01*
X3991100Y2160170D01*
X3986300Y2165770D01*
X3983900Y2174170D01*
Y2214300D01*
G01X3969300Y2166700D02*
X3965700Y2162030D01*
X3961500Y2159230D01*
X3956100Y2158300D01*
X3950700Y2160170D01*
X3946500Y2163900D01*
X3943500Y2170430D01*
X3942900Y2177900D01*
X3944100Y2185370D01*
X3947100Y2190030D01*
X3951300Y2193770D01*
X3955500Y2194700D01*
X3959700Y2193770D01*
X3965100Y2190030D01*
X3963300Y2214300D01*
X3947100D01*
M02*
