G04 ================== begin FILE IDENTIFICATION RECORD ==================*
G04 Layout Name:  CC1350SensorTag.brd*
G04 Film Name:    CC1350STK_mech_drawing*
G04 File Format:  Gerber RS274X*
G04 File Origin:  Cadence Allegro 16.6-S019*
G04 Origin Date:  Wed Nov 09 12:53:35 2016*
G04 *
G04 Layer:  BOARD GEOMETRY/DIMENSION*
G04 Layer:  MANUFACTURING/XSECTION_CHART*
G04 Layer:  MANUFACTURING/NCLEGEND-1-4*
G04 Layer:  BOARD GEOMETRY/OUTLINE*
G04 *
G04 Offset:    (0.0000 0.0000)*
G04 Mirror:    No*
G04 Mode:      Positive*
G04 Rotation:  0*
G04 FullContactRelief:  No*
G04 UndefLineWidth:     0.1000*
G04 ================== end FILE IDENTIFICATION RECORD ====================*
%FSLAX25Y25*MOMM*%
%IR0*IPPOS*OFA0.00000B0.00000*MIA0B0*SFA1.00000B1.00000*%
%AMMACRO12*
1,1,.1,.09995,0.0*
20,1,.1,.09995,0.0,-.09995,0.0,0.0*
1,1,.1,-.09995,0.0*
1,1,.1,0.0,.09995*
20,1,.1,0.0,.09995,0.0,-.09995,0.0*
1,1,.1,0.0,-.09995*
1,1,.1,.0133,.0999*
20,1,.1,.0133,.0999,.0133,.0283,0.0*
1,1,.1,.0133,.0283*
20,1,.1,.0133,.0283,.02,.0133,0.0*
1,1,.1,.02,.0133*
20,1,.1,.02,.0133,.0333,.0033,0.0*
1,1,.1,.0333,.0033*
20,1,.1,.0333,.0033,.0499,0.0,0.0*
1,1,.1,.0499,0.0*
20,1,.1,.0499,0.0,.0666,.0033,0.0*
1,1,.1,.0666,.0033*
20,1,.1,.0666,.0033,.0799,.0133,0.0*
1,1,.1,.0799,.0133*
20,1,.1,.0799,.0133,.0866,.0283,0.0*
1,1,.1,.0866,.0283*
20,1,.1,.0866,.0283,.0866,.0999,0.0*
1,1,.1,.0866,.0999*
%
%ADD12MACRO12*%
%AMMACRO10*
1,1,.1,.635,0.0*
20,1,.1,.635,0.0,.625353,-.110267,0.0*
1,1,.1,.625353,-.110267*
20,1,.1,.625353,-.110267,.596705,-.217183,0.0*
1,1,.1,.596705,-.217183*
20,1,.1,.596705,-.217183,.549926,-.3175,0.0*
1,1,.1,.549926,-.3175*
20,1,.1,.549926,-.3175,.486438,-.40817,0.0*
1,1,.1,.486438,-.40817*
20,1,.1,.486438,-.40817,.40817,-.486438,0.0*
1,1,.1,.40817,-.486438*
20,1,.1,.40817,-.486438,.3175,-.549926,0.0*
1,1,.1,.3175,-.549926*
20,1,.1,.3175,-.549926,.217183,-.596705,0.0*
1,1,.1,.217183,-.596705*
20,1,.1,.217183,-.596705,.110267,-.625353,0.0*
1,1,.1,.110267,-.625353*
20,1,.1,.110267,-.625353,0.0,-.635,0.0*
1,1,.1,0.0,-.635*
20,1,.1,0.0,-.635,-.110267,-.625353,0.0*
1,1,.1,-.110267,-.625353*
20,1,.1,-.110267,-.625353,-.217183,-.596705,0.0*
1,1,.1,-.217183,-.596705*
20,1,.1,-.217183,-.596705,-.3175,-.549926,0.0*
1,1,.1,-.3175,-.549926*
20,1,.1,-.3175,-.549926,-.40817,-.486438,0.0*
1,1,.1,-.40817,-.486438*
20,1,.1,-.40817,-.486438,-.486438,-.40817,0.0*
1,1,.1,-.486438,-.40817*
20,1,.1,-.486438,-.40817,-.549926,-.3175,0.0*
1,1,.1,-.549926,-.3175*
20,1,.1,-.549926,-.3175,-.596705,-.217183,0.0*
1,1,.1,-.596705,-.217183*
20,1,.1,-.596705,-.217183,-.625353,-.110267,0.0*
1,1,.1,-.625353,-.110267*
20,1,.1,-.625353,-.110267,-.635,0.0,0.0*
1,1,.1,-.635,0.0*
20,1,.1,-.635,0.0,-.625353,.110267,0.0*
1,1,.1,-.625353,.110267*
20,1,.1,-.625353,.110267,-.596705,.217183,0.0*
1,1,.1,-.596705,.217183*
20,1,.1,-.596705,.217183,-.549926,.3175,0.0*
1,1,.1,-.549926,.3175*
20,1,.1,-.549926,.3175,-.486438,.40817,0.0*
1,1,.1,-.486438,.40817*
20,1,.1,-.486438,.40817,-.40817,.486438,0.0*
1,1,.1,-.40817,.486438*
20,1,.1,-.40817,.486438,-.3175,.549926,0.0*
1,1,.1,-.3175,.549926*
20,1,.1,-.3175,.549926,-.217183,.596705,0.0*
1,1,.1,-.217183,.596705*
20,1,.1,-.217183,.596705,-.110267,.625353,0.0*
1,1,.1,-.110267,.625353*
20,1,.1,-.110267,.625353,0.0,.635,0.0*
1,1,.1,0.0,.635*
20,1,.1,0.0,.635,.110267,.625353,0.0*
1,1,.1,.110267,.625353*
20,1,.1,.110267,.625353,.217183,.596705,0.0*
1,1,.1,.217183,.596705*
20,1,.1,.217183,.596705,.3175,.549926,0.0*
1,1,.1,.3175,.549926*
20,1,.1,.3175,.549926,.40817,.486438,0.0*
1,1,.1,.40817,.486438*
20,1,.1,.40817,.486438,.486438,.40817,0.0*
1,1,.1,.486438,.40817*
20,1,.1,.486438,.40817,.549926,.3175,0.0*
1,1,.1,.549926,.3175*
20,1,.1,.549926,.3175,.596705,.217183,0.0*
1,1,.1,.596705,.217183*
20,1,.1,.596705,.217183,.625353,.110267,0.0*
1,1,.1,.625353,.110267*
20,1,.1,.625353,.110267,.635,0.0,0.0*
1,1,.1,.635,0.0*
1,1,.1,.3175,0.0*
20,1,.1,.3175,0.0,-.3175,0.0,0.0*
1,1,.1,-.3175,0.0*
1,1,.1,0.0,.3175*
20,1,.1,0.0,.3175,0.0,-.3175,0.0*
1,1,.1,0.0,-.3175*
%
%ADD10MACRO10*%
%AMMACRO14*
1,1,.1,-.5,-1.*
20,1,.1,-.5,-1.,-.5,1.,0.0*
1,1,.1,-.5,1.*
20,1,.1,-.5,1.,-.492404,1.086824,0.0*
1,1,.1,-.492404,1.086824*
20,1,.1,-.492404,1.086824,-.469846,1.17101,0.0*
1,1,.1,-.469846,1.17101*
20,1,.1,-.469846,1.17101,-.433013,1.25,0.0*
1,1,.1,-.433013,1.25*
20,1,.1,-.433013,1.25,-.383022,1.321394,0.0*
1,1,.1,-.383022,1.321394*
20,1,.1,-.383022,1.321394,-.321394,1.383022,0.0*
1,1,.1,-.321394,1.383022*
20,1,.1,-.321394,1.383022,-.25,1.433013,0.0*
1,1,.1,-.25,1.433013*
20,1,.1,-.25,1.433013,-.17101,1.469846,0.0*
1,1,.1,-.17101,1.469846*
20,1,.1,-.17101,1.469846,-.086824,1.492404,0.0*
1,1,.1,-.086824,1.492404*
20,1,.1,-.086824,1.492404,0.0,1.5,0.0*
1,1,.1,0.0,1.5*
20,1,.1,0.0,1.5,.086824,1.492404,0.0*
1,1,.1,.086824,1.492404*
20,1,.1,.086824,1.492404,.17101,1.469846,0.0*
1,1,.1,.17101,1.469846*
20,1,.1,.17101,1.469846,.25,1.433013,0.0*
1,1,.1,.25,1.433013*
20,1,.1,.25,1.433013,.321394,1.383022,0.0*
1,1,.1,.321394,1.383022*
20,1,.1,.321394,1.383022,.383022,1.321394,0.0*
1,1,.1,.383022,1.321394*
20,1,.1,.383022,1.321394,.433013,1.25,0.0*
1,1,.1,.433013,1.25*
20,1,.1,.433013,1.25,.469846,1.17101,0.0*
1,1,.1,.469846,1.17101*
20,1,.1,.469846,1.17101,.492404,1.086824,0.0*
1,1,.1,.492404,1.086824*
20,1,.1,.492404,1.086824,.5,1.,0.0*
1,1,.1,.5,1.*
20,1,.1,.5,1.,.5,-1.,0.0*
1,1,.1,.5,-1.*
20,1,.1,.5,-1.,.492404,-1.086824,0.0*
1,1,.1,.492404,-1.086824*
20,1,.1,.492404,-1.086824,.469846,-1.17101,0.0*
1,1,.1,.469846,-1.17101*
20,1,.1,.469846,-1.17101,.433013,-1.25,0.0*
1,1,.1,.433013,-1.25*
20,1,.1,.433013,-1.25,.383022,-1.321394,0.0*
1,1,.1,.383022,-1.321394*
20,1,.1,.383022,-1.321394,.321394,-1.383022,0.0*
1,1,.1,.321394,-1.383022*
20,1,.1,.321394,-1.383022,.25,-1.433013,0.0*
1,1,.1,.25,-1.433013*
20,1,.1,.25,-1.433013,.17101,-1.469846,0.0*
1,1,.1,.17101,-1.469846*
20,1,.1,.17101,-1.469846,.086824,-1.492404,0.0*
1,1,.1,.086824,-1.492404*
20,1,.1,.086824,-1.492404,0.0,-1.5,0.0*
1,1,.1,0.0,-1.5*
20,1,.1,0.0,-1.5,-.086824,-1.492404,0.0*
1,1,.1,-.086824,-1.492404*
20,1,.1,-.086824,-1.492404,-.17101,-1.469846,0.0*
1,1,.1,-.17101,-1.469846*
20,1,.1,-.17101,-1.469846,-.25,-1.433013,0.0*
1,1,.1,-.25,-1.433013*
20,1,.1,-.25,-1.433013,-.321394,-1.383022,0.0*
1,1,.1,-.321394,-1.383022*
20,1,.1,-.321394,-1.383022,-.383022,-1.321394,0.0*
1,1,.1,-.383022,-1.321394*
20,1,.1,-.383022,-1.321394,-.433013,-1.25,0.0*
1,1,.1,-.433013,-1.25*
20,1,.1,-.433013,-1.25,-.469846,-1.17101,0.0*
1,1,.1,-.469846,-1.17101*
20,1,.1,-.469846,-1.17101,-.492404,-1.086824,0.0*
1,1,.1,-.492404,-1.086824*
20,1,.1,-.492404,-1.086824,-.5,-1.,0.0*
1,1,.1,-.5,-1.*
%
%ADD14MACRO14*%
%AMMACRO15*
1,1,.1,.125,0.0*
20,1,.1,.125,0.0,-.125,0.0,0.0*
1,1,.1,-.125,0.0*
1,1,.1,0.0,.125*
20,1,.1,0.0,.125,0.0,-.125,0.0*
1,1,.1,0.0,-.125*
1,1,.1,.0229,0.0*
20,1,.1,.0229,0.0,.0229,.125,0.0*
1,1,.1,.0229,.125*
20,1,.1,.0229,.125,.1021,.125,0.0*
1,1,.1,.1021,.125*
1,1,.1,.0729,.0646*
20,1,.1,.0729,.0646,.0229,.0646,0.0*
1,1,.1,.0229,.0646*
%
%ADD15MACRO15*%
%AMMACRO11*
1,1,.1,.35,0.0*
20,1,.1,.35,0.0,-.35,0.0,0.0*
1,1,.1,-.35,0.0*
1,1,.1,0.0,.35*
20,1,.1,0.0,.35,0.0,-.35,0.0*
1,1,.1,0.0,-.35*
1,1,.1,.0467,.35*
20,1,.1,.0467,.35,.0467,.0992,0.0*
1,1,.1,.0467,.0992*
20,1,.1,.0467,.0992,.07,.0467,0.0*
1,1,.1,.07,.0467*
20,1,.1,.07,.0467,.1167,.0117,0.0*
1,1,.1,.1167,.0117*
20,1,.1,.1167,.0117,.175,0.0,0.0*
1,1,.1,.175,0.0*
20,1,.1,.175,0.0,.2333,.0117,0.0*
1,1,.1,.2333,.0117*
20,1,.1,.2333,.0117,.28,.0467,0.0*
1,1,.1,.28,.0467*
20,1,.1,.28,.0467,.3033,.0992,0.0*
1,1,.1,.3033,.0992*
20,1,.1,.3033,.0992,.3033,.35,0.0*
1,1,.1,.3033,.35*
%
%ADD11MACRO11*%
%AMMACRO13*
1,1,.1,.09995,0.0*
20,1,.1,.09995,0.0,0.0,-.09995,0.0*
1,1,.1,0.0,-.09995*
20,1,.1,0.0,-.09995,-.09995,0.0,0.0*
1,1,.1,-.09995,0.0*
20,1,.1,-.09995,0.0,0.0,.09995,0.0*
1,1,.1,0.0,.09995*
20,1,.1,0.0,.09995,.09995,0.0,0.0*
1,1,.1,.09995,0.0*
1,1,.1,.01,0.0*
20,1,.1,.01,0.0,.0433,0.0,0.0*
1,1,.1,.0433,0.0*
20,1,.1,.0433,0.0,.0433,-.0299,0.0*
1,1,.1,.0433,-.0299*
20,1,.1,.0433,-.0299,.0334,-.0399,0.0*
1,1,.1,.0334,-.0399*
20,1,.1,.0334,-.0399,.0217,-.0466,0.0*
1,1,.1,.0217,-.0466*
20,1,.1,.0217,-.0466,.005,-.0499,0.0*
1,1,.1,.005,-.0499*
20,1,.1,.005,-.0499,-.0116,-.0466,0.0*
1,1,.1,-.0116,-.0466*
20,1,.1,-.0116,-.0466,-.0233,-.0399,0.0*
1,1,.1,-.0233,-.0399*
20,1,.1,-.0233,-.0399,-.0333,-.0299,0.0*
1,1,.1,-.0333,-.0299*
20,1,.1,-.0333,-.0299,-.0399,-.0183,0.0*
1,1,.1,-.0399,-.0183*
20,1,.1,-.0399,-.0183,-.0432,-.0049,0.0*
1,1,.1,-.0432,-.0049*
20,1,.1,-.0432,-.0049,-.0432,.0067,0.0*
1,1,.1,-.0432,.0067*
20,1,.1,-.0432,.0067,-.0399,.0167,0.0*
1,1,.1,-.0399,.0167*
20,1,.1,-.0399,.0167,-.0333,.0284,0.0*
1,1,.1,-.0333,.0284*
20,1,.1,-.0333,.0284,-.0233,.0383,0.0*
1,1,.1,-.0233,.0383*
20,1,.1,-.0233,.0383,-.0133,.045,0.0*
1,1,.1,-.0133,.045*
20,1,.1,-.0133,.045,0.0,.05,0.0*
1,1,.1,0.0,.05*
20,1,.1,0.0,.05,.0117,.05,0.0*
1,1,.1,.0117,.05*
20,1,.1,.0117,.05,.025,.0467,0.0*
1,1,.1,.025,.0467*
20,1,.1,.025,.0467,.035,.04,0.0*
1,1,.1,.035,.04*
%
%ADD13MACRO13*%
%AMMACRO16*
1,1,.1,0.0,.635*
20,1,.1,0.0,.635,.635,-.635,0.0*
1,1,.1,.635,-.635*
20,1,.1,.635,-.635,-.635,-.635,0.0*
1,1,.1,-.635,-.635*
20,1,.1,-.635,-.635,0.0,.635,0.0*
1,1,.1,0.0,.635*
1,1,.1,.1587,-.2117*
20,1,.1,.1587,-.2117,.0529,-.3175,0.0*
1,1,.1,.0529,-.3175*
20,1,.1,.0529,-.3175,-.0529,-.3175,0.0*
1,1,.1,-.0529,-.3175*
20,1,.1,-.0529,-.3175,-.1587,-.2117,0.0*
1,1,.1,-.1587,-.2117*
20,1,.1,-.1587,-.2117,-.1587,0.0,0.0*
1,1,.1,-.1587,0.0*
20,1,.1,-.1587,0.0,-.0529,.1058,0.0*
1,1,.1,-.0529,.1058*
20,1,.1,-.0529,.1058,.0529,.1058,0.0*
1,1,.1,.0529,.1058*
20,1,.1,.0529,.1058,.1587,0.0,0.0*
1,1,.1,.1587,0.0*
20,1,.1,.1587,0.0,.1587,-.2117,0.0*
1,1,.1,.1587,-.2117*
20,1,.1,.1587,-.2117,.2328,-.2963,0.0*
1,1,.1,.2328,-.2963*
20,1,.1,.2328,-.2963,.3175,-.2117,0.0*
1,1,.1,.3175,-.2117*
20,1,.1,.3175,-.2117,.3175,.2117,0.0*
1,1,.1,.3175,.2117*
20,1,.1,.3175,.2117,.2117,.3175,0.0*
1,1,.1,.2117,.3175*
20,1,.1,.2117,.3175,-.2117,.3175,0.0*
1,1,.1,-.2117,.3175*
20,1,.1,-.2117,.3175,-.3175,.2117,0.0*
1,1,.1,-.3175,.2117*
20,1,.1,-.3175,.2117,-.3175,-.4233,0.0*
1,1,.1,-.3175,-.4233*
20,1,.1,-.3175,-.4233,-.2117,-.5292,0.0*
1,1,.1,-.2117,-.5292*
20,1,.1,-.2117,-.5292,.2117,-.5292,0.0*
1,1,.1,.2117,-.5292*
20,1,.1,.2117,-.5292,.3175,-.4233,0.0*
1,1,.1,.3175,-.4233*
%
%ADD16MACRO16*%
%ADD17C,.1001*%
%ADD18C,.1*%
G75*
%LPD*%
G75*
G36*
G01X2847640Y9354390D02*
Y9987890D01*
X4879640D01*
Y9354390D01*
X2847640D01*
G37*
G36*
G01Y10304640D02*
Y10938140D01*
X4879640D01*
Y10304640D01*
X2847640D01*
G37*
G36*
G01Y12766240D02*
Y13399740D01*
X4879640D01*
Y12766240D01*
X2847640D01*
G37*
G36*
G01Y13716490D02*
Y14349990D01*
X4879640D01*
Y13716490D01*
X2847640D01*
G37*
G54D10*
X279300Y91900D03*
X75200Y314500D03*
X83730Y81840D03*
X206000Y369400D03*
X85300Y2345840D03*
X81200Y1964000D03*
X84500Y1641700D03*
X91730Y2235840D03*
X236730Y1743530D03*
X82000Y1817300D03*
X240400Y796400D03*
X236100Y933900D03*
X235600Y1048030D03*
X109900Y1495320D03*
X129080Y1558820D03*
X400080Y81300D03*
X1959300Y373900D03*
X1853900Y361900D03*
X1374500Y236300D03*
X1199700Y154200D03*
X812500Y81300D03*
X1056200Y83300D03*
X853610Y609090D03*
X658730Y86100D03*
X518600Y85200D03*
X1349400Y571250D03*
X1584300Y516600D03*
X1519740Y657500D03*
X1507600Y535300D03*
X334500Y481700D03*
X1795500Y584650D03*
X1418800Y551000D03*
X542400Y370400D03*
X1076300Y150100D03*
X1095720Y495500D03*
X1895500Y591200D03*
X1957390Y567050D03*
X1358190Y460010D03*
X916730Y380840D03*
Y445840D03*
X1026730Y380840D03*
Y445840D03*
X846100Y526900D03*
X903400Y102700D03*
X625850Y479690D03*
X839300Y258900D03*
X796700Y653500D03*
X1152300Y639700D03*
X988750Y610850D03*
X829800Y417300D03*
X1301900Y1468950D03*
X1987400Y1852100D03*
X1846600Y1886200D03*
X1289300Y1856900D03*
X1783000Y1647700D03*
X1302700Y2363300D03*
X1521990Y2102600D03*
X906700Y1791200D03*
X1219020Y1858940D03*
X1797300Y1959500D03*
X1943200Y1948000D03*
X1377500Y2220600D03*
X1681200Y2095200D03*
X1830700Y2079200D03*
X1661700Y2309800D03*
X1834800D03*
X1457400Y2239900D03*
X1244600Y2451990D03*
X483600Y2386900D03*
X886730Y2381840D03*
X960100Y2373800D03*
X1139370Y715590D03*
X1278700Y1221300D03*
X1238800Y1978000D03*
X1442510Y1909100D03*
X1521300Y1810500D03*
X1280100Y1287000D03*
X1864900Y1804400D03*
X1260200Y1644500D03*
X1242700Y1727200D03*
X1008000Y1893500D03*
X961410Y2148700D03*
X713300Y2073500D03*
X327400Y1972700D03*
X1972100Y2027400D03*
X1446200Y1812200D03*
X545700Y1006900D03*
X542700Y1809300D03*
X880730Y2247840D03*
X1028200Y2224000D03*
X886730Y2080840D03*
X814700Y1428300D03*
X1091300Y1113900D03*
X474730Y1437840D03*
X411730Y1575840D03*
X591730Y1944800D03*
X981100Y1645300D03*
X1731730Y870840D03*
X1831730Y1070840D03*
X1731730D03*
X1931730Y870840D03*
X1831730D03*
X1936730Y1070840D03*
X1731730Y1170840D03*
X1831730D03*
X1931730Y970840D03*
X1731730D03*
X1936730Y1270840D03*
X1836730D03*
X1831730Y970840D03*
X1931730Y1170840D03*
X1731730Y1270840D03*
X756730Y958470D03*
X492730Y2284840D03*
X734200Y1500500D03*
X366730Y2179840D03*
X337900Y802200D03*
X952110Y2000840D03*
X1778600Y1787200D03*
X1992900Y1694100D03*
X1951800Y1776300D03*
X1567900Y2314000D03*
X1392700Y2310800D03*
X1203600Y2166600D03*
X1210600Y1796800D03*
X1353700Y1433600D03*
X757100Y2204040D03*
X678500Y1745830D03*
X621730Y2150840D03*
X818000Y1514400D03*
X1093300Y1205300D03*
X715500Y830200D03*
X1156730Y775840D03*
X1380600Y1086140D03*
X723300Y900300D03*
X1481730Y1085840D03*
X1212600Y1198700D03*
X346730Y2300840D03*
X366780Y1156800D03*
X908740Y1324600D03*
X361730Y1360840D03*
X366730Y1290840D03*
X378730Y1496840D03*
X908740Y1600500D03*
X1491730Y1350840D03*
X1358800Y1293100D03*
X1076730Y794800D03*
X485730Y1555840D03*
X466730Y783540D03*
X366730Y1430840D03*
X1492200Y1736500D03*
X1934700Y1652100D03*
X471730Y1240840D03*
X519600Y861700D03*
X727730Y1427840D03*
X531900Y1743520D03*
X1288500Y889500D03*
X1192940Y1049050D03*
X580200Y2340840D03*
X942300Y2467210D03*
X803600D03*
X504400Y2467200D03*
X599300Y2461000D03*
X1330200Y2465100D03*
X304700Y2458300D03*
X443900Y2530800D03*
X2118500Y370880D03*
X2593700Y307300D03*
X2859600Y231500D03*
X2999000Y177200D03*
X2507100Y683700D03*
X3307700Y476500D03*
X3306700Y670300D03*
X2399500Y687600D03*
X3156730Y665840D03*
X3012730Y623840D03*
X3506500Y140600D03*
X3579730Y86840D03*
X3405730Y96840D03*
X3287000Y104100D03*
X2396700Y542100D03*
X2219590Y649900D03*
X2284100Y685840D03*
X2103100Y437900D03*
X2732800Y637600D03*
X2082390Y579500D03*
X2030230Y442390D03*
X2184970Y597170D03*
X2101730Y648140D03*
X2658830Y611770D03*
X2238480Y516320D03*
X2701400Y322000D03*
X3512290Y473050D03*
X3731900Y577500D03*
X2498400Y1963400D03*
X3432900Y1329600D03*
X3212100Y1326800D03*
X2919200Y1590300D03*
X2275300Y1950100D03*
X2278900Y1772400D03*
X2581900Y1716800D03*
X2585900Y1867500D03*
X2087300Y1974700D03*
X2899900Y1712600D03*
X2722600Y1720600D03*
X2898300Y1862400D03*
X2874400Y1945600D03*
X2053200Y1897600D03*
X3713000Y1899900D03*
X3688100Y2021300D03*
X3014500Y2022700D03*
X2527500Y1660000D03*
X2980700Y1365200D03*
X3380500Y1132400D03*
X3419800Y1026700D03*
X2684100Y1225700D03*
X2859400Y2030300D03*
X2528900Y2031300D03*
X2346900D03*
X2159000Y2029300D03*
X2876300Y795700D03*
X3601500Y2028600D03*
X2628860Y2026400D03*
X3049900Y1940400D03*
X3071730Y1773300D03*
X3071200Y1595900D03*
X3664400Y1354700D03*
X2821600Y1350600D03*
X3371730Y868840D03*
X3596730Y1275840D03*
X3411730Y1218540D03*
X3615100Y870900D03*
X2621000Y1368200D03*
X3488700Y867000D03*
X2933020Y992100D03*
X2861730Y995840D03*
Y1070840D03*
X2931730D03*
X3046740Y1215840D03*
X3236730Y1880840D03*
Y1680840D03*
X3336730D03*
X2551600Y1363900D03*
X3744530Y1066040D03*
X3469430Y1161170D03*
X2121730Y1170840D03*
Y1270840D03*
X2031730Y870840D03*
X2126730D03*
X2121730Y1070840D03*
Y970840D03*
X2031730D03*
Y1170840D03*
Y1270840D03*
Y1070840D03*
X3436730Y1880840D03*
X2307700Y1530840D03*
X2244620Y1480340D03*
X3439240Y1780840D03*
X3046720Y843840D03*
X2288800Y1435840D03*
X2538940Y808630D03*
X2384300Y1416300D03*
X2489860Y940140D03*
X2520200Y1198340D03*
X2647500Y821100D03*
X3727300Y819410D03*
X2615700Y1150800D03*
X3641600Y1730700D03*
X3336730Y1880840D03*
X2733700Y1524900D03*
X2806730Y1530840D03*
X3671730Y1275840D03*
X3752860Y1658460D03*
X3761100Y1500100D03*
X3231760Y1780840D03*
X3439050Y1680950D03*
X4119800Y260600D03*
X3861730Y450840D03*
X4097730Y423840D03*
X4107730Y104840D03*
X3836730Y85840D03*
X4120600Y866500D03*
X4119000Y1213340D03*
X4116800Y1900800D03*
X3933600Y2027400D03*
X3974400Y1419500D03*
X3778300Y1828860D03*
X4101800Y2026400D03*
X3897700Y996700D03*
X4096730Y735840D03*
X3863800Y1497500D03*
X3928200Y1304100D03*
X3827700Y1360300D03*
X3885730Y1714840D03*
X3828940Y1600180D03*
X3982300Y1058900D03*
X3898000Y1097480D03*
X3981530Y1343100D03*
X3986730Y2720840D03*
X6507620Y4622580D03*
G54D11*
X206730Y2435840D03*
Y2865840D03*
X3991730Y2435840D03*
Y2865840D03*
X6507620Y3195200D03*
G54D12*
X316780Y1007570D03*
Y1792570D03*
X6507620Y1054130D03*
G54D13*
X1859780Y3095400D03*
X1659880D03*
Y2595520D03*
X1459980Y3095400D03*
X1859780Y2595520D03*
X3259820D03*
X3059930Y3095400D03*
Y2595520D03*
X2859770Y3095400D03*
Y2595520D03*
X2659880Y3095400D03*
Y2595520D03*
X2459720Y3095400D03*
Y2595520D03*
X2259830Y3095400D03*
Y2595520D03*
X2059930Y3095400D03*
Y2595520D03*
X3260100Y3097200D03*
X3459600Y2593400D03*
X6507620Y3908890D03*
G54D14*
X2990730Y399840D03*
X3970730Y249840D03*
X6507620Y340440D03*
G54D15*
X3619330Y1062090D03*
X6507620Y2481510D03*
G54D16*
X3618730Y1060840D03*
X6507620Y1767820D03*
G54D17*
G01X-85790Y3151320D02*
X-164480D01*
X-148740Y3139650D01*
G01X-85790D02*
Y3163000D01*
G01X1860650Y3434480D02*
Y3513170D01*
X1824640Y3456780D01*
X1873310D01*
G01X1909160Y3500060D02*
X1915000Y3507920D01*
X1921820Y3511860D01*
X1929600Y3513170D01*
X1939330Y3510550D01*
X1946150Y3503990D01*
X1948090Y3496120D01*
X1947120Y3488250D01*
X1943230Y3481690D01*
X1923760Y3468580D01*
X1915000Y3459400D01*
X1909160Y3446280D01*
X1907220Y3434480D01*
X1948090D01*
G01X3395370Y-110270D02*
X3387590Y-112890D01*
X3381750Y-119450D01*
X3377860Y-127320D01*
X3374940Y-137810D01*
X3373970Y-149620D01*
X3374940Y-161420D01*
X3377860Y-171910D01*
X3381750Y-179780D01*
X3387590Y-186340D01*
X3395370Y-188960D01*
X3403160Y-186340D01*
X3409000Y-179780D01*
X3412890Y-171910D01*
X3415810Y-161420D01*
X3416780Y-149620D01*
X3415810Y-137810D01*
X3412890Y-127320D01*
X3409000Y-119450D01*
X3403160Y-112890D01*
X3395370Y-110270D01*
G01X3474050Y-191580D02*
X3472110Y-190270D01*
Y-187650D01*
X3474050Y-186340D01*
X3476000Y-187650D01*
Y-190270D01*
X3474050Y-191580D01*
G01X3534240Y-156170D02*
X3541060Y-146990D01*
X3546900Y-141750D01*
X3554680Y-139120D01*
X3561490Y-141750D01*
X3566360Y-146990D01*
X3570250Y-154860D01*
X3571230Y-164040D01*
X3570250Y-171910D01*
X3566360Y-179780D01*
X3560520Y-186340D01*
X3553710Y-188960D01*
X3545920Y-186340D01*
X3539110Y-178470D01*
X3535220Y-166660D01*
X3534240Y-153550D01*
X3536190Y-136500D01*
X3539110Y-127320D01*
X3543980Y-118140D01*
X3550790Y-111580D01*
X3557600Y-110270D01*
X3564410Y-112890D01*
X3569280Y-119450D01*
G01X3610010Y-177160D02*
X3615840Y-183720D01*
X3622660Y-187650D01*
X3631410Y-188960D01*
X3640170Y-186340D01*
X3646990Y-181090D01*
X3651850Y-171910D01*
X3652820Y-161420D01*
X3650880Y-150930D01*
X3646010Y-144370D01*
X3639200Y-139120D01*
X3632390Y-137810D01*
X3625580Y-139120D01*
X3616820Y-144370D01*
X3619740Y-110270D01*
X3646010D01*
G01X3317040Y3284180D02*
X3309260Y3281560D01*
X3303420Y3275000D01*
X3299530Y3267130D01*
X3296610Y3256640D01*
X3295640Y3244830D01*
X3296610Y3233030D01*
X3299530Y3222540D01*
X3303420Y3214670D01*
X3309260Y3208110D01*
X3317040Y3205490D01*
X3324830Y3208110D01*
X3330670Y3214670D01*
X3334560Y3222540D01*
X3337480Y3233030D01*
X3338450Y3244830D01*
X3337480Y3256640D01*
X3334560Y3267130D01*
X3330670Y3275000D01*
X3324830Y3281560D01*
X3317040Y3284180D01*
G01X3395720Y3202870D02*
X3393780Y3204180D01*
Y3206800D01*
X3395720Y3208110D01*
X3397670Y3206800D01*
Y3204180D01*
X3395720Y3202870D01*
G01X3455910Y3238280D02*
X3462730Y3247460D01*
X3468570Y3252700D01*
X3476350Y3255330D01*
X3483160Y3252700D01*
X3488030Y3247460D01*
X3491920Y3239590D01*
X3492900Y3230410D01*
X3491920Y3222540D01*
X3488030Y3214670D01*
X3482190Y3208110D01*
X3475380Y3205490D01*
X3467590Y3208110D01*
X3460780Y3215980D01*
X3456890Y3227790D01*
X3455910Y3240900D01*
X3457860Y3257950D01*
X3460780Y3267130D01*
X3465650Y3276310D01*
X3472460Y3282870D01*
X3479270Y3284180D01*
X3486080Y3281560D01*
X3490950Y3275000D01*
G01X2393540Y3325670D02*
X2399370Y3316490D01*
X2407160Y3311240D01*
X2415920Y3309930D01*
X2423700Y3311240D01*
X2431490Y3317800D01*
X2436350Y3325670D01*
X2437330Y3333540D01*
X2435380Y3342720D01*
X2428570Y3349270D01*
X2421760Y3351900D01*
X2413000D01*
G01X2421760D02*
X2427600Y3355830D01*
X2432460Y3362390D01*
X2434410Y3370260D01*
X2432460Y3378130D01*
X2427600Y3384680D01*
X2418840Y3388620D01*
X2410080Y3387310D01*
X2401320Y3382060D01*
G01X2505300Y3309930D02*
Y3388620D01*
X2469290Y3332230D01*
X2517960D01*
G01X2572300Y3307310D02*
X2570360Y3308620D01*
Y3311240D01*
X2572300Y3312550D01*
X2574250Y3311240D01*
Y3308620D01*
X2572300Y3307310D01*
G01X2629580Y3321730D02*
X2635410Y3315170D01*
X2642230Y3311240D01*
X2650980Y3309930D01*
X2659740Y3312550D01*
X2666560Y3317800D01*
X2671420Y3326980D01*
X2672390Y3337470D01*
X2670450Y3347960D01*
X2665580Y3354520D01*
X2658770Y3359770D01*
X2651960Y3361080D01*
X2645150Y3359770D01*
X2636390Y3354520D01*
X2639310Y3388620D01*
X2665580D01*
G01X4253590Y500960D02*
X4256210Y493180D01*
X4262770Y487340D01*
X4270640Y483450D01*
X4281130Y480530D01*
X4292940Y479560D01*
X4304740Y480530D01*
X4315230Y483450D01*
X4323100Y487340D01*
X4329660Y493180D01*
X4332280Y500960D01*
X4329660Y508750D01*
X4323100Y514590D01*
X4315230Y518480D01*
X4304740Y521400D01*
X4292940Y522370D01*
X4281130Y521400D01*
X4270640Y518480D01*
X4262770Y514590D01*
X4256210Y508750D01*
X4253590Y500960D01*
G01X4334900Y579640D02*
X4333590Y577700D01*
X4330970D01*
X4329660Y579640D01*
X4330970Y581590D01*
X4333590D01*
X4334900Y579640D01*
G01X4299490Y639830D02*
X4290310Y646650D01*
X4285070Y652490D01*
X4282440Y660270D01*
X4285070Y667080D01*
X4290310Y671950D01*
X4298180Y675840D01*
X4307360Y676820D01*
X4315230Y675840D01*
X4323100Y671950D01*
X4329660Y666110D01*
X4332280Y659300D01*
X4329660Y651510D01*
X4321790Y644700D01*
X4309980Y640810D01*
X4296870Y639830D01*
X4279820Y641780D01*
X4270640Y644700D01*
X4261460Y649570D01*
X4254900Y656380D01*
X4253590Y663190D01*
X4256210Y670000D01*
X4262770Y674870D01*
G01X4320480Y715600D02*
X4327040Y721430D01*
X4330970Y728250D01*
X4332280Y737000D01*
X4329660Y745760D01*
X4324410Y752580D01*
X4315230Y757440D01*
X4304740Y758410D01*
X4294250Y756470D01*
X4287690Y751600D01*
X4282440Y744790D01*
X4281130Y737980D01*
X4282440Y731170D01*
X4287690Y722410D01*
X4253590Y725330D01*
Y751600D01*
G01X4275390Y2217150D02*
X4278010Y2209370D01*
X4284570Y2203530D01*
X4292440Y2199640D01*
X4302930Y2196720D01*
X4314740Y2195750D01*
X4326540Y2196720D01*
X4337030Y2199640D01*
X4344900Y2203530D01*
X4351460Y2209370D01*
X4354080Y2217150D01*
X4351460Y2224940D01*
X4344900Y2230780D01*
X4337030Y2234670D01*
X4326540Y2237590D01*
X4314740Y2238560D01*
X4302930Y2237590D01*
X4292440Y2234670D01*
X4284570Y2230780D01*
X4278010Y2224940D01*
X4275390Y2217150D01*
G01X4356700Y2295830D02*
X4355390Y2293890D01*
X4352770D01*
X4351460Y2295830D01*
X4352770Y2297780D01*
X4355390D01*
X4356700Y2295830D01*
G01X4321290Y2356020D02*
X4312110Y2362840D01*
X4306870Y2368680D01*
X4304240Y2376460D01*
X4306870Y2383270D01*
X4312110Y2388140D01*
X4319980Y2392030D01*
X4329160Y2393010D01*
X4337030Y2392030D01*
X4344900Y2388140D01*
X4351460Y2382300D01*
X4354080Y2375490D01*
X4351460Y2367700D01*
X4343590Y2360890D01*
X4331780Y2357000D01*
X4318670Y2356020D01*
X4301620Y2357970D01*
X4292440Y2360890D01*
X4283260Y2365760D01*
X4276700Y2372570D01*
X4275390Y2379380D01*
X4278010Y2386190D01*
X4284570Y2391060D01*
G01X4550790Y1660630D02*
X4559970Y1666460D01*
X4565220Y1674250D01*
X4566530Y1683010D01*
X4565220Y1690790D01*
X4558660Y1698580D01*
X4550790Y1703440D01*
X4542920Y1704420D01*
X4533740Y1702470D01*
X4527190Y1695660D01*
X4524560Y1688850D01*
Y1680090D01*
G01Y1688850D02*
X4520630Y1694690D01*
X4514070Y1699550D01*
X4506200Y1701500D01*
X4498330Y1699550D01*
X4491780Y1694690D01*
X4487840Y1685930D01*
X4489150Y1677170D01*
X4494400Y1668410D01*
G01X4500950Y1742220D02*
X4493090Y1748060D01*
X4489150Y1754880D01*
X4487840Y1762660D01*
X4490460Y1772390D01*
X4497020Y1779210D01*
X4504890Y1781150D01*
X4512760Y1780180D01*
X4519320Y1776290D01*
X4532430Y1756820D01*
X4541610Y1748060D01*
X4554730Y1742220D01*
X4566530Y1740280D01*
Y1781150D01*
G01X4181270Y3342930D02*
X4187110Y3350790D01*
X4193930Y3354730D01*
X4201710Y3356040D01*
X4211440Y3353420D01*
X4218260Y3346860D01*
X4220200Y3338990D01*
X4219230Y3331120D01*
X4215340Y3324560D01*
X4195870Y3311450D01*
X4187110Y3302270D01*
X4181270Y3289150D01*
X4179330Y3277350D01*
X4220200D01*
G01X4278440Y3274730D02*
X4276500Y3276040D01*
Y3278660D01*
X4278440Y3279970D01*
X4280390Y3278660D01*
Y3276040D01*
X4278440Y3274730D01*
G01X4338630Y3310140D02*
X4345450Y3319320D01*
X4351290Y3324560D01*
X4359070Y3327190D01*
X4365880Y3324560D01*
X4370750Y3319320D01*
X4374640Y3311450D01*
X4375620Y3302270D01*
X4374640Y3294400D01*
X4370750Y3286530D01*
X4364910Y3279970D01*
X4358100Y3277350D01*
X4350310Y3279970D01*
X4343500Y3287840D01*
X4339610Y3299650D01*
X4338630Y3312760D01*
X4340580Y3329810D01*
X4343500Y3338990D01*
X4348370Y3348170D01*
X4355180Y3354730D01*
X4361990Y3356040D01*
X4368800Y3353420D01*
X4373670Y3346860D01*
G01X4414400Y3289150D02*
X4420230Y3282590D01*
X4427050Y3278660D01*
X4435800Y3277350D01*
X4444560Y3279970D01*
X4451380Y3285220D01*
X4456240Y3294400D01*
X4457210Y3304890D01*
X4455270Y3315380D01*
X4450400Y3321940D01*
X4443590Y3327190D01*
X4436780Y3328500D01*
X4429970Y3327190D01*
X4421210Y3321940D01*
X4424130Y3356040D01*
X4450400D01*
G01X4222570Y3219720D02*
Y3298410D01*
X4210900Y3282670D01*
G01Y3219720D02*
X4234250D01*
G01X4301250Y3217100D02*
X4299310Y3218410D01*
Y3221030D01*
X4301250Y3222340D01*
X4303200Y3221030D01*
Y3218410D01*
X4301250Y3217100D01*
G01X4379930Y3219720D02*
Y3298410D01*
X4368260Y3282670D01*
G01Y3219720D02*
X4391610D01*
G54D18*
G01X0Y0D02*
X1100000D01*
G02X3100000I1000000J-1542012D01*
G01X4200000D01*
Y3200000D01*
X3935000D01*
Y3100000D01*
X3825000D01*
Y3200000D01*
X375000D01*
Y3100000D01*
X265000D01*
X264990Y3200000D01*
X0D01*
Y0D01*
G01Y3169760D02*
Y3473830D01*
G01X1755770D02*
X0D01*
G01X100000Y3486330D02*
X0Y3473830D01*
X100000Y3461330D01*
Y3486330D01*
G01X172200Y3200000D02*
X-125140D01*
G01X315870Y3100000D02*
X-125140D01*
G01Y3058120D02*
Y3100000D01*
G01X-112640Y3000000D02*
X-125140Y3100000D01*
X-137640Y3000000D01*
X-112640D01*
G01X-125140Y3244540D02*
Y3200000D01*
G01X-137640Y3300000D02*
X-125140Y3200000D01*
X-112640Y3300000D01*
X-137640D01*
G01X-158970Y8190230D02*
Y8507730D01*
X-80240D01*
X-48750Y8491850D01*
X-25130Y8470690D01*
X-5440Y8438940D01*
X10300Y8401890D01*
X14240Y8348980D01*
X10300Y8296060D01*
X-5440Y8259020D01*
X-25130Y8227260D01*
X-48750Y8206100D01*
X-80240Y8190230D01*
X-158970D01*
G01X321250D02*
X163780D01*
Y8507730D01*
X321250D01*
G01X258260Y8354280D02*
X163780D01*
G01X474730Y8232550D02*
X506220Y8206100D01*
X541650Y8190230D01*
X573140D01*
X604630Y8206100D01*
X628250Y8232550D01*
X640060Y8269610D01*
X632190Y8306640D01*
X612510Y8338390D01*
X577080Y8359570D01*
X529840Y8370150D01*
X502280Y8391310D01*
X490470Y8428350D01*
X498350Y8465400D01*
X518030Y8491850D01*
X545580Y8507730D01*
X573140D01*
X600700Y8497150D01*
X624320Y8470690D01*
G01X825040Y8507730D02*
X919510D01*
G01X872270D02*
Y8190230D01*
G01X825040D02*
X919510D01*
G01X1210770Y8348980D02*
X1289510D01*
Y8253730D01*
X1265890Y8221970D01*
X1238330Y8200810D01*
X1198970Y8190230D01*
X1159600Y8200810D01*
X1132040Y8221970D01*
X1108420Y8253730D01*
X1092670Y8290770D01*
X1084800Y8333100D01*
Y8370150D01*
X1092670Y8401890D01*
X1108420Y8438940D01*
X1132040Y8470690D01*
X1155660Y8491850D01*
X1187150Y8507730D01*
X1214710D01*
X1246200Y8497150D01*
X1269820Y8475980D01*
G01X1411500Y8190230D02*
Y8507730D01*
X1592570Y8190230D01*
Y8507730D01*
G01X2218400Y8481270D02*
X2194780Y8497150D01*
X2167230Y8507730D01*
X2135730D01*
X2100300Y8491850D01*
X2072750Y8465400D01*
X2053060Y8433640D01*
X2037310Y8380730D01*
X2033380Y8333100D01*
X2041260Y8285480D01*
X2053060Y8253730D01*
X2076680Y8221970D01*
X2104240Y8200810D01*
X2131790Y8190230D01*
X2159350D01*
X2186910Y8200810D01*
X2210530Y8216680D01*
X2230210Y8237840D01*
G01X2367940Y8190230D02*
Y8507730D01*
X2466360D01*
X2497850Y8491850D01*
X2517530Y8470690D01*
X2525410Y8428350D01*
X2517530Y8386020D01*
X2493910Y8359570D01*
X2466360Y8343680D01*
X2367940D01*
G01X2466360D02*
X2525410Y8190230D01*
G01X2761550D02*
X2730060Y8195520D01*
X2702510Y8216680D01*
X2678890Y8248440D01*
X2663140Y8285480D01*
X2655270Y8327810D01*
Y8370150D01*
X2663140Y8412480D01*
X2678890Y8449520D01*
X2702510Y8481270D01*
X2730060Y8502440D01*
X2761550Y8507730D01*
X2793040Y8502440D01*
X2820600Y8481270D01*
X2844220Y8449520D01*
X2859970Y8412480D01*
X2867840Y8370150D01*
Y8327810D01*
X2859970Y8285480D01*
X2844220Y8248440D01*
X2820600Y8216680D01*
X2793040Y8195520D01*
X2761550Y8190230D01*
G01X2993770Y8232550D02*
X3025260Y8206100D01*
X3060690Y8190230D01*
X3092180D01*
X3123670Y8206100D01*
X3147290Y8232550D01*
X3159100Y8269610D01*
X3151230Y8306640D01*
X3131550Y8338390D01*
X3096120Y8359570D01*
X3048880Y8370150D01*
X3021320Y8391310D01*
X3009510Y8428350D01*
X3017390Y8465400D01*
X3037070Y8491850D01*
X3064620Y8507730D01*
X3092180D01*
X3119740Y8497150D01*
X3143360Y8470690D01*
G01X3308650Y8232550D02*
X3340140Y8206100D01*
X3375570Y8190230D01*
X3407060D01*
X3438550Y8206100D01*
X3462170Y8232550D01*
X3473980Y8269610D01*
X3466110Y8306640D01*
X3446430Y8338390D01*
X3411000Y8359570D01*
X3363760Y8370150D01*
X3336200Y8391310D01*
X3324390Y8428350D01*
X3332270Y8465400D01*
X3351950Y8491850D01*
X3379500Y8507730D01*
X3407060D01*
X3434620Y8497150D01*
X3458240Y8470690D01*
G01X3938410Y8232550D02*
X3969900Y8206100D01*
X4005330Y8190230D01*
X4036820D01*
X4068310Y8206100D01*
X4091930Y8232550D01*
X4103740Y8269610D01*
X4095870Y8306640D01*
X4076190Y8338390D01*
X4040760Y8359570D01*
X3993520Y8370150D01*
X3965960Y8391310D01*
X3954150Y8428350D01*
X3962030Y8465400D01*
X3981710Y8491850D01*
X4009260Y8507730D01*
X4036820D01*
X4064380Y8497150D01*
X4088000Y8470690D01*
G01X4414690Y8190230D02*
X4257220D01*
Y8507730D01*
X4414690D01*
G01X4351700Y8354280D02*
X4257220D01*
G01X4737440Y8481270D02*
X4713820Y8497150D01*
X4686270Y8507730D01*
X4654770D01*
X4619340Y8491850D01*
X4591790Y8465400D01*
X4572100Y8433640D01*
X4556350Y8380730D01*
X4552420Y8333100D01*
X4560300Y8285480D01*
X4572100Y8253730D01*
X4595720Y8221970D01*
X4623280Y8200810D01*
X4650830Y8190230D01*
X4678390D01*
X4705950Y8200810D01*
X4729570Y8216680D01*
X4749250Y8237840D01*
G01X4965710Y8507730D02*
Y8190230D01*
G01X4875180Y8507730D02*
X5056250D01*
G01X5233360D02*
X5327830D01*
G01X5280590D02*
Y8190230D01*
G01X5233360D02*
X5327830D01*
G01X5595470D02*
X5563980Y8195520D01*
X5536430Y8216680D01*
X5512810Y8248440D01*
X5497060Y8285480D01*
X5489190Y8327810D01*
Y8370150D01*
X5497060Y8412480D01*
X5512810Y8449520D01*
X5536430Y8481270D01*
X5563980Y8502440D01*
X5595470Y8507730D01*
X5626960Y8502440D01*
X5654520Y8481270D01*
X5678140Y8449520D01*
X5693890Y8412480D01*
X5701760Y8370150D01*
Y8327810D01*
X5693890Y8285480D01*
X5678140Y8248440D01*
X5654520Y8216680D01*
X5626960Y8195520D01*
X5595470Y8190230D01*
G01X5819820D02*
Y8507730D01*
X6000890Y8190230D01*
Y8507730D01*
G01X6626720Y8481270D02*
X6603100Y8497150D01*
X6575550Y8507730D01*
X6544050D01*
X6508620Y8491850D01*
X6481070Y8465400D01*
X6461380Y8433640D01*
X6445630Y8380730D01*
X6441700Y8333100D01*
X6449580Y8285480D01*
X6461380Y8253730D01*
X6485000Y8221970D01*
X6512560Y8200810D01*
X6540110Y8190230D01*
X6567670D01*
X6595230Y8200810D01*
X6618850Y8216680D01*
X6638530Y8237840D01*
G01X6772330Y8190230D02*
Y8507730D01*
G01X6937660D02*
Y8190230D01*
G01Y8348980D02*
X6772330D01*
G01X7071460Y8190230D02*
X7169870Y8507730D01*
X7268290Y8190230D01*
G01X7232860Y8301350D02*
X7106890D01*
G01X7406020Y8190230D02*
Y8507730D01*
X7504440D01*
X7535930Y8491850D01*
X7555610Y8470690D01*
X7563490Y8428350D01*
X7555610Y8386020D01*
X7531990Y8359570D01*
X7504440Y8343680D01*
X7406020D01*
G01X7504440D02*
X7563490Y8190230D01*
G01X7799630Y8507730D02*
Y8190230D01*
G01X7709100Y8507730D02*
X7890170D01*
G01X-347900Y8084400D02*
X-111710D01*
G01X-33020D02*
X203170D01*
G01X281860D02*
X518050D01*
G01X596740D02*
X832930D01*
G01X911620D02*
X1147810D01*
G01X1226500D02*
X1462690D01*
G01X1541380D02*
X1777570D01*
G01X1856260D02*
X2092450D01*
G01X2171140D02*
X2407330D01*
G01X2486020D02*
X2722210D01*
G01X2800900D02*
X3037090D01*
G01X3115780D02*
X3351970D01*
G01X3430660D02*
X3666850D01*
G01X3745540D02*
X3981730D01*
G01X4060420D02*
X4296610D01*
G01X4375300D02*
X4611490D01*
G01X4690180D02*
X4926370D01*
G01X5005060D02*
X5241250D01*
G01X5319940D02*
X5556130D01*
G01X5634820D02*
X5871010D01*
G01X5949700D02*
X6185890D01*
G01X6264580D02*
X6500770D01*
G01X6579460D02*
X6815650D01*
G01X6894340D02*
X7130530D01*
G01X7209220D02*
X7445410D01*
G01X7524100D02*
X7760290D01*
G01X7838980D02*
X8075170D01*
G01X375000Y3148820D02*
Y3349280D01*
G01X2321740D02*
X375000D01*
G01X475000Y3361780D02*
X375000Y3349280D01*
X475000Y3336780D01*
Y3361780D01*
G01X557390Y7872730D02*
Y7555230D01*
G01X466860Y7872730D02*
X647930D01*
G01X872270Y7555230D02*
X840780Y7560520D01*
X813230Y7581680D01*
X789610Y7613440D01*
X773860Y7650480D01*
X765990Y7692810D01*
Y7735150D01*
X773860Y7777480D01*
X789610Y7814520D01*
X813230Y7846270D01*
X840780Y7867440D01*
X872270Y7872730D01*
X903760Y7867440D01*
X931320Y7846270D01*
X954940Y7814520D01*
X970690Y7777480D01*
X978560Y7735150D01*
Y7692810D01*
X970690Y7650480D01*
X954940Y7613440D01*
X931320Y7581680D01*
X903760Y7560520D01*
X872270Y7555230D01*
G01X1187150Y7872730D02*
Y7555230D01*
G01X1096620Y7872730D02*
X1277690D01*
G01X1403620Y7555230D02*
X1502030Y7872730D01*
X1600450Y7555230D01*
G01X1565020Y7666350D02*
X1439050D01*
G01X1738180Y7872730D02*
Y7555230D01*
X1895650D01*
G01X2446670Y7872730D02*
Y7555230D01*
G01X2356140Y7872730D02*
X2537210D01*
G01X2678890Y7555230D02*
Y7872730D01*
G01X2844220D02*
Y7555230D01*
G01Y7713980D02*
X2678890D01*
G01X3029200Y7872730D02*
X3123670D01*
G01X3076430D02*
Y7555230D01*
G01X3029200D02*
X3123670D01*
G01X3477920Y7846270D02*
X3454300Y7862150D01*
X3426750Y7872730D01*
X3395250D01*
X3359820Y7856850D01*
X3332270Y7830400D01*
X3312580Y7798640D01*
X3296830Y7745730D01*
X3292900Y7698100D01*
X3300780Y7650480D01*
X3312580Y7618730D01*
X3336200Y7586970D01*
X3363760Y7565810D01*
X3391310Y7555230D01*
X3418870D01*
X3446430Y7565810D01*
X3470050Y7581680D01*
X3489730Y7602840D01*
G01X3619590Y7555230D02*
Y7872730D01*
G01X3769180D02*
X3619590Y7676930D01*
G01X3792800Y7555230D02*
X3686510Y7766890D01*
G01X3930540Y7555230D02*
Y7872730D01*
X4111610Y7555230D01*
Y7872730D01*
G01X4414690Y7555230D02*
X4257220D01*
Y7872730D01*
X4414690D01*
G01X4351700Y7719280D02*
X4257220D01*
G01X4568170Y7597550D02*
X4599660Y7571100D01*
X4635090Y7555230D01*
X4666580D01*
X4698070Y7571100D01*
X4721690Y7597550D01*
X4733500Y7634610D01*
X4725630Y7671640D01*
X4705950Y7703390D01*
X4670520Y7724570D01*
X4623280Y7735150D01*
X4595720Y7756310D01*
X4583910Y7793350D01*
X4591790Y7830400D01*
X4611470Y7856850D01*
X4639020Y7872730D01*
X4666580D01*
X4694140Y7862150D01*
X4717760Y7835690D01*
G01X4883050Y7597550D02*
X4914540Y7571100D01*
X4949970Y7555230D01*
X4981460D01*
X5012950Y7571100D01*
X5036570Y7597550D01*
X5048380Y7634610D01*
X5040510Y7671640D01*
X5020830Y7703390D01*
X4985400Y7724570D01*
X4938160Y7735150D01*
X4910600Y7756310D01*
X4898790Y7793350D01*
X4906670Y7830400D01*
X4926350Y7856850D01*
X4953900Y7872730D01*
X4981460D01*
X5009020Y7862150D01*
X5032640Y7835690D01*
G01X5595470Y7555230D02*
Y7872730D01*
X5548240Y7809230D01*
G01Y7555230D02*
X5642710D01*
G01X5910350Y7544650D02*
X5902480Y7549940D01*
Y7560520D01*
X5910350Y7565810D01*
X5918230Y7560520D01*
Y7549940D01*
X5910350Y7544650D01*
G01X6138630Y7602840D02*
X6162250Y7576390D01*
X6189800Y7560520D01*
X6225230Y7555230D01*
X6260670Y7565810D01*
X6288220Y7586970D01*
X6307900Y7624020D01*
X6311840Y7666350D01*
X6303970Y7708680D01*
X6284280Y7735150D01*
X6256720Y7756310D01*
X6229170Y7761600D01*
X6201620Y7756310D01*
X6166190Y7735150D01*
X6178000Y7872730D01*
X6284280D01*
G01X6752640Y7555230D02*
Y7872730D01*
X6854990Y7608150D01*
X6957350Y7872730D01*
Y7555230D01*
G01X7067520D02*
Y7872730D01*
X7169870Y7608150D01*
X7272230Y7872730D01*
Y7555230D01*
G01X3192040Y588030D02*
Y233040D01*
G03X3212030Y213050I19990J0D01*
G01X3352030D01*
G03X3372020Y233040I0J19990D01*
G01Y258030D01*
G03X3352030Y278050I-20000J20D01*
G01X3277030D01*
G02X3257040Y298040I3J19993D01*
G01Y588030D01*
G03X3237020Y608050I-20007J13D01*
G01X3212030D01*
G03X3192040Y588030I10J-20000D01*
G01X3638420Y588000D02*
Y232990D01*
G02X3618430Y213000I-19997J7D01*
G01X3478430D01*
G02X3458440Y232990I0J19990D01*
G01Y258010D01*
G02X3478430Y278000I19990J0D01*
G01X3553440D01*
G03X3573430Y298010I-10J20000D01*
G01Y588000D01*
G02X3593440Y607990I19997J-7D01*
G01X3618430D01*
G02X3638420Y588000I-3J-19993D01*
G01X3192040Y360300D02*
Y-149610D01*
G01X3257040Y359890D02*
Y-149610D01*
G01X2992040D02*
X3192040D01*
G01X3092040Y-162110D02*
X3192040Y-149610D01*
X3092040Y-137110D01*
Y-162110D01*
G01X3302170Y-149610D02*
X3257040D01*
G01X3357040Y-137110D02*
X3257040Y-149610D01*
X3357040Y-162110D01*
Y-137110D01*
G01X3528690Y278000D02*
X4292930D01*
G01X3533710Y213000D02*
X4292930D01*
G01X3116730Y1540840D02*
X3526730D01*
Y1600840D01*
X3176730D01*
Y1950840D01*
X3526730D01*
Y2010840D01*
X3116730D01*
Y1540840D01*
G01X3444020Y2010840D02*
X4314730D01*
G01X3444020Y1950840D02*
X4314730D01*
G01X3116730Y1841530D02*
Y3244840D01*
G01X3176730Y1841530D02*
Y3244840D01*
G01X2916730D02*
X3116730D01*
G01X3016730Y3232340D02*
X3116730Y3244840D01*
X3016730Y3257340D01*
Y3232340D01*
G01X3223840Y3244840D02*
X3176730D01*
G01X3276730Y3257340D02*
X3176730Y3244840D01*
X3276730Y3232340D01*
Y3257340D01*
G01X2020870Y3473830D02*
X4200000D01*
G01X2744200Y3349280D02*
X3825000D01*
G01X3725000Y3336780D02*
X3825000Y3349280D01*
X3725000Y3361780D01*
Y3336780D01*
G01X3625000Y3259070D02*
X3825000D01*
G01X3725000Y3246570D02*
X3825000Y3259070D01*
X3725000Y3271570D01*
Y3246570D01*
G01X2847640Y10938140D02*
Y12766240D01*
X4879640D01*
Y10938140D01*
X2847640D01*
G01Y9987890D02*
Y10304640D01*
X4879640D01*
Y9987890D01*
X2847640D01*
G01Y13399740D02*
Y13716490D01*
X4879640D01*
Y13399740D01*
X2847640D01*
G01X5366200Y-16410D02*
Y7056800D01*
X17646400D01*
Y-16410D01*
X5366200D01*
G01X4132940Y0D02*
X4527180D01*
G01Y1588830D02*
Y0D01*
G01X4514680Y100000D02*
X4527180Y0D01*
X4539680Y100000D01*
X4514680D01*
G01X4292930Y13000D02*
Y213000D01*
G01X4305430Y113000D02*
X4292930Y213000D01*
X4280430Y113000D01*
X4305430D01*
G01X4292930Y407760D02*
Y278000D01*
G01X4280430Y378000D02*
X4292930Y278000D01*
X4305430Y378000D01*
X4280430D01*
G01X5366200Y2124660D02*
X17646400D01*
G01X5366200Y1410970D02*
X17646400D01*
G01X5366200Y697280D02*
X17646400D01*
G01X4314730Y1750840D02*
Y1950840D01*
G01X4327230Y1850840D02*
X4314730Y1950840D01*
X4302230Y1850840D01*
X4327230D01*
G01X4314730Y2123950D02*
Y2010840D01*
G01X4302230Y2110840D02*
X4314730Y2010840D01*
X4327230Y2110840D01*
X4302230D01*
G01X4527180Y1853930D02*
Y3200000D01*
G01X5366200Y3552040D02*
X17646400D01*
G01X5366200Y2838350D02*
X17646400D01*
G01X4200000Y3142440D02*
Y3473830D01*
G01X4100000Y3461330D02*
X4200000Y3473830D01*
X4100000Y3486330D01*
Y3461330D01*
G01X4086170Y3200000D02*
X4527180D01*
G01X4539680Y3100000D02*
X4527180Y3200000D01*
X4514680Y3100000D01*
X4539680D01*
G01X3935000Y3149650D02*
Y3316700D01*
G01X4200000Y3137960D02*
Y3316700D01*
G01D02*
X3935000D01*
G01X4035000Y3329200D02*
X3935000Y3316700D01*
X4035000Y3304200D01*
Y3329200D01*
G01X4106560Y3316700D02*
X4200000D01*
G01X4100000Y3304200D02*
X4200000Y3316700D01*
X4100000Y3329200D01*
Y3304200D01*
G01X3825000Y3147150D02*
Y3349280D01*
G01Y3141300D02*
Y3259070D01*
G01X3935000Y3142970D02*
Y3259070D01*
G01X4129370D02*
X3935000D01*
G01X4035000Y3271570D02*
X3935000Y3259070D01*
X4035000Y3246570D01*
Y3271570D01*
G01X5366200Y5693110D02*
X17646400D01*
G01X5366200Y4979420D02*
X17646400D01*
G01X5366200Y4265730D02*
X17646400D01*
G01X5366200Y6406800D02*
X17646400D01*
G01X5233880Y9775480D02*
Y9457980D01*
X5391350D01*
G01X5674730D02*
Y9775480D01*
X5529080Y9547940D01*
X5725910D01*
G01X5942370Y9447400D02*
X5934500Y9452690D01*
Y9463270D01*
X5942370Y9468560D01*
X5950250Y9463270D01*
Y9452690D01*
X5942370Y9447400D01*
G01Y9590260D02*
X5934500Y9595560D01*
Y9606140D01*
X5942370Y9611430D01*
X5950250Y9606140D01*
Y9595560D01*
X5942370Y9590260D01*
G01X6603620Y9627320D02*
X6619370Y9643190D01*
X6631180Y9669640D01*
X6639060Y9706690D01*
X6631180Y9738440D01*
X6615440Y9759600D01*
X6587880Y9775480D01*
X6481600D01*
Y9457980D01*
X6611500D01*
X6639060Y9479140D01*
X6654800Y9510900D01*
X6662670Y9547940D01*
X6654800Y9584970D01*
X6631180Y9616730D01*
X6603620Y9627320D01*
X6481600D01*
G01X6887010Y9457980D02*
X6855520Y9463270D01*
X6827970Y9484430D01*
X6804350Y9516190D01*
X6788600Y9553230D01*
X6780730Y9595560D01*
Y9637900D01*
X6788600Y9680230D01*
X6804350Y9717270D01*
X6827970Y9749020D01*
X6855520Y9770190D01*
X6887010Y9775480D01*
X6918500Y9770190D01*
X6946060Y9749020D01*
X6969680Y9717270D01*
X6985430Y9680230D01*
X6993300Y9637900D01*
Y9595560D01*
X6985430Y9553230D01*
X6969680Y9516190D01*
X6946060Y9484430D01*
X6918500Y9463270D01*
X6887010Y9457980D01*
G01X7201890Y9775480D02*
Y9457980D01*
G01X7111360Y9775480D02*
X7292430D01*
G01X7516770D02*
Y9457980D01*
G01X7426240Y9775480D02*
X7607310D01*
G01X7831650Y9457980D02*
X7800160Y9463270D01*
X7772610Y9484430D01*
X7748990Y9516190D01*
X7733240Y9553230D01*
X7725370Y9595560D01*
Y9637900D01*
X7733240Y9680230D01*
X7748990Y9717270D01*
X7772610Y9749020D01*
X7800160Y9770190D01*
X7831650Y9775480D01*
X7863140Y9770190D01*
X7890700Y9749020D01*
X7914320Y9717270D01*
X7930070Y9680230D01*
X7937940Y9637900D01*
Y9595560D01*
X7930070Y9553230D01*
X7914320Y9516190D01*
X7890700Y9484430D01*
X7863140Y9463270D01*
X7831650Y9457980D01*
G01X8044180D02*
Y9775480D01*
X8146530Y9510900D01*
X8248890Y9775480D01*
Y9457980D01*
G01X8862900Y9749020D02*
X8839280Y9764900D01*
X8811730Y9775480D01*
X8780230D01*
X8744800Y9759600D01*
X8717250Y9733150D01*
X8697560Y9701390D01*
X8681810Y9648480D01*
X8677880Y9600850D01*
X8685760Y9553230D01*
X8697560Y9521480D01*
X8721180Y9489720D01*
X8748740Y9468560D01*
X8776290Y9457980D01*
X8803850D01*
X8831410Y9468560D01*
X8855030Y9484430D01*
X8874710Y9505590D01*
G01X9091170Y9457980D02*
X9059680Y9463270D01*
X9032130Y9484430D01*
X9008510Y9516190D01*
X8992760Y9553230D01*
X8984890Y9595560D01*
Y9637900D01*
X8992760Y9680230D01*
X9008510Y9717270D01*
X9032130Y9749020D01*
X9059680Y9770190D01*
X9091170Y9775480D01*
X9122660Y9770190D01*
X9150220Y9749020D01*
X9173840Y9717270D01*
X9189590Y9680230D01*
X9197460Y9637900D01*
Y9595560D01*
X9189590Y9553230D01*
X9173840Y9516190D01*
X9150220Y9484430D01*
X9122660Y9463270D01*
X9091170Y9457980D01*
G01X9315520D02*
Y9775480D01*
X9496590Y9457980D01*
Y9775480D01*
G01X9634330Y9457980D02*
Y9775480D01*
X9713060D01*
X9744550Y9759600D01*
X9768170Y9738440D01*
X9787860Y9706690D01*
X9803600Y9669640D01*
X9807540Y9616730D01*
X9803600Y9563810D01*
X9787860Y9526770D01*
X9768170Y9495010D01*
X9744550Y9473850D01*
X9713060Y9457980D01*
X9634330D01*
G01X9949210Y9775480D02*
Y9547940D01*
X9964960Y9500300D01*
X9996450Y9468560D01*
X10035810Y9457980D01*
X10075180Y9468560D01*
X10106670Y9500300D01*
X10122420Y9547940D01*
Y9775480D01*
G01X10437300Y9749020D02*
X10413680Y9764900D01*
X10386130Y9775480D01*
X10354630D01*
X10319200Y9759600D01*
X10291650Y9733150D01*
X10271960Y9701390D01*
X10256210Y9648480D01*
X10252280Y9600850D01*
X10260160Y9553230D01*
X10271960Y9521480D01*
X10295580Y9489720D01*
X10323140Y9468560D01*
X10350690Y9457980D01*
X10378250D01*
X10405810Y9468560D01*
X10429430Y9484430D01*
X10449110Y9505590D01*
G01X10665570Y9775480D02*
Y9457980D01*
G01X10575040Y9775480D02*
X10756110D01*
G01X10980450Y9457980D02*
X10948960Y9463270D01*
X10921410Y9484430D01*
X10897790Y9516190D01*
X10882040Y9553230D01*
X10874170Y9595560D01*
Y9637900D01*
X10882040Y9680230D01*
X10897790Y9717270D01*
X10921410Y9749020D01*
X10948960Y9770190D01*
X10980450Y9775480D01*
X11011940Y9770190D01*
X11039500Y9749020D01*
X11063120Y9717270D01*
X11078870Y9680230D01*
X11086740Y9637900D01*
Y9595560D01*
X11078870Y9553230D01*
X11063120Y9516190D01*
X11039500Y9484430D01*
X11011940Y9463270D01*
X10980450Y9457980D01*
G01X11216600D02*
Y9775480D01*
X11315020D01*
X11346510Y9759600D01*
X11366190Y9738440D01*
X11374070Y9696100D01*
X11366190Y9653770D01*
X11342570Y9627320D01*
X11315020Y9611430D01*
X11216600D01*
G01X11315020D02*
X11374070Y9457980D01*
G01X11873920Y9563810D02*
X11976270D01*
G01X12641460Y9749020D02*
X12617840Y9764900D01*
X12590290Y9775480D01*
X12558790D01*
X12523360Y9759600D01*
X12495810Y9733150D01*
X12476120Y9701390D01*
X12460370Y9648480D01*
X12456440Y9600850D01*
X12464320Y9553230D01*
X12476120Y9521480D01*
X12499740Y9489720D01*
X12527300Y9468560D01*
X12554850Y9457980D01*
X12582410D01*
X12609970Y9468560D01*
X12633590Y9484430D01*
X12653270Y9505590D01*
G01X12869730Y9457980D02*
X12838240Y9463270D01*
X12810690Y9484430D01*
X12787070Y9516190D01*
X12771320Y9553230D01*
X12763450Y9595560D01*
Y9637900D01*
X12771320Y9680230D01*
X12787070Y9717270D01*
X12810690Y9749020D01*
X12838240Y9770190D01*
X12869730Y9775480D01*
X12901220Y9770190D01*
X12928780Y9749020D01*
X12952400Y9717270D01*
X12968150Y9680230D01*
X12976020Y9637900D01*
Y9595560D01*
X12968150Y9553230D01*
X12952400Y9516190D01*
X12928780Y9484430D01*
X12901220Y9463270D01*
X12869730Y9457980D01*
G01X13105880D02*
Y9775480D01*
X13200360D01*
X13231850Y9759600D01*
X13255470Y9722560D01*
X13263350Y9680230D01*
X13255470Y9637900D01*
X13235790Y9606140D01*
X13200360Y9590260D01*
X13105880D01*
G01X13420760Y9457980D02*
Y9775480D01*
X13515240D01*
X13546730Y9759600D01*
X13570350Y9722560D01*
X13578230Y9680230D01*
X13570350Y9637900D01*
X13550670Y9606140D01*
X13515240Y9590260D01*
X13420760D01*
G01X13893110Y9457980D02*
X13735640D01*
Y9775480D01*
X13893110D01*
G01X13830120Y9622030D02*
X13735640D01*
G01X14050520Y9457980D02*
Y9775480D01*
X14148940D01*
X14180430Y9759600D01*
X14200110Y9738440D01*
X14207990Y9696100D01*
X14200110Y9653770D01*
X14176490Y9627320D01*
X14148940Y9611430D01*
X14050520D01*
G01X14148940D02*
X14207990Y9457980D01*
G01X14759010Y9775480D02*
X14727520Y9764900D01*
X14703900Y9738440D01*
X14688160Y9706690D01*
X14676350Y9664350D01*
X14672410Y9616730D01*
X14676350Y9569100D01*
X14688160Y9526770D01*
X14703900Y9495010D01*
X14727520Y9468560D01*
X14759010Y9457980D01*
X14790500Y9468560D01*
X14814130Y9495010D01*
X14829870Y9526770D01*
X14841680Y9569100D01*
X14845620Y9616730D01*
X14841680Y9664350D01*
X14829870Y9706690D01*
X14814130Y9738440D01*
X14790500Y9764900D01*
X14759010Y9775480D01*
G01X15073890Y9447400D02*
X15066020Y9452690D01*
Y9463270D01*
X15073890Y9468560D01*
X15081770Y9463270D01*
Y9452690D01*
X15073890Y9447400D01*
G01X15388770Y9775480D02*
X15357280Y9764900D01*
X15333660Y9738440D01*
X15317920Y9706690D01*
X15306110Y9664350D01*
X15302170Y9616730D01*
X15306110Y9569100D01*
X15317920Y9526770D01*
X15333660Y9495010D01*
X15357280Y9468560D01*
X15388770Y9457980D01*
X15420260Y9468560D01*
X15443890Y9495010D01*
X15459630Y9526770D01*
X15471440Y9569100D01*
X15475380Y9616730D01*
X15471440Y9664350D01*
X15459630Y9706690D01*
X15443890Y9738440D01*
X15420260Y9764900D01*
X15388770Y9775480D01*
G01X15617050Y9521480D02*
X15640670Y9484430D01*
X15672160Y9463270D01*
X15707590Y9457980D01*
X15739090Y9463270D01*
X15770580Y9489720D01*
X15790260Y9521480D01*
X15794190Y9553230D01*
X15786320Y9590260D01*
X15758770Y9616730D01*
X15731210Y9627320D01*
X15695780D01*
G01X15731210D02*
X15754830Y9643190D01*
X15774510Y9669640D01*
X15782390Y9701390D01*
X15774510Y9733150D01*
X15754830Y9759600D01*
X15719400Y9775480D01*
X15683970Y9770190D01*
X15648540Y9749020D01*
G01X15931930Y9505590D02*
X15955550Y9479140D01*
X15983100Y9463270D01*
X16018530Y9457980D01*
X16053970Y9468560D01*
X16081520Y9489720D01*
X16101200Y9526770D01*
X16105140Y9569100D01*
X16097270Y9611430D01*
X16077580Y9637900D01*
X16050020Y9659060D01*
X16022470Y9664350D01*
X15994920Y9659060D01*
X15959490Y9637900D01*
X15971300Y9775480D01*
X16077580D01*
G01X16545940Y9457980D02*
Y9775480D01*
X16648290Y9510900D01*
X16750650Y9775480D01*
Y9457980D01*
G01X16860820D02*
Y9775480D01*
X16963170Y9510900D01*
X17065530Y9775480D01*
Y9457980D01*
G01X5855770Y8920480D02*
X6028980Y9153310D01*
G01X5942370Y9195640D02*
Y8878140D01*
G01X6028980Y8920480D02*
X5855770Y9153310D01*
G01X5824280Y9036890D02*
X6060470D01*
G01X6804350Y8973380D02*
X6835840Y8946930D01*
X6871270Y8931060D01*
X6902760D01*
X6934250Y8946930D01*
X6957870Y8973380D01*
X6969680Y9010440D01*
X6961810Y9047470D01*
X6942130Y9079220D01*
X6906700Y9100400D01*
X6859460Y9110980D01*
X6831900Y9132140D01*
X6820090Y9169180D01*
X6827970Y9206230D01*
X6847650Y9232680D01*
X6875200Y9248560D01*
X6902760D01*
X6930320Y9237980D01*
X6953940Y9211520D01*
G01X7115290Y9248560D02*
Y9021020D01*
X7131040Y8973380D01*
X7162530Y8941640D01*
X7201890Y8931060D01*
X7241260Y8941640D01*
X7272750Y8973380D01*
X7288500Y9021020D01*
Y9248560D01*
G01X7438040Y8931060D02*
Y9248560D01*
X7536460D01*
X7567950Y9232680D01*
X7587630Y9211520D01*
X7595510Y9169180D01*
X7587630Y9126850D01*
X7564010Y9100400D01*
X7536460Y9084510D01*
X7438040D01*
G01X7536460D02*
X7595510Y8931060D01*
G01X7756860D02*
Y9248560D01*
X7906450D01*
G01X7851340Y9095110D02*
X7756860D01*
G01X8048120Y8931060D02*
X8146530Y9248560D01*
X8244950Y8931060D01*
G01X8209520Y9042180D02*
X8083550D01*
G01X8548020Y9222100D02*
X8524400Y9237980D01*
X8496850Y9248560D01*
X8465350D01*
X8429920Y9232680D01*
X8402370Y9206230D01*
X8382680Y9174470D01*
X8366930Y9121560D01*
X8363000Y9073930D01*
X8370880Y9026310D01*
X8382680Y8994560D01*
X8406300Y8962800D01*
X8433860Y8941640D01*
X8461410Y8931060D01*
X8488970D01*
X8516530Y8941640D01*
X8540150Y8957510D01*
X8559830Y8978670D01*
G01X8855030Y8931060D02*
X8697560D01*
Y9248560D01*
X8855030D01*
G01X8792040Y9095110D02*
X8697560D01*
G01X9354880Y9036890D02*
X9457230D01*
G01X9937400Y8931060D02*
X10035810Y9248560D01*
X10134230Y8931060D01*
G01X10098800Y9042180D02*
X9972830D01*
G01X10303460Y9248560D02*
X10397930D01*
G01X10350690D02*
Y8931060D01*
G01X10303460D02*
X10397930D01*
G01X10586840D02*
Y9248560D01*
X10685260D01*
X10716750Y9232680D01*
X10736430Y9211520D01*
X10744310Y9169180D01*
X10736430Y9126850D01*
X10712810Y9100400D01*
X10685260Y9084510D01*
X10586840D01*
G01X10685260D02*
X10744310Y8931060D01*
G01X11295330Y9248560D02*
X11263840Y9237980D01*
X11240220Y9211520D01*
X11224480Y9179770D01*
X11212670Y9137430D01*
X11208730Y9089810D01*
X11212670Y9042180D01*
X11224480Y8999850D01*
X11240220Y8968090D01*
X11263840Y8941640D01*
X11295330Y8931060D01*
X11326820Y8941640D01*
X11350450Y8968090D01*
X11366190Y8999850D01*
X11378000Y9042180D01*
X11381940Y9089810D01*
X11378000Y9137430D01*
X11366190Y9179770D01*
X11350450Y9211520D01*
X11326820Y9237980D01*
X11295330Y9248560D01*
G01X11822740Y8931060D02*
Y9248560D01*
X11925090Y8983980D01*
X12027450Y9248560D01*
Y8931060D01*
G01X12137620D02*
Y9248560D01*
X12239970Y8983980D01*
X12342330Y9248560D01*
Y8931060D01*
G01X5233880Y10832310D02*
Y10514810D01*
X5391350D01*
G01X5540890Y10578310D02*
X5564510Y10541260D01*
X5596000Y10520100D01*
X5631430Y10514810D01*
X5662930Y10520100D01*
X5694420Y10546550D01*
X5714100Y10578310D01*
X5718030Y10610060D01*
X5710160Y10647090D01*
X5682610Y10673560D01*
X5655050Y10684150D01*
X5619620D01*
G01X5655050D02*
X5678670Y10700020D01*
X5698350Y10726470D01*
X5706230Y10758220D01*
X5698350Y10789980D01*
X5678670Y10816430D01*
X5643240Y10832310D01*
X5607810Y10827020D01*
X5572380Y10805850D01*
G01X5942370Y10504230D02*
X5934500Y10509520D01*
Y10520100D01*
X5942370Y10525390D01*
X5950250Y10520100D01*
Y10509520D01*
X5942370Y10504230D01*
G01Y10647090D02*
X5934500Y10652390D01*
Y10662970D01*
X5942370Y10668260D01*
X5950250Y10662970D01*
Y10652390D01*
X5942370Y10647090D01*
G01X6493400Y10832310D02*
Y10514810D01*
X6650870D01*
G01X6800410Y10578310D02*
X6824030Y10541260D01*
X6855520Y10520100D01*
X6890950Y10514810D01*
X6922450Y10520100D01*
X6953940Y10546550D01*
X6973620Y10578310D01*
X6977550Y10610060D01*
X6969680Y10647090D01*
X6942130Y10673560D01*
X6914570Y10684150D01*
X6879140D01*
G01X6914570D02*
X6938190Y10700020D01*
X6957870Y10726470D01*
X6965750Y10758220D01*
X6957870Y10789980D01*
X6938190Y10816430D01*
X6902760Y10832310D01*
X6867330Y10827020D01*
X6831900Y10805850D01*
G01X7438040Y10514810D02*
Y10832310D01*
X7532520D01*
X7564010Y10816430D01*
X7587630Y10779390D01*
X7595510Y10737060D01*
X7587630Y10694730D01*
X7567950Y10662970D01*
X7532520Y10647090D01*
X7438040D01*
G01X7752920Y10832310D02*
Y10514810D01*
X7910390D01*
G01X8048120D02*
X8146530Y10832310D01*
X8244950Y10514810D01*
G01X8209520Y10625930D02*
X8083550D01*
G01X8370880Y10514810D02*
Y10832310D01*
X8551950Y10514810D01*
Y10832310D01*
G01X8855030Y10514810D02*
X8697560D01*
Y10832310D01*
X8855030D01*
G01X8792040Y10678860D02*
X8697560D01*
G01X9354880Y10620640D02*
X9457230D01*
G01X10122420Y10805850D02*
X10098800Y10821730D01*
X10071250Y10832310D01*
X10039750D01*
X10004320Y10816430D01*
X9976770Y10789980D01*
X9957080Y10758220D01*
X9941330Y10705310D01*
X9937400Y10657680D01*
X9945280Y10610060D01*
X9957080Y10578310D01*
X9980700Y10546550D01*
X10008260Y10525390D01*
X10035810Y10514810D01*
X10063370D01*
X10090930Y10525390D01*
X10114550Y10541260D01*
X10134230Y10562420D01*
G01X10350690Y10514810D02*
X10319200Y10520100D01*
X10291650Y10541260D01*
X10268030Y10573020D01*
X10252280Y10610060D01*
X10244410Y10652390D01*
Y10694730D01*
X10252280Y10737060D01*
X10268030Y10774100D01*
X10291650Y10805850D01*
X10319200Y10827020D01*
X10350690Y10832310D01*
X10382180Y10827020D01*
X10409740Y10805850D01*
X10433360Y10774100D01*
X10449110Y10737060D01*
X10456980Y10694730D01*
Y10652390D01*
X10449110Y10610060D01*
X10433360Y10573020D01*
X10409740Y10541260D01*
X10382180Y10520100D01*
X10350690Y10514810D01*
G01X10586840D02*
Y10832310D01*
X10681320D01*
X10712810Y10816430D01*
X10736430Y10779390D01*
X10744310Y10737060D01*
X10736430Y10694730D01*
X10716750Y10662970D01*
X10681320Y10647090D01*
X10586840D01*
G01X10901720Y10514810D02*
Y10832310D01*
X10996200D01*
X11027690Y10816430D01*
X11051310Y10779390D01*
X11059190Y10737060D01*
X11051310Y10694730D01*
X11031630Y10662970D01*
X10996200Y10647090D01*
X10901720D01*
G01X11374070Y10514810D02*
X11216600D01*
Y10832310D01*
X11374070D01*
G01X11311080Y10678860D02*
X11216600D01*
G01X11531480Y10514810D02*
Y10832310D01*
X11629900D01*
X11661390Y10816430D01*
X11681070Y10795270D01*
X11688950Y10752930D01*
X11681070Y10710600D01*
X11657450Y10684150D01*
X11629900Y10668260D01*
X11531480D01*
G01X11629900D02*
X11688950Y10514810D01*
G01X12239970Y10832310D02*
X12208480Y10821730D01*
X12184860Y10795270D01*
X12169120Y10763520D01*
X12157310Y10721180D01*
X12153370Y10673560D01*
X12157310Y10625930D01*
X12169120Y10583600D01*
X12184860Y10551840D01*
X12208480Y10525390D01*
X12239970Y10514810D01*
X12271460Y10525390D01*
X12295090Y10551840D01*
X12310830Y10583600D01*
X12322640Y10625930D01*
X12326580Y10673560D01*
X12322640Y10721180D01*
X12310830Y10763520D01*
X12295090Y10795270D01*
X12271460Y10821730D01*
X12239970Y10832310D01*
G01X12554850Y10504230D02*
X12546980Y10509520D01*
Y10520100D01*
X12554850Y10525390D01*
X12562730Y10520100D01*
Y10509520D01*
X12554850Y10504230D01*
G01X12869730Y10832310D02*
X12838240Y10821730D01*
X12814620Y10795270D01*
X12798880Y10763520D01*
X12787070Y10721180D01*
X12783130Y10673560D01*
X12787070Y10625930D01*
X12798880Y10583600D01*
X12814620Y10551840D01*
X12838240Y10525390D01*
X12869730Y10514810D01*
X12901220Y10525390D01*
X12924850Y10551840D01*
X12940590Y10583600D01*
X12952400Y10625930D01*
X12956340Y10673560D01*
X12952400Y10721180D01*
X12940590Y10763520D01*
X12924850Y10795270D01*
X12901220Y10821730D01*
X12869730Y10832310D01*
G01X13098010Y10578310D02*
X13121630Y10541260D01*
X13153120Y10520100D01*
X13188550Y10514810D01*
X13220050Y10520100D01*
X13251540Y10546550D01*
X13271220Y10578310D01*
X13275150Y10610060D01*
X13267280Y10647090D01*
X13239730Y10673560D01*
X13212170Y10684150D01*
X13176740D01*
G01X13212170D02*
X13235790Y10700020D01*
X13255470Y10726470D01*
X13263350Y10758220D01*
X13255470Y10789980D01*
X13235790Y10816430D01*
X13200360Y10832310D01*
X13164930Y10827020D01*
X13129500Y10805850D01*
G01X13412890Y10562420D02*
X13436510Y10535970D01*
X13464060Y10520100D01*
X13499490Y10514810D01*
X13534930Y10525390D01*
X13562480Y10546550D01*
X13582160Y10583600D01*
X13586100Y10625930D01*
X13578230Y10668260D01*
X13558540Y10694730D01*
X13530980Y10715890D01*
X13503430Y10721180D01*
X13475880Y10715890D01*
X13440450Y10694730D01*
X13452260Y10832310D01*
X13558540D01*
G01X14026900Y10514810D02*
Y10832310D01*
X14129250Y10567730D01*
X14231610Y10832310D01*
Y10514810D01*
G01X14341780D02*
Y10832310D01*
X14444130Y10567730D01*
X14546490Y10832310D01*
Y10514810D01*
G01X5855770Y9870730D02*
X6028980Y10103560D01*
G01X5942370Y10145890D02*
Y9828390D01*
G01X6028980Y9870730D02*
X5855770Y10103560D01*
G01X5824280Y9987140D02*
X6060470D01*
G01X6800410Y9881310D02*
Y10198810D01*
X6879140D01*
X6910630Y10182930D01*
X6934250Y10161770D01*
X6953940Y10130020D01*
X6969680Y10092970D01*
X6973620Y10040060D01*
X6969680Y9987140D01*
X6953940Y9950100D01*
X6934250Y9918340D01*
X6910630Y9897180D01*
X6879140Y9881310D01*
X6800410D01*
G01X7154660Y10198810D02*
X7249130D01*
G01X7201890D02*
Y9881310D01*
G01X7154660D02*
X7249130D01*
G01X7595510D02*
X7438040D01*
Y10198810D01*
X7595510D01*
G01X7532520Y10045360D02*
X7438040D01*
G01X7752920Y10198810D02*
Y9881310D01*
X7910390D01*
G01X8225270D02*
X8067800D01*
Y10198810D01*
X8225270D01*
G01X8162280Y10045360D02*
X8067800D01*
G01X8548020Y10172350D02*
X8524400Y10188230D01*
X8496850Y10198810D01*
X8465350D01*
X8429920Y10182930D01*
X8402370Y10156480D01*
X8382680Y10124720D01*
X8366930Y10071810D01*
X8363000Y10024180D01*
X8370880Y9976560D01*
X8382680Y9944810D01*
X8406300Y9913050D01*
X8433860Y9891890D01*
X8461410Y9881310D01*
X8488970D01*
X8516530Y9891890D01*
X8540150Y9907760D01*
X8559830Y9928920D01*
G01X8776290Y10198810D02*
Y9881310D01*
G01X8685760Y10198810D02*
X8866830D01*
G01X9012440Y9881310D02*
Y10198810D01*
X9110860D01*
X9142350Y10182930D01*
X9162030Y10161770D01*
X9169910Y10119430D01*
X9162030Y10077100D01*
X9138410Y10050650D01*
X9110860Y10034760D01*
X9012440D01*
G01X9110860D02*
X9169910Y9881310D01*
G01X9358820Y10198810D02*
X9453290D01*
G01X9406050D02*
Y9881310D01*
G01X9358820D02*
X9453290D01*
G01X9807540Y10172350D02*
X9783920Y10188230D01*
X9756370Y10198810D01*
X9724870D01*
X9689440Y10182930D01*
X9661890Y10156480D01*
X9642200Y10124720D01*
X9626450Y10071810D01*
X9622520Y10024180D01*
X9630400Y9976560D01*
X9642200Y9944810D01*
X9665820Y9913050D01*
X9693380Y9891890D01*
X9720930Y9881310D01*
X9748490D01*
X9776050Y9891890D01*
X9799670Y9907760D01*
X9819350Y9928920D01*
G01X10299520Y9987140D02*
X10401870D01*
G01X10905660Y9881310D02*
Y10198810D01*
X11055250D01*
G01X11000140Y10045360D02*
X10905660D01*
G01X11216600Y9881310D02*
Y10198810D01*
X11315020D01*
X11346510Y10182930D01*
X11366190Y10161770D01*
X11374070Y10119430D01*
X11366190Y10077100D01*
X11342570Y10050650D01*
X11315020Y10034760D01*
X11216600D01*
G01X11315020D02*
X11374070Y9881310D01*
G01X11559040Y9987140D02*
X11661390D01*
G01X11972330Y9881310D02*
Y10198810D01*
X11826680Y9971270D01*
X12023510D01*
G01X12554850Y10198810D02*
X12523360Y10188230D01*
X12499740Y10161770D01*
X12484000Y10130020D01*
X12472190Y10087680D01*
X12468250Y10040060D01*
X12472190Y9992430D01*
X12484000Y9950100D01*
X12499740Y9918340D01*
X12523360Y9891890D01*
X12554850Y9881310D01*
X12586340Y9891890D01*
X12609970Y9918340D01*
X12625710Y9950100D01*
X12637520Y9992430D01*
X12641460Y10040060D01*
X12637520Y10087680D01*
X12625710Y10130020D01*
X12609970Y10161770D01*
X12586340Y10188230D01*
X12554850Y10198810D01*
G01X12869730Y9870730D02*
X12861860Y9876020D01*
Y9886600D01*
X12869730Y9891890D01*
X12877610Y9886600D01*
Y9876020D01*
X12869730Y9870730D01*
G01X13184610Y9881310D02*
Y10198810D01*
X13137380Y10135310D01*
G01Y9881310D02*
X13231850D01*
G01X13491620D02*
X13499490Y9950100D01*
X13511310Y10008300D01*
X13527050Y10061230D01*
X13546730Y10119430D01*
X13578230Y10198810D01*
X13420760D01*
G01X13727770Y9928920D02*
X13751390Y9902470D01*
X13778940Y9886600D01*
X13814370Y9881310D01*
X13849810Y9891890D01*
X13877360Y9913050D01*
X13897040Y9950100D01*
X13900980Y9992430D01*
X13893110Y10034760D01*
X13873420Y10061230D01*
X13845860Y10082390D01*
X13818310Y10087680D01*
X13790760Y10082390D01*
X13755330Y10061230D01*
X13767140Y10198810D01*
X13873420D01*
G01X14341780Y9881310D02*
Y10198810D01*
X14444130Y9934230D01*
X14546490Y10198810D01*
Y9881310D01*
G01X14656660D02*
Y10198810D01*
X14759010Y9934230D01*
X14861370Y10198810D01*
Y9881310D01*
G01X5233880Y13187330D02*
Y12869830D01*
X5391350D01*
G01X5552700Y13134410D02*
X5576320Y13166160D01*
X5603880Y13182040D01*
X5635370Y13187330D01*
X5674730Y13176750D01*
X5702290Y13150290D01*
X5710160Y13118540D01*
X5706230Y13086780D01*
X5690480Y13060330D01*
X5611750Y13007410D01*
X5576320Y12970370D01*
X5552700Y12917440D01*
X5544830Y12869830D01*
X5710160D01*
G01X5942370Y12859250D02*
X5934500Y12864540D01*
Y12875120D01*
X5942370Y12880410D01*
X5950250Y12875120D01*
Y12864540D01*
X5942370Y12859250D01*
G01Y13002110D02*
X5934500Y13007410D01*
Y13017990D01*
X5942370Y13023280D01*
X5950250Y13017990D01*
Y13007410D01*
X5942370Y13002110D01*
G01X6493400Y13187330D02*
Y12869830D01*
X6650870D01*
G01X6812220Y13134410D02*
X6835840Y13166160D01*
X6863400Y13182040D01*
X6894890Y13187330D01*
X6934250Y13176750D01*
X6961810Y13150290D01*
X6969680Y13118540D01*
X6965750Y13086780D01*
X6950000Y13060330D01*
X6871270Y13007410D01*
X6835840Y12970370D01*
X6812220Y12917440D01*
X6804350Y12869830D01*
X6969680D01*
G01X7438040D02*
Y13187330D01*
X7532520D01*
X7564010Y13171450D01*
X7587630Y13134410D01*
X7595510Y13092080D01*
X7587630Y13049750D01*
X7567950Y13017990D01*
X7532520Y13002110D01*
X7438040D01*
G01X7752920Y13187330D02*
Y12869830D01*
X7910390D01*
G01X8048120D02*
X8146530Y13187330D01*
X8244950Y12869830D01*
G01X8209520Y12980950D02*
X8083550D01*
G01X8370880Y12869830D02*
Y13187330D01*
X8551950Y12869830D01*
Y13187330D01*
G01X8855030Y12869830D02*
X8697560D01*
Y13187330D01*
X8855030D01*
G01X8792040Y13033880D02*
X8697560D01*
G01X9354880Y12975660D02*
X9457230D01*
G01X10122420Y13160870D02*
X10098800Y13176750D01*
X10071250Y13187330D01*
X10039750D01*
X10004320Y13171450D01*
X9976770Y13145000D01*
X9957080Y13113240D01*
X9941330Y13060330D01*
X9937400Y13012700D01*
X9945280Y12965080D01*
X9957080Y12933330D01*
X9980700Y12901570D01*
X10008260Y12880410D01*
X10035810Y12869830D01*
X10063370D01*
X10090930Y12880410D01*
X10114550Y12896280D01*
X10134230Y12917440D01*
G01X10350690Y12869830D02*
X10319200Y12875120D01*
X10291650Y12896280D01*
X10268030Y12928040D01*
X10252280Y12965080D01*
X10244410Y13007410D01*
Y13049750D01*
X10252280Y13092080D01*
X10268030Y13129120D01*
X10291650Y13160870D01*
X10319200Y13182040D01*
X10350690Y13187330D01*
X10382180Y13182040D01*
X10409740Y13160870D01*
X10433360Y13129120D01*
X10449110Y13092080D01*
X10456980Y13049750D01*
Y13007410D01*
X10449110Y12965080D01*
X10433360Y12928040D01*
X10409740Y12896280D01*
X10382180Y12875120D01*
X10350690Y12869830D01*
G01X10586840D02*
Y13187330D01*
X10681320D01*
X10712810Y13171450D01*
X10736430Y13134410D01*
X10744310Y13092080D01*
X10736430Y13049750D01*
X10716750Y13017990D01*
X10681320Y13002110D01*
X10586840D01*
G01X10901720Y12869830D02*
Y13187330D01*
X10996200D01*
X11027690Y13171450D01*
X11051310Y13134410D01*
X11059190Y13092080D01*
X11051310Y13049750D01*
X11031630Y13017990D01*
X10996200Y13002110D01*
X10901720D01*
G01X11374070Y12869830D02*
X11216600D01*
Y13187330D01*
X11374070D01*
G01X11311080Y13033880D02*
X11216600D01*
G01X11531480Y12869830D02*
Y13187330D01*
X11629900D01*
X11661390Y13171450D01*
X11681070Y13150290D01*
X11688950Y13107950D01*
X11681070Y13065620D01*
X11657450Y13039170D01*
X11629900Y13023280D01*
X11531480D01*
G01X11629900D02*
X11688950Y12869830D01*
G01X12239970Y13187330D02*
X12208480Y13176750D01*
X12184860Y13150290D01*
X12169120Y13118540D01*
X12157310Y13076200D01*
X12153370Y13028580D01*
X12157310Y12980950D01*
X12169120Y12938620D01*
X12184860Y12906860D01*
X12208480Y12880410D01*
X12239970Y12869830D01*
X12271460Y12880410D01*
X12295090Y12906860D01*
X12310830Y12938620D01*
X12322640Y12980950D01*
X12326580Y13028580D01*
X12322640Y13076200D01*
X12310830Y13118540D01*
X12295090Y13150290D01*
X12271460Y13176750D01*
X12239970Y13187330D01*
G01X12554850Y12859250D02*
X12546980Y12864540D01*
Y12875120D01*
X12554850Y12880410D01*
X12562730Y12875120D01*
Y12864540D01*
X12554850Y12859250D01*
G01X12869730Y13187330D02*
X12838240Y13176750D01*
X12814620Y13150290D01*
X12798880Y13118540D01*
X12787070Y13076200D01*
X12783130Y13028580D01*
X12787070Y12980950D01*
X12798880Y12938620D01*
X12814620Y12906860D01*
X12838240Y12880410D01*
X12869730Y12869830D01*
X12901220Y12880410D01*
X12924850Y12906860D01*
X12940590Y12938620D01*
X12952400Y12980950D01*
X12956340Y13028580D01*
X12952400Y13076200D01*
X12940590Y13118540D01*
X12924850Y13150290D01*
X12901220Y13176750D01*
X12869730Y13187330D01*
G01X13098010Y12933330D02*
X13121630Y12896280D01*
X13153120Y12875120D01*
X13188550Y12869830D01*
X13220050Y12875120D01*
X13251540Y12901570D01*
X13271220Y12933330D01*
X13275150Y12965080D01*
X13267280Y13002110D01*
X13239730Y13028580D01*
X13212170Y13039170D01*
X13176740D01*
G01X13212170D02*
X13235790Y13055040D01*
X13255470Y13081490D01*
X13263350Y13113240D01*
X13255470Y13145000D01*
X13235790Y13171450D01*
X13200360Y13187330D01*
X13164930Y13182040D01*
X13129500Y13160870D01*
G01X13412890Y12917440D02*
X13436510Y12890990D01*
X13464060Y12875120D01*
X13499490Y12869830D01*
X13534930Y12880410D01*
X13562480Y12901570D01*
X13582160Y12938620D01*
X13586100Y12980950D01*
X13578230Y13023280D01*
X13558540Y13049750D01*
X13530980Y13070910D01*
X13503430Y13076200D01*
X13475880Y13070910D01*
X13440450Y13049750D01*
X13452260Y13187330D01*
X13558540D01*
G01X14026900Y12869830D02*
Y13187330D01*
X14129250Y12922750D01*
X14231610Y13187330D01*
Y12869830D01*
G01X14341780D02*
Y13187330D01*
X14444130Y12922750D01*
X14546490Y13187330D01*
Y12869830D01*
G01X5855770Y11841610D02*
X6028980Y12074440D01*
G01X5942370Y12116770D02*
Y11799270D01*
G01X6028980Y11841610D02*
X5855770Y12074440D01*
G01X5824280Y11958020D02*
X6060470D01*
G01X6800410Y11852190D02*
Y12169690D01*
X6879140D01*
X6910630Y12153810D01*
X6934250Y12132650D01*
X6953940Y12100900D01*
X6969680Y12063850D01*
X6973620Y12010940D01*
X6969680Y11958020D01*
X6953940Y11920980D01*
X6934250Y11889220D01*
X6910630Y11868060D01*
X6879140Y11852190D01*
X6800410D01*
G01X7154660Y12169690D02*
X7249130D01*
G01X7201890D02*
Y11852190D01*
G01X7154660D02*
X7249130D01*
G01X7595510D02*
X7438040D01*
Y12169690D01*
X7595510D01*
G01X7532520Y12016240D02*
X7438040D01*
G01X7752920Y12169690D02*
Y11852190D01*
X7910390D01*
G01X8225270D02*
X8067800D01*
Y12169690D01*
X8225270D01*
G01X8162280Y12016240D02*
X8067800D01*
G01X8548020Y12143230D02*
X8524400Y12159110D01*
X8496850Y12169690D01*
X8465350D01*
X8429920Y12153810D01*
X8402370Y12127360D01*
X8382680Y12095600D01*
X8366930Y12042690D01*
X8363000Y11995060D01*
X8370880Y11947440D01*
X8382680Y11915690D01*
X8406300Y11883930D01*
X8433860Y11862770D01*
X8461410Y11852190D01*
X8488970D01*
X8516530Y11862770D01*
X8540150Y11878640D01*
X8559830Y11899800D01*
G01X8776290Y12169690D02*
Y11852190D01*
G01X8685760Y12169690D02*
X8866830D01*
G01X9012440Y11852190D02*
Y12169690D01*
X9110860D01*
X9142350Y12153810D01*
X9162030Y12132650D01*
X9169910Y12090310D01*
X9162030Y12047980D01*
X9138410Y12021530D01*
X9110860Y12005640D01*
X9012440D01*
G01X9110860D02*
X9169910Y11852190D01*
G01X9358820Y12169690D02*
X9453290D01*
G01X9406050D02*
Y11852190D01*
G01X9358820D02*
X9453290D01*
G01X9807540Y12143230D02*
X9783920Y12159110D01*
X9756370Y12169690D01*
X9724870D01*
X9689440Y12153810D01*
X9661890Y12127360D01*
X9642200Y12095600D01*
X9626450Y12042690D01*
X9622520Y11995060D01*
X9630400Y11947440D01*
X9642200Y11915690D01*
X9665820Y11883930D01*
X9693380Y11862770D01*
X9720930Y11852190D01*
X9748490D01*
X9776050Y11862770D01*
X9799670Y11878640D01*
X9819350Y11899800D01*
G01X10299520Y11958020D02*
X10401870D01*
G01X10905660Y11852190D02*
Y12169690D01*
X11055250D01*
G01X11000140Y12016240D02*
X10905660D01*
G01X11216600Y11852190D02*
Y12169690D01*
X11315020D01*
X11346510Y12153810D01*
X11366190Y12132650D01*
X11374070Y12090310D01*
X11366190Y12047980D01*
X11342570Y12021530D01*
X11315020Y12005640D01*
X11216600D01*
G01X11315020D02*
X11374070Y11852190D01*
G01X11559040Y11958020D02*
X11661390D01*
G01X11972330Y11852190D02*
Y12169690D01*
X11826680Y11942150D01*
X12023510D01*
G01X12554850Y11852190D02*
Y12169690D01*
X12507620Y12106190D01*
G01Y11852190D02*
X12602090D01*
G01X12869730Y11841610D02*
X12861860Y11846900D01*
Y11857480D01*
X12869730Y11862770D01*
X12877610Y11857480D01*
Y11846900D01*
X12869730Y11841610D01*
G01X13184610Y12169690D02*
X13153120Y12159110D01*
X13129500Y12132650D01*
X13113760Y12100900D01*
X13101950Y12058560D01*
X13098010Y12010940D01*
X13101950Y11963310D01*
X13113760Y11920980D01*
X13129500Y11889220D01*
X13153120Y11862770D01*
X13184610Y11852190D01*
X13216100Y11862770D01*
X13239730Y11889220D01*
X13255470Y11920980D01*
X13267280Y11963310D01*
X13271220Y12010940D01*
X13267280Y12058560D01*
X13255470Y12100900D01*
X13239730Y12132650D01*
X13216100Y12159110D01*
X13184610Y12169690D01*
G01X13499490Y11852190D02*
Y12169690D01*
X13452260Y12106190D01*
G01Y11852190D02*
X13546730D01*
G01X14026900D02*
Y12169690D01*
X14129250Y11905110D01*
X14231610Y12169690D01*
Y11852190D01*
G01X14341780D02*
Y12169690D01*
X14444130Y11905110D01*
X14546490Y12169690D01*
Y11852190D01*
G01X5855770Y14445240D02*
X6028980Y14678070D01*
G01X5942370Y14720400D02*
Y14402900D01*
G01X6028980Y14445240D02*
X5855770Y14678070D01*
G01X5824280Y14561650D02*
X6060470D01*
G01X6804350Y14498140D02*
X6835840Y14471690D01*
X6871270Y14455820D01*
X6902760D01*
X6934250Y14471690D01*
X6957870Y14498140D01*
X6969680Y14535200D01*
X6961810Y14572230D01*
X6942130Y14603980D01*
X6906700Y14625160D01*
X6859460Y14635740D01*
X6831900Y14656900D01*
X6820090Y14693940D01*
X6827970Y14730990D01*
X6847650Y14757440D01*
X6875200Y14773320D01*
X6902760D01*
X6930320Y14762740D01*
X6953940Y14736280D01*
G01X7115290Y14773320D02*
Y14545780D01*
X7131040Y14498140D01*
X7162530Y14466400D01*
X7201890Y14455820D01*
X7241260Y14466400D01*
X7272750Y14498140D01*
X7288500Y14545780D01*
Y14773320D01*
G01X7438040Y14455820D02*
Y14773320D01*
X7536460D01*
X7567950Y14757440D01*
X7587630Y14736280D01*
X7595510Y14693940D01*
X7587630Y14651610D01*
X7564010Y14625160D01*
X7536460Y14609270D01*
X7438040D01*
G01X7536460D02*
X7595510Y14455820D01*
G01X7756860D02*
Y14773320D01*
X7906450D01*
G01X7851340Y14619870D02*
X7756860D01*
G01X8048120Y14455820D02*
X8146530Y14773320D01*
X8244950Y14455820D01*
G01X8209520Y14566940D02*
X8083550D01*
G01X8548020Y14746860D02*
X8524400Y14762740D01*
X8496850Y14773320D01*
X8465350D01*
X8429920Y14757440D01*
X8402370Y14730990D01*
X8382680Y14699230D01*
X8366930Y14646320D01*
X8363000Y14598690D01*
X8370880Y14551070D01*
X8382680Y14519320D01*
X8406300Y14487560D01*
X8433860Y14466400D01*
X8461410Y14455820D01*
X8488970D01*
X8516530Y14466400D01*
X8540150Y14482270D01*
X8559830Y14503430D01*
G01X8855030Y14455820D02*
X8697560D01*
Y14773320D01*
X8855030D01*
G01X8792040Y14619870D02*
X8697560D01*
G01X9354880Y14561650D02*
X9457230D01*
G01X9937400Y14455820D02*
X10035810Y14773320D01*
X10134230Y14455820D01*
G01X10098800Y14566940D02*
X9972830D01*
G01X10303460Y14773320D02*
X10397930D01*
G01X10350690D02*
Y14455820D01*
G01X10303460D02*
X10397930D01*
G01X10586840D02*
Y14773320D01*
X10685260D01*
X10716750Y14757440D01*
X10736430Y14736280D01*
X10744310Y14693940D01*
X10736430Y14651610D01*
X10712810Y14625160D01*
X10685260Y14609270D01*
X10586840D01*
G01X10685260D02*
X10744310Y14455820D01*
G01X11295330Y14773320D02*
X11263840Y14762740D01*
X11240220Y14736280D01*
X11224480Y14704530D01*
X11212670Y14662190D01*
X11208730Y14614570D01*
X11212670Y14566940D01*
X11224480Y14524610D01*
X11240220Y14492850D01*
X11263840Y14466400D01*
X11295330Y14455820D01*
X11326820Y14466400D01*
X11350450Y14492850D01*
X11366190Y14524610D01*
X11378000Y14566940D01*
X11381940Y14614570D01*
X11378000Y14662190D01*
X11366190Y14704530D01*
X11350450Y14736280D01*
X11326820Y14762740D01*
X11295330Y14773320D01*
G01X11822740Y14455820D02*
Y14773320D01*
X11925090Y14508740D01*
X12027450Y14773320D01*
Y14455820D01*
G01X12137620D02*
Y14773320D01*
X12239970Y14508740D01*
X12342330Y14773320D01*
Y14455820D01*
G01X5233880Y14244160D02*
Y13926660D01*
X5391350D01*
G01X5627490D02*
Y14244160D01*
X5580260Y14180660D01*
G01Y13926660D02*
X5674730D01*
G01X5942370Y13916080D02*
X5934500Y13921370D01*
Y13931950D01*
X5942370Y13937240D01*
X5950250Y13931950D01*
Y13921370D01*
X5942370Y13916080D01*
G01Y14058940D02*
X5934500Y14064240D01*
Y14074820D01*
X5942370Y14080110D01*
X5950250Y14074820D01*
Y14064240D01*
X5942370Y14058940D01*
G01X6572130Y14244160D02*
Y13926660D01*
G01X6481600Y14244160D02*
X6662670D01*
G01X6887010Y13926660D02*
X6855520Y13931950D01*
X6827970Y13953110D01*
X6804350Y13984870D01*
X6788600Y14021910D01*
X6780730Y14064240D01*
Y14106580D01*
X6788600Y14148910D01*
X6804350Y14185950D01*
X6827970Y14217700D01*
X6855520Y14238870D01*
X6887010Y14244160D01*
X6918500Y14238870D01*
X6946060Y14217700D01*
X6969680Y14185950D01*
X6985430Y14148910D01*
X6993300Y14106580D01*
Y14064240D01*
X6985430Y14021910D01*
X6969680Y13984870D01*
X6946060Y13953110D01*
X6918500Y13931950D01*
X6887010Y13926660D01*
G01X7123160D02*
Y14244160D01*
X7217640D01*
X7249130Y14228280D01*
X7272750Y14191240D01*
X7280630Y14148910D01*
X7272750Y14106580D01*
X7253070Y14074820D01*
X7217640Y14058940D01*
X7123160D01*
G01X7918260Y14217700D02*
X7894640Y14233580D01*
X7867090Y14244160D01*
X7835590D01*
X7800160Y14228280D01*
X7772610Y14201830D01*
X7752920Y14170070D01*
X7737170Y14117160D01*
X7733240Y14069530D01*
X7741120Y14021910D01*
X7752920Y13990160D01*
X7776540Y13958400D01*
X7804100Y13937240D01*
X7831650Y13926660D01*
X7859210D01*
X7886770Y13937240D01*
X7910390Y13953110D01*
X7930070Y13974270D01*
G01X8146530Y13926660D02*
X8115040Y13931950D01*
X8087490Y13953110D01*
X8063870Y13984870D01*
X8048120Y14021910D01*
X8040250Y14064240D01*
Y14106580D01*
X8048120Y14148910D01*
X8063870Y14185950D01*
X8087490Y14217700D01*
X8115040Y14238870D01*
X8146530Y14244160D01*
X8178020Y14238870D01*
X8205580Y14217700D01*
X8229200Y14185950D01*
X8244950Y14148910D01*
X8252820Y14106580D01*
Y14064240D01*
X8244950Y14021910D01*
X8229200Y13984870D01*
X8205580Y13953110D01*
X8178020Y13931950D01*
X8146530Y13926660D01*
G01X8370880D02*
Y14244160D01*
X8551950Y13926660D01*
Y14244160D01*
G01X8689690Y13926660D02*
Y14244160D01*
X8768420D01*
X8799910Y14228280D01*
X8823530Y14207120D01*
X8843220Y14175370D01*
X8858960Y14138320D01*
X8862900Y14085410D01*
X8858960Y14032490D01*
X8843220Y13995450D01*
X8823530Y13963690D01*
X8799910Y13942530D01*
X8768420Y13926660D01*
X8689690D01*
G01X9004570Y14244160D02*
Y14016620D01*
X9020320Y13968980D01*
X9051810Y13937240D01*
X9091170Y13926660D01*
X9130540Y13937240D01*
X9162030Y13968980D01*
X9177780Y14016620D01*
Y14244160D01*
G01X9492660Y14217700D02*
X9469040Y14233580D01*
X9441490Y14244160D01*
X9409990D01*
X9374560Y14228280D01*
X9347010Y14201830D01*
X9327320Y14170070D01*
X9311570Y14117160D01*
X9307640Y14069530D01*
X9315520Y14021910D01*
X9327320Y13990160D01*
X9350940Y13958400D01*
X9378500Y13937240D01*
X9406050Y13926660D01*
X9433610D01*
X9461170Y13937240D01*
X9484790Y13953110D01*
X9504470Y13974270D01*
G01X9720930Y14244160D02*
Y13926660D01*
G01X9630400Y14244160D02*
X9811470D01*
G01X10035810Y13926660D02*
X10004320Y13931950D01*
X9976770Y13953110D01*
X9953150Y13984870D01*
X9937400Y14021910D01*
X9929530Y14064240D01*
Y14106580D01*
X9937400Y14148910D01*
X9953150Y14185950D01*
X9976770Y14217700D01*
X10004320Y14238870D01*
X10035810Y14244160D01*
X10067300Y14238870D01*
X10094860Y14217700D01*
X10118480Y14185950D01*
X10134230Y14148910D01*
X10142100Y14106580D01*
Y14064240D01*
X10134230Y14021910D01*
X10118480Y13984870D01*
X10094860Y13953110D01*
X10067300Y13931950D01*
X10035810Y13926660D01*
G01X10271960D02*
Y14244160D01*
X10370380D01*
X10401870Y14228280D01*
X10421550Y14207120D01*
X10429430Y14164780D01*
X10421550Y14122450D01*
X10397930Y14096000D01*
X10370380Y14080110D01*
X10271960D01*
G01X10370380D02*
X10429430Y13926660D01*
G01X10929280Y14032490D02*
X11031630D01*
G01X11696820Y14217700D02*
X11673200Y14233580D01*
X11645650Y14244160D01*
X11614150D01*
X11578720Y14228280D01*
X11551170Y14201830D01*
X11531480Y14170070D01*
X11515730Y14117160D01*
X11511800Y14069530D01*
X11519680Y14021910D01*
X11531480Y13990160D01*
X11555100Y13958400D01*
X11582660Y13937240D01*
X11610210Y13926660D01*
X11637770D01*
X11665330Y13937240D01*
X11688950Y13953110D01*
X11708630Y13974270D01*
G01X11925090Y13926660D02*
X11893600Y13931950D01*
X11866050Y13953110D01*
X11842430Y13984870D01*
X11826680Y14021910D01*
X11818810Y14064240D01*
Y14106580D01*
X11826680Y14148910D01*
X11842430Y14185950D01*
X11866050Y14217700D01*
X11893600Y14238870D01*
X11925090Y14244160D01*
X11956580Y14238870D01*
X11984140Y14217700D01*
X12007760Y14185950D01*
X12023510Y14148910D01*
X12031380Y14106580D01*
Y14064240D01*
X12023510Y14021910D01*
X12007760Y13984870D01*
X11984140Y13953110D01*
X11956580Y13931950D01*
X11925090Y13926660D01*
G01X12161240D02*
Y14244160D01*
X12255720D01*
X12287210Y14228280D01*
X12310830Y14191240D01*
X12318710Y14148910D01*
X12310830Y14106580D01*
X12291150Y14074820D01*
X12255720Y14058940D01*
X12161240D01*
G01X12476120Y13926660D02*
Y14244160D01*
X12570600D01*
X12602090Y14228280D01*
X12625710Y14191240D01*
X12633590Y14148910D01*
X12625710Y14106580D01*
X12606030Y14074820D01*
X12570600Y14058940D01*
X12476120D01*
G01X12948470Y13926660D02*
X12791000D01*
Y14244160D01*
X12948470D01*
G01X12885480Y14090710D02*
X12791000D01*
G01X13105880Y13926660D02*
Y14244160D01*
X13204300D01*
X13235790Y14228280D01*
X13255470Y14207120D01*
X13263350Y14164780D01*
X13255470Y14122450D01*
X13231850Y14096000D01*
X13204300Y14080110D01*
X13105880D01*
G01X13204300D02*
X13263350Y13926660D01*
G01X13814370Y14244160D02*
X13782880Y14233580D01*
X13759260Y14207120D01*
X13743520Y14175370D01*
X13731710Y14133030D01*
X13727770Y14085410D01*
X13731710Y14037780D01*
X13743520Y13995450D01*
X13759260Y13963690D01*
X13782880Y13937240D01*
X13814370Y13926660D01*
X13845860Y13937240D01*
X13869490Y13963690D01*
X13885230Y13995450D01*
X13897040Y14037780D01*
X13900980Y14085410D01*
X13897040Y14133030D01*
X13885230Y14175370D01*
X13869490Y14207120D01*
X13845860Y14233580D01*
X13814370Y14244160D01*
G01X14129250Y13916080D02*
X14121380Y13921370D01*
Y13931950D01*
X14129250Y13937240D01*
X14137130Y13931950D01*
Y13921370D01*
X14129250Y13916080D01*
G01X14444130Y14244160D02*
X14412640Y14233580D01*
X14389020Y14207120D01*
X14373280Y14175370D01*
X14361470Y14133030D01*
X14357530Y14085410D01*
X14361470Y14037780D01*
X14373280Y13995450D01*
X14389020Y13963690D01*
X14412640Y13937240D01*
X14444130Y13926660D01*
X14475620Y13937240D01*
X14499250Y13963690D01*
X14514990Y13995450D01*
X14526800Y14037780D01*
X14530740Y14085410D01*
X14526800Y14133030D01*
X14514990Y14175370D01*
X14499250Y14207120D01*
X14475620Y14233580D01*
X14444130Y14244160D01*
G01X14672410Y13990160D02*
X14696030Y13953110D01*
X14727520Y13931950D01*
X14762950Y13926660D01*
X14794450Y13931950D01*
X14825940Y13958400D01*
X14845620Y13990160D01*
X14849550Y14021910D01*
X14841680Y14058940D01*
X14814130Y14085410D01*
X14786570Y14096000D01*
X14751140D01*
G01X14786570D02*
X14810190Y14111870D01*
X14829870Y14138320D01*
X14837750Y14170070D01*
X14829870Y14201830D01*
X14810190Y14228280D01*
X14774760Y14244160D01*
X14739330Y14238870D01*
X14703900Y14217700D01*
G01X14987290Y13974270D02*
X15010910Y13947820D01*
X15038460Y13931950D01*
X15073890Y13926660D01*
X15109330Y13937240D01*
X15136880Y13958400D01*
X15156560Y13995450D01*
X15160500Y14037780D01*
X15152630Y14080110D01*
X15132940Y14106580D01*
X15105380Y14127740D01*
X15077830Y14133030D01*
X15050280Y14127740D01*
X15014850Y14106580D01*
X15026660Y14244160D01*
X15132940D01*
G01X15601300Y13926660D02*
Y14244160D01*
X15703650Y13979580D01*
X15806010Y14244160D01*
Y13926660D01*
G01X15916180D02*
Y14244160D01*
X16018530Y13979580D01*
X16120890Y14244160D01*
Y13926660D01*
G01X5855770Y13282580D02*
X6028980Y13515410D01*
G01X5942370Y13557740D02*
Y13240240D01*
G01X6028980Y13282580D02*
X5855770Y13515410D01*
G01X5824280Y13398990D02*
X6060470D01*
G01X6800410Y13293160D02*
Y13610660D01*
X6879140D01*
X6910630Y13594780D01*
X6934250Y13573620D01*
X6953940Y13541870D01*
X6969680Y13504820D01*
X6973620Y13451910D01*
X6969680Y13398990D01*
X6953940Y13361950D01*
X6934250Y13330190D01*
X6910630Y13309030D01*
X6879140Y13293160D01*
X6800410D01*
G01X7154660Y13610660D02*
X7249130D01*
G01X7201890D02*
Y13293160D01*
G01X7154660D02*
X7249130D01*
G01X7595510D02*
X7438040D01*
Y13610660D01*
X7595510D01*
G01X7532520Y13457210D02*
X7438040D01*
G01X7752920Y13610660D02*
Y13293160D01*
X7910390D01*
G01X8225270D02*
X8067800D01*
Y13610660D01*
X8225270D01*
G01X8162280Y13457210D02*
X8067800D01*
G01X8548020Y13584200D02*
X8524400Y13600080D01*
X8496850Y13610660D01*
X8465350D01*
X8429920Y13594780D01*
X8402370Y13568330D01*
X8382680Y13536570D01*
X8366930Y13483660D01*
X8363000Y13436030D01*
X8370880Y13388410D01*
X8382680Y13356660D01*
X8406300Y13324900D01*
X8433860Y13303740D01*
X8461410Y13293160D01*
X8488970D01*
X8516530Y13303740D01*
X8540150Y13319610D01*
X8559830Y13340770D01*
G01X8776290Y13610660D02*
Y13293160D01*
G01X8685760Y13610660D02*
X8866830D01*
G01X9012440Y13293160D02*
Y13610660D01*
X9110860D01*
X9142350Y13594780D01*
X9162030Y13573620D01*
X9169910Y13531280D01*
X9162030Y13488950D01*
X9138410Y13462500D01*
X9110860Y13446610D01*
X9012440D01*
G01X9110860D02*
X9169910Y13293160D01*
G01X9358820Y13610660D02*
X9453290D01*
G01X9406050D02*
Y13293160D01*
G01X9358820D02*
X9453290D01*
G01X9807540Y13584200D02*
X9783920Y13600080D01*
X9756370Y13610660D01*
X9724870D01*
X9689440Y13594780D01*
X9661890Y13568330D01*
X9642200Y13536570D01*
X9626450Y13483660D01*
X9622520Y13436030D01*
X9630400Y13388410D01*
X9642200Y13356660D01*
X9665820Y13324900D01*
X9693380Y13303740D01*
X9720930Y13293160D01*
X9748490D01*
X9776050Y13303740D01*
X9799670Y13319610D01*
X9819350Y13340770D01*
G01X10299520Y13398990D02*
X10401870D01*
G01X10905660Y13293160D02*
Y13610660D01*
X11055250D01*
G01X11000140Y13457210D02*
X10905660D01*
G01X11216600Y13293160D02*
Y13610660D01*
X11315020D01*
X11346510Y13594780D01*
X11366190Y13573620D01*
X11374070Y13531280D01*
X11366190Y13488950D01*
X11342570Y13462500D01*
X11315020Y13446610D01*
X11216600D01*
G01X11315020D02*
X11374070Y13293160D01*
G01X11559040Y13398990D02*
X11661390D01*
G01X11972330Y13293160D02*
Y13610660D01*
X11826680Y13383120D01*
X12023510D01*
G01X12554850Y13610660D02*
X12523360Y13600080D01*
X12499740Y13573620D01*
X12484000Y13541870D01*
X12472190Y13499530D01*
X12468250Y13451910D01*
X12472190Y13404280D01*
X12484000Y13361950D01*
X12499740Y13330190D01*
X12523360Y13303740D01*
X12554850Y13293160D01*
X12586340Y13303740D01*
X12609970Y13330190D01*
X12625710Y13361950D01*
X12637520Y13404280D01*
X12641460Y13451910D01*
X12637520Y13499530D01*
X12625710Y13541870D01*
X12609970Y13573620D01*
X12586340Y13600080D01*
X12554850Y13610660D01*
G01X12869730Y13282580D02*
X12861860Y13287870D01*
Y13298450D01*
X12869730Y13303740D01*
X12877610Y13298450D01*
Y13287870D01*
X12869730Y13282580D01*
G01X13184610Y13293160D02*
Y13610660D01*
X13137380Y13547160D01*
G01Y13293160D02*
X13231850D01*
G01X13491620D02*
X13499490Y13361950D01*
X13511310Y13420150D01*
X13527050Y13473080D01*
X13546730Y13531280D01*
X13578230Y13610660D01*
X13420760D01*
G01X13727770Y13340770D02*
X13751390Y13314320D01*
X13778940Y13298450D01*
X13814370Y13293160D01*
X13849810Y13303740D01*
X13877360Y13324900D01*
X13897040Y13361950D01*
X13900980Y13404280D01*
X13893110Y13446610D01*
X13873420Y13473080D01*
X13845860Y13494240D01*
X13818310Y13499530D01*
X13790760Y13494240D01*
X13755330Y13473080D01*
X13767140Y13610660D01*
X13873420D01*
G01X14341780Y13293160D02*
Y13610660D01*
X14444130Y13346080D01*
X14546490Y13610660D01*
Y13293160D01*
G01X14656660D02*
Y13610660D01*
X14759010Y13346080D01*
X14861370Y13610660D01*
Y13293160D01*
G01X7157000Y5930550D02*
X7255410Y6248050D01*
X7353830Y5930550D01*
G01X7318400Y6041670D02*
X7192430D01*
G01X7491560Y6248050D02*
Y5930550D01*
X7649030D01*
G01X7806440Y6248050D02*
Y5930550D01*
X7963910D01*
G01X8428330Y6248050D02*
Y6020510D01*
X8444080Y5972870D01*
X8475570Y5941130D01*
X8514930Y5930550D01*
X8554300Y5941130D01*
X8585790Y5972870D01*
X8601540Y6020510D01*
Y6248050D01*
G01X8739280Y5930550D02*
Y6248050D01*
X8920350Y5930550D01*
Y6248050D01*
G01X9097460D02*
X9191930D01*
G01X9144690D02*
Y5930550D01*
G01X9097460D02*
X9191930D01*
G01X9459570Y6248050D02*
Y5930550D01*
G01X9369040Y6248050D02*
X9550110D01*
G01X9691790Y5972870D02*
X9723280Y5946420D01*
X9758710Y5930550D01*
X9790200D01*
X9821690Y5946420D01*
X9845310Y5972870D01*
X9857120Y6009930D01*
X9849250Y6046960D01*
X9829570Y6078710D01*
X9794140Y6099890D01*
X9746900Y6110470D01*
X9719340Y6131630D01*
X9707530Y6168670D01*
X9715410Y6205720D01*
X9735090Y6232170D01*
X9762640Y6248050D01*
X9790200D01*
X9817760Y6237470D01*
X9841380Y6211010D01*
G01X10305800Y5930550D02*
X10404210Y6248050D01*
X10502630Y5930550D01*
G01X10467200Y6041670D02*
X10341230D01*
G01X10640360Y5930550D02*
Y6248050D01*
X10738780D01*
X10770270Y6232170D01*
X10789950Y6211010D01*
X10797830Y6168670D01*
X10789950Y6126340D01*
X10766330Y6099890D01*
X10738780Y6084000D01*
X10640360D01*
G01X10738780D02*
X10797830Y5930550D01*
G01X11112710D02*
X10955240D01*
Y6248050D01*
X11112710D01*
G01X11049720Y6094600D02*
X10955240D01*
G01X11616500Y6248050D02*
X11710970D01*
G01X11663730D02*
Y5930550D01*
G01X11616500D02*
X11710970D01*
G01X11888080D02*
Y6248050D01*
X12069150Y5930550D01*
Y6248050D01*
G01X12506020Y5930550D02*
Y6248050D01*
X12608370Y5983470D01*
X12710730Y6248050D01*
Y5930550D01*
G01X12876020Y6248050D02*
X12970490D01*
G01X12923250D02*
Y5930550D01*
G01X12876020D02*
X12970490D01*
G01X13159400Y6248050D02*
Y5930550D01*
X13316870D01*
G01X13474280Y6248050D02*
Y5930550D01*
X13631750D01*
G01X13820660Y6248050D02*
X13915130D01*
G01X13867890D02*
Y5930550D01*
G01X13820660D02*
X13915130D01*
G01X14080420D02*
Y6248050D01*
X14182770Y5983470D01*
X14285130Y6248050D01*
Y5930550D01*
G01X14576390D02*
X14418920D01*
Y6248050D01*
X14576390D01*
G01X14513400Y6094600D02*
X14418920D01*
G01X14812530Y6248050D02*
Y5930550D01*
G01X14722000Y6248050D02*
X14903070D01*
G01X15206150Y5930550D02*
X15048680D01*
Y6248050D01*
X15206150D01*
G01X15143160Y6094600D02*
X15048680D01*
G01X15363560Y5930550D02*
Y6248050D01*
X15461980D01*
X15493470Y6232170D01*
X15513150Y6211010D01*
X15521030Y6168670D01*
X15513150Y6126340D01*
X15489530Y6099890D01*
X15461980Y6084000D01*
X15363560D01*
G01X15461980D02*
X15521030Y5930550D01*
G01X15674510Y5972870D02*
X15706000Y5946420D01*
X15741430Y5930550D01*
X15772920D01*
X15804410Y5946420D01*
X15828030Y5972870D01*
X15839840Y6009930D01*
X15831970Y6046960D01*
X15812290Y6078710D01*
X15776860Y6099890D01*
X15729620Y6110470D01*
X15702060Y6131630D01*
X15690250Y6168670D01*
X15698130Y6205720D01*
X15717810Y6232170D01*
X15745360Y6248050D01*
X15772920D01*
X15800480Y6237470D01*
X15824100Y6211010D01*
G01X5645620Y5216860D02*
Y5534360D01*
X5795210D01*
G01X5740100Y5380910D02*
X5645620D01*
G01X5988060Y5534360D02*
X6082530D01*
G01X6035290D02*
Y5216860D01*
G01X5988060D02*
X6082530D01*
G01X6373790Y5375610D02*
X6452530D01*
Y5280360D01*
X6428910Y5248600D01*
X6401350Y5227440D01*
X6361990Y5216860D01*
X6322620Y5227440D01*
X6295060Y5248600D01*
X6271440Y5280360D01*
X6255690Y5317400D01*
X6247820Y5359730D01*
Y5396780D01*
X6255690Y5428520D01*
X6271440Y5465570D01*
X6295060Y5497320D01*
X6318680Y5518480D01*
X6350170Y5534360D01*
X6377730D01*
X6409220Y5523780D01*
X6432840Y5502610D01*
G01X6578450Y5534360D02*
Y5306820D01*
X6594200Y5259180D01*
X6625690Y5227440D01*
X6665050Y5216860D01*
X6704420Y5227440D01*
X6735910Y5259180D01*
X6751660Y5306820D01*
Y5534360D01*
G01X6901200Y5216860D02*
Y5534360D01*
X6999620D01*
X7031110Y5518480D01*
X7050790Y5497320D01*
X7058670Y5454980D01*
X7050790Y5412650D01*
X7027170Y5386200D01*
X6999620Y5370310D01*
X6901200D01*
G01X6999620D02*
X7058670Y5216860D01*
G01X7373550D02*
X7216080D01*
Y5534360D01*
X7373550D01*
G01X7310560Y5380910D02*
X7216080D01*
G01X7649050Y5693110D02*
Y-16410D01*
G01X7483690Y6580550D02*
Y6898050D01*
X7562420D01*
X7593910Y6882170D01*
X7617530Y6861010D01*
X7637220Y6829260D01*
X7652960Y6792210D01*
X7656900Y6739300D01*
X7652960Y6686380D01*
X7637220Y6649340D01*
X7617530Y6617580D01*
X7593910Y6596420D01*
X7562420Y6580550D01*
X7483690D01*
G01X7806440D02*
Y6898050D01*
X7904860D01*
X7936350Y6882170D01*
X7956030Y6861010D01*
X7963910Y6818670D01*
X7956030Y6776340D01*
X7932410Y6749890D01*
X7904860Y6734000D01*
X7806440D01*
G01X7904860D02*
X7963910Y6580550D01*
G01X8152820Y6898050D02*
X8247290D01*
G01X8200050D02*
Y6580550D01*
G01X8152820D02*
X8247290D01*
G01X8436200Y6898050D02*
Y6580550D01*
X8593670D01*
G01X8751080Y6898050D02*
Y6580550D01*
X8908550D01*
G01X9546180Y6871590D02*
X9522560Y6887470D01*
X9495010Y6898050D01*
X9463510D01*
X9428080Y6882170D01*
X9400530Y6855720D01*
X9380840Y6823960D01*
X9365090Y6771050D01*
X9361160Y6723420D01*
X9369040Y6675800D01*
X9380840Y6644050D01*
X9404460Y6612290D01*
X9432020Y6591130D01*
X9459570Y6580550D01*
X9487130D01*
X9514690Y6591130D01*
X9538310Y6607000D01*
X9557990Y6628160D01*
G01X9691790Y6580550D02*
Y6898050D01*
G01X9857120D02*
Y6580550D01*
G01Y6739300D02*
X9691790D01*
G01X9990920Y6580550D02*
X10089330Y6898050D01*
X10187750Y6580550D01*
G01X10152320Y6691670D02*
X10026350D01*
G01X10325480Y6580550D02*
Y6898050D01*
X10423900D01*
X10455390Y6882170D01*
X10475070Y6861010D01*
X10482950Y6818670D01*
X10475070Y6776340D01*
X10451450Y6749890D01*
X10423900Y6734000D01*
X10325480D01*
G01X10423900D02*
X10482950Y6580550D01*
G01X10719090Y6898050D02*
Y6580550D01*
G01X10628560Y6898050D02*
X10809630D01*
G01X11033970Y6569970D02*
X11026100Y6575260D01*
Y6585840D01*
X11033970Y6591130D01*
X11041850Y6585840D01*
Y6575260D01*
X11033970Y6569970D01*
G01Y6712830D02*
X11026100Y6718130D01*
Y6728710D01*
X11033970Y6734000D01*
X11041850Y6728710D01*
Y6718130D01*
X11033970Y6712830D01*
G01X11663730Y6898050D02*
Y6580550D01*
G01X11573200Y6898050D02*
X11754270D01*
G01X11978610Y6580550D02*
X11947120Y6585840D01*
X11919570Y6607000D01*
X11895950Y6638760D01*
X11880200Y6675800D01*
X11872330Y6718130D01*
Y6760470D01*
X11880200Y6802800D01*
X11895950Y6839840D01*
X11919570Y6871590D01*
X11947120Y6892760D01*
X11978610Y6898050D01*
X12010100Y6892760D01*
X12037660Y6871590D01*
X12061280Y6839840D01*
X12077030Y6802800D01*
X12084900Y6760470D01*
Y6718130D01*
X12077030Y6675800D01*
X12061280Y6638760D01*
X12037660Y6607000D01*
X12010100Y6585840D01*
X11978610Y6580550D01*
G01X12214760D02*
Y6898050D01*
X12309240D01*
X12340730Y6882170D01*
X12364350Y6845130D01*
X12372230Y6802800D01*
X12364350Y6760470D01*
X12344670Y6728710D01*
X12309240Y6712830D01*
X12214760D01*
G01X12923250Y6898050D02*
Y6580550D01*
G01X12868140Y6792210D02*
X12978370D01*
G01X13238130Y6580550D02*
X13214520Y6585840D01*
X13190900Y6607000D01*
X13175150Y6644050D01*
X13167280Y6686380D01*
X13175150Y6728710D01*
X13190900Y6765760D01*
X13214520Y6786920D01*
X13238130Y6792210D01*
X13261750Y6786920D01*
X13285370Y6765760D01*
X13301120Y6728710D01*
X13305060Y6686380D01*
X13301120Y6644050D01*
X13285370Y6607000D01*
X13261750Y6585840D01*
X13238130Y6580550D01*
G01X13899380Y6749890D02*
X13915130Y6765760D01*
X13926940Y6792210D01*
X13934820Y6829260D01*
X13926940Y6861010D01*
X13911200Y6882170D01*
X13883640Y6898050D01*
X13777360D01*
Y6580550D01*
X13907260D01*
X13934820Y6601710D01*
X13950560Y6633470D01*
X13958430Y6670510D01*
X13950560Y6707540D01*
X13926940Y6739300D01*
X13899380Y6749890D01*
X13777360D01*
G01X14182770Y6580550D02*
X14151280Y6585840D01*
X14123730Y6607000D01*
X14100110Y6638760D01*
X14084360Y6675800D01*
X14076490Y6718130D01*
Y6760470D01*
X14084360Y6802800D01*
X14100110Y6839840D01*
X14123730Y6871590D01*
X14151280Y6892760D01*
X14182770Y6898050D01*
X14214260Y6892760D01*
X14241820Y6871590D01*
X14265440Y6839840D01*
X14281190Y6802800D01*
X14289060Y6760470D01*
Y6718130D01*
X14281190Y6675800D01*
X14265440Y6638760D01*
X14241820Y6607000D01*
X14214260Y6585840D01*
X14182770Y6580550D01*
G01X14497650Y6898050D02*
Y6580550D01*
G01X14407120Y6898050D02*
X14588190D01*
G01X14812530D02*
Y6580550D01*
G01X14722000Y6898050D02*
X14903070D01*
G01X15127410Y6580550D02*
X15095920Y6585840D01*
X15068370Y6607000D01*
X15044750Y6638760D01*
X15029000Y6675800D01*
X15021130Y6718130D01*
Y6760470D01*
X15029000Y6802800D01*
X15044750Y6839840D01*
X15068370Y6871590D01*
X15095920Y6892760D01*
X15127410Y6898050D01*
X15158900Y6892760D01*
X15186460Y6871590D01*
X15210080Y6839840D01*
X15225830Y6802800D01*
X15233700Y6760470D01*
Y6718130D01*
X15225830Y6675800D01*
X15210080Y6638760D01*
X15186460Y6607000D01*
X15158900Y6585840D01*
X15127410Y6580550D01*
G01X15339940D02*
Y6898050D01*
X15442290Y6633470D01*
X15544650Y6898050D01*
Y6580550D01*
G01X9018750Y245190D02*
X9042370Y208140D01*
X9073860Y186980D01*
X9109290Y181690D01*
X9140790Y186980D01*
X9172280Y213430D01*
X9191960Y245190D01*
X9195890Y276940D01*
X9188020Y313970D01*
X9160470Y340440D01*
X9132910Y351030D01*
X9097480D01*
G01X9132910D02*
X9156530Y366900D01*
X9176210Y393350D01*
X9184090Y425100D01*
X9176210Y456860D01*
X9156530Y483310D01*
X9121100Y499190D01*
X9085670Y493900D01*
X9050240Y472730D01*
G01X9420230Y171110D02*
X9412360Y176400D01*
Y186980D01*
X9420230Y192270D01*
X9428110Y186980D01*
Y176400D01*
X9420230Y171110D01*
G01X9735110Y499190D02*
X9703620Y488610D01*
X9680000Y462150D01*
X9664260Y430400D01*
X9652450Y388060D01*
X9648510Y340440D01*
X9652450Y292810D01*
X9664260Y250480D01*
X9680000Y218720D01*
X9703620Y192270D01*
X9735110Y181690D01*
X9766600Y192270D01*
X9790230Y218720D01*
X9805970Y250480D01*
X9817780Y292810D01*
X9821720Y340440D01*
X9817780Y388060D01*
X9805970Y430400D01*
X9790230Y462150D01*
X9766600Y488610D01*
X9735110Y499190D01*
G01X9990950Y393350D02*
X10109040Y181690D01*
G01Y393350D02*
X9990950Y181690D01*
G01X10364870D02*
Y499190D01*
X10317640Y435690D01*
G01Y181690D02*
X10412110D01*
G01X10679750Y171110D02*
X10671880Y176400D01*
Y186980D01*
X10679750Y192270D01*
X10687630Y186980D01*
Y176400D01*
X10679750Y171110D01*
G01X10994630Y499190D02*
X10963140Y488610D01*
X10939520Y462150D01*
X10923780Y430400D01*
X10911970Y388060D01*
X10908030Y340440D01*
X10911970Y292810D01*
X10923780Y250480D01*
X10939520Y218720D01*
X10963140Y192270D01*
X10994630Y181690D01*
X11026120Y192270D01*
X11049750Y218720D01*
X11065490Y250480D01*
X11077300Y292810D01*
X11081240Y340440D01*
X11077300Y388060D01*
X11065490Y430400D01*
X11049750Y462150D01*
X11026120Y488610D01*
X10994630Y499190D01*
G01X9420230Y2640260D02*
X9388740Y2629680D01*
X9365120Y2603220D01*
X9349380Y2571470D01*
X9337570Y2529130D01*
X9333630Y2481510D01*
X9337570Y2433880D01*
X9349380Y2391550D01*
X9365120Y2359790D01*
X9388740Y2333340D01*
X9420230Y2322760D01*
X9451720Y2333340D01*
X9475350Y2359790D01*
X9491090Y2391550D01*
X9502900Y2433880D01*
X9506840Y2481510D01*
X9502900Y2529130D01*
X9491090Y2571470D01*
X9475350Y2603220D01*
X9451720Y2629680D01*
X9420230Y2640260D01*
G01X9735110Y2312180D02*
X9727240Y2317470D01*
Y2328050D01*
X9735110Y2333340D01*
X9742990Y2328050D01*
Y2317470D01*
X9735110Y2312180D01*
G01X9963390Y2386260D02*
X9987010Y2349210D01*
X10018500Y2328050D01*
X10053930Y2322760D01*
X10085430Y2328050D01*
X10116920Y2354500D01*
X10136600Y2386260D01*
X10140530Y2418010D01*
X10132660Y2455040D01*
X10105110Y2481510D01*
X10077550Y2492100D01*
X10042120D01*
G01X10077550D02*
X10101170Y2507970D01*
X10120850Y2534420D01*
X10128730Y2566170D01*
X10120850Y2597930D01*
X10101170Y2624380D01*
X10065740Y2640260D01*
X10030310Y2634970D01*
X9994880Y2613800D01*
G01X10290080Y2587340D02*
X10313700Y2619090D01*
X10341260Y2634970D01*
X10372750Y2640260D01*
X10412110Y2629680D01*
X10439670Y2603220D01*
X10447540Y2571470D01*
X10443610Y2539710D01*
X10427860Y2513260D01*
X10349130Y2460340D01*
X10313700Y2423300D01*
X10290080Y2370370D01*
X10282210Y2322760D01*
X10447540D01*
G01X10593150Y2370370D02*
X10616770Y2343920D01*
X10644320Y2328050D01*
X10679750Y2322760D01*
X10715190Y2333340D01*
X10742740Y2354500D01*
X10762420Y2391550D01*
X10766360Y2433880D01*
X10758490Y2476210D01*
X10738800Y2502680D01*
X10711240Y2523840D01*
X10683690Y2529130D01*
X10656140Y2523840D01*
X10620710Y2502680D01*
X10632520Y2640260D01*
X10738800D01*
G01X9735110Y1926570D02*
X9703620Y1915990D01*
X9680000Y1889530D01*
X9664260Y1857780D01*
X9652450Y1815440D01*
X9648510Y1767820D01*
X9652450Y1720190D01*
X9664260Y1677860D01*
X9680000Y1646100D01*
X9703620Y1619650D01*
X9735110Y1609070D01*
X9766600Y1619650D01*
X9790230Y1646100D01*
X9805970Y1677860D01*
X9817780Y1720190D01*
X9821720Y1767820D01*
X9817780Y1815440D01*
X9805970Y1857780D01*
X9790230Y1889530D01*
X9766600Y1915990D01*
X9735110Y1926570D01*
G01X10049990Y1598490D02*
X10042120Y1603780D01*
Y1614360D01*
X10049990Y1619650D01*
X10057870Y1614360D01*
Y1603780D01*
X10049990Y1598490D01*
G01X10290080Y1741350D02*
X10317640Y1778410D01*
X10341260Y1799570D01*
X10372750Y1810150D01*
X10400310Y1799570D01*
X10419990Y1778410D01*
X10435730Y1746650D01*
X10439670Y1709610D01*
X10435730Y1677860D01*
X10419990Y1646100D01*
X10396360Y1619650D01*
X10368810Y1609070D01*
X10337320Y1619650D01*
X10309760Y1651390D01*
X10294020Y1699030D01*
X10290080Y1751940D01*
X10297950Y1820730D01*
X10309760Y1857780D01*
X10329440Y1894820D01*
X10357000Y1921280D01*
X10384560Y1926570D01*
X10412110Y1915990D01*
X10431800Y1889530D01*
G01X9735110Y1212880D02*
X9703620Y1202300D01*
X9680000Y1175840D01*
X9664260Y1144090D01*
X9652450Y1101750D01*
X9648510Y1054130D01*
X9652450Y1006500D01*
X9664260Y964170D01*
X9680000Y932410D01*
X9703620Y905960D01*
X9735110Y895380D01*
X9766600Y905960D01*
X9790230Y932410D01*
X9805970Y964170D01*
X9817780Y1006500D01*
X9821720Y1054130D01*
X9817780Y1101750D01*
X9805970Y1144090D01*
X9790230Y1175840D01*
X9766600Y1202300D01*
X9735110Y1212880D01*
G01X10049990Y884800D02*
X10042120Y890090D01*
Y900670D01*
X10049990Y905960D01*
X10057870Y900670D01*
Y890090D01*
X10049990Y884800D01*
G01X10297950Y932410D02*
X10325510Y905960D01*
X10357000Y895380D01*
X10388490Y905960D01*
X10416050Y937700D01*
X10435730Y985340D01*
X10443610Y1032960D01*
Y1091170D01*
X10435730Y1138790D01*
X10416050Y1181130D01*
X10392430Y1202300D01*
X10364870Y1212880D01*
X10333380Y1202300D01*
X10309760Y1181130D01*
X10294020Y1149380D01*
X10286140Y1107040D01*
X10294020Y1070010D01*
X10313700Y1032960D01*
X10337320Y1011790D01*
X10364870Y1006500D01*
X10396360Y1017080D01*
X10419990Y1043540D01*
X10443610Y1091170D01*
G01X9735110Y4067640D02*
X9703620Y4057060D01*
X9680000Y4030600D01*
X9664260Y3998850D01*
X9652450Y3956510D01*
X9648510Y3908890D01*
X9652450Y3861260D01*
X9664260Y3818930D01*
X9680000Y3787170D01*
X9703620Y3760720D01*
X9735110Y3750140D01*
X9766600Y3760720D01*
X9790230Y3787170D01*
X9805970Y3818930D01*
X9817780Y3861260D01*
X9821720Y3908890D01*
X9817780Y3956510D01*
X9805970Y3998850D01*
X9790230Y4030600D01*
X9766600Y4057060D01*
X9735110Y4067640D01*
G01X10049990Y3739560D02*
X10042120Y3744850D01*
Y3755430D01*
X10049990Y3760720D01*
X10057870Y3755430D01*
Y3744850D01*
X10049990Y3739560D01*
G01X10412110Y3750140D02*
Y4067640D01*
X10266460Y3840100D01*
X10463290D01*
G01X9735110Y3353950D02*
X9703620Y3343370D01*
X9680000Y3316910D01*
X9664260Y3285160D01*
X9652450Y3242820D01*
X9648510Y3195200D01*
X9652450Y3147570D01*
X9664260Y3105240D01*
X9680000Y3073480D01*
X9703620Y3047030D01*
X9735110Y3036450D01*
X9766600Y3047030D01*
X9790230Y3073480D01*
X9805970Y3105240D01*
X9817780Y3147570D01*
X9821720Y3195200D01*
X9817780Y3242820D01*
X9805970Y3285160D01*
X9790230Y3316910D01*
X9766600Y3343370D01*
X9735110Y3353950D01*
G01X10049990Y3025870D02*
X10042120Y3031160D01*
Y3041740D01*
X10049990Y3047030D01*
X10057870Y3041740D01*
Y3031160D01*
X10049990Y3025870D01*
G01X10297950Y3073480D02*
X10325510Y3047030D01*
X10357000Y3036450D01*
X10388490Y3047030D01*
X10416050Y3078770D01*
X10435730Y3126410D01*
X10443610Y3174030D01*
Y3232240D01*
X10435730Y3279860D01*
X10416050Y3322200D01*
X10392430Y3343370D01*
X10364870Y3353950D01*
X10333380Y3343370D01*
X10309760Y3322200D01*
X10294020Y3290450D01*
X10286140Y3248110D01*
X10294020Y3211080D01*
X10313700Y3174030D01*
X10337320Y3152860D01*
X10364870Y3147570D01*
X10396360Y3158150D01*
X10419990Y3184610D01*
X10443610Y3232240D01*
G01X9495010Y5259180D02*
X9526500Y5232730D01*
X9561930Y5216860D01*
X9593420D01*
X9624910Y5232730D01*
X9648530Y5259180D01*
X9660340Y5296240D01*
X9652470Y5333270D01*
X9632790Y5365020D01*
X9597360Y5386200D01*
X9550120Y5396780D01*
X9522560Y5417940D01*
X9510750Y5454980D01*
X9518630Y5492030D01*
X9538310Y5518480D01*
X9565860Y5534360D01*
X9593420D01*
X9620980Y5523780D01*
X9644600Y5497320D01*
G01X9845320Y5534360D02*
X9939790D01*
G01X9892550D02*
Y5216860D01*
G01X9845320D02*
X9939790D01*
G01X10132640Y5534360D02*
X10282230D01*
X10132640Y5216860D01*
X10282230D01*
G01X10601050D02*
X10443580D01*
Y5534360D01*
X10601050D01*
G01X10538060Y5380910D02*
X10443580D01*
G01X9735110Y4781330D02*
X9703620Y4770750D01*
X9680000Y4744290D01*
X9664260Y4712540D01*
X9652450Y4670200D01*
X9648510Y4622580D01*
X9652450Y4574950D01*
X9664260Y4532620D01*
X9680000Y4500860D01*
X9703620Y4474410D01*
X9735110Y4463830D01*
X9766600Y4474410D01*
X9790230Y4500860D01*
X9805970Y4532620D01*
X9817780Y4574950D01*
X9821720Y4622580D01*
X9817780Y4670200D01*
X9805970Y4712540D01*
X9790230Y4744290D01*
X9766600Y4770750D01*
X9735110Y4781330D01*
G01X10049990Y4453250D02*
X10042120Y4458540D01*
Y4469120D01*
X10049990Y4474410D01*
X10057870Y4469120D01*
Y4458540D01*
X10049990Y4453250D01*
G01X10290080Y4728410D02*
X10313700Y4760160D01*
X10341260Y4776040D01*
X10372750Y4781330D01*
X10412110Y4770750D01*
X10439670Y4744290D01*
X10447540Y4712540D01*
X10443610Y4680780D01*
X10427860Y4654330D01*
X10349130Y4601410D01*
X10313700Y4564370D01*
X10290080Y4511440D01*
X10282210Y4463830D01*
X10447540D01*
G01X13198740Y181690D02*
Y499190D01*
X13293220D01*
X13324710Y483310D01*
X13348330Y446270D01*
X13356210Y403940D01*
X13348330Y361610D01*
X13328650Y329850D01*
X13293220Y313970D01*
X13198740D01*
G01X13513620Y499190D02*
Y181690D01*
X13671090D01*
G01X13808820D02*
X13907230Y499190D01*
X14005650Y181690D01*
G01X13970220Y292810D02*
X13844250D01*
G01X14222110Y499190D02*
Y181690D01*
G01X14131580Y499190D02*
X14312650D01*
G01X14615730Y181690D02*
X14458260D01*
Y499190D01*
X14615730D01*
G01X14552740Y345740D02*
X14458260D01*
G01X14765270Y181690D02*
Y499190D01*
X14844000D01*
X14875490Y483310D01*
X14899110Y462150D01*
X14918800Y430400D01*
X14934540Y393350D01*
X14938480Y340440D01*
X14934540Y287520D01*
X14918800Y250480D01*
X14899110Y218720D01*
X14875490Y197560D01*
X14844000Y181690D01*
X14765270D01*
G01X12450940Y5693110D02*
Y-16410D01*
G01X12557180Y2322760D02*
Y2640260D01*
X12738250Y2322760D01*
Y2640260D01*
G01X12962590Y2322760D02*
X12931100Y2328050D01*
X12903550Y2349210D01*
X12879930Y2380970D01*
X12864180Y2418010D01*
X12856310Y2460340D01*
Y2502680D01*
X12864180Y2545010D01*
X12879930Y2582050D01*
X12903550Y2613800D01*
X12931100Y2634970D01*
X12962590Y2640260D01*
X12994080Y2634970D01*
X13021640Y2613800D01*
X13045260Y2582050D01*
X13061010Y2545010D01*
X13068880Y2502680D01*
Y2460340D01*
X13061010Y2418010D01*
X13045260Y2380970D01*
X13021640Y2349210D01*
X12994080Y2328050D01*
X12962590Y2322760D01*
G01X13186940D02*
Y2640260D01*
X13368010Y2322760D01*
Y2640260D01*
G01X13541180Y2428590D02*
X13643530D01*
G01X13828500Y2322760D02*
Y2640260D01*
X13922980D01*
X13954470Y2624380D01*
X13978090Y2587340D01*
X13985970Y2545010D01*
X13978090Y2502680D01*
X13958410Y2470920D01*
X13922980Y2455040D01*
X13828500D01*
G01X14143380Y2640260D02*
Y2322760D01*
X14300850D01*
G01X14438580D02*
X14536990Y2640260D01*
X14635410Y2322760D01*
G01X14599980Y2433880D02*
X14474010D01*
G01X14851870Y2640260D02*
Y2322760D01*
G01X14761340Y2640260D02*
X14942410D01*
G01X15245490Y2322760D02*
X15088020D01*
Y2640260D01*
X15245490D01*
G01X15182500Y2486810D02*
X15088020D01*
G01X15395030Y2322760D02*
Y2640260D01*
X15473760D01*
X15505250Y2624380D01*
X15528870Y2603220D01*
X15548560Y2571470D01*
X15564300Y2534420D01*
X15568240Y2481510D01*
X15564300Y2428590D01*
X15548560Y2391550D01*
X15528870Y2359790D01*
X15505250Y2338630D01*
X15473760Y2322760D01*
X15395030D01*
G01X12557180Y1609070D02*
Y1926570D01*
X12738250Y1609070D01*
Y1926570D01*
G01X12962590Y1609070D02*
X12931100Y1614360D01*
X12903550Y1635520D01*
X12879930Y1667280D01*
X12864180Y1704320D01*
X12856310Y1746650D01*
Y1788990D01*
X12864180Y1831320D01*
X12879930Y1868360D01*
X12903550Y1900110D01*
X12931100Y1921280D01*
X12962590Y1926570D01*
X12994080Y1921280D01*
X13021640Y1900110D01*
X13045260Y1868360D01*
X13061010Y1831320D01*
X13068880Y1788990D01*
Y1746650D01*
X13061010Y1704320D01*
X13045260Y1667280D01*
X13021640Y1635520D01*
X12994080Y1614360D01*
X12962590Y1609070D01*
G01X13186940D02*
Y1926570D01*
X13368010Y1609070D01*
Y1926570D01*
G01X13541180Y1714900D02*
X13643530D01*
G01X13828500Y1609070D02*
Y1926570D01*
X13922980D01*
X13954470Y1910690D01*
X13978090Y1873650D01*
X13985970Y1831320D01*
X13978090Y1788990D01*
X13958410Y1757230D01*
X13922980Y1741350D01*
X13828500D01*
G01X14143380Y1926570D02*
Y1609070D01*
X14300850D01*
G01X14438580D02*
X14536990Y1926570D01*
X14635410Y1609070D01*
G01X14599980Y1720190D02*
X14474010D01*
G01X14851870Y1926570D02*
Y1609070D01*
G01X14761340Y1926570D02*
X14942410D01*
G01X15245490Y1609070D02*
X15088020D01*
Y1926570D01*
X15245490D01*
G01X15182500Y1773120D02*
X15088020D01*
G01X15395030Y1609070D02*
Y1926570D01*
X15473760D01*
X15505250Y1910690D01*
X15528870Y1889530D01*
X15548560Y1857780D01*
X15564300Y1820730D01*
X15568240Y1767820D01*
X15564300Y1714900D01*
X15548560Y1677860D01*
X15528870Y1646100D01*
X15505250Y1624940D01*
X15473760Y1609070D01*
X15395030D01*
G01X12557180Y895380D02*
Y1212880D01*
X12738250Y895380D01*
Y1212880D01*
G01X12962590Y895380D02*
X12931100Y900670D01*
X12903550Y921830D01*
X12879930Y953590D01*
X12864180Y990630D01*
X12856310Y1032960D01*
Y1075300D01*
X12864180Y1117630D01*
X12879930Y1154670D01*
X12903550Y1186420D01*
X12931100Y1207590D01*
X12962590Y1212880D01*
X12994080Y1207590D01*
X13021640Y1186420D01*
X13045260Y1154670D01*
X13061010Y1117630D01*
X13068880Y1075300D01*
Y1032960D01*
X13061010Y990630D01*
X13045260Y953590D01*
X13021640Y921830D01*
X12994080Y900670D01*
X12962590Y895380D01*
G01X13186940D02*
Y1212880D01*
X13368010Y895380D01*
Y1212880D01*
G01X13541180Y1001210D02*
X13643530D01*
G01X13828500Y895380D02*
Y1212880D01*
X13922980D01*
X13954470Y1197000D01*
X13978090Y1159960D01*
X13985970Y1117630D01*
X13978090Y1075300D01*
X13958410Y1043540D01*
X13922980Y1027660D01*
X13828500D01*
G01X14143380Y1212880D02*
Y895380D01*
X14300850D01*
G01X14438580D02*
X14536990Y1212880D01*
X14635410Y895380D01*
G01X14599980Y1006500D02*
X14474010D01*
G01X14851870Y1212880D02*
Y895380D01*
G01X14761340Y1212880D02*
X14942410D01*
G01X15245490Y895380D02*
X15088020D01*
Y1212880D01*
X15245490D01*
G01X15182500Y1059430D02*
X15088020D01*
G01X15395030Y895380D02*
Y1212880D01*
X15473760D01*
X15505250Y1197000D01*
X15528870Y1175840D01*
X15548560Y1144090D01*
X15564300Y1107040D01*
X15568240Y1054130D01*
X15564300Y1001210D01*
X15548560Y964170D01*
X15528870Y932410D01*
X15505250Y911250D01*
X15473760Y895380D01*
X15395030D01*
G01X13198740Y3750140D02*
Y4067640D01*
X13293220D01*
X13324710Y4051760D01*
X13348330Y4014720D01*
X13356210Y3972390D01*
X13348330Y3930060D01*
X13328650Y3898300D01*
X13293220Y3882420D01*
X13198740D01*
G01X13513620Y4067640D02*
Y3750140D01*
X13671090D01*
G01X13808820D02*
X13907230Y4067640D01*
X14005650Y3750140D01*
G01X13970220Y3861260D02*
X13844250D01*
G01X14222110Y4067640D02*
Y3750140D01*
G01X14131580Y4067640D02*
X14312650D01*
G01X14615730Y3750140D02*
X14458260D01*
Y4067640D01*
X14615730D01*
G01X14552740Y3914190D02*
X14458260D01*
G01X14765270Y3750140D02*
Y4067640D01*
X14844000D01*
X14875490Y4051760D01*
X14899110Y4030600D01*
X14918800Y3998850D01*
X14934540Y3961800D01*
X14938480Y3908890D01*
X14934540Y3855970D01*
X14918800Y3818930D01*
X14899110Y3787170D01*
X14875490Y3766010D01*
X14844000Y3750140D01*
X14765270D01*
G01X13198740Y3036450D02*
Y3353950D01*
X13293220D01*
X13324710Y3338070D01*
X13348330Y3301030D01*
X13356210Y3258700D01*
X13348330Y3216370D01*
X13328650Y3184610D01*
X13293220Y3168730D01*
X13198740D01*
G01X13513620Y3353950D02*
Y3036450D01*
X13671090D01*
G01X13808820D02*
X13907230Y3353950D01*
X14005650Y3036450D01*
G01X13970220Y3147570D02*
X13844250D01*
G01X14222110Y3353950D02*
Y3036450D01*
G01X14131580Y3353950D02*
X14312650D01*
G01X14615730Y3036450D02*
X14458260D01*
Y3353950D01*
X14615730D01*
G01X14552740Y3200500D02*
X14458260D01*
G01X14765270Y3036450D02*
Y3353950D01*
X14844000D01*
X14875490Y3338070D01*
X14899110Y3316910D01*
X14918800Y3285160D01*
X14934540Y3248110D01*
X14938480Y3195200D01*
X14934540Y3142280D01*
X14918800Y3105240D01*
X14899110Y3073480D01*
X14875490Y3052320D01*
X14844000Y3036450D01*
X14765270D01*
G01X13198740Y5216860D02*
Y5534360D01*
X13293220D01*
X13324710Y5518480D01*
X13348330Y5481440D01*
X13356210Y5439110D01*
X13348330Y5396780D01*
X13328650Y5365020D01*
X13293220Y5349140D01*
X13198740D01*
G01X13513620Y5534360D02*
Y5216860D01*
X13671090D01*
G01X13808820D02*
X13907230Y5534360D01*
X14005650Y5216860D01*
G01X13970220Y5327980D02*
X13844250D01*
G01X14222110Y5534360D02*
Y5216860D01*
G01X14131580Y5534360D02*
X14312650D01*
G01X14615730Y5216860D02*
X14458260D01*
Y5534360D01*
X14615730D01*
G01X14552740Y5380910D02*
X14458260D01*
G01X14765270Y5216860D02*
Y5534360D01*
X14844000D01*
X14875490Y5518480D01*
X14899110Y5497320D01*
X14918800Y5465570D01*
X14934540Y5428520D01*
X14938480Y5375610D01*
X14934540Y5322690D01*
X14918800Y5285650D01*
X14899110Y5253890D01*
X14875490Y5232730D01*
X14844000Y5216860D01*
X14765270D01*
G01X13198740Y4463830D02*
Y4781330D01*
X13293220D01*
X13324710Y4765450D01*
X13348330Y4728410D01*
X13356210Y4686080D01*
X13348330Y4643750D01*
X13328650Y4611990D01*
X13293220Y4596110D01*
X13198740D01*
G01X13513620Y4781330D02*
Y4463830D01*
X13671090D01*
G01X13808820D02*
X13907230Y4781330D01*
X14005650Y4463830D01*
G01X13970220Y4574950D02*
X13844250D01*
G01X14222110Y4781330D02*
Y4463830D01*
G01X14131580Y4781330D02*
X14312650D01*
G01X14615730Y4463830D02*
X14458260D01*
Y4781330D01*
X14615730D01*
G01X14552740Y4627880D02*
X14458260D01*
G01X14765270Y4463830D02*
Y4781330D01*
X14844000D01*
X14875490Y4765450D01*
X14899110Y4744290D01*
X14918800Y4712540D01*
X14934540Y4675490D01*
X14938480Y4622580D01*
X14934540Y4569660D01*
X14918800Y4532620D01*
X14899110Y4500860D01*
X14875490Y4479700D01*
X14844000Y4463830D01*
X14765270D01*
G01X15678430Y5693110D02*
Y-16410D01*
G01X16587620Y446270D02*
X16611240Y478020D01*
X16638800Y493900D01*
X16670290Y499190D01*
X16709650Y488610D01*
X16737210Y462150D01*
X16745080Y430400D01*
X16741150Y398640D01*
X16725400Y372190D01*
X16646670Y319270D01*
X16611240Y282230D01*
X16587620Y229300D01*
X16579750Y181690D01*
X16745080D01*
G01X16662410Y2322760D02*
Y2640260D01*
X16615180Y2576760D01*
G01Y2322760D02*
X16709650D01*
G01X16662410Y1609070D02*
Y1926570D01*
X16615180Y1863070D01*
G01Y1609070D02*
X16709650D01*
G01X16587620Y1159960D02*
X16611240Y1191710D01*
X16638800Y1207590D01*
X16670290Y1212880D01*
X16709650Y1202300D01*
X16737210Y1175840D01*
X16745080Y1144090D01*
X16741150Y1112330D01*
X16725400Y1085880D01*
X16646670Y1032960D01*
X16611240Y995920D01*
X16587620Y942990D01*
X16579750Y895380D01*
X16745080D01*
G01X16430180Y4014720D02*
X16453800Y4046470D01*
X16481360Y4062350D01*
X16512850Y4067640D01*
X16552210Y4057060D01*
X16579770Y4030600D01*
X16587640Y3998850D01*
X16583710Y3967090D01*
X16567960Y3940640D01*
X16489230Y3887720D01*
X16453800Y3850680D01*
X16430180Y3797750D01*
X16422310Y3750140D01*
X16587640D01*
G01X16819850Y4067640D02*
X16788360Y4057060D01*
X16764740Y4030600D01*
X16749000Y3998850D01*
X16737190Y3956510D01*
X16733250Y3908890D01*
X16737190Y3861260D01*
X16749000Y3818930D01*
X16764740Y3787170D01*
X16788360Y3760720D01*
X16819850Y3750140D01*
X16851340Y3760720D01*
X16874970Y3787170D01*
X16890710Y3818930D01*
X16902520Y3861260D01*
X16906460Y3908890D01*
X16902520Y3956510D01*
X16890710Y3998850D01*
X16874970Y4030600D01*
X16851340Y4057060D01*
X16819850Y4067640D01*
G01X16709650Y3036450D02*
Y3353950D01*
X16564000Y3126410D01*
X16760830D01*
G01X16347530Y5216860D02*
X16316040Y5222150D01*
X16288490Y5243310D01*
X16264870Y5275070D01*
X16249120Y5312110D01*
X16241250Y5354440D01*
Y5396780D01*
X16249120Y5439110D01*
X16264870Y5476150D01*
X16288490Y5507900D01*
X16316040Y5529070D01*
X16347530Y5534360D01*
X16379020Y5529070D01*
X16406580Y5507900D01*
X16430200Y5476150D01*
X16445950Y5439110D01*
X16453820Y5396780D01*
Y5354440D01*
X16445950Y5312110D01*
X16430200Y5275070D01*
X16406580Y5243310D01*
X16379020Y5222150D01*
X16347530Y5216860D01*
G01X16379020Y5301530D02*
X16426270Y5216860D01*
G01X16662410Y5534360D02*
Y5216860D01*
G01X16571880Y5534360D02*
X16752950D01*
G01X16977290Y5216860D02*
Y5359730D01*
X16898560Y5534360D01*
G01X17056030D02*
X16977290Y5359730D01*
G01X16260930Y4527330D02*
X16284550Y4490280D01*
X16316040Y4469120D01*
X16351470Y4463830D01*
X16382970Y4469120D01*
X16414460Y4495570D01*
X16434140Y4527330D01*
X16438070Y4559080D01*
X16430200Y4596110D01*
X16402650Y4622580D01*
X16375090Y4633170D01*
X16339660D01*
G01X16375090D02*
X16398710Y4649040D01*
X16418390Y4675490D01*
X16426270Y4707240D01*
X16418390Y4739000D01*
X16398710Y4765450D01*
X16363280Y4781330D01*
X16327850Y4776040D01*
X16292420Y4754870D01*
G01X16662410Y4781330D02*
X16630920Y4770750D01*
X16607300Y4744290D01*
X16591560Y4712540D01*
X16579750Y4670200D01*
X16575810Y4622580D01*
X16579750Y4574950D01*
X16591560Y4532620D01*
X16607300Y4500860D01*
X16630920Y4474410D01*
X16662410Y4463830D01*
X16693900Y4474410D01*
X16717530Y4500860D01*
X16733270Y4532620D01*
X16745080Y4574950D01*
X16749020Y4622580D01*
X16745080Y4670200D01*
X16733270Y4712540D01*
X16717530Y4744290D01*
X16693900Y4770750D01*
X16662410Y4781330D01*
G01X16977290D02*
X16945800Y4770750D01*
X16922180Y4744290D01*
X16906440Y4712540D01*
X16894630Y4670200D01*
X16890690Y4622580D01*
X16894630Y4574950D01*
X16906440Y4532620D01*
X16922180Y4500860D01*
X16945800Y4474410D01*
X16977290Y4463830D01*
X17008780Y4474410D01*
X17032410Y4500860D01*
X17048150Y4532620D01*
X17059960Y4574950D01*
X17063900Y4622580D01*
X17059960Y4670200D01*
X17048150Y4712540D01*
X17032410Y4744290D01*
X17008780Y4770750D01*
X16977290Y4781330D01*
M02*
