G04 ================== begin FILE IDENTIFICATION RECORD ==================*
G04 Layout Name:  CC1350SensorTag.brd*
G04 Film Name:    CC1350STK_Layer3*
G04 File Format:  Gerber RS274X*
G04 File Origin:  Cadence Allegro 16.6-S019*
G04 Origin Date:  Wed Nov 09 12:53:35 2016*
G04 *
G04 Layer:  BOARD GEOMETRY/OUTLINE*
G04 Layer:  ETCH/L3*
G04 Layer:  PIN/L3*
G04 Layer:  VIA CLASS/L3*
G04 *
G04 Offset:    (0.0000 0.0000)*
G04 Mirror:    No*
G04 Mode:      Positive*
G04 Rotation:  0*
G04 FullContactRelief:  No*
G04 UndefLineWidth:     0.0000*
G04 ================== end FILE IDENTIFICATION RECORD ====================*
%FSLAX25Y25*MOMM*%
%IR0*IPPOS*OFA0.00000B0.00000*MIA0B0*SFA1.00000B1.00000*%
%ADD13C,.1*%
%ADD10C,.5*%
%ADD14C,.8*%
%AMMACRO16*
4,1,36,0.0,-.01,
.001736,-.009848,
.00342,-.009397,
.005,-.00866,
.006428,-.00766,
.00766,-.006428,
.00866,-.005,
.009397,-.00342,
.009848,-.001736,
.01,0.0,
.009848,.001736,
.009397,.00342,
.00866,.005,
.00766,.006428,
.006428,.00766,
.005,.00866,
.00342,.009397,
.001736,.009848,
0.0,.01,
-.001736,.009848,
-.00342,.009397,
-.005,.00866,
-.006428,.00766,
-.00766,.006428,
-.00866,.005,
-.009397,.00342,
-.009848,.001736,
-.01,0.0,
-.009848,-.001736,
-.009397,-.00342,
-.00866,-.005,
-.00766,-.006428,
-.006428,-.00766,
-.005,-.00866,
-.00342,-.009397,
-.001736,-.009848,
0.0,-.01,
0.0*
%
%ADD16MACRO16*%
%AMMACRO11*
4,1,36,0.0,.01,
-.001736,.009848,
-.00342,.009397,
-.005,.00866,
-.006428,.00766,
-.00766,.006428,
-.00866,.005,
-.009397,.00342,
-.009848,.001736,
-.01,0.0,
-.009848,-.001736,
-.009397,-.00342,
-.00866,-.005,
-.00766,-.006428,
-.006428,-.00766,
-.005,-.00866,
-.00342,-.009397,
-.001736,-.009848,
0.0,-.01,
.001736,-.009848,
.00342,-.009397,
.005,-.00866,
.006428,-.00766,
.00766,-.006428,
.00866,-.005,
.009397,-.00342,
.009848,-.001736,
.01,0.0,
.009848,.001736,
.009397,.00342,
.00866,.005,
.00766,.006428,
.006428,.00766,
.005,.00866,
.00342,.009397,
.001736,.009848,
0.0,.01,
0.0*
%
%ADD11MACRO11*%
%ADD15O,2.X3.6*%
%AMMACRO12*
4,1,36,0.0,.01,
-.001736,.009848,
-.00342,.009397,
-.005,.00866,
-.006428,.00766,
-.00766,.006428,
-.00866,.005,
-.009397,.00342,
-.009848,.001736,
-.01,0.0,
-.009848,-.001736,
-.009397,-.00342,
-.00866,-.005,
-.00766,-.006428,
-.006428,-.00766,
-.005,-.00866,
-.00342,-.009397,
-.001736,-.009848,
0.0,-.01,
.001736,-.009848,
.00342,-.009397,
.005,-.00866,
.006428,-.00766,
.00766,-.006428,
.00866,-.005,
.009397,-.00342,
.009848,-.001736,
.01,0.0,
.009848,.001736,
.009397,.00342,
.00866,.005,
.00766,.006428,
.006428,.00766,
.005,.00866,
.00342,.009397,
.001736,.009848,
0.0,.01,
0.0*
%
%ADD12MACRO12*%
%AMMACRO17*
4,1,36,0.0,-.01,
.001736,-.009848,
.00342,-.009397,
.005,-.00866,
.006428,-.00766,
.00766,-.006428,
.00866,-.005,
.009397,-.00342,
.009848,-.001736,
.01,0.0,
.009848,.001736,
.009397,.00342,
.00866,.005,
.00766,.006428,
.006428,.00766,
.005,.00866,
.00342,.009397,
.001736,.009848,
0.0,.01,
-.001736,.009848,
-.00342,.009397,
-.005,.00866,
-.006428,.00766,
-.00766,.006428,
-.00866,.005,
-.009397,.00342,
-.009848,.001736,
-.01,0.0,
-.009848,-.001736,
-.009397,-.00342,
-.00866,-.005,
-.00766,-.006428,
-.006428,-.00766,
-.005,-.00866,
-.00342,-.009397,
-.001736,-.009848,
0.0,-.01,
0.0*
%
%ADD17MACRO17*%
%ADD18C,.2*%
%ADD19C,.15*%
%ADD20C,.25*%
%ADD21C,.7544*%
%ADD23C,1.005*%
%ADD22C,1.2006*%
G75*
%LPD*%
G75*
G36*
G01X50010Y60010D02*
Y2482230D01*
G02X60000Y2492220I9990J0D01*
G01X135470D01*
G02X143990Y2487450I1J-9992D01*
G01X152890Y2472900D01*
G02X153270Y2463140I-8519J-5219D01*
G03X260190I53460J-27300D01*
G02X260570Y2472900I8899J4541D01*
G01X269470Y2487450D01*
G02X277990Y2492220I8519J-5222D01*
G01X991820D01*
Y2492300D01*
X1041780D01*
Y2491930D01*
X1181820D01*
Y2492300D01*
X1271780D01*
Y2492190D01*
X1357680D01*
G02X1367670Y2482200I0J-9990D01*
G01Y2355200D01*
G03X1377660Y2345210I9990J0D01*
G01X1858150D01*
G02X1868140Y2335220I0J-9990D01*
G01Y2067430D01*
G03X1878130Y2057440I9990J0D01*
G01X4140000D01*
G02X4149990Y2047450I0J-9990D01*
G01Y60010D01*
G02X4140000Y50020I-9990J0D01*
G01X4061620D01*
G02X4052300Y56400I-4J9991D01*
G01X4045570Y73800D01*
G02X4048160Y84790I9318J3604D01*
G01X4048170D01*
G03X4085750Y169840I-77451J85050D01*
G01Y329840D01*
G03X3855710I-115020J0D01*
G01Y169840D01*
G03X3893290Y84790I115031J0D01*
G01X3893300D01*
G02X3895890Y73800I-6728J-7386D01*
G01X3889160Y56400D01*
G02X3879840Y50020I-9316J3611D01*
G01X3117600D01*
G02X3112240Y51580I0J9990D01*
G03X1087760I-1012240J-1593582D01*
G02X1082400Y50020I-5360J8430D01*
G01X950950D01*
G02X942110Y55360I2J9991D01*
G01X933870Y71020D01*
G02X934480Y81330I8844J4650D01*
G03X941100Y104050I-31077J21379D01*
G02X944020Y111470I9982J356D01*
G01X1033800Y201250D01*
G02X1040870Y204180I7068J-7060D01*
G01X1058050D01*
G02X1068040Y194190I0J-9990D01*
G01Y194180D01*
G02X1061870Y184950I-9990J1D01*
G03X1095870Y182350I14434J-34850D01*
G02X1091130Y189690I5177J8544D01*
G01X1089250Y205310D01*
G02X1092110Y213570I9919J1191D01*
G01X1205600Y327060D01*
G02X1212670Y329990I7068J-7060D01*
G01X1656100D01*
G03X1663160Y332920I-7J9988D01*
G01X1794350Y464100D01*
G02X1801420Y467030I7068J-7060D01*
G01X1972710D01*
G02X1980050Y463810I-6J-9988D01*
G01X1990020Y453010D01*
G02X1992630Y445430I-7346J-6769D01*
G03X2052250Y411760I37599J-3042D01*
G02X2058690Y413620I5831J-8109D01*
G01X2071320Y412850D01*
G02X2077490Y410210I-617J-9973D01*
G03X2140270Y444300I25608J27692D01*
G02X2142480Y452430I9846J1689D01*
G01X2152330Y464130D01*
G02X2159970Y467680I7638J-6441D01*
G01X2217550D01*
G03X2224610Y470610I-7J9988D01*
G01X2229710Y475700D01*
G02X2237130Y478620I7064J-7062D01*
G03X2243650Y553680I1350J37696D01*
G01X2243640Y553690D01*
G02X2235020Y563580I1369J9894D01*
G01Y563590D01*
G02X2245010Y573580I9990J0D01*
G01X2266890D01*
G03X2273950Y576510I-7J9988D01*
G01X2351190Y653750D01*
G03X2354120Y660810I-7058J7067D01*
G01Y710710D01*
G03X2351190Y717770I-9988J-7D01*
G01X2316030Y752930D01*
G03X2308970Y755860I-7067J-7058D01*
G01X2259230D01*
G03X2252170Y752930I7J-9988D01*
G01X2222480Y723250D01*
G02X2215410Y720320I-7068J7060D01*
G01X1747910D01*
G03X1740850Y717390I7J-9988D01*
G01X1667700Y644240D01*
G03X1664770Y637180I7058J-7067D01*
G01Y540160D01*
G02X1661840Y533090I-9990J-2D01*
G01X1611800Y483050D01*
G02X1604730Y480120I-7068J7060D01*
G01X1458490D01*
G02X1451420Y483050I-2J9990D01*
G01X1441790Y492680D01*
G02X1438870Y500180I7060J7067D01*
G01X1439510Y514900D01*
G02X1443060Y522120I9981J-425D01*
G03X1381090Y550360I-24258J28882D01*
G02X1378220Y543180I-9991J-170D01*
G01X1368220Y533020D01*
G02X1361100Y530030I-7127J6998D01*
G01X1329180D01*
X1328970Y529820D01*
X1324600D01*
G03X1317540Y526890I7J-9988D01*
G01X1264090Y473450D01*
G02X1257020Y470520I-7068J7060D01*
G01X1162210D01*
G03X1155150Y467590I7J-9988D01*
G01X1087810Y400260D01*
G02X1079930Y397370I-7061J7066D01*
G01X1064720Y398630D01*
G02X1057420Y402770I822J9955D01*
G03X1056460Y404050I-30648J-21986D01*
G02X1054350Y410200I7880J6141D01*
G01Y416480D01*
G02X1056460Y422630I9990J9D01*
G03X1064180Y441360I-29731J23210D01*
G02X1068270Y448280I9918J-1193D01*
G01X1080220Y456890D01*
G02X1088080Y458560I5831J-8112D01*
G03X1058270Y499980I7642J36937D01*
G02X1054180Y493060I-9918J1193D01*
G01X1042230Y484450D01*
G02X1034370Y482780I-5831J8112D01*
G03X997000Y422630I-7638J-36938D01*
G02X999110Y416480I-7880J-6141D01*
G01Y410200D01*
G02X997000Y404050I-9990J-9D01*
G03X994420Y361370I29730J-23215D01*
G02X995860Y356220I-8551J-5167D01*
G01Y356210D01*
G02X985870Y346220I-9990J0D01*
G01X972550D01*
G02X964640Y350110I1J9990D01*
G01X954970Y362640D01*
G02X953220Y371280I7911J6100D01*
G03X946460Y404050I-36489J9555D01*
G02X944350Y410200I7880J6141D01*
G01Y416480D01*
G02X946460Y422630I9990J9D01*
G03X937140Y477560I-29731J23211D01*
G01X937130Y477570D01*
G02X932600Y484900I5403J8404D01*
G01X930940Y500380D01*
G02X933810Y508510I9935J1064D01*
G01X1000130Y574820D01*
X1002130Y575580D01*
G03X951750Y603500I-13381J35269D01*
G01Y603490D01*
G02X949020Y594480I-9797J-1950D01*
G01X904420Y549880D01*
G02X896920Y546970I-7058J7070D01*
G01X882200Y547610D01*
G02X874980Y551160I425J9980D01*
G03X821840Y498020I-28880J-24260D01*
G02X825390Y490800I-6430J-7645D01*
G01X826030Y476080D01*
G02X823120Y468580I-9980J-442D01*
G01X807710Y453170D01*
G03X804780Y446110I7059J-7068D01*
G01Y445800D01*
X802120Y442920D01*
G03X799530Y394800I27681J-25620D01*
G02X800730Y385010I-8023J-5952D01*
G01X798560Y379780D01*
G02X789340Y373620I-9226J3829D01*
G01X780970D01*
G02X773900Y376550I-2J9990D01*
G01X755550Y394900D01*
G02X752620Y401970I7060J7068D01*
G01Y601060D01*
G02X757220Y609470I9989J-1D01*
G01X771390Y618560D01*
G02X780950Y619220I5384J-8414D01*
G03Y687780I15750J34280D01*
G02X771390Y688440I-4176J9074D01*
G01X757220Y697530D01*
G02X752620Y705940I5389J8411D01*
G01Y747590D01*
G03X749690Y754650I-9988J-7D01*
G01X735100Y769250D01*
G02X732210Y777110I7067J7060D01*
G01X733430Y792290D01*
G02X737550Y799600I9960J-797D01*
G03X747720Y849810I-22051J30601D01*
G02X746330Y856110I8538J5187D01*
G01X747680Y868250D01*
G02X750420Y874090I9931J-1097D01*
G01X750430D01*
G03X724750Y937990I-27129J26208D01*
G02X718070Y940910I386J9984D01*
G01X688290Y970690D01*
G03X681230Y973620I-7068J-7059D01*
G01X460160D01*
G03X453100Y970690I8J-9989D01*
G01X388610Y906200D01*
G03X385680Y899140I7059J-7068D01*
G01Y762620D01*
G03X388610Y755560I9989J8D01*
G01X432720Y711450D01*
G03X439780Y708520I7068J7059D01*
G01X497460D01*
G02X504520Y705590I-7J-9988D01*
G01X514450Y695660D01*
G02X517380Y688600I-7058J-7067D01*
G01Y402810D01*
G02X514720Y396030I-9989J7D01*
G03X570080I27680J-25630D01*
G02X567420Y402810I7329J6787D01*
G01Y709330D01*
G03X564490Y716390I-9989J-8D01*
G01X522320Y758560D01*
X519830D01*
X506900Y772660D01*
G02X504310Y780280I7362J6752D01*
G03X492430Y811150I-37579J3259D01*
G02X489250Y818460I6810J7309D01*
G01Y818550D01*
G02X499240Y828540I9990J0D01*
G01X501480D01*
X503510Y827580D01*
G03X520950Y824000I16091J34118D01*
G02X528370Y821080I356J-9982D01*
G01X668150Y681300D01*
G02X671080Y674230I-7060J-7068D01*
G01Y531580D01*
G02X666390Y523120I-9989J8D01*
G01X652020Y514120D01*
G02X642350Y513610I-5295J8473D01*
G03Y445770I-16500J-33920D01*
G02X652020Y445260I4375J-8983D01*
G01X666390Y436260D01*
G02X671080Y427800I-5299J-8468D01*
G01Y372910D01*
G03X674010Y365850I9988J7D01*
G01X738350Y301510D01*
G03X745410Y298580I7067J7058D01*
G01X785060D01*
G02X793240Y294320I-3J-9990D01*
G01X802630Y280910D01*
G02X803840Y271770I-8178J-5733D01*
G03X801720Y255640I35460J-12865D01*
G02X799130Y248020I-9952J-868D01*
G01X789170Y237160D01*
G02X781810Y233920I-7364J6749D01*
G01X487170D01*
G02X480100Y236850I-2J9990D01*
G01X359950Y357000D01*
G02X357020Y364070I7060J7068D01*
G01Y446780D01*
G02X360200Y454090I9990J1D01*
G03X308800I-25700J27610D01*
G02X311980Y446780I-6810J-7309D01*
G01Y345410D01*
G03X314910Y338350I9988J7D01*
G01X461450Y191810D01*
G03X468510Y188880I7067J7058D01*
G01X933610D01*
G02X942840Y182710I-1J-9991D01*
G02X940670Y171820I-9230J-3822D01*
G01X912170Y143320D01*
G02X904750Y140400I-7064J7062D01*
G03X872320Y81330I-1349J-37697D01*
G02X872930Y71020I-8234J-5660D01*
G01X864690Y55360D01*
G02X855850Y50020I-8842J4651D01*
G01X60000D01*
G02X50010Y60010I0J9990D01*
G37*
%LPC*%
G75*
G36*
G01X2785230Y1499850D02*
G03X2759930Y1497790I-11397J-16423D01*
G02X2755200Y1555890I-26230J27107D01*
G03X2780500Y1557950I11397J16423D01*
G02X2785230Y1499850I26230J-27107D01*
G37*
G36*
G01X91520Y1528260D02*
G03X95540Y1541560I-4868J8729D01*
G02X147460Y1525880I33540J17260D01*
G03X143440Y1512580I4868J-8729D01*
G02X91520Y1528260I-33540J-17260D01*
G37*
G36*
G01X3976520Y1305710D02*
G03X3965350Y1297550I-1331J-9903D01*
G02X3933210Y1341490I-37149J6552D01*
G03X3944380Y1349650I1331J9903D01*
G02X3976520Y1305710I37149J-6552D01*
G37*
G36*
G01X336850Y1317790D02*
X335980Y1329920D01*
G03X333490Y1335830I-9963J-718D01*
G02Y1385850I28240J25010D01*
G03X335980Y1391760I-7473J6628D01*
G01X336850Y1403890D01*
G03X335230Y1410100I-9967J716D01*
G02X342380Y1459650I31502J20745D01*
G03X345760Y1465490I-6447J7629D01*
G01X346910Y1471790D01*
G03X345800Y1478440I-9831J1777D01*
G02X403080Y1468030I32930J18399D01*
G03X399700Y1462190I6447J-7629D01*
G01X398550Y1455890D01*
G03X399660Y1449240I9831J-1777D01*
G02X394970Y1405830I-32929J-18401D01*
G03X392480Y1399920I7473J-6628D01*
G01X391610Y1387790D01*
G03X393230Y1381580I9967J-716D01*
G02Y1340100I-31500J-20740D01*
G03X391610Y1333890I8347J-5494D01*
G01X392480Y1321760D01*
G03X394970Y1315850I9963J718D01*
G02X335230Y1311580I-28235J-25010D01*
G03X336850Y1317790I-8347J5494D01*
G37*
G36*
G01X3658440Y232990D02*
G02X3618430Y192980I-40017J7D01*
G01X3478430D01*
G02X3477300Y193000I143J40007D01*
G01X3227100D01*
Y193030D01*
X3212030D01*
G02X3172020Y233040I0J40010D01*
G01Y588020D01*
G02X3212030Y628070I40020J30D01*
G01X3237050D01*
G02X3239150Y628010I-93J-40024D01*
G01X3239410Y628000D01*
X3592630D01*
G02X3593410Y628010I903J-40005D01*
G01X3618430D01*
G02X3658440Y588000I-3J-40013D01*
G01Y232990D01*
G37*
G36*
G01X3558760Y1520820D02*
X3106700D01*
G02X3096710Y1530810I0J9990D01*
G01Y2020870D01*
G02X3106700Y2030860I9990J0D01*
G01X3558760D01*
G02X3568750Y2020870I0J-9990D01*
G01Y1930820D01*
X3568730D01*
Y1665830D01*
G02X3558740Y1655840I-9990J0D01*
G01X3471360D01*
G03X3464600Y1653200I6J-9990D01*
G02X3448290Y1717520I-25550J27749D01*
G01X3449490Y1717220D01*
X3450740D01*
G03X3460730Y1727210I0J9990D01*
G01Y1734540D01*
G03X3450740Y1744530I-9990J0D01*
G01X3449510D01*
X3448330Y1744230D01*
G02Y1817450I-9090J36610D01*
G01X3449510Y1817150D01*
X3450740D01*
G03X3460730Y1827140I0J9990D01*
G01Y1835230D01*
G03X3450740Y1845220I-9990J0D01*
G01X3449240D01*
X3447800Y1844780D01*
G02X3404500Y1900440I-11071J36060D01*
G03X3404680Y1910530I-8530J5199D01*
G01X3396140Y1925730D01*
G03X3387430Y1930820I-8707J-4902D01*
G01X3386030D01*
G03X3377320Y1925730I-3J-9992D01*
G01X3368780Y1910530D01*
G03X3368960Y1900440I8710J-4891D01*
G02X3304500I-32230J-19600D01*
G03X3304680Y1910530I-8530J5199D01*
G01X3296140Y1925730D01*
G03X3287430Y1930820I-8707J-4902D01*
G01X3206740D01*
G03X3196750Y1920830I0J-9990D01*
G01Y1836560D01*
G03X3200660Y1828630I9990J-3D01*
G01X3213260Y1818970D01*
G03X3221940Y1817260I6072J7936D01*
G02Y1744420I9820J-36420D01*
G03X3213260Y1742710I-2608J-9646D01*
G01X3200660Y1733050D01*
G03X3196750Y1725120I6080J-7927D01*
G01Y1630850D01*
G03X3206740Y1620860I9990J0D01*
G01X3558760D01*
G02X3568750Y1610870I0J-9990D01*
G01Y1530810D01*
G02X3558760Y1520820I-9990J0D01*
G37*
G36*
G01X2294600Y1473110D02*
G02X2251490Y1430310I-5799J-37270D01*
G03X2248700Y1435880I-9884J-1467D01*
G01X2244370Y1440240D01*
G03X2238820Y1443070I-7088J-7043D01*
G02X2248400Y1517870I5809J37269D01*
G03X2255650Y1520010I1007J9939D01*
G01X2266580Y1528760D01*
G03X2270250Y1535360I-6248J7795D01*
G02X2295310Y1495210I37450J-4521D01*
G03X2282090Y1484640I-3289J-9439D01*
G02X2282260Y1482780I-37465J-4362D01*
G01X2289050Y1475940D01*
G03X2294600Y1473110I7088J7043D01*
G37*
G36*
G01X3964100Y1091940D02*
G02X3945400Y1051080I18200J-33039D01*
G03X3916200Y1064440I-19554J-4148D01*
G02X3934900Y1105300I-18200J33039D01*
G03X3964100Y1091940I19554J4148D01*
G37*
G36*
G01X273770Y931970D02*
G02X249520Y969150I-37670J1929D01*
G03X262170Y982640I3557J9341D01*
G02X258150Y994690I54615J24916D01*
G03X237580Y1010360I-19523J-4292D01*
G02X266870Y1069130I-1978J37670D01*
G03X291770Y1062140I16570J11181D01*
G02X299490Y950080I25009J-54573D01*
G03X290860Y948680I-2877J-9564D01*
G01X277990Y939620D01*
G03X273770Y931970I5757J-8165D01*
G37*
G36*
G01X1136690Y807800D02*
G02X1124480Y756280I20041J-31956D01*
G03X1096770Y762840I-17087J-10373D01*
G02X1108980Y814360I-20041J31956D01*
G03X1136690Y807800I17087J10373D01*
G37*
G36*
G01X2692140Y594060D02*
G02X2673870Y646360I-33308J17706D01*
G03X2699490Y655310I7970J18331D01*
G02X2717760Y603010I33308J-17706D01*
G03X2692140Y594060I-7970J-18331D01*
G37*
G54D21*
X206000Y369400D03*
X240400Y796400D03*
X1152300Y639700D03*
X908740Y1324600D03*
Y1600500D03*
X757100Y2204040D03*
X678500Y1745830D03*
X621730Y2150840D03*
X818000Y1514400D03*
X1093300Y1205300D03*
X1380600Y1086140D03*
X1481730Y1085840D03*
X1212600Y1198700D03*
X346730Y2300840D03*
X366780Y1156800D03*
X1491730Y1350840D03*
X1358800Y1293100D03*
X485730Y1555840D03*
X1492200Y1736500D03*
X1934700Y1652100D03*
X471730Y1240840D03*
X727730Y1427840D03*
X531900Y1743520D03*
X1288500Y889500D03*
X1192940Y1049050D03*
X580200Y2340840D03*
X2701400Y322000D03*
X3731900Y577500D03*
X3046720Y843840D03*
X2538940Y808630D03*
X2384300Y1416300D03*
X2489860Y940140D03*
X2520200Y1198340D03*
X2647500Y821100D03*
X3727300Y819410D03*
X2615700Y1150800D03*
X3641600Y1730700D03*
X3671730Y1275840D03*
X3752860Y1658460D03*
X3761100Y1500100D03*
X3828940Y1600180D03*
X3863800Y1497500D03*
X3827700Y1360300D03*
X3885730Y1714840D03*
G54D23*
X3619730Y1061840D03*
G54D22*
X316780Y1792570D03*
%LPD*%
G75*
G54D10*
X279300Y91900D03*
X75200Y314500D03*
X83730Y81840D03*
X206000Y369400D03*
X85300Y2345840D03*
X81200Y1964000D03*
X84500Y1641700D03*
X91730Y2235840D03*
X236730Y1743530D03*
X82000Y1817300D03*
X240400Y796400D03*
X236100Y933900D03*
X235600Y1048030D03*
X109900Y1495320D03*
X129080Y1558820D03*
X400080Y81300D03*
X1959300Y373900D03*
X1853900Y361900D03*
X1374500Y236300D03*
X1199700Y154200D03*
X812500Y81300D03*
X1056200Y83300D03*
X853610Y609090D03*
X658730Y86100D03*
X518600Y85200D03*
X1349400Y571250D03*
X1584300Y516600D03*
X1519740Y657500D03*
X1507600Y535300D03*
X334500Y481700D03*
X1795500Y584650D03*
X1418800Y551000D03*
X542400Y370400D03*
X1076300Y150100D03*
X1095720Y495500D03*
X1895500Y591200D03*
X1957390Y567050D03*
X1358190Y460010D03*
X916730Y380840D03*
Y445840D03*
X1026730Y380840D03*
Y445840D03*
X846100Y526900D03*
X903400Y102700D03*
X625850Y479690D03*
X839300Y258900D03*
X796700Y653500D03*
X1152300Y639700D03*
X988750Y610850D03*
X829800Y417300D03*
X1301900Y1468950D03*
X1987400Y1852100D03*
X1846600Y1886200D03*
X1289300Y1856900D03*
X1783000Y1647700D03*
X1302700Y2363300D03*
X1521990Y2102600D03*
X906700Y1791200D03*
X1219020Y1858940D03*
X1797300Y1959500D03*
X1943200Y1948000D03*
X1377500Y2220600D03*
X1681200Y2095200D03*
X1830700Y2079200D03*
X1661700Y2309800D03*
X1834800D03*
X1457400Y2239900D03*
X1244600Y2451990D03*
X483600Y2386900D03*
X886730Y2381840D03*
X960100Y2373800D03*
X1139370Y715590D03*
X1278700Y1221300D03*
X1238800Y1978000D03*
X1442510Y1909100D03*
X1521300Y1810500D03*
X1280100Y1287000D03*
X1864900Y1804400D03*
X1260200Y1644500D03*
X1242700Y1727200D03*
X1008000Y1893500D03*
X961410Y2148700D03*
X713300Y2073500D03*
X327400Y1972700D03*
X1972100Y2027400D03*
X1446200Y1812200D03*
X545700Y1006900D03*
X542700Y1809300D03*
X880730Y2247840D03*
X1028200Y2224000D03*
X886730Y2080840D03*
X814700Y1428300D03*
X1091300Y1113900D03*
X474730Y1437840D03*
X411730Y1575840D03*
X591730Y1944800D03*
X981100Y1645300D03*
X1731730Y870840D03*
X1831730Y1070840D03*
X1731730D03*
X1931730Y870840D03*
X1831730D03*
X1936730Y1070840D03*
X1731730Y1170840D03*
X1831730D03*
X1931730Y970840D03*
X1731730D03*
X1936730Y1270840D03*
X1836730D03*
X1831730Y970840D03*
X1931730Y1170840D03*
X1731730Y1270840D03*
X756730Y958470D03*
X492730Y2284840D03*
X734200Y1500500D03*
X366730Y2179840D03*
X337900Y802200D03*
X952110Y2000840D03*
X1778600Y1787200D03*
X1992900Y1694100D03*
X1951800Y1776300D03*
X1567900Y2314000D03*
X1392700Y2310800D03*
X1203600Y2166600D03*
X1210600Y1796800D03*
X1353700Y1433600D03*
X757100Y2204040D03*
X678500Y1745830D03*
X621730Y2150840D03*
X818000Y1514400D03*
X1093300Y1205300D03*
X715500Y830200D03*
X1156730Y775840D03*
X1380600Y1086140D03*
X723300Y900300D03*
X1481730Y1085840D03*
X1212600Y1198700D03*
X346730Y2300840D03*
X366780Y1156800D03*
X908740Y1324600D03*
X361730Y1360840D03*
X366730Y1290840D03*
X378730Y1496840D03*
X908740Y1600500D03*
X1491730Y1350840D03*
X1358800Y1293100D03*
X1076730Y794800D03*
X485730Y1555840D03*
X466730Y783540D03*
X366730Y1430840D03*
X1492200Y1736500D03*
X1934700Y1652100D03*
X471730Y1240840D03*
X519600Y861700D03*
X727730Y1427840D03*
X531900Y1743520D03*
X1288500Y889500D03*
X1192940Y1049050D03*
X580200Y2340840D03*
X942300Y2467210D03*
X803600D03*
X504400Y2467200D03*
X599300Y2461000D03*
X1330200Y2465100D03*
X304700Y2458300D03*
X443900Y2530800D03*
X2118500Y370880D03*
X2593700Y307300D03*
X2859600Y231500D03*
X2999000Y177200D03*
X2507100Y683700D03*
X3307700Y476500D03*
X3306700Y670300D03*
X2399500Y687600D03*
X3156730Y665840D03*
X3012730Y623840D03*
X3506500Y140600D03*
X3579730Y86840D03*
X3405730Y96840D03*
X3287000Y104100D03*
X2396700Y542100D03*
X2219590Y649900D03*
X2284100Y685840D03*
X2103100Y437900D03*
X2732800Y637600D03*
X2082390Y579500D03*
X2030230Y442390D03*
X2184970Y597170D03*
X2101730Y648140D03*
X2658830Y611770D03*
X2238480Y516320D03*
X2701400Y322000D03*
X3512290Y473050D03*
X3731900Y577500D03*
X2498400Y1963400D03*
X3432900Y1329600D03*
X3212100Y1326800D03*
X2919200Y1590300D03*
X2275300Y1950100D03*
X2278900Y1772400D03*
X2581900Y1716800D03*
X2585900Y1867500D03*
X2087300Y1974700D03*
X2899900Y1712600D03*
X2722600Y1720600D03*
X2898300Y1862400D03*
X2874400Y1945600D03*
X2053200Y1897600D03*
X3713000Y1899900D03*
X3688100Y2021300D03*
X3014500Y2022700D03*
X2527500Y1660000D03*
X2980700Y1365200D03*
X3380500Y1132400D03*
X3419800Y1026700D03*
X2684100Y1225700D03*
X2859400Y2030300D03*
X2528900Y2031300D03*
X2346900D03*
X2159000Y2029300D03*
X2876300Y795700D03*
X3601500Y2028600D03*
X2628860Y2026400D03*
X3049900Y1940400D03*
X3071730Y1773300D03*
X3071200Y1595900D03*
X3664400Y1354700D03*
X2821600Y1350600D03*
X3371730Y868840D03*
X3596730Y1275840D03*
X3411730Y1218540D03*
X3615100Y870900D03*
X2621000Y1368200D03*
X3488700Y867000D03*
X2933020Y992100D03*
X2861730Y995840D03*
Y1070840D03*
X2931730D03*
X3046740Y1215840D03*
X3236730Y1880840D03*
Y1680840D03*
X3336730D03*
X2551600Y1363900D03*
X3744530Y1066040D03*
X3469430Y1161170D03*
X2121730Y1170840D03*
Y1270840D03*
X2031730Y870840D03*
X2126730D03*
X2121730Y1070840D03*
Y970840D03*
X2031730D03*
Y1170840D03*
Y1270840D03*
Y1070840D03*
X3436730Y1880840D03*
X2307700Y1530840D03*
X2244620Y1480340D03*
X3439240Y1780840D03*
X3046720Y843840D03*
X2288800Y1435840D03*
X2538940Y808630D03*
X2384300Y1416300D03*
X2489860Y940140D03*
X2520200Y1198340D03*
X2647500Y821100D03*
X3727300Y819410D03*
X2615700Y1150800D03*
X3641600Y1730700D03*
X3336730Y1880840D03*
X2733700Y1524900D03*
X2806730Y1530840D03*
X3671730Y1275840D03*
X3752860Y1658460D03*
X3761100Y1500100D03*
X3231760Y1780840D03*
X3439050Y1680950D03*
X4119800Y260600D03*
X3861730Y450840D03*
X4097730Y423840D03*
X4107730Y104840D03*
X3836730Y85840D03*
X4120600Y866500D03*
X4119000Y1213340D03*
X4116800Y1900800D03*
X3933600Y2027400D03*
X3974400Y1419500D03*
X3778300Y1828860D03*
X4101800Y2026400D03*
X3897700Y996700D03*
X4096730Y735840D03*
X3863800Y1497500D03*
X3928200Y1304100D03*
X3827700Y1360300D03*
X3885730Y1714840D03*
X3828940Y1600180D03*
X3982300Y1058900D03*
X3898000Y1097480D03*
X3981530Y1343100D03*
X3986730Y2720840D03*
G54D20*
G01X4101800Y1983490D02*
Y2026400D01*
G01D02*
Y2605770D01*
X3986730Y2720840D01*
G54D11*
X206730Y2435840D03*
G54D12*
Y2865840D03*
G54D13*
X316780Y1007570D03*
Y1792570D03*
X3618730Y1060840D03*
G54D14*
X1859780Y3095400D03*
X1659880D03*
Y2595520D03*
X1459980Y3095400D03*
X1859780Y2595520D03*
X3259820D03*
X3059930Y3095400D03*
Y2595520D03*
X2859770Y3095400D03*
Y2595520D03*
X2659880Y3095400D03*
Y2595520D03*
X2459720Y3095400D03*
Y2595520D03*
X2259830Y3095400D03*
Y2595520D03*
X2059930Y3095400D03*
Y2595520D03*
X3260100Y3097200D03*
X3459600Y2593400D03*
G54D15*
X2990730Y399840D03*
X3970730Y249840D03*
G54D16*
X3991730Y2435840D03*
G54D17*
Y2865840D03*
G54D18*
G01X542400Y370400D02*
Y703100D01*
X511960Y733540D01*
X446010D01*
X410700Y768850D01*
Y892910D01*
X466390Y948600D01*
X675000D01*
X723300Y900300D01*
G01X829800Y417300D02*
Y439880D01*
X988750Y598830D01*
Y610850D01*
G54D19*
G01X334500Y481700D02*
Y350600D01*
X473700Y211400D01*
X968600D01*
X1020890Y263690D01*
X1043090D01*
X1043100Y263680D01*
X1067940D01*
X1186770Y382510D01*
X1627970D01*
X1765010Y519550D01*
X1997780D01*
X1998120Y519890D01*
X2062340D01*
X2062680Y519550D01*
X2107050D01*
X2137270Y549770D01*
Y573590D01*
X2137470Y573790D01*
Y616850D01*
X2165290Y644670D01*
X2208350D01*
X2213580Y649900D01*
X2219590D01*
G01X2184970Y597170D02*
X2186040Y596100D01*
X2261700D01*
X2331600Y666000D01*
Y705520D01*
X2303780Y733340D01*
X2264420D01*
X2228880Y697800D01*
X1753100D01*
X1687290Y631990D01*
Y526690D01*
X1618200Y457600D01*
X1445020D01*
X1395320Y507300D01*
X1378080D01*
X1377870Y507510D01*
X1338510D01*
X1338300Y507300D01*
X1329790D01*
X1270490Y448000D01*
X1167400D01*
X1043100Y323700D01*
X895940D01*
X868540Y351100D01*
X767500D01*
X730100Y388500D01*
Y742400D01*
X563300Y909200D01*
X487100D01*
X466730Y888830D01*
Y783540D01*
G01X2101730Y648140D02*
X2098270Y651600D01*
X1752840D01*
X1717300Y616060D01*
Y514270D01*
X1615540Y412510D01*
X1174340D01*
X1055530Y293700D01*
X883510D01*
X856110Y321100D01*
X750600D01*
X693600Y378100D01*
Y687700D01*
X519600Y861700D01*
G01X903400Y102700D02*
X1027400Y226700D01*
X1073390D01*
X1199200Y352510D01*
X1650910D01*
X1787950Y489550D01*
X2010210D01*
X2010550Y489890D01*
X2049910D01*
X2050250Y489550D01*
X2119480D01*
X2120130Y490200D01*
X2212360D01*
X2238480Y516320D01*
M02*
