G04 ================== begin FILE IDENTIFICATION RECORD ==================*
G04 Layout Name:  CC1350SensorTag.brd*
G04 Film Name:    CC1350STK_silk_bottom*
G04 File Format:  Gerber RS274X*
G04 File Origin:  Cadence Allegro 16.6-S019*
G04 Origin Date:  Wed Nov 09 12:53:35 2016*
G04 *
G04 Layer:  REF DES/SILKSCREEN_BOTTOM*
G04 Layer:  PACKAGE GEOMETRY/SILKSCREEN_BOTTOM*
G04 Layer:  MANUFACTURING/AUTOSILK_BOTTOM*
G04 Layer:  BOARD GEOMETRY/OUTLINE*
G04 *
G04 Offset:    (0.0000 0.0000)*
G04 Mirror:    No*
G04 Mode:      Positive*
G04 Rotation:  0*
G04 FullContactRelief:  No*
G04 UndefLineWidth:     0.1000*
G04 ================== end FILE IDENTIFICATION RECORD ====================*
%FSLAX25Y25*MOMM*%
%IR0*IPPOS*OFA0.00000B0.00000*MIA0B0*SFA1.00000B1.00000*%
%ADD10C,.1*%
%ADD11C,.1001*%
G75*
%LPD*%
G75*
G36*
G01X3371170Y2868580D02*
Y2859200D01*
X3422560D01*
Y2868580D01*
X3416850D01*
G02X3411920Y2873510I-1J4929D01*
G01Y2987900D01*
G02X3416850Y2992830I4928J2D01*
G01X3446050D01*
G02X3449530Y2991400I8J-4931D01*
G01X3462650Y2978330D01*
X3457840Y3009010D01*
X3335890D01*
X3331080Y2978330D01*
X3344200Y2991400D01*
G02X3347680Y2992830I3472J-3500D01*
G01X3376880D01*
G02X3381810Y2987900I1J-4929D01*
G01Y2873510D01*
G02X3376880Y2868580I-4930J0D01*
G01X3371170D01*
G37*
G36*
G01X3070530Y2690530D02*
Y2683120D01*
X3111120D01*
Y2690530D01*
X3106610D01*
G02X3102720Y2694420I2J3892D01*
G01Y2784790D01*
G02X3106610Y2788690I3895J5D01*
G01X3129680D01*
G02X3132430Y2787550I-4J-3896D01*
G01X3142790Y2777230D01*
X3138990Y2801470D01*
X3042660D01*
X3038860Y2777230D01*
X3049220Y2787550D01*
G02X3051970Y2788690I2754J-2756D01*
G01X3075040D01*
G02X3078930Y2784790I-5J-3895D01*
G01Y2694420D01*
G02X3075040Y2690530I-3893J3D01*
G01X3070530D01*
G37*
G36*
G01X2331660D02*
Y2683120D01*
X2372260D01*
Y2690530D01*
X2367750D01*
G02X2363850Y2694420I-6J3894D01*
G01Y2784790D01*
G02X2367750Y2788690I3897J3D01*
G01X2390810D01*
G02X2393560Y2787550I-3J-3894D01*
G01X2403930Y2777230D01*
X2400130Y2801470D01*
X2303790D01*
X2299990Y2777230D01*
X2310360Y2787550D01*
G02X2313110Y2788690I2753J-2755D01*
G01X2336170D01*
G02X2340070Y2784790I4J-3896D01*
G01Y2694420D01*
G02X2336170Y2690530I-3894J4D01*
G01X2331660D01*
G37*
G36*
G01X3236730Y2963650D02*
X3205960Y2920120D01*
G03X3205940Y2915580I3234J-2284D01*
G01X3236470Y2871580D01*
G03X3239730Y2869870I3260J2252D01*
G01X3247460D01*
Y2859200D01*
X3211230D01*
Y2869870D01*
X3218050D01*
X3195080Y2904740D01*
X3170440Y2869870D01*
X3177720D01*
Y2859200D01*
X3136630D01*
Y2869870D01*
X3137830D01*
G03X3141070Y2871570I-12J3961D01*
G01X3171890Y2915690D01*
G03X3171980Y2920090I-3245J2267D01*
G01X3144250Y2963500D01*
G03X3140910Y2965330I-3339J-2131D01*
G01X3131940D01*
Y2978230D01*
X3174620D01*
Y2968950D01*
Y2965330D01*
X3163160D01*
X3183780Y2934020D01*
X3204410Y2965330D01*
X3191800D01*
Y2978230D01*
X3247720D01*
Y2965330D01*
X3239960D01*
G03X3236730Y2963650I8J-3960D01*
G37*
G36*
G01X3060000Y2859200D02*
Y2869870D01*
X3056600D01*
G02X3052870Y2875170I2J3964D01*
G01X3080830Y2953370D01*
X3099730Y2904640D01*
X3064030D01*
X3059950Y2893240D01*
X3104190Y2893130D01*
X3111120Y2875270D01*
G02X3107430Y2869870I-3693J-1437D01*
G01X3106740D01*
Y2859200D01*
X3134100D01*
Y2869870D01*
X3133560D01*
G02X3129870Y2872410I7J3961D01*
G01X3088990Y2978230D01*
X3062150D01*
X3023370Y2872470D01*
G02X3019660Y2869870I-3720J1361D01*
G01X3015340D01*
Y2859200D01*
X3060000D01*
G37*
G36*
G01X3022380Y2694280D02*
Y2790610D01*
G02X3026340Y2794570I3960J0D01*
G01X3033650D01*
Y2801260D01*
X2959870D01*
X2957460Y2800910D01*
X2955060Y2800510D01*
X2953870Y2800280D01*
X2952690Y2800010D01*
X2951210Y2799610D01*
X2950360Y2799350D01*
X2949210Y2798950D01*
X2948070Y2798510D01*
X2946950Y2798020D01*
X2945850Y2797480D01*
X2944780Y2796900D01*
X2943720Y2796270D01*
X2942690Y2795600D01*
X2941690Y2794890D01*
X2940720Y2794140D01*
X2939780Y2793340D01*
X2938870Y2792500D01*
X2938360Y2792000D01*
X2937160Y2790700D01*
X2936370Y2789750D01*
X2935620Y2788760D01*
X2934920Y2787740D01*
X2934260Y2786690D01*
X2933660Y2785610D01*
X2933110Y2784510D01*
X2932630Y2783390D01*
X2932200Y2782250D01*
X2931830Y2781100D01*
X2931490Y2779760D01*
X2931300Y2778750D01*
X2931130Y2777570D01*
X2931010Y2776370D01*
X2930930Y2775170D01*
X2930880Y2773960D01*
X2930790Y2769060D01*
X2930750Y2767970D01*
X2930670Y2766590D01*
X2930510Y2764120D01*
X2930460Y2762890D01*
X2930430Y2761670D01*
X2930450Y2760450D01*
X2930530Y2759250D01*
X2930680Y2758060D01*
X2930800Y2757480D01*
X2930930Y2756890D01*
X2931050Y2756480D01*
X2931280Y2755740D01*
X2931500Y2755180D01*
X2931740Y2754620D01*
X2932000Y2754060D01*
X2932290Y2753520D01*
X2932920Y2752450D01*
X2933630Y2751420D01*
X2934400Y2750430D01*
X2935240Y2749490D01*
X2936110Y2748600D01*
X2937030Y2747770D01*
X2937970Y2747000D01*
X2938660Y2746480D01*
X2939900Y2745650D01*
X2940890Y2745060D01*
X2941880Y2744520D01*
X2942890Y2744010D01*
X2943910Y2743530D01*
X2946000Y2742600D01*
X2947070Y2742130D01*
X2948150Y2741640D01*
X2949240Y2741120D01*
X2950360Y2740560D01*
X2951490Y2739960D01*
X2952640Y2739290D01*
X2953800Y2738560D01*
X2955090Y2737670D01*
X2955580Y2737310D01*
X2955860Y2737080D01*
X2956110Y2736850D01*
X2956340Y2736630D01*
X2956520Y2736400D01*
X2956650Y2736180D01*
X2956730Y2735880D01*
X2956720Y2735740D01*
X2956660Y2735540D01*
X2956530Y2735330D01*
X2956350Y2735130D01*
X2956130Y2734940D01*
X2955870Y2734750D01*
X2955260Y2734380D01*
X2954190Y2733790D01*
X2953290Y2733280D01*
X2952690Y2732910D01*
X2952120Y2732550D01*
X2951580Y2732180D01*
X2951070Y2731810D01*
X2950580Y2731430D01*
X2949660Y2730670D01*
X2948810Y2729900D01*
X2948020Y2729100D01*
X2947260Y2728280D01*
X2946390Y2727290D01*
X2945770Y2726560D01*
X2945030Y2725660D01*
X2944280Y2724740D01*
X2943540Y2723780D01*
X2942810Y2722810D01*
X2941380Y2720800D01*
X2940690Y2719770D01*
X2940020Y2718720D01*
X2939370Y2717670D01*
X2939020Y2717080D01*
X2937560Y2714450D01*
X2936430Y2712280D01*
X2935310Y2710140D01*
X2934150Y2708020D01*
X2933530Y2706990D01*
X2932890Y2705970D01*
X2932480Y2705360D01*
X2931510Y2704000D01*
X2930770Y2703050D01*
X2930000Y2702110D01*
X2929200Y2701200D01*
X2928380Y2700300D01*
X2926680Y2698540D01*
X2924540Y2696460D01*
X2923160Y2695170D01*
X2921360Y2693540D01*
X2918870Y2691320D01*
G02X2916230Y2690320I-2631J2961D01*
G01X2911270D01*
Y2682910D01*
X2938770D01*
G03X2941710Y2684220I-3J3960D01*
G01X2947210Y2690320D01*
X2948120Y2691330D01*
X2949020Y2692340D01*
X2949920Y2693360D01*
X2950810Y2694380D01*
X2951690Y2695420D01*
X2952550Y2696460D01*
X2953390Y2697530D01*
X2954210Y2698610D01*
X2954910Y2699560D01*
X2955770Y2700820D01*
X2956510Y2701960D01*
X2957210Y2703130D01*
X2957890Y2704310D01*
X2958530Y2705500D01*
X2959130Y2706720D01*
X2959700Y2707960D01*
X2960210Y2709140D01*
X2960740Y2710480D01*
X2961220Y2711750D01*
X2961680Y2713030D01*
X2962150Y2714310D01*
X2962630Y2715580D01*
X2963130Y2716830D01*
X2963670Y2718070D01*
X2963980Y2718720D01*
X2964890Y2720460D01*
X2965570Y2721630D01*
X2966280Y2722780D01*
X2967000Y2723930D01*
X2967740Y2725090D01*
X2968250Y2725900D01*
X2969210Y2727430D01*
X2969960Y2728590D01*
X2970750Y2729710D01*
X2971590Y2730780D01*
X2972500Y2731750D01*
X2973260Y2732420D01*
X2974620Y2733360D01*
X2975810Y2734020D01*
X2977040Y2734610D01*
X2978310Y2735180D01*
X2998720D01*
Y2746330D01*
X2975220D01*
X2973850Y2746440D01*
X2972480Y2746570D01*
X2971460Y2746670D01*
X2969740Y2746900D01*
X2968390Y2747150D01*
X2967050Y2747480D01*
X2966330Y2747700D01*
X2964440Y2748470D01*
X2963180Y2749130D01*
X2961970Y2749890D01*
X2960820Y2750740D01*
X2959740Y2751680D01*
X2958730Y2752700D01*
X2957810Y2753780D01*
X2956990Y2754930D01*
X2956280Y2756130D01*
X2955740Y2757260D01*
X2955220Y2758660D01*
X2954870Y2759980D01*
X2954610Y2761320D01*
X2954440Y2762690D01*
X2954350Y2764080D01*
X2954310Y2765480D01*
X2954320Y2766890D01*
X2954370Y2768530D01*
X2954430Y2769730D01*
X2954520Y2771140D01*
X2954650Y2772540D01*
X2954820Y2773920D01*
X2955050Y2775290D01*
X2955350Y2776640D01*
X2955730Y2777960D01*
X2956190Y2779240D01*
X2956750Y2780500D01*
X2957110Y2781170D01*
X2958210Y2782870D01*
X2959090Y2783970D01*
X2960060Y2784990D01*
X2961120Y2785920D01*
X2962250Y2786750D01*
X2963450Y2787450D01*
X2964270Y2787840D01*
X2966000Y2788450D01*
X2967330Y2788770D01*
X2968690Y2789020D01*
X2970070Y2789200D01*
X2971460Y2789370D01*
X2999140D01*
Y2694280D01*
G02X2995180Y2690320I-3960J0D01*
G01X2986150D01*
Y2682910D01*
X3033650D01*
Y2690320D01*
X3026340D01*
G02X3022380Y2694280I-1J3959D01*
G37*
G36*
G01X2882190Y2683150D02*
X2827870D01*
G02X2807660Y2705150I2071J22185D01*
G01Y2790610D01*
G03X2803700Y2794570I-3960J0D01*
G01X2797830D01*
Y2801840D01*
X2836320D01*
Y2794570D01*
X2828110D01*
G03X2824150Y2790610I2J-3962D01*
G01Y2711430D01*
G03X2843030Y2696830I17976J3738D01*
G01X2864730D01*
G03X2881870Y2711430I-475J17918D01*
G01Y2790610D01*
G03X2877910Y2794570I-3962J-2D01*
G01X2869300D01*
Y2801840D01*
X2921520D01*
Y2794570D01*
X2911350D01*
G03X2907390Y2790610I0J-3960D01*
G01Y2714350D01*
G02X2882190Y2683150I-32235J259D01*
G37*
G36*
G01X2791880Y2682970D02*
X2754440D01*
Y2692180D01*
X2762570D01*
G03X2766540Y2696140I8J3962D01*
G01Y2771750D01*
X2722700Y2682970D01*
X2680690Y2770380D01*
Y2696140D01*
G03X2684650Y2692180I3962J2D01*
G01X2689220D01*
Y2683120D01*
X2643930D01*
Y2692180D01*
X2645680D01*
G03X2649640Y2696140I0J3960D01*
G01Y2791110D01*
G03X2645680Y2795070I-3960J0D01*
G01X2641650D01*
Y2801840D01*
X2680600D01*
G02X2684240Y2799460I8J-3962D01*
G01X2714710Y2729080D01*
X2747210Y2799540D01*
G02X2750810Y2801840I3595J-1660D01*
G01X2791880D01*
Y2794570D01*
X2782600D01*
G03X2778640Y2790610I0J-3960D01*
G01Y2696140D01*
G03X2782600Y2692180I3960J0D01*
G01X2791880D01*
Y2682970D01*
G37*
G36*
G01X2552350Y2758180D02*
X2549480D01*
Y2728570D01*
X2552350D01*
X2556330Y2733660D01*
G02X2559450Y2735180I3121J-2443D01*
G01X2599920D01*
Y2696860D01*
X2548900D01*
G02X2546040Y2698080I0J3963D01*
G01X2533690Y2711000D01*
X2530270D01*
X2539040Y2685640D01*
G03X2542780Y2682970I3744J1290D01*
G01X2633450D01*
Y2687220D01*
X2622270Y2693080D01*
G02X2620150Y2696580I1840J3506D01*
G01Y2784970D01*
G02X2622100Y2788380I3960J-2D01*
G01X2633450Y2795070D01*
Y2801840D01*
X2547530D01*
G03X2543870Y2799400I-2J-3962D01*
G01X2533120Y2773400D01*
X2539010Y2770970D01*
X2549520Y2782430D01*
G02X2552440Y2783720I2925J-2671D01*
G01X2599920D01*
Y2753230D01*
X2559110D01*
G02X2556370Y2754330I-1J3959D01*
G01X2552350Y2758180D01*
G37*
G36*
G01X3271870Y2934410D02*
X3269010D01*
Y2904800D01*
X3271870D01*
X3275860Y2909890D01*
G02X3278980Y2911400I3111J-2450D01*
G01X3319450D01*
Y2873090D01*
X3268430D01*
G02X3265570Y2874310I-1J3961D01*
G01X3253220Y2887220D01*
X3249800D01*
X3258560Y2861870D01*
G03X3262310Y2859200I3745J1291D01*
G01X3352970D01*
Y2863450D01*
X3341800Y2869300D01*
G02X3339680Y2872810I1841J3507D01*
G01Y2961200D01*
G02X3341630Y2964610I3959J-2D01*
G01X3352970Y2971300D01*
Y2978070D01*
X3267060D01*
G03X3263400Y2975620I1J-3961D01*
G01X3252650Y2949630D01*
X3258540Y2947200D01*
X3269040Y2958660D01*
G02X3271960Y2959940I2916J-2681D01*
G01X3319450D01*
Y2929450D01*
X3278640D01*
G02X3275900Y2930550I0J3963D01*
G01X3271870Y2934410D01*
G37*
G36*
G01X3382530Y2700100D02*
G02X3374610Y2692180I-7921J1D01*
G01X3370360D01*
Y2683120D01*
X3422560Y2682990D01*
Y2692180D01*
X3418310D01*
G02X3410390Y2700100I1J7921D01*
G01Y2822880D01*
G02X3418310Y2830810I7922J8D01*
G01X3422560D01*
Y2837610D01*
X3371170D01*
Y2830810D01*
X3374610D01*
G02X3382530Y2822880I-3J-7923D01*
G01Y2700100D01*
G37*
G36*
G01X3363450Y2692180D02*
X3355950D01*
G02X3351980Y2696140I-8J3962D01*
G01Y2789120D01*
G02X3355950Y2793080I3961J-1D01*
G01X3364010D01*
Y2801860D01*
X3327510D01*
G03X3324510Y2800490I-4J-3960D01*
G01X3267760Y2734750D01*
Y2788330D01*
G02X3271720Y2792290I3959J1D01*
G01X3281400D01*
Y2801860D01*
X3241510D01*
Y2792290D01*
X3249910D01*
G02X3253870Y2788330I1J-3959D01*
G01Y2683120D01*
X3260040D01*
G03X3263030Y2684490I-5J3958D01*
G01X3331660Y2763990D01*
Y2696140D01*
G02X3327700Y2692180I-3961J1D01*
G01X3321780D01*
Y2683120D01*
X3363450D01*
Y2692180D01*
G37*
G36*
G01X2528600D02*
X2521090D01*
G02X2517130Y2696140I2J3962D01*
G01Y2789120D01*
G02X2521090Y2793080I3960J0D01*
G01X2529160D01*
Y2801860D01*
X2492660D01*
G03X2489660Y2800490I-5J-3960D01*
G01X2432910Y2734750D01*
Y2788330D01*
G02X2436870Y2792290I3958J2D01*
G01X2446540D01*
Y2801860D01*
X2406650D01*
Y2792290D01*
X2415060D01*
G02X2419020Y2788330I0J-3960D01*
G01Y2683120D01*
X2425180D01*
G03X2428180Y2684490I5J3959D01*
G01X2496810Y2763990D01*
Y2696140D01*
G02X2492850Y2692180I-3961J1D01*
G01X2486930D01*
Y2683120D01*
X2528600D01*
Y2692180D01*
G37*
G36*
G01X2284810Y2684930D02*
X2294770Y2721610D01*
X2290170Y2722740D01*
X2288240Y2720110D01*
X2286290Y2717510D01*
X2284310Y2714980D01*
X2282260Y2712550D01*
X2280140Y2710250D01*
X2277930Y2708120D01*
X2275600Y2706180D01*
X2273130Y2704480D01*
X2270410Y2703000D01*
X2267730Y2701890D01*
X2264810Y2700970D01*
X2261780Y2700210D01*
X2258110Y2699440D01*
X2255530Y2698930D01*
X2252370Y2698360D01*
X2249200Y2697890D01*
X2246040Y2697570D01*
X2242900Y2697450D01*
X2239800Y2697580D01*
X2236750Y2698010D01*
X2233750Y2698790D01*
X2230580Y2700080D01*
X2228040Y2701560D01*
X2225490Y2703570D01*
X2223380Y2705960D01*
X2221510Y2709790D01*
X2221180Y2711640D01*
X2221270Y2714790D01*
X2222060Y2717940D01*
X2223450Y2720930D01*
X2226040Y2724360D01*
X2227620Y2725780D01*
X2230220Y2727490D01*
X2233040Y2728800D01*
X2236030Y2729800D01*
X2240290Y2730830D01*
X2242170Y2731210D01*
X2245230Y2731750D01*
X2248270Y2732230D01*
X2251310Y2732680D01*
X2254340Y2733110D01*
X2257360Y2733550D01*
X2260400Y2734030D01*
X2263440Y2734580D01*
X2266500Y2735220D01*
X2268470Y2735690D01*
X2272660Y2736870D01*
X2275680Y2737940D01*
X2278580Y2739210D01*
X2281320Y2740710D01*
X2283820Y2742470D01*
X2285960Y2744430D01*
X2287910Y2746840D01*
X2289460Y2749450D01*
X2290710Y2752280D01*
X2291670Y2755290D01*
X2292370Y2758430D01*
X2292820Y2761670D01*
X2293080Y2766440D01*
X2293070Y2768240D01*
X2292890Y2771510D01*
X2292500Y2774710D01*
X2291870Y2777830D01*
X2290990Y2780840D01*
X2289860Y2783710D01*
X2288450Y2786410D01*
X2286610Y2789100D01*
X2284750Y2791210D01*
X2282490Y2793280D01*
X2279990Y2795140D01*
X2277310Y2796800D01*
X2274490Y2798270D01*
X2271560Y2799540D01*
X2267170Y2801070D01*
X2265550Y2801550D01*
X2262520Y2802290D01*
X2259480Y2802870D01*
X2256420Y2803290D01*
X2253350Y2803550D01*
X2250330Y2803660D01*
X2247140Y2803620D01*
X2244020Y2803420D01*
X2240920Y2803020D01*
X2237870Y2802420D01*
X2234880Y2801600D01*
X2232520Y2800750D01*
X2229200Y2799230D01*
X2226470Y2797760D01*
X2223780Y2796220D01*
Y2803780D01*
X2215080D01*
X2207320Y2770250D01*
X2210180Y2767410D01*
X2212540Y2769270D01*
X2214920Y2771110D01*
X2217340Y2772900D01*
X2219800Y2774610D01*
X2222320Y2776210D01*
X2225070Y2777770D01*
X2227620Y2779020D01*
X2230400Y2780190D01*
X2233250Y2781210D01*
X2236140Y2782070D01*
X2239070Y2782780D01*
X2242030Y2783330D01*
X2243860Y2783590D01*
X2247950Y2783960D01*
X2250930Y2784020D01*
X2253950Y2783880D01*
X2256490Y2783590D01*
X2260070Y2782890D01*
X2262980Y2781880D01*
X2265540Y2780320D01*
X2266850Y2779060D01*
X2268960Y2775270D01*
X2269620Y2772110D01*
X2269530Y2768950D01*
X2268790Y2766440D01*
X2266920Y2763770D01*
X2264570Y2761940D01*
X2261770Y2760520D01*
X2258700Y2759430D01*
X2255840Y2758670D01*
X2252470Y2757960D01*
X2249460Y2757440D01*
X2246510Y2757020D01*
X2243590Y2756630D01*
X2240700Y2756230D01*
X2237700Y2755760D01*
X2234920Y2755230D01*
X2232020Y2754590D01*
X2229110Y2753860D01*
X2226200Y2753040D01*
X2223450Y2752200D01*
X2220370Y2751170D01*
X2217510Y2750080D01*
X2214730Y2748840D01*
X2212080Y2747420D01*
X2209600Y2745780D01*
X2207590Y2744110D01*
X2205320Y2741690D01*
X2203540Y2739260D01*
X2202010Y2736630D01*
X2200720Y2733850D01*
X2199670Y2730960D01*
X2198840Y2727920D01*
X2198280Y2725000D01*
X2197920Y2721990D01*
X2197800Y2718980D01*
X2197910Y2715970D01*
X2198240Y2712980D01*
X2198840Y2709790D01*
X2199570Y2707080D01*
X2200560Y2704200D01*
X2201770Y2701410D01*
X2203200Y2698720D01*
X2204830Y2696160D01*
X2206670Y2693750D01*
X2208880Y2691340D01*
X2210940Y2689480D01*
X2213350Y2687650D01*
X2215930Y2686020D01*
X2218630Y2684580D01*
X2221460Y2683350D01*
X2224370Y2682310D01*
X2227360Y2681460D01*
X2230390Y2680810D01*
X2233460Y2680350D01*
X2236530Y2680090D01*
X2239970Y2680020D01*
X2242620Y2680120D01*
X2245610Y2680410D01*
X2248570Y2680860D01*
X2251500Y2681440D01*
X2254410Y2682160D01*
X2257290Y2682990D01*
X2260160Y2683910D01*
X2263000Y2684910D01*
X2265840Y2685980D01*
X2268660Y2687090D01*
X2271480Y2688240D01*
X2274300Y2689400D01*
Y2684930D01*
X2284810D01*
G37*
G36*
G01X3229180Y2684260D02*
X3239140Y2720940D01*
X3234540Y2722070D01*
X3232610Y2719440D01*
X3230660Y2716840D01*
X3228670Y2714310D01*
X3226630Y2711880D01*
X3224510Y2709580D01*
X3222290Y2707440D01*
X3219960Y2705510D01*
X3217500Y2703810D01*
X3214780Y2702320D01*
X3212100Y2701220D01*
X3209170Y2700300D01*
X3206140Y2699540D01*
X3202470Y2698760D01*
X3199900Y2698250D01*
X3196740Y2697680D01*
X3193570Y2697210D01*
X3190410Y2696890D01*
X3187270Y2696780D01*
X3184170Y2696910D01*
X3181110Y2697330D01*
X3178120Y2698110D01*
X3174950Y2699410D01*
X3172410Y2700890D01*
X3169860Y2702900D01*
X3167750Y2705280D01*
X3165880Y2709120D01*
X3165550Y2710970D01*
X3165640Y2714120D01*
X3166430Y2717260D01*
X3167820Y2720250D01*
X3170410Y2723690D01*
X3171990Y2725100D01*
X3174580Y2726810D01*
X3177410Y2728120D01*
X3180390Y2729120D01*
X3184660Y2730160D01*
X3186540Y2730530D01*
X3189600Y2731080D01*
X3192640Y2731560D01*
X3195670Y2732000D01*
X3198700Y2732430D01*
X3201730Y2732880D01*
X3204770Y2733360D01*
X3207810Y2733910D01*
X3210870Y2734550D01*
X3212840Y2735010D01*
X3217020Y2736200D01*
X3220040Y2737270D01*
X3222950Y2738540D01*
X3225680Y2740040D01*
X3228180Y2741790D01*
X3230320Y2743750D01*
X3232270Y2746170D01*
X3233830Y2748770D01*
X3235070Y2751600D01*
X3236030Y2754610D01*
X3236730Y2757760D01*
X3237190Y2760990D01*
X3237450Y2765760D01*
X3237440Y2767570D01*
X3237260Y2770830D01*
X3236860Y2774040D01*
X3236230Y2777160D01*
X3235360Y2780160D01*
X3234220Y2783030D01*
X3232810Y2785730D01*
X3230970Y2788420D01*
X3229120Y2790530D01*
X3226850Y2792600D01*
X3224360Y2794470D01*
X3221680Y2796130D01*
X3218860Y2797590D01*
X3215930Y2798860D01*
X3211540Y2800400D01*
X3209910Y2800870D01*
X3206880Y2801620D01*
X3203840Y2802200D01*
X3200790Y2802620D01*
X3197720Y2802880D01*
X3194700Y2802990D01*
X3191500Y2802950D01*
X3188380Y2802740D01*
X3185290Y2802350D01*
X3182240Y2801750D01*
X3179250Y2800920D01*
X3176890Y2800080D01*
X3173560Y2798550D01*
X3170840Y2797090D01*
X3168140Y2795540D01*
Y2803110D01*
X3159440D01*
X3151690Y2769570D01*
X3154540Y2766740D01*
X3156910Y2768600D01*
X3159290Y2770440D01*
X3161700Y2772220D01*
X3164170Y2773930D01*
X3166690Y2775540D01*
X3169440Y2777090D01*
X3171990Y2778340D01*
X3174770Y2779520D01*
X3177610Y2780530D01*
X3180510Y2781400D01*
X3183440Y2782100D01*
X3186400Y2782660D01*
X3188220Y2782920D01*
X3192320Y2783290D01*
X3195300Y2783340D01*
X3198310Y2783200D01*
X3200850Y2782920D01*
X3204440Y2782220D01*
X3207340Y2781200D01*
X3209910Y2779650D01*
X3211220Y2778390D01*
X3213320Y2774590D01*
X3213990Y2771440D01*
X3213900Y2768270D01*
X3213160Y2765760D01*
X3211290Y2763090D01*
X3208940Y2761260D01*
X3206140Y2759840D01*
X3203070Y2758760D01*
X3200210Y2758000D01*
X3196840Y2757280D01*
X3193830Y2756770D01*
X3190880Y2756340D01*
X3187960Y2755950D01*
X3185070Y2755550D01*
X3182070Y2755080D01*
X3179290Y2754560D01*
X3176390Y2753910D01*
X3173480Y2753180D01*
X3170560Y2752360D01*
X3167820Y2751520D01*
X3164740Y2750490D01*
X3161870Y2749400D01*
X3159100Y2748170D01*
X3156450Y2746750D01*
X3153970Y2745100D01*
X3151950Y2743430D01*
X3149680Y2741010D01*
X3147910Y2738590D01*
X3146380Y2735960D01*
X3145090Y2733180D01*
X3144040Y2730280D01*
X3143210Y2727250D01*
X3142640Y2724320D01*
X3142290Y2721310D01*
X3142170Y2718300D01*
X3142270Y2715290D01*
X3142600Y2712300D01*
X3143210Y2709120D01*
X3143940Y2706400D01*
X3144930Y2703530D01*
X3146140Y2700730D01*
X3147560Y2698040D01*
X3149200Y2695480D01*
X3151030Y2693070D01*
X3153250Y2690670D01*
X3155310Y2688810D01*
X3157720Y2686980D01*
X3160290Y2685340D01*
X3163000Y2683910D01*
X3165820Y2682670D01*
X3168740Y2681630D01*
X3171720Y2680790D01*
X3174760Y2680140D01*
X3177830Y2679680D01*
X3180900Y2679410D01*
X3184340Y2679340D01*
X3186990Y2679450D01*
X3189980Y2679730D01*
X3192940Y2680180D01*
X3195870Y2680770D01*
X3198780Y2681490D01*
X3201660Y2682310D01*
X3204520Y2683240D01*
X3207370Y2684240D01*
X3210210Y2685310D01*
X3213030Y2686420D01*
X3215850Y2687570D01*
X3218670Y2688730D01*
Y2684260D01*
X3229180D01*
G37*
G36*
G01X3007130Y2860480D02*
X3017100Y2897160D01*
X3012490Y2898290D01*
X3010560Y2895660D01*
X3008620Y2893060D01*
X3006630Y2890530D01*
X3004590Y2888100D01*
X3002470Y2885800D01*
X3000250Y2883670D01*
X2997920Y2881730D01*
X2995460Y2880030D01*
X2992740Y2878550D01*
X2990050Y2877440D01*
X2987130Y2876520D01*
X2984100Y2875760D01*
X2980430Y2874990D01*
X2977860Y2874480D01*
X2974700Y2873910D01*
X2971530Y2873440D01*
X2968370Y2873120D01*
X2965230Y2873000D01*
X2962120Y2873130D01*
X2959070Y2873560D01*
X2956080Y2874330D01*
X2952900Y2875630D01*
X2950360Y2877110D01*
X2947820Y2879120D01*
X2945710Y2881500D01*
X2943840Y2885340D01*
X2943500Y2887190D01*
X2943590Y2890340D01*
X2944390Y2893490D01*
X2945780Y2896480D01*
X2948370Y2899910D01*
X2949950Y2901330D01*
X2952540Y2903040D01*
X2955370Y2904350D01*
X2958350Y2905350D01*
X2962620Y2906380D01*
X2964490Y2906760D01*
X2967550Y2907300D01*
X2970600Y2907780D01*
X2973630Y2908230D01*
X2976660Y2908660D01*
X2979690Y2909100D01*
X2982720Y2909580D01*
X2985770Y2910130D01*
X2988830Y2910770D01*
X2990790Y2911240D01*
X2994980Y2912420D01*
X2998000Y2913490D01*
X3000910Y2914760D01*
X3003640Y2916260D01*
X3006140Y2918010D01*
X3008280Y2919980D01*
X3010230Y2922390D01*
X3011780Y2925000D01*
X3013030Y2927830D01*
X3013990Y2930840D01*
X3014690Y2933980D01*
X3015140Y2937220D01*
X3015410Y2941990D01*
X3015400Y2943790D01*
X3015220Y2947060D01*
X3014820Y2950260D01*
X3014190Y2953380D01*
X3013320Y2956390D01*
X3012180Y2959260D01*
X3010770Y2961960D01*
X3008930Y2964650D01*
X3007070Y2966760D01*
X3004810Y2968830D01*
X3002320Y2970690D01*
X2999640Y2972350D01*
X2996820Y2973810D01*
X2993890Y2975090D01*
X2989500Y2976620D01*
X2987870Y2977100D01*
X2984840Y2977840D01*
X2981800Y2978420D01*
X2978750Y2978840D01*
X2975670Y2979100D01*
X2972660Y2979210D01*
X2969460Y2979170D01*
X2966340Y2978970D01*
X2963250Y2978570D01*
X2960190Y2977970D01*
X2957210Y2977150D01*
X2954850Y2976300D01*
X2951520Y2974780D01*
X2948790Y2973310D01*
X2946100Y2971770D01*
Y2979330D01*
X2937400D01*
X2929640Y2945800D01*
X2932500Y2942960D01*
X2934870Y2944820D01*
X2937250Y2946660D01*
X2939660Y2948450D01*
X2942120Y2950160D01*
X2944650Y2951760D01*
X2947400Y2953320D01*
X2949950Y2954570D01*
X2952730Y2955740D01*
X2955570Y2956760D01*
X2958470Y2957620D01*
X2961400Y2958330D01*
X2964350Y2958880D01*
X2966180Y2959140D01*
X2970280Y2959510D01*
X2973260Y2959570D01*
X2976270Y2959430D01*
X2978810Y2959140D01*
X2982390Y2958440D01*
X2985300Y2957430D01*
X2987870Y2955870D01*
X2989180Y2954610D01*
X2991280Y2950820D01*
X2991950Y2947660D01*
X2991860Y2944500D01*
X2991120Y2941990D01*
X2989250Y2939320D01*
X2986900Y2937490D01*
X2984100Y2936070D01*
X2981030Y2934980D01*
X2978160Y2934220D01*
X2974800Y2933510D01*
X2971790Y2932990D01*
X2968830Y2932570D01*
X2965920Y2932180D01*
X2963030Y2931780D01*
X2960030Y2931310D01*
X2957250Y2930780D01*
X2954350Y2930140D01*
X2951440Y2929410D01*
X2948520Y2928590D01*
X2945780Y2927750D01*
X2942700Y2926720D01*
X2939830Y2925630D01*
X2937050Y2924390D01*
X2934410Y2922970D01*
X2931930Y2921330D01*
X2929910Y2919650D01*
X2927640Y2917240D01*
X2925870Y2914810D01*
X2924340Y2912180D01*
X2923050Y2909400D01*
X2922000Y2906500D01*
X2921170Y2903470D01*
X2920600Y2900550D01*
X2920250Y2897540D01*
X2920130Y2894530D01*
X2920230Y2891520D01*
X2920560Y2888530D01*
X2921170Y2885340D01*
X2921890Y2882630D01*
X2922890Y2879750D01*
X2924100Y2876960D01*
X2925520Y2874270D01*
X2927150Y2871710D01*
X2928990Y2869300D01*
X2931210Y2866890D01*
X2933270Y2865030D01*
X2935680Y2863200D01*
X2938250Y2861570D01*
X2940960Y2860130D01*
X2943780Y2858900D01*
X2946700Y2857860D01*
X2949680Y2857010D01*
X2952720Y2856360D01*
X2955790Y2855900D01*
X2958860Y2855640D01*
X2962300Y2855570D01*
X2964950Y2855670D01*
X2967940Y2855960D01*
X2970900Y2856400D01*
X2973830Y2856990D01*
X2976730Y2857710D01*
X2979620Y2858540D01*
X2982480Y2859460D01*
X2985330Y2860460D01*
X2988160Y2861530D01*
X2990990Y2862640D01*
X2993810Y2863790D01*
X2996620Y2864950D01*
Y2860480D01*
X3007130D01*
G37*
G36*
G01X3669190Y3015430D02*
X3691980D01*
Y3082970D01*
X3786340D01*
Y2941840D01*
X3886550D01*
X3885710Y2938280D01*
X3884850Y2934750D01*
X3883920Y2931260D01*
X3882910Y2927840D01*
X3881780Y2924500D01*
X3880490Y2921280D01*
X3879030Y2918190D01*
X3877360Y2915250D01*
X3875450Y2912490D01*
X3874390Y2911180D01*
X3870840Y2907540D01*
X3868220Y2905280D01*
X3865480Y2903110D01*
X3862690Y2900980D01*
X3859900Y2898820D01*
X3856840Y2896290D01*
X3854600Y2894240D01*
X3852130Y2891780D01*
X3849780Y2889230D01*
X3847510Y2886600D01*
X3845300Y2883920D01*
X3843140Y2881200D01*
X3840990Y2878460D01*
X3839990Y2874890D01*
X3838970Y2871330D01*
X3837940Y2867770D01*
X3836870Y2864220D01*
X3835760Y2860680D01*
X3834600Y2857170D01*
X3833380Y2853670D01*
X3832090Y2850200D01*
X3830710Y2846750D01*
X3829240Y2843340D01*
X3827130Y2838850D01*
X3825990Y2836620D01*
X3824130Y2833380D01*
X3822020Y2830320D01*
X3819580Y2827510D01*
X3816630Y2824970D01*
X3813410Y2823000D01*
X3809770Y2821490D01*
X3805990Y2820620D01*
X3802250Y2820500D01*
X3799400Y2821030D01*
X3795540Y2822880D01*
X3792640Y2825190D01*
X3789970Y2827970D01*
X3787520Y2830930D01*
X3785070Y2834070D01*
X3782700Y2837080D01*
X3780270Y2839940D01*
X3777690Y2842560D01*
X3774890Y2844850D01*
X3771680Y2846770D01*
X3768290Y2848080D01*
X3763750Y2848750D01*
X3760930Y2848500D01*
X3757350Y2847450D01*
X3753940Y2845740D01*
X3749890Y2842810D01*
X3747960Y2841040D01*
X3745440Y2838280D01*
X3743180Y2835340D01*
X3741120Y2832260D01*
X3739200Y2829080D01*
X3738010Y2826970D01*
X3735610Y2822580D01*
X3733900Y2819290D01*
X3732220Y2815990D01*
X3730580Y2812670D01*
X3728980Y2809330D01*
X3727410Y2805980D01*
X3726130Y2803200D01*
X3724320Y2799240D01*
X3722800Y2795860D01*
X3721280Y2792480D01*
X3719750Y2789110D01*
X3718200Y2785740D01*
X3716630Y2782390D01*
X3714240Y2777460D01*
X3713380Y2775740D01*
X3711690Y2772460D01*
X3709930Y2769210D01*
X3708100Y2766000D01*
X3706190Y2762830D01*
X3704190Y2759710D01*
X3702090Y2756640D01*
X3699880Y2753620D01*
X3698400Y2751710D01*
X3695110Y2747780D01*
X3692550Y2744980D01*
X3689890Y2742270D01*
X3687160Y2739670D01*
X3684350Y2737190D01*
X3681490Y2734840D01*
X3678590Y2732640D01*
X3674630Y2729920D01*
X3672710Y2728730D01*
X3669730Y2727030D01*
X3666690Y2725520D01*
X3663560Y2724190D01*
X3660320Y2723030D01*
X3656930Y2722060D01*
X3653370Y2721280D01*
X3649600Y2720670D01*
X3645600Y2720260D01*
X3641350Y2720030D01*
X3635020Y2720020D01*
X3631950Y2720140D01*
X3626970Y2720510D01*
X3622180Y2721160D01*
X3617890Y2722140D01*
X3614430Y2723510D01*
X3612110Y2725300D01*
X3611260Y2727940D01*
X3612050Y2730390D01*
X3614130Y2733580D01*
X3616850Y2736950D01*
X3618290Y2746460D01*
X3619450Y2755850D01*
X3620060Y2764970D01*
X3619830Y2773710D01*
X3618830Y2780520D01*
X3615890Y2789570D01*
X3612070Y2796650D01*
X3607160Y2803220D01*
X3601260Y2809330D01*
X3594480Y2815040D01*
X3586940Y2820390D01*
X3578740Y2825430D01*
X3569980Y2830220D01*
X3560790Y2834810D01*
X3551270Y2839240D01*
X3541540Y2843580D01*
X3531690Y2847860D01*
X3514210D01*
Y2927970D01*
X3532040Y2945800D01*
Y3015430D01*
X3613240D01*
X3623140Y2962680D01*
X3599370D01*
X3605310Y2929110D01*
X3627100D01*
X3640470Y2858560D01*
X3623200Y2858660D01*
Y2830400D01*
G03X3630400Y2821210I8034J-1121D01*
G01X3685980D01*
G03X3702370Y2834000I1089J15502D01*
G01Y2841990D01*
X3686780Y2929110D01*
X3709970D01*
X3702770Y2962680D01*
X3677980D01*
X3669190Y3015430D01*
G37*
G36*
G01X3660770Y3021060D02*
X3651630Y3060840D01*
X3610040D01*
X3619180Y3021060D01*
X3660770D01*
G37*
G36*
G01Y3015430D02*
X3692460Y2858660D01*
X3650870D01*
X3619180Y3015430D01*
X3660770D01*
G37*
G54D10*
G01X1096740Y1250830D02*
X1101740D01*
G01X0Y0D02*
X1100000D01*
G02X3100000I1000000J-1542012D01*
G01X4200000D01*
Y3200000D01*
X3935000D01*
Y3100000D01*
X3825000D01*
Y3200000D01*
X375000D01*
Y3100000D01*
X265000D01*
X264990Y3200000D01*
X0D01*
Y0D01*
G01X3192040Y588030D02*
Y233040D01*
G03X3212030Y213050I19990J0D01*
G01X3352030D01*
G03X3372020Y233040I0J19990D01*
G01Y258030D01*
G03X3352030Y278050I-20000J20D01*
G01X3277030D01*
G02X3257040Y298040I3J19993D01*
G01Y588030D01*
G03X3237020Y608050I-20007J13D01*
G01X3212030D01*
G03X3192040Y588030I10J-20000D01*
G01X3638420Y588000D02*
Y232990D01*
G02X3618430Y213000I-19997J7D01*
G01X3478430D01*
G02X3458440Y232990I0J19990D01*
G01Y258010D01*
G02X3478430Y278000I19990J0D01*
G01X3553440D01*
G03X3573430Y298010I-10J20000D01*
G01Y588000D01*
G02X3593440Y607990I19997J-7D01*
G01X3618430D01*
G02X3638420Y588000I-3J-19993D01*
G01X3116730Y1540840D02*
X3526730D01*
Y1600840D01*
X3176730D01*
Y1950840D01*
X3526730D01*
Y2010840D01*
X3116730D01*
Y1540840D01*
G54D11*
G01X3165460Y136900D02*
Y200400D01*
X3134350Y136900D01*
Y200400D01*
G01X3080590Y136900D02*
X3107660D01*
Y200400D01*
X3080590D01*
G01X3091420Y169710D02*
X3107660D01*
G01X3034290Y168650D02*
X3020760D01*
Y149600D01*
X3024810Y143250D01*
X3029550Y139020D01*
X3036320Y136900D01*
X3043080Y139020D01*
X3047820Y143250D01*
X3051880Y149600D01*
X3054580Y157010D01*
X3055930Y165470D01*
Y172880D01*
X3054580Y179230D01*
X3051880Y186640D01*
X3047820Y192990D01*
X3043760Y197220D01*
X3038350Y200400D01*
X3033610D01*
X3028200Y198280D01*
X3024140Y194050D01*
G01X3816140Y125600D02*
Y189100D01*
X3799900D01*
X3794490Y185920D01*
X3790430Y178520D01*
X3789070Y170050D01*
X3790430Y161580D01*
X3793810Y155230D01*
X3799900Y152060D01*
X3816140D01*
G01X3746830Y125600D02*
X3752240Y126660D01*
X3756970Y130890D01*
X3761030Y137240D01*
X3763740Y144650D01*
X3765090Y153120D01*
Y161580D01*
X3763740Y170050D01*
X3761030Y177460D01*
X3756970Y183810D01*
X3752240Y188040D01*
X3746830Y189100D01*
X3741410Y188040D01*
X3736680Y183810D01*
X3732620Y177460D01*
X3729910Y170050D01*
X3728560Y161580D01*
Y153120D01*
X3729910Y144650D01*
X3732620Y137240D01*
X3736680Y130890D01*
X3741410Y126660D01*
X3746830Y125600D01*
G01X3705250Y134060D02*
X3699840Y128770D01*
X3693750Y125600D01*
X3688340D01*
X3682930Y128770D01*
X3678870Y134060D01*
X3676840Y141480D01*
X3678190Y148880D01*
X3681570Y155230D01*
X3687660Y159470D01*
X3695780Y161580D01*
X3700520Y165820D01*
X3702550Y173220D01*
X3701190Y180630D01*
X3697810Y185920D01*
X3693070Y189100D01*
X3688340D01*
X3683600Y186980D01*
X3679540Y181690D01*
G01X3664900Y2410060D02*
X3647990Y2346560D01*
X3631070Y2410060D01*
G01X3578670Y2346560D02*
X3605740D01*
Y2410060D01*
X3578670D01*
G01X3589500Y2379370D02*
X3605740D01*
G01X3549960Y2346560D02*
Y2410060D01*
X3533040D01*
X3527630Y2406880D01*
X3524250Y2402650D01*
X3522890Y2394180D01*
X3524250Y2385720D01*
X3528310Y2380430D01*
X3533040Y2377250D01*
X3549960D01*
G01X3533040D02*
X3522890Y2346560D01*
G01X3480650Y2344440D02*
X3482000Y2345500D01*
Y2347620D01*
X3480650Y2348680D01*
X3479290Y2347620D01*
Y2345500D01*
X3480650Y2344440D01*
G01Y2373020D02*
X3482000Y2374080D01*
Y2376190D01*
X3480650Y2377250D01*
X3479290Y2376190D01*
Y2374080D01*
X3480650Y2373020D01*
G01X3369090Y2346560D02*
Y2410060D01*
X3377200Y2397360D01*
G01Y2346560D02*
X3360970D01*
G01X3313310Y2344440D02*
X3314660Y2345500D01*
Y2347620D01*
X3313310Y2348680D01*
X3311950Y2347620D01*
Y2345500D01*
X3313310Y2344440D01*
G01X3272410Y2356080D02*
X3268350Y2350790D01*
X3263610Y2347620D01*
X3257530Y2346560D01*
X3251440Y2348680D01*
X3246700Y2352910D01*
X3243320Y2360320D01*
X3242640Y2368780D01*
X3243990Y2377250D01*
X3247380Y2382540D01*
X3252110Y2386780D01*
X3256850Y2387830D01*
X3261580Y2386780D01*
X3267670Y2382540D01*
X3265640Y2410060D01*
X3247380D01*
G01X3634860Y2513210D02*
X3638920Y2516380D01*
X3643660Y2518500D01*
X3649070D01*
X3655160Y2515320D01*
X3659890Y2510030D01*
X3663280Y2503680D01*
X3665980Y2493100D01*
X3666660Y2483570D01*
X3665300Y2474050D01*
X3663280Y2467700D01*
X3659220Y2461350D01*
X3654480Y2457120D01*
X3649750Y2455000D01*
X3645010D01*
X3640270Y2457120D01*
X3636210Y2460290D01*
X3632830Y2464520D01*
G01X3579080Y2513210D02*
X3583140Y2516380D01*
X3587880Y2518500D01*
X3593290D01*
X3599380Y2515320D01*
X3604110Y2510030D01*
X3607500Y2503680D01*
X3610200Y2493100D01*
X3610880Y2483570D01*
X3609520Y2474050D01*
X3607500Y2467700D01*
X3603440Y2461350D01*
X3598700Y2457120D01*
X3593970Y2455000D01*
X3589230D01*
X3584490Y2457120D01*
X3580430Y2460290D01*
X3577050Y2464520D01*
G01X3538190Y2455000D02*
Y2518500D01*
X3546300Y2505800D01*
G01Y2455000D02*
X3530070D01*
G01X3497290Y2467700D02*
X3493230Y2460290D01*
X3487820Y2456060D01*
X3481730Y2455000D01*
X3476320Y2456060D01*
X3470900Y2461350D01*
X3467520Y2467700D01*
X3466850Y2474050D01*
X3468200Y2481460D01*
X3472930Y2486750D01*
X3477670Y2488870D01*
X3483760D01*
G01X3477670D02*
X3473610Y2492040D01*
X3470230Y2497330D01*
X3468870Y2503680D01*
X3470230Y2510030D01*
X3473610Y2515320D01*
X3479700Y2518500D01*
X3485790Y2517440D01*
X3491880Y2513210D01*
G01X3441510Y2464520D02*
X3437450Y2459230D01*
X3432710Y2456060D01*
X3426630Y2455000D01*
X3420540Y2457120D01*
X3415800Y2461350D01*
X3412420Y2468760D01*
X3411740Y2477220D01*
X3413090Y2485690D01*
X3416480Y2490980D01*
X3421210Y2495220D01*
X3425950Y2496270D01*
X3430680Y2495220D01*
X3436770Y2490980D01*
X3434740Y2518500D01*
X3416480D01*
G01X3370850D02*
X3376260Y2516380D01*
X3380320Y2511090D01*
X3383020Y2504740D01*
X3385050Y2496270D01*
X3385730Y2486750D01*
X3385050Y2477220D01*
X3383020Y2468760D01*
X3380320Y2462410D01*
X3376260Y2457120D01*
X3370850Y2455000D01*
X3365430Y2457120D01*
X3361370Y2462410D01*
X3358670Y2468760D01*
X3356640Y2477220D01*
X3355960Y2486750D01*
X3356640Y2496270D01*
X3358670Y2504740D01*
X3361370Y2511090D01*
X3365430Y2516380D01*
X3370850Y2518500D01*
G01X3329270Y2463460D02*
X3323860Y2458170D01*
X3317770Y2455000D01*
X3312360D01*
X3306950Y2458170D01*
X3302890Y2463460D01*
X3300860Y2470880D01*
X3302210Y2478280D01*
X3305590Y2484630D01*
X3311680Y2488870D01*
X3319800Y2490980D01*
X3324540Y2495220D01*
X3326570Y2502620D01*
X3325210Y2510030D01*
X3321830Y2515320D01*
X3317090Y2518500D01*
X3312360D01*
X3307620Y2516380D01*
X3303560Y2511090D01*
G01X3259290Y2518500D02*
Y2455000D01*
G01X3274840Y2518500D02*
X3243730D01*
G01X3218390Y2455000D02*
Y2518500D01*
G01X3192680D02*
X3218390Y2479340D01*
G01X3188620Y2455000D02*
X3206890Y2497330D01*
M02*
