G04 ================== begin FILE IDENTIFICATION RECORD ==================*
G04 Layout Name:  CC1350SensorTag.brd*
G04 Film Name:    CC1350STK_soldmask_top*
G04 File Format:  Gerber RS274X*
G04 File Origin:  Cadence Allegro 16.6-S019*
G04 Origin Date:  Wed Nov 09 12:53:35 2016*
G04 *
G04 Layer:  VIA CLASS/SOLDERMASK_TOP*
G04 Layer:  PIN/SOLDERMASK_TOP*
G04 Layer:  BOARD GEOMETRY/OUTLINE*
G04 *
G04 Offset:    (0.0000 0.0000)*
G04 Mirror:    No*
G04 Mode:      Positive*
G04 Rotation:  0*
G04 FullContactRelief:  No*
G04 UndefLineWidth:     0.1000*
G04 ================== end FILE IDENTIFICATION RECORD ====================*
%FSLAX25Y25*MOMM*%
%IR0*IPPOS*OFA0.00000B0.00000*MIA0B0*SFA1.00000B1.00000*%
%AMMACRO30*
4,1,40,.23,.105,
.23,-.105,
.228405,-.123233,
.223668,-.140912,
.215933,-.1575,
.205435,-.172493,
.192493,-.185435,
.1775,-.195933,
.160912,-.203668,
.143233,-.208405,
.125,-.21,
-.125,-.21,
-.143233,-.208405,
-.160912,-.203668,
-.1775,-.195933,
-.192493,-.185435,
-.205435,-.172493,
-.215933,-.1575,
-.223668,-.140912,
-.228405,-.123233,
-.23,-.105,
-.23,.105,
-.228405,.123233,
-.223668,.140912,
-.215933,.1575,
-.205435,.172493,
-.192493,.185435,
-.1775,.195933,
-.160912,.203668,
-.143233,.208405,
-.125,.21,
.125,.21,
.143233,.208405,
.160912,.203668,
.1775,.195933,
.192493,.185435,
.205435,.172493,
.215933,.1575,
.223668,.140912,
.228405,.123233,
.23,.105,
0.0*
%
%ADD30MACRO30*%
%AMMACRO12*
4,1,40,.925,-.2875,
.925,.2875,
.920632,.337424,
.907662,.385831,
.886482,.43125,
.857738,.472301,
.822301,.507738,
.78125,.536482,
.735831,.557662,
.687424,.570632,
.6375,.575,
-.6375,.575,
-.687424,.570632,
-.735831,.557662,
-.78125,.536482,
-.822301,.507738,
-.857738,.472301,
-.886482,.43125,
-.907662,.385831,
-.920632,.337424,
-.925,.2875,
-.925,-.2875,
-.920632,-.337424,
-.907662,-.385831,
-.886482,-.43125,
-.857738,-.472301,
-.822301,-.507738,
-.78125,-.536482,
-.735831,-.557662,
-.687424,-.570632,
-.6375,-.575,
.6375,-.575,
.687424,-.570632,
.735831,-.557662,
.78125,-.536482,
.822301,-.507738,
.857738,-.472301,
.886482,-.43125,
.907662,-.385831,
.920632,-.337424,
.925,-.2875,
0.0*
%
%ADD12MACRO12*%
%AMMACRO36*
4,1,41,-.675,0.0,
-.675,-.2125,
-.671772,-.2494,
-.662185,-.285179,
-.64653,-.31875,
-.625284,-.349092,
-.599092,-.375284,
-.56875,-.39653,
-.535179,-.412185,
-.4994,-.421772,
-.4625,-.425,
.4625,-.425,
.4994,-.421772,
.535179,-.412185,
.56875,-.39653,
.599092,-.375284,
.625284,-.349092,
.64653,-.31875,
.662185,-.285179,
.671772,-.2494,
.675,-.2125,
.675,.2125,
.671772,.2494,
.662185,.285179,
.64653,.31875,
.625284,.349092,
.599092,.375284,
.56875,.39653,
.535179,.412185,
.4994,.421772,
.4625,.425,
-.4625,.425,
-.4994,.421772,
-.535179,.412185,
-.56875,.39653,
-.599092,.375284,
-.625284,.349092,
-.64653,.31875,
-.662185,.285179,
-.671772,.2494,
-.675,.2125,
-.675,0.0,
0.0*
%
%ADD36MACRO36*%
%AMMACRO31*
4,1,40,.105,-.23,
-.105,-.23,
-.123233,-.228405,
-.140912,-.223668,
-.1575,-.215933,
-.172493,-.205435,
-.185435,-.192493,
-.195933,-.1775,
-.203668,-.160912,
-.208405,-.143233,
-.21,-.125,
-.21,.125,
-.208405,.143233,
-.203668,.160912,
-.195933,.1775,
-.185435,.192493,
-.172493,.205435,
-.1575,.215933,
-.140912,.223668,
-.123233,.228405,
-.105,.23,
.105,.23,
.123233,.228405,
.140912,.223668,
.1575,.215933,
.172493,.205435,
.185435,.192493,
.195933,.1775,
.203668,.160912,
.208405,.143233,
.21,.125,
.21,-.125,
.208405,-.143233,
.203668,-.160912,
.195933,-.1775,
.185435,-.192493,
.172493,-.205435,
.1575,-.215933,
.140912,-.223668,
.123233,-.228405,
.105,-.23,
0.0*
%
%ADD31MACRO31*%
%AMMACRO29*
4,1,40,.28,.13,
.28,-.13,
.278025,-.152574,
.27216,-.174463,
.262583,-.195,
.249586,-.213562,
.233562,-.229586,
.215,-.242583,
.194463,-.25216,
.172574,-.258025,
.15,-.26,
-.15,-.26,
-.172574,-.258025,
-.194463,-.25216,
-.215,-.242583,
-.233562,-.229586,
-.249586,-.213562,
-.262583,-.195,
-.27216,-.174463,
-.278025,-.152574,
-.28,-.13,
-.28,.13,
-.278025,.152574,
-.27216,.174463,
-.262583,.195,
-.249586,.213562,
-.233562,.229586,
-.215,.242583,
-.194463,.25216,
-.172574,.258025,
-.15,.26,
.15,.26,
.172574,.258025,
.194463,.25216,
.215,.242583,
.233562,.229586,
.249586,.213562,
.262583,.195,
.27216,.174463,
.278025,.152574,
.28,.13,
0.0*
%
%ADD29MACRO29*%
%AMMACRO21*
4,1,45,0.0,.725,
-.2562,.725,
-.294186,.721685,
-.33102,.711825,
-.365582,.695718,
-.396821,.673854,
-.42379,.646898,
-.445668,.615668,
-.461791,.581114,
-.471668,.544285,
-.475,.5063,
-.475,.5062,
-.475,-.5062,
-.471685,-.544186,
-.461825,-.58102,
-.445718,-.615582,
-.423854,-.646821,
-.396898,-.67379,
-.365668,-.695668,
-.331114,-.711791,
-.294285,-.721668,
-.2563,-.725,
-.2562,-.725,
.2562,-.725,
.294186,-.721685,
.33102,-.711825,
.365582,-.695718,
.396821,-.673854,
.42379,-.646898,
.445668,-.615668,
.461791,-.581114,
.471668,-.544285,
.475,-.5063,
.475,-.5062,
.475,.5062,
.471685,.544186,
.461825,.58102,
.445718,.615582,
.423854,.646821,
.396898,.67379,
.365668,.695668,
.331114,.711791,
.294285,.721668,
.2563,.725,
.2562,.725,
0.0,.725,
0.0*
%
%ADD21MACRO21*%
%ADD16O,1.2X.75*%
%ADD27C,.7*%
%ADD23C,.65*%
%AMMACRO34*
4,1,41,0.0,-.725,
.15,-.725,
.189071,-.721582,
.226955,-.711431,
.2625,-.694856,
.294627,-.67236,
.32236,-.644627,
.344856,-.6125,
.361431,-.576955,
.371582,-.539071,
.375,-.5,
.375,.5,
.371582,.539071,
.361431,.576955,
.344856,.6125,
.32236,.644627,
.294627,.67236,
.2625,.694856,
.226955,.711431,
.189071,.721582,
.15,.725,
-.15,.725,
-.189071,.721582,
-.226955,.711431,
-.2625,.694856,
-.294627,.67236,
-.32236,.644627,
-.344856,.6125,
-.361431,.576955,
-.371582,.539071,
-.375,.5,
-.375,-.5,
-.371582,-.539071,
-.361431,-.576955,
-.344856,-.6125,
-.32236,-.644627,
-.294627,-.67236,
-.2625,-.694856,
-.226955,-.711431,
-.189071,-.721582,
-.15,-.725,
0.0,-.725,
0.0*
%
%ADD34MACRO34*%
%AMMACRO28*
4,1,41,0.0,.375,
-.185,.375,
-.217125,.372189,
-.248274,.363843,
-.2775,.350215,
-.303916,.331718,
-.326718,.308916,
-.345215,.2825,
-.358843,.253274,
-.367189,.222125,
-.37,.19,
-.37,-.19,
-.367189,-.222125,
-.358843,-.253274,
-.345215,-.2825,
-.326718,-.308916,
-.303916,-.331718,
-.2775,-.350215,
-.248274,-.363843,
-.217125,-.372189,
-.185,-.375,
.185,-.375,
.217125,-.372189,
.248274,-.363843,
.2775,-.350215,
.303916,-.331718,
.326718,-.308916,
.345215,-.2825,
.358843,-.253274,
.367189,-.222125,
.37,-.19,
.37,.19,
.367189,.222125,
.358843,.253274,
.345215,.2825,
.326718,.308916,
.303916,.331718,
.2775,.350215,
.248274,.363843,
.217125,.372189,
.185,.375,
0.0,.375,
0.0*
%
%ADD28MACRO28*%
%AMMACRO33*
4,1,40,-.925,.2875,
-.925,-.2875,
-.920632,-.337424,
-.907662,-.385831,
-.886482,-.43125,
-.857738,-.472301,
-.822301,-.507738,
-.78125,-.536482,
-.735831,-.557662,
-.687424,-.570632,
-.6375,-.575,
.6375,-.575,
.687424,-.570632,
.735831,-.557662,
.78125,-.536482,
.822301,-.507738,
.857738,-.472301,
.886482,-.43125,
.907662,-.385831,
.920632,-.337424,
.925,-.2875,
.925,.2875,
.920632,.337424,
.907662,.385831,
.886482,.43125,
.857738,.472301,
.822301,.507738,
.78125,.536482,
.735831,.557662,
.687424,.570632,
.6375,.575,
-.6375,.575,
-.687424,.570632,
-.735831,.557662,
-.78125,.536482,
-.822301,.507738,
-.857738,.472301,
-.886482,.43125,
-.907662,.385831,
-.920632,.337424,
-.925,.2875,
0.0*
%
%ADD33MACRO33*%
%AMMACRO19*
4,1,40,-.0884,-.2369,
-.2369,-.0884,
-.248649,-.074363,
-.257799,-.058512,
-.264058,-.041313,
-.267235,-.023288,
-.267235,-.004985,
-.264055,.013039,
-.257795,.030238,
-.248642,.046088,
-.2369,.0601,
-.0601,.2369,
-.04607,.248655,
-.030218,.257804,
-.013018,.264061,
.005007,.267236,
.02331,.267234,
.041334,.264053,
.058532,.25779,
.074381,.248636,
.0884,.2369,
.2369,.0884,
.248649,.074363,
.257799,.058512,
.264058,.041313,
.267235,.023288,
.267235,.004985,
.264055,-.013039,
.257795,-.030238,
.248642,-.046088,
.2369,-.0601,
.0601,-.2369,
.04607,-.248655,
.030218,-.257804,
.013018,-.264061,
-.005007,-.267236,
-.02331,-.267234,
-.041334,-.264053,
-.058532,-.25779,
-.074381,-.248636,
-.0884,-.2369,
0.0*
%
%ADD19MACRO19*%
%AMMACRO18*
4,1,40,-.23,-.105,
-.23,.105,
-.228405,.123233,
-.223668,.140912,
-.215933,.1575,
-.205435,.172493,
-.192493,.185435,
-.1775,.195933,
-.160912,.203668,
-.143233,.208405,
-.125,.21,
.125,.21,
.143233,.208405,
.160912,.203668,
.1775,.195933,
.192493,.185435,
.205435,.172493,
.215933,.1575,
.223668,.140912,
.228405,.123233,
.23,.105,
.23,-.105,
.228405,-.123233,
.223668,-.140912,
.215933,-.1575,
.205435,-.172493,
.192493,-.185435,
.1775,-.195933,
.160912,-.203668,
.143233,-.208405,
.125,-.21,
-.125,-.21,
-.143233,-.208405,
-.160912,-.203668,
-.1775,-.195933,
-.192493,-.185435,
-.205435,-.172493,
-.215933,-.1575,
-.223668,-.140912,
-.228405,-.123233,
-.23,-.105,
0.0*
%
%ADD18MACRO18*%
%AMMACRO17*
4,1,45,-1.0262,0.0,
-1.0262,-.5055,
-1.019175,-.587002,
-.998104,-.666045,
-.963628,-.740229,
-.916793,-.807299,
-.859024,-.865218,
-.792074,-.912224,
-.71798,-.946892,
-.63899,-.968166,
-.557507,-.9754,
-.5563,-.9754,
.5563,-.9754,
.637802,-.968375,
.716845,-.947304,
.791029,-.912828,
.858099,-.865993,
.916018,-.808224,
.963024,-.741274,
.997692,-.66718,
1.018966,-.58819,
1.0262,-.506707,
1.0262,-.5055,
1.0262,.5055,
1.019175,.587002,
.998104,.666045,
.963628,.740229,
.916793,.807299,
.859024,.865218,
.792074,.912224,
.71798,.946892,
.63899,.968166,
.557507,.9754,
.5563,.9754,
-.5563,.9754,
-.637802,.968375,
-.716845,.947304,
-.791029,.912828,
-.858099,.865993,
-.916018,.808224,
-.963024,.741274,
-.997692,.66718,
-1.018966,.58819,
-1.0262,.506707,
-1.0262,.5055,
-1.0262,0.0,
0.0*
%
%ADD17MACRO17*%
%AMMACRO15*
4,1,45,0.0,2.575,
-.6562,2.575,
-.763646,2.565608,
-.867828,2.537702,
-.965582,2.492128,
-1.053937,2.430272,
-1.130208,2.354013,
-1.192078,2.265668,
-1.237668,2.167922,
-1.265591,2.063744,
-1.275,1.9563,
-1.275,1.9562,
-1.275,-1.9562,
-1.265608,-2.063646,
-1.237702,-2.167828,
-1.192128,-2.265582,
-1.130272,-2.353937,
-1.054013,-2.430208,
-.965668,-2.492078,
-.867922,-2.537668,
-.763744,-2.565591,
-.6563,-2.575,
-.6562,-2.575,
.6562,-2.575,
.763646,-2.565608,
.867828,-2.537702,
.965582,-2.492128,
1.053937,-2.430272,
1.130208,-2.354013,
1.192078,-2.265668,
1.237668,-2.167922,
1.265591,-2.063744,
1.275,-1.9563,
1.275,-1.9562,
1.275,1.9562,
1.265608,2.063646,
1.237702,2.167828,
1.192128,2.265582,
1.130272,2.353937,
1.054013,2.430208,
.965668,2.492078,
.867922,2.537668,
.763744,2.565591,
.6563,2.575,
.6562,2.575,
0.0,2.575,
0.0*
%
%ADD15MACRO15*%
%AMMACRO10*
4,1,41,0.0,-1.225,
.2188,-1.225,
.250273,-1.222238,
.280788,-1.214052,
.309418,-1.200692,
.335294,-1.182563,
.357628,-1.160217,
.375742,-1.134332,
.389086,-1.105694,
.397255,-1.075174,
.4,-1.0438,
.4,1.0438,
.397238,1.075273,
.389052,1.105788,
.375692,1.134418,
.357563,1.160294,
.335217,1.182628,
.309332,1.200742,
.280694,1.214086,
.250174,1.222255,
.2188,1.225,
-.2188,1.225,
-.250273,1.222238,
-.280788,1.214052,
-.309418,1.200692,
-.335294,1.182563,
-.357628,1.160217,
-.375742,1.134332,
-.389086,1.105694,
-.397255,1.075174,
-.4,1.0438,
-.4,-1.0438,
-.397238,-1.075273,
-.389052,-1.105788,
-.375692,-1.134418,
-.357563,-1.160294,
-.335217,-1.182628,
-.309332,-1.200742,
-.280694,-1.214086,
-.250174,-1.222255,
-.2188,-1.225,
0.0,-1.225,
0.0*
%
%ADD10MACRO10*%
%AMMACRO22*
4,1,41,.675,0.0,
.675,.2125,
.671772,.2494,
.662185,.285179,
.64653,.31875,
.625284,.349092,
.599092,.375284,
.56875,.39653,
.535179,.412185,
.4994,.421772,
.4625,.425,
-.4625,.425,
-.4994,.421772,
-.535179,.412185,
-.56875,.39653,
-.599092,.375284,
-.625284,.349092,
-.64653,.31875,
-.662185,.285179,
-.671772,.2494,
-.675,.2125,
-.675,-.2125,
-.671772,-.2494,
-.662185,-.285179,
-.64653,-.31875,
-.625284,-.349092,
-.599092,-.375284,
-.56875,-.39653,
-.535179,-.412185,
-.4994,-.421772,
-.4625,-.425,
.4625,-.425,
.4994,-.421772,
.535179,-.412185,
.56875,-.39653,
.599092,-.375284,
.625284,-.349092,
.64653,-.31875,
.662185,-.285179,
.671772,-.2494,
.675,-.2125,
.675,0.0,
0.0*
%
%ADD22MACRO22*%
%AMMACRO32*
4,1,40,-.375,-.185,
-.375,.185,
-.372189,.217125,
-.363843,.248274,
-.350215,.2775,
-.331718,.303916,
-.308916,.326718,
-.2825,.345215,
-.253274,.358843,
-.222125,.367189,
-.19,.37,
.19,.37,
.222125,.367189,
.253274,.358843,
.2825,.345215,
.308916,.326718,
.331718,.303916,
.350215,.2775,
.363843,.248274,
.372189,.217125,
.375,.185,
.375,-.185,
.372189,-.217125,
.363843,-.248274,
.350215,-.2775,
.331718,-.303916,
.308916,-.326718,
.2825,-.345215,
.253274,-.358843,
.222125,-.367189,
.19,-.37,
-.19,-.37,
-.222125,-.367189,
-.253274,-.358843,
-.2825,-.345215,
-.308916,-.326718,
-.331718,-.303916,
-.350215,-.2775,
-.363843,-.248274,
-.372189,-.217125,
-.375,-.185,
0.0*
%
%ADD32MACRO32*%
%ADD20C,1.1*%
%AMMACRO35*
4,1,45,0.0,-.725,
.2562,-.725,
.294186,-.721685,
.33102,-.711825,
.365582,-.695718,
.396821,-.673854,
.42379,-.646898,
.445668,-.615668,
.461791,-.581114,
.471668,-.544285,
.475,-.5063,
.475,-.5062,
.475,.5062,
.471685,.544186,
.461825,.58102,
.445718,.615582,
.423854,.646821,
.396898,.67379,
.365668,.695668,
.331114,.711791,
.294285,.721668,
.2563,.725,
.2562,.725,
-.2562,.725,
-.294186,.721685,
-.33102,.711825,
-.365582,.695718,
-.396821,.673854,
-.42379,.646898,
-.445668,.615668,
-.461791,.581114,
-.471668,.544285,
-.475,.5063,
-.475,.5062,
-.475,-.5062,
-.471685,-.544186,
-.461825,-.58102,
-.445718,-.615582,
-.423854,-.646821,
-.396898,-.67379,
-.365668,-.695668,
-.331114,-.711791,
-.294285,-.721668,
-.2563,-.725,
-.2562,-.725,
0.0,-.725,
0.0*
%
%ADD35MACRO35*%
%AMMACRO14*
4,1,45,-3.95,0.0,
-3.95,-1.4312,
-3.928834,-1.673223,
-3.865964,-1.907894,
-3.763298,-2.128082,
-3.623957,-2.327097,
-3.452174,-2.498892,
-3.253168,-2.638248,
-3.032988,-2.740929,
-2.798321,-2.803817,
-2.5563,-2.825,
-2.5562,-2.825,
2.5562,-2.825,
2.798223,-2.803834,
3.032894,-2.740964,
3.253082,-2.638298,
3.452097,-2.498957,
3.623892,-2.327174,
3.763248,-2.128168,
3.865929,-1.907988,
3.928817,-1.673321,
3.95,-1.4313,
3.95,-1.4312,
3.95,1.4312,
3.928834,1.673223,
3.865964,1.907894,
3.763298,2.128082,
3.623957,2.327097,
3.452174,2.498892,
3.253168,2.638248,
3.032988,2.740929,
2.798321,2.803817,
2.5563,2.825,
2.5562,2.825,
-2.5562,2.825,
-2.798223,2.803834,
-3.032894,2.740964,
-3.253082,2.638298,
-3.452097,2.498957,
-3.623892,2.327174,
-3.763248,2.128168,
-3.865929,1.907988,
-3.928817,1.673321,
-3.95,1.4313,
-3.95,1.4312,
-3.95,0.0,
0.0*
%
%ADD14MACRO14*%
%ADD24O,2.15X3.75*%
%ADD11C,1.42*%
%ADD26R,.65X.85*%
%AMMACRO13*
4,1,41,-.85,0.0,
-.85,-.1438,
-.848377,-.162249,
-.843575,-.180137,
-.83574,-.196918,
-.82511,-.212084,
-.812008,-.225174,
-.796832,-.23579,
-.780043,-.243609,
-.762151,-.248395,
-.7438,-.25,
.7438,-.25,
.762249,-.248377,
.780137,-.243575,
.796918,-.23574,
.812084,-.22511,
.825174,-.212008,
.83579,-.196832,
.843609,-.180043,
.848395,-.162151,
.85,-.1438,
.85,.1438,
.848377,.162249,
.843575,.180137,
.83574,.196918,
.82511,.212084,
.812008,.225174,
.796832,.23579,
.780043,.243609,
.762151,.248395,
.7438,.25,
-.7438,.25,
-.762249,.248377,
-.780137,.243575,
-.796918,.23574,
-.812084,.22511,
-.825174,.212008,
-.83579,.196832,
-.843609,.180043,
-.848395,.162151,
-.85,.1438,
-.85,0.0,
0.0*
%
%ADD13MACRO13*%
%ADD37C,.1*%
G75*
%LPD*%
G75*
G54D10*
X207500Y634400D03*
Y214400D03*
X715500Y634400D03*
X588500D03*
X461500D03*
X334500D03*
X715500Y214400D03*
X588500D03*
X461500D03*
X334500D03*
G54D11*
X195600Y2095800D03*
X3991730Y595840D03*
X4041500Y2195000D03*
G54D20*
X316780Y1007570D03*
Y1792570D03*
G54D21*
X356730Y2650840D03*
G54D12*
X166730Y2440840D03*
Y2860840D03*
G54D30*
X3880800Y885200D03*
X3824800D03*
G54D13*
X246780Y1114320D03*
Y1177820D03*
Y1241320D03*
Y1304820D03*
Y1368320D03*
Y1431820D03*
Y1495320D03*
Y1558820D03*
Y1622320D03*
Y1685820D03*
X606780Y1114320D03*
Y1177820D03*
Y1241320D03*
Y1304820D03*
Y1368320D03*
Y1431820D03*
Y1495320D03*
Y1558820D03*
Y1622320D03*
Y1685820D03*
G54D22*
X336730Y2820840D03*
Y2480840D03*
G54D31*
X3926900Y1149900D03*
Y1205900D03*
X4031500Y1108100D03*
Y1164100D03*
G54D14*
X2061730Y1000840D03*
G54D32*
X3772400Y1981800D03*
X3862400D03*
G54D23*
X1859780Y3095400D03*
X1659880D03*
Y2595520D03*
X1459980Y3095400D03*
X1859780Y2595520D03*
X3259820D03*
X3059930Y3095400D03*
Y2595520D03*
X2859770Y3095400D03*
Y2595520D03*
X2659880Y3095400D03*
Y2595520D03*
X2459720Y3095400D03*
Y2595520D03*
X2259830Y3095400D03*
Y2595520D03*
X2059930Y3095400D03*
Y2595520D03*
X3260100Y3097200D03*
X3459600Y2593400D03*
G54D24*
X2990730Y399840D03*
X3970730Y249840D03*
G54D15*
X916730Y995840D03*
X3206730D03*
G54D33*
X4031730Y2440840D03*
Y2860840D03*
G54D34*
X3997800Y1811700D03*
X4092800Y1606700D03*
X3902800D03*
G36*
G01X3588220Y1031330D02*
X3588090Y1031460D01*
G02X3588700Y1030850I31239J30629D01*
G01X3588570Y1030980D01*
X3556760Y999160D01*
X3556960Y998950D01*
G03X3556190Y999720I62386J63156D01*
G01X3556400Y999520D01*
X3588220Y1031330D01*
G37*
G54D16*
X1075500Y1801200D03*
Y1611200D03*
X845500Y1706200D03*
G54D26*
X3744530Y978340D03*
Y1145840D03*
X3826730Y978340D03*
Y1145840D03*
G54D35*
X3841730Y2650840D03*
G54D17*
X1136730Y2340840D03*
X726730Y1920840D03*
Y2340840D03*
G54D18*
X1073700Y1696500D03*
X1129700D03*
X3381600Y477000D03*
X3437600D03*
G54D27*
X3618730Y1060840D03*
G54D36*
X3861730Y2480840D03*
Y2820840D03*
G54D37*
G01X0Y0D02*
X1100000D01*
G02X3100000I1000000J-1542012D01*
G01X4200000D01*
Y3200000D01*
X3935000D01*
Y3100000D01*
X3825000D01*
Y3200000D01*
X375000D01*
Y3100000D01*
X265000D01*
X264990Y3200000D01*
X0D01*
Y0D01*
G01X3192040Y588030D02*
Y233040D01*
G03X3212030Y213050I19990J0D01*
G01X3352030D01*
G03X3372020Y233040I0J19990D01*
G01Y258030D01*
G03X3352030Y278050I-20000J20D01*
G01X3277030D01*
G02X3257040Y298040I3J19993D01*
G01Y588030D01*
G03X3237020Y608050I-20007J13D01*
G01X3212030D01*
G03X3192040Y588030I10J-20000D01*
G01X3638420Y588000D02*
Y232990D01*
G02X3618430Y213000I-19997J7D01*
G01X3478430D01*
G02X3458440Y232990I0J19990D01*
G01Y258010D01*
G02X3478430Y278000I19990J0D01*
G01X3553440D01*
G03X3573430Y298010I-10J20000D01*
G01Y588000D01*
G02X3593440Y607990I19997J-7D01*
G01X3618430D01*
G02X3638420Y588000I-3J-19993D01*
G01X3116730Y1540840D02*
X3526730D01*
Y1600840D01*
X3176730D01*
Y1950840D01*
X3526730D01*
Y2010840D01*
X3116730D01*
Y1540840D01*
G54D19*
X1137200Y1870500D03*
X1176800Y1910100D03*
G54D28*
X3796200Y332200D03*
Y242200D03*
G54D29*
X3926700Y1817500D03*
X3860700D03*
X4027300Y1493000D03*
X3961300D03*
M02*
